G04 #@! TF.GenerationSoftware,KiCad,Pcbnew,(2016-12-18 revision 3ffa37c)-master*
G04 #@! TF.CreationDate,2017-03-25T20:52:01-07:00*
G04 #@! TF.ProjectId,Pensel,50656E73656C2E6B696361645F706362,rev?*
G04 #@! TF.FileFunction,Copper,L2,Bot,Signal*
G04 #@! TF.FilePolarity,Positive*
%FSLAX46Y46*%
G04 Gerber Fmt 4.6, Leading zero omitted, Abs format (unit mm)*
G04 Created by KiCad (PCBNEW (2016-12-18 revision 3ffa37c)-master) date Saturday, March 25, 2017 'PMt' 08:52:01 PM*
%MOMM*%
%LPD*%
G01*
G04 APERTURE LIST*
%ADD10C,0.100000*%
%ADD11R,0.500000X0.600000*%
%ADD12O,2.000000X1.120000*%
%ADD13R,2.000000X2.000000*%
%ADD14R,2.000000X1.600000*%
%ADD15C,0.150000*%
%ADD16R,3.657600X2.032000*%
%ADD17R,1.016000X2.032000*%
%ADD18C,1.350000*%
%ADD19R,1.350000X1.350000*%
%ADD20R,2.750000X1.000000*%
%ADD21C,2.100000*%
%ADD22C,1.750000*%
%ADD23C,1.050000*%
%ADD24R,0.600000X0.400000*%
%ADD25C,0.400000*%
%ADD26C,0.600000*%
%ADD27C,0.130000*%
%ADD28C,0.260000*%
%ADD29C,0.200000*%
%ADD30C,0.254000*%
G04 APERTURE END LIST*
D10*
D11*
X106000000Y-146350000D03*
X106000000Y-147450000D03*
D12*
X108300000Y-148255000D03*
X108300000Y-141745000D03*
D13*
X86800000Y-146400000D03*
D14*
X92800000Y-145225000D03*
X92800000Y-147575000D03*
D15*
X94425000Y-143275000D03*
X83000000Y-140500000D03*
X83000000Y-141100000D03*
X94875000Y-143725000D03*
D16*
X103250000Y-148552000D03*
D17*
X103250000Y-141948000D03*
X105536000Y-141948000D03*
X100964000Y-141948000D03*
D15*
X107150000Y-139700000D03*
X101500000Y-139750000D03*
X100750000Y-139750000D03*
X82400000Y-140500000D03*
X82400000Y-141100000D03*
D18*
X85200000Y-149400000D03*
X83200000Y-149400000D03*
D19*
X81200000Y-149400000D03*
D15*
X81300000Y-143800000D03*
X80500000Y-143000000D03*
X80500000Y-143800000D03*
X92900000Y-142800000D03*
X92600000Y-143250000D03*
X92100000Y-143500000D03*
X106350000Y-139700000D03*
X105650000Y-139700000D03*
D20*
X70825000Y-145500000D03*
X76575000Y-145500000D03*
X76575000Y-141500000D03*
X70825000Y-141500000D03*
D21*
X58940000Y-146960000D03*
D22*
X60200000Y-149450000D03*
X64700000Y-149450000D03*
D21*
X65950000Y-146960000D03*
D11*
X91200000Y-140150000D03*
X91200000Y-141250000D03*
X90000000Y-140150000D03*
X90000000Y-141250000D03*
X100250000Y-145950000D03*
X100250000Y-147050000D03*
X106000000Y-148700000D03*
X106000000Y-149800000D03*
D23*
X86396051Y-140703949D03*
D10*
G36*
X85653589Y-140703949D02*
X86396051Y-139961487D01*
X87138513Y-140703949D01*
X86396051Y-141446411D01*
X85653589Y-140703949D01*
X85653589Y-140703949D01*
G37*
D23*
X85498025Y-141601975D03*
X84600000Y-142500000D03*
X83701974Y-143398026D03*
X82803949Y-144296051D03*
X86396051Y-142500000D03*
X85498025Y-143398026D03*
X84600000Y-144296051D03*
X83701974Y-145194077D03*
X87294077Y-141601975D03*
D19*
X61000000Y-141400000D03*
D18*
X63000000Y-141400000D03*
X65000000Y-141400000D03*
D24*
X68100000Y-142500000D03*
X68100000Y-141600000D03*
X56750000Y-150150000D03*
X56750000Y-149250000D03*
X98350000Y-147400000D03*
X98350000Y-146500000D03*
D25*
X72100000Y-144500000D03*
X53800000Y-146400000D03*
D26*
X99375000Y-145600000D03*
X80571690Y-146128310D03*
X99400000Y-150700000D03*
X104300000Y-150600000D03*
X56700000Y-142100000D03*
X73700000Y-146200000D03*
X76200000Y-146200000D03*
X51600000Y-144499998D03*
X52800000Y-142500000D03*
X104400000Y-143400000D03*
X107500000Y-150500000D03*
X51825000Y-139450000D03*
X98200000Y-148700000D03*
X94600000Y-148100000D03*
X88700000Y-140800000D03*
X51200000Y-147400000D03*
X51500000Y-140800000D03*
X88823191Y-145281447D03*
X67300000Y-143100000D03*
X90668329Y-142388291D03*
X92973601Y-141216817D03*
X58300000Y-149250000D03*
X66800000Y-149000000D03*
X62900000Y-147400000D03*
X62900000Y-149400000D03*
X62200000Y-149400000D03*
X62200000Y-147400000D03*
X62200000Y-145200000D03*
X89394127Y-149706852D03*
X101750000Y-148000002D03*
D25*
X78400000Y-146800000D03*
X79082973Y-146827110D03*
D26*
X104700000Y-146400000D03*
D25*
X79800000Y-146775000D03*
X79200000Y-141800000D03*
X93379990Y-140600000D03*
X97200002Y-150200000D03*
X92000000Y-139200000D03*
X94222089Y-140043499D03*
X96800000Y-147300000D03*
X100700000Y-150000000D03*
X97425002Y-146950000D03*
X91400000Y-139300008D03*
X92022818Y-140544554D03*
X56200000Y-144295010D03*
X52297642Y-143271318D03*
X88200000Y-145700000D03*
X93200000Y-150795010D03*
X91849996Y-150375000D03*
X51100000Y-140200000D03*
X96725000Y-142875000D03*
X101000000Y-146500000D03*
D27*
X56579614Y-144500000D02*
X72100000Y-144500000D01*
X54679614Y-146400000D02*
X56579614Y-144500000D01*
X53800000Y-146400000D02*
X54679614Y-146400000D01*
D28*
X100250000Y-145950000D02*
X99725000Y-145950000D01*
X99725000Y-145950000D02*
X99375000Y-145600000D01*
X81200000Y-145500000D02*
X80571690Y-146128310D01*
X81300000Y-145500000D02*
X81200000Y-145500000D01*
X104300000Y-150600000D02*
X99500000Y-150600000D01*
X99500000Y-150600000D02*
X99400000Y-150700000D01*
X73700000Y-146200000D02*
X73000000Y-145500000D01*
X73000000Y-145500000D02*
X70825000Y-145500000D01*
X76200000Y-146200000D02*
X76200000Y-145875000D01*
X76200000Y-145875000D02*
X76575000Y-145500000D01*
X104100001Y-143699999D02*
X104400000Y-143400000D01*
X106500000Y-147300000D02*
X105990000Y-147300000D01*
X105690001Y-147000001D02*
X104411999Y-147000001D01*
X105990000Y-147300000D02*
X105690001Y-147000001D01*
X104411999Y-147000001D02*
X104099999Y-146688001D01*
X104099999Y-146688001D02*
X104099999Y-143700001D01*
X104099999Y-143700001D02*
X104400000Y-143400000D01*
X103250000Y-141948000D02*
X103250000Y-141440000D01*
X106000000Y-149750000D02*
X106000000Y-149800000D01*
X100250000Y-147050000D02*
X102700002Y-147050000D01*
X102700002Y-147050000D02*
X102049999Y-147700003D01*
X102049999Y-147700003D02*
X101750000Y-148000002D01*
X51825000Y-139874264D02*
X51825000Y-139450000D01*
X51825000Y-140475000D02*
X51825000Y-139874264D01*
X51500000Y-140800000D02*
X51825000Y-140475000D01*
X89000000Y-147000000D02*
X89100000Y-147100000D01*
X89000000Y-146900000D02*
X89000000Y-147000000D01*
X91200000Y-141250000D02*
X90685000Y-141250000D01*
X90685000Y-141250000D02*
X90651817Y-141216817D01*
X90000000Y-141250000D02*
X91200000Y-141250000D01*
X89116817Y-141216817D02*
X88700000Y-140800000D01*
X90651817Y-141216817D02*
X89116817Y-141216817D01*
X50900001Y-147100001D02*
X51200000Y-147400000D01*
X50900001Y-141399999D02*
X50900001Y-147100001D01*
X51500000Y-140800000D02*
X50900001Y-141399999D01*
X88823191Y-146723191D02*
X88823191Y-145281447D01*
X89000000Y-146900000D02*
X88823191Y-146723191D01*
X68100000Y-142500000D02*
X67900000Y-142500000D01*
X67900000Y-142500000D02*
X67300000Y-143100000D01*
X90668329Y-141233329D02*
X90668329Y-142388291D01*
X90651817Y-141216817D02*
X90668329Y-141233329D01*
X90651817Y-141216817D02*
X92973601Y-141216817D01*
X57310000Y-149250000D02*
X56750000Y-149250000D01*
X58648002Y-149250000D02*
X58300000Y-149250000D01*
X58300000Y-149250000D02*
X56750000Y-149250000D01*
X62200000Y-147400000D02*
X60498002Y-147400000D01*
X60498002Y-147400000D02*
X58648002Y-149250000D01*
X62200000Y-149400000D02*
X62900000Y-149400000D01*
X62250000Y-147000000D02*
X62250000Y-147350000D01*
X62250000Y-147350000D02*
X62200000Y-147400000D01*
X62200000Y-146950000D02*
X62200000Y-145200000D01*
X62250000Y-147000000D02*
X62200000Y-146950000D01*
X106000000Y-149800000D02*
X104498000Y-149800000D01*
X104498000Y-149800000D02*
X103250000Y-148552000D01*
D27*
X68100000Y-141600000D02*
X70725000Y-141600000D01*
X70725000Y-141600000D02*
X70825000Y-141500000D01*
X78400000Y-146800000D02*
X75576998Y-146800000D01*
X75576998Y-146800000D02*
X74800000Y-146023002D01*
X74800000Y-146023002D02*
X74800000Y-141770000D01*
X74800000Y-141770000D02*
X75070000Y-141500000D01*
X75070000Y-141500000D02*
X76575000Y-141500000D01*
X60200000Y-149450000D02*
X61310001Y-148339999D01*
X61310001Y-148339999D02*
X66412603Y-148339999D01*
X66412603Y-148339999D02*
X67852602Y-146900000D01*
X67852602Y-146900000D02*
X74800000Y-146900000D01*
X74800000Y-146900000D02*
X75095001Y-147195001D01*
X75095001Y-147195001D02*
X78715082Y-147195001D01*
X78715082Y-147195001D02*
X79082973Y-146827110D01*
X56750000Y-150150000D02*
X59500000Y-150150000D01*
X59500000Y-150150000D02*
X60200000Y-149450000D01*
D28*
X106000000Y-146350000D02*
X105050000Y-146350000D01*
X105050000Y-146350000D02*
X104900000Y-146200000D01*
X106375000Y-146075000D02*
X106275000Y-146075000D01*
X106275000Y-146075000D02*
X106000000Y-146350000D01*
X104700000Y-146400000D02*
X104900000Y-146200000D01*
X106375000Y-146075000D02*
X106375000Y-142019000D01*
X106375000Y-142019000D02*
X106304000Y-141948000D01*
X106304000Y-141948000D02*
X105536000Y-141948000D01*
D27*
X79999999Y-146575001D02*
X79800000Y-146775000D01*
X79200000Y-141800000D02*
X79999999Y-142599999D01*
X79999999Y-142599999D02*
X79999999Y-146575001D01*
X93514989Y-140734999D02*
X93379990Y-140600000D01*
X93988001Y-144189999D02*
X93514989Y-144189999D01*
X93514989Y-144189999D02*
X93514989Y-140734999D01*
X94035001Y-144236999D02*
X93988001Y-144189999D01*
X95122000Y-147300000D02*
X94035001Y-146213001D01*
X96800000Y-147300000D02*
X95122000Y-147300000D01*
X94035001Y-146213001D02*
X94035001Y-144236999D01*
X100700000Y-150000000D02*
X97400001Y-150000001D01*
X97400001Y-150000001D02*
X97200002Y-150200000D01*
X93378590Y-139200000D02*
X92000000Y-139200000D01*
X94222089Y-140043499D02*
X93378590Y-139200000D01*
X92022818Y-140544554D02*
X92367371Y-140200001D01*
X94095701Y-143929988D02*
X94295012Y-144129299D01*
X92367371Y-140200001D02*
X93684605Y-140200001D01*
X95132292Y-146900000D02*
X97092160Y-146900000D01*
X93684605Y-140200001D02*
X93775000Y-140290396D01*
X93775000Y-140290396D02*
X93775000Y-143929988D01*
X97092160Y-146900000D02*
X97142160Y-146950000D01*
X93775000Y-143929988D02*
X94095701Y-143929988D01*
X94295012Y-144129299D02*
X94295012Y-146062720D01*
X94295012Y-146062720D02*
X95132292Y-146900000D01*
X97142160Y-146950000D02*
X97425002Y-146950000D01*
X92022818Y-139922826D02*
X91400000Y-139300008D01*
X92022818Y-140544554D02*
X92022818Y-139922826D01*
X55176308Y-143271318D02*
X56200000Y-144295010D01*
X52297642Y-143271318D02*
X55176308Y-143271318D01*
X88200000Y-146130000D02*
X88200000Y-145700000D01*
X87930000Y-146400000D02*
X88200000Y-146130000D01*
X86800000Y-146400000D02*
X87930000Y-146400000D01*
X93000001Y-150995009D02*
X93200000Y-150795010D01*
X84795009Y-150995009D02*
X93000001Y-150995009D01*
X83200000Y-149400000D02*
X84795009Y-150995009D01*
X84200000Y-149800000D02*
X84775000Y-150375000D01*
X84775000Y-150375000D02*
X91567154Y-150375000D01*
X83617601Y-148529999D02*
X84200000Y-149112398D01*
X80368999Y-148529999D02*
X83617601Y-148529999D01*
X50464999Y-149964999D02*
X51300000Y-150800000D01*
X50464999Y-140835001D02*
X50464999Y-149964999D01*
X51300000Y-150800000D02*
X78098998Y-150800000D01*
X78098998Y-150800000D02*
X80368999Y-148529999D01*
X84200000Y-149112398D02*
X84200000Y-149800000D01*
X91567154Y-150375000D02*
X91849996Y-150375000D01*
X51100000Y-140200000D02*
X50464999Y-140835001D01*
X96725000Y-142875000D02*
X94700000Y-144900000D01*
X94700000Y-144900000D02*
X94700000Y-146100000D01*
X94700000Y-146100000D02*
X95100000Y-146500000D01*
X95100000Y-146500000D02*
X98350000Y-146500000D01*
X101000000Y-146500000D02*
X98350000Y-146500000D01*
D29*
G36*
X107075267Y-142500190D02*
X107421751Y-142731703D01*
X107830457Y-142813000D01*
X108769543Y-142813000D01*
X109178249Y-142731703D01*
X109392000Y-142588879D01*
X109392000Y-147411121D01*
X109178249Y-147268297D01*
X108769543Y-147187000D01*
X107830457Y-147187000D01*
X107421751Y-147268297D01*
X107075267Y-147499810D01*
X106843754Y-147846294D01*
X106762457Y-148255000D01*
X106843754Y-148663706D01*
X107075267Y-149010190D01*
X107421751Y-149241703D01*
X107830457Y-149323000D01*
X108769543Y-149323000D01*
X109178249Y-149241703D01*
X109392000Y-149098879D01*
X109392000Y-150892000D01*
X105764497Y-150892000D01*
X105767412Y-150617952D01*
X106250000Y-150617952D01*
X106448212Y-150578525D01*
X106616247Y-150466247D01*
X106728525Y-150298212D01*
X106767952Y-150100000D01*
X106767952Y-149500000D01*
X106728525Y-149301788D01*
X106628573Y-149152200D01*
X106658000Y-149081156D01*
X106658000Y-148856000D01*
X106556000Y-148754000D01*
X106054000Y-148754000D01*
X106054000Y-148774000D01*
X105946000Y-148774000D01*
X105946000Y-148754000D01*
X105926000Y-148754000D01*
X105926000Y-148646000D01*
X105946000Y-148646000D01*
X105946000Y-148094000D01*
X105927000Y-148075000D01*
X105946000Y-148056000D01*
X105946000Y-147504000D01*
X106054000Y-147504000D01*
X106054000Y-148056000D01*
X106073000Y-148075000D01*
X106054000Y-148094000D01*
X106054000Y-148646000D01*
X106556000Y-148646000D01*
X106658000Y-148544000D01*
X106658000Y-148318844D01*
X106595886Y-148168887D01*
X106502000Y-148075000D01*
X106595886Y-147981113D01*
X106658000Y-147831156D01*
X106658000Y-147606000D01*
X106556000Y-147504000D01*
X106054000Y-147504000D01*
X105946000Y-147504000D01*
X105926000Y-147504000D01*
X105926000Y-147396000D01*
X105946000Y-147396000D01*
X105946000Y-147376000D01*
X106054000Y-147376000D01*
X106054000Y-147396000D01*
X106556000Y-147396000D01*
X106658000Y-147294000D01*
X106658000Y-147068844D01*
X106628573Y-146997800D01*
X106728525Y-146848212D01*
X106767952Y-146650000D01*
X106767952Y-146565010D01*
X106826134Y-146526134D01*
X106964435Y-146319152D01*
X107013000Y-146075000D01*
X107013000Y-142407001D01*
X107075267Y-142500190D01*
X107075267Y-142500190D01*
G37*
X107075267Y-142500190D02*
X107421751Y-142731703D01*
X107830457Y-142813000D01*
X108769543Y-142813000D01*
X109178249Y-142731703D01*
X109392000Y-142588879D01*
X109392000Y-147411121D01*
X109178249Y-147268297D01*
X108769543Y-147187000D01*
X107830457Y-147187000D01*
X107421751Y-147268297D01*
X107075267Y-147499810D01*
X106843754Y-147846294D01*
X106762457Y-148255000D01*
X106843754Y-148663706D01*
X107075267Y-149010190D01*
X107421751Y-149241703D01*
X107830457Y-149323000D01*
X108769543Y-149323000D01*
X109178249Y-149241703D01*
X109392000Y-149098879D01*
X109392000Y-150892000D01*
X105764497Y-150892000D01*
X105767412Y-150617952D01*
X106250000Y-150617952D01*
X106448212Y-150578525D01*
X106616247Y-150466247D01*
X106728525Y-150298212D01*
X106767952Y-150100000D01*
X106767952Y-149500000D01*
X106728525Y-149301788D01*
X106628573Y-149152200D01*
X106658000Y-149081156D01*
X106658000Y-148856000D01*
X106556000Y-148754000D01*
X106054000Y-148754000D01*
X106054000Y-148774000D01*
X105946000Y-148774000D01*
X105946000Y-148754000D01*
X105926000Y-148754000D01*
X105926000Y-148646000D01*
X105946000Y-148646000D01*
X105946000Y-148094000D01*
X105927000Y-148075000D01*
X105946000Y-148056000D01*
X105946000Y-147504000D01*
X106054000Y-147504000D01*
X106054000Y-148056000D01*
X106073000Y-148075000D01*
X106054000Y-148094000D01*
X106054000Y-148646000D01*
X106556000Y-148646000D01*
X106658000Y-148544000D01*
X106658000Y-148318844D01*
X106595886Y-148168887D01*
X106502000Y-148075000D01*
X106595886Y-147981113D01*
X106658000Y-147831156D01*
X106658000Y-147606000D01*
X106556000Y-147504000D01*
X106054000Y-147504000D01*
X105946000Y-147504000D01*
X105926000Y-147504000D01*
X105926000Y-147396000D01*
X105946000Y-147396000D01*
X105946000Y-147376000D01*
X106054000Y-147376000D01*
X106054000Y-147396000D01*
X106556000Y-147396000D01*
X106658000Y-147294000D01*
X106658000Y-147068844D01*
X106628573Y-146997800D01*
X106728525Y-146848212D01*
X106767952Y-146650000D01*
X106767952Y-146565010D01*
X106826134Y-146526134D01*
X106964435Y-146319152D01*
X107013000Y-146075000D01*
X107013000Y-142407001D01*
X107075267Y-142500190D01*
G36*
X90692123Y-139158560D02*
X90691877Y-139440220D01*
X90718455Y-139504545D01*
X90604114Y-139618887D01*
X90600000Y-139628819D01*
X90595886Y-139618887D01*
X90481114Y-139504114D01*
X90331156Y-139442000D01*
X90156000Y-139442000D01*
X90054000Y-139544000D01*
X90054000Y-140096000D01*
X90556000Y-140096000D01*
X90600000Y-140052000D01*
X90644000Y-140096000D01*
X91146000Y-140096000D01*
X91146000Y-140076000D01*
X91254000Y-140076000D01*
X91254000Y-140096000D01*
X91274000Y-140096000D01*
X91274000Y-140204000D01*
X91254000Y-140204000D01*
X91254000Y-140224000D01*
X91146000Y-140224000D01*
X91146000Y-140204000D01*
X90644000Y-140204000D01*
X90600000Y-140248000D01*
X90556000Y-140204000D01*
X90054000Y-140204000D01*
X90054000Y-140224000D01*
X89946000Y-140224000D01*
X89946000Y-140204000D01*
X89444000Y-140204000D01*
X89345278Y-140302722D01*
X89158293Y-140115410D01*
X88861426Y-139992140D01*
X88539984Y-139991860D01*
X88242903Y-140114611D01*
X88015410Y-140341707D01*
X87892140Y-140638574D01*
X87892053Y-140738836D01*
X87879989Y-140726751D01*
X87641284Y-140627632D01*
X87617038Y-140505737D01*
X87504760Y-140337702D01*
X86935902Y-139768844D01*
X89342000Y-139768844D01*
X89342000Y-139994000D01*
X89444000Y-140096000D01*
X89946000Y-140096000D01*
X89946000Y-139544000D01*
X89844000Y-139442000D01*
X89668844Y-139442000D01*
X89518886Y-139504114D01*
X89404114Y-139618887D01*
X89342000Y-139768844D01*
X86935902Y-139768844D01*
X86762298Y-139595240D01*
X86594263Y-139482962D01*
X86396051Y-139443535D01*
X86197839Y-139482962D01*
X86029804Y-139595240D01*
X85287342Y-140337702D01*
X85175064Y-140505737D01*
X85135637Y-140703949D01*
X85142633Y-140739120D01*
X84955742Y-140820399D01*
X84697925Y-141087416D01*
X84568420Y-141400067D01*
X84650464Y-141547975D01*
X85444025Y-141547975D01*
X85444025Y-141226879D01*
X85552025Y-141334879D01*
X85552025Y-141471605D01*
X85512166Y-141511464D01*
X85588536Y-141587834D01*
X85628395Y-141547975D01*
X85765121Y-141547975D01*
X85832353Y-141615207D01*
X85811668Y-141623754D01*
X85779391Y-141655975D01*
X85628395Y-141655975D01*
X85588536Y-141616116D01*
X85512166Y-141692486D01*
X85552025Y-141732345D01*
X85552025Y-141882944D01*
X85520827Y-141914088D01*
X85444025Y-142099047D01*
X85444025Y-141732345D01*
X85483884Y-141692486D01*
X85407514Y-141616116D01*
X85367655Y-141655975D01*
X85008515Y-141655975D01*
X84801908Y-141570395D01*
X84654000Y-141652439D01*
X84654000Y-141655975D01*
X84650464Y-141655975D01*
X84568420Y-141803883D01*
X84654000Y-142000664D01*
X84654000Y-142369630D01*
X84614141Y-142409489D01*
X84690511Y-142485859D01*
X84730370Y-142446000D01*
X85089510Y-142446000D01*
X85093272Y-142447559D01*
X84913642Y-142521780D01*
X84881366Y-142554000D01*
X84730370Y-142554000D01*
X84690511Y-142514141D01*
X84614141Y-142590511D01*
X84654000Y-142630370D01*
X84654000Y-142780969D01*
X84622801Y-142812114D01*
X84600139Y-142866691D01*
X84578220Y-142813643D01*
X84546000Y-142781367D01*
X84546000Y-142630370D01*
X84585859Y-142590511D01*
X84509489Y-142514141D01*
X84469630Y-142554000D01*
X84319030Y-142554000D01*
X84287886Y-142522802D01*
X84102927Y-142446000D01*
X84546000Y-142446000D01*
X84546000Y-141652439D01*
X84398092Y-141570395D01*
X84057717Y-141718424D01*
X83799900Y-141985441D01*
X83670395Y-142298092D01*
X83707525Y-142365030D01*
X83497399Y-142364847D01*
X83117591Y-142521780D01*
X82826750Y-142812114D01*
X82669153Y-143191648D01*
X82668968Y-143403570D01*
X82602041Y-143366446D01*
X82261666Y-143514475D01*
X82003849Y-143781492D01*
X81874344Y-144094143D01*
X81956388Y-144242051D01*
X82749949Y-144242051D01*
X82749949Y-143799009D01*
X82825728Y-143982409D01*
X82857949Y-144014686D01*
X82857949Y-144165681D01*
X82818090Y-144205540D01*
X82894460Y-144281910D01*
X82934319Y-144242051D01*
X83084917Y-144242051D01*
X83116062Y-144273250D01*
X83170639Y-144295912D01*
X83117591Y-144317831D01*
X83085315Y-144350051D01*
X82934319Y-144350051D01*
X82894460Y-144310192D01*
X82818090Y-144386562D01*
X82857949Y-144426421D01*
X82857949Y-144577020D01*
X82826750Y-144608165D01*
X82749949Y-144793122D01*
X82749949Y-144350051D01*
X81956388Y-144350051D01*
X81874344Y-144497959D01*
X82022373Y-144838334D01*
X82289390Y-145096151D01*
X82602041Y-145225656D01*
X82668978Y-145188526D01*
X82668795Y-145398652D01*
X82825728Y-145778460D01*
X83116062Y-146069301D01*
X83495596Y-146226898D01*
X83906549Y-146227256D01*
X84286357Y-146070323D01*
X84577198Y-145779989D01*
X84734795Y-145400455D01*
X84734857Y-145329169D01*
X84804575Y-145329230D01*
X85184383Y-145172297D01*
X85475224Y-144881963D01*
X85632821Y-144502429D01*
X85632883Y-144431144D01*
X85702600Y-144431205D01*
X85914030Y-144343844D01*
X91392000Y-144343844D01*
X91392000Y-145069000D01*
X91494000Y-145171000D01*
X92746000Y-145171000D01*
X92746000Y-144119000D01*
X92644000Y-144017000D01*
X91718844Y-144017000D01*
X91568886Y-144079114D01*
X91454114Y-144193887D01*
X91392000Y-144343844D01*
X85914030Y-144343844D01*
X86082408Y-144274272D01*
X86373249Y-143983938D01*
X86530846Y-143604404D01*
X86530908Y-143533118D01*
X86600626Y-143533179D01*
X86980434Y-143376246D01*
X87271275Y-143085912D01*
X87428872Y-142706378D01*
X87428934Y-142635093D01*
X87498652Y-142635154D01*
X87878460Y-142478221D01*
X88169301Y-142187887D01*
X88326898Y-141808353D01*
X88327149Y-141520069D01*
X88538574Y-141607860D01*
X88605650Y-141607918D01*
X88665683Y-141667951D01*
X88872665Y-141806252D01*
X89116817Y-141854817D01*
X89342707Y-141854817D01*
X89383753Y-141916247D01*
X89551788Y-142028525D01*
X89750000Y-142067952D01*
X89926455Y-142067952D01*
X89860469Y-142226865D01*
X89860189Y-142548307D01*
X89982940Y-142845388D01*
X90210036Y-143072881D01*
X90506903Y-143196151D01*
X90828345Y-143196431D01*
X91125426Y-143073680D01*
X91352919Y-142846584D01*
X91476189Y-142549717D01*
X91476469Y-142228275D01*
X91410225Y-142067952D01*
X91450000Y-142067952D01*
X91648212Y-142028525D01*
X91816247Y-141916247D01*
X91857293Y-141854817D01*
X92468799Y-141854817D01*
X92515308Y-141901407D01*
X92812175Y-142024677D01*
X92941989Y-142024790D01*
X92941989Y-144031011D01*
X92854000Y-144119000D01*
X92854000Y-145171000D01*
X92874000Y-145171000D01*
X92874000Y-145279000D01*
X92854000Y-145279000D01*
X92854000Y-145299000D01*
X92746000Y-145299000D01*
X92746000Y-145279000D01*
X91494000Y-145279000D01*
X91392000Y-145381000D01*
X91392000Y-146106156D01*
X91454114Y-146256113D01*
X91490001Y-146292000D01*
X89461191Y-146292000D01*
X89461191Y-145786249D01*
X89507781Y-145739740D01*
X89631051Y-145442873D01*
X89631331Y-145121431D01*
X89508580Y-144824350D01*
X89281484Y-144596857D01*
X88984617Y-144473587D01*
X88663175Y-144473307D01*
X88366094Y-144596058D01*
X88138601Y-144823154D01*
X88076150Y-144973552D01*
X87998212Y-144921475D01*
X87800000Y-144882048D01*
X85800000Y-144882048D01*
X85601788Y-144921475D01*
X85433753Y-145033753D01*
X85321475Y-145201788D01*
X85282048Y-145400000D01*
X85282048Y-146292000D01*
X80572999Y-146292000D01*
X80572999Y-142599999D01*
X80529382Y-142380721D01*
X80405171Y-142194827D01*
X79908090Y-141697746D01*
X79908123Y-141659788D01*
X79800564Y-141399474D01*
X79601574Y-141200136D01*
X79341448Y-141092123D01*
X79059788Y-141091877D01*
X78799474Y-141199436D01*
X78600136Y-141398426D01*
X78492123Y-141658552D01*
X78491877Y-141940212D01*
X78599436Y-142200526D01*
X78798426Y-142399864D01*
X79058552Y-142507877D01*
X79097567Y-142507911D01*
X79331771Y-142742115D01*
X79010278Y-142741834D01*
X78658046Y-142887374D01*
X78388321Y-143156628D01*
X78242167Y-143508606D01*
X78241834Y-143889722D01*
X78387374Y-144241954D01*
X78656628Y-144511679D01*
X79008606Y-144657833D01*
X79389722Y-144658166D01*
X79426999Y-144642763D01*
X79426999Y-146163063D01*
X79399474Y-146174436D01*
X79387104Y-146186784D01*
X79224421Y-146119233D01*
X78942761Y-146118987D01*
X78774037Y-146188702D01*
X78541448Y-146092123D01*
X78353525Y-146091959D01*
X78358000Y-146081156D01*
X78358000Y-145656000D01*
X78256000Y-145554000D01*
X76629000Y-145554000D01*
X76629000Y-145574000D01*
X76521000Y-145574000D01*
X76521000Y-145554000D01*
X76501000Y-145554000D01*
X76501000Y-145446000D01*
X76521000Y-145446000D01*
X76521000Y-144694000D01*
X76629000Y-144694000D01*
X76629000Y-145446000D01*
X78256000Y-145446000D01*
X78358000Y-145344000D01*
X78358000Y-144918844D01*
X78295886Y-144768886D01*
X78181113Y-144654114D01*
X78031156Y-144592000D01*
X76731000Y-144592000D01*
X76629000Y-144694000D01*
X76521000Y-144694000D01*
X76419000Y-144592000D01*
X75373000Y-144592000D01*
X75373000Y-142517952D01*
X77950000Y-142517952D01*
X78148212Y-142478525D01*
X78316247Y-142366247D01*
X78428525Y-142198212D01*
X78467952Y-142000000D01*
X78467952Y-141000000D01*
X78428525Y-140801788D01*
X78316247Y-140633753D01*
X78148212Y-140521475D01*
X77950000Y-140482048D01*
X75200000Y-140482048D01*
X75001788Y-140521475D01*
X74833753Y-140633753D01*
X74721475Y-140801788D01*
X74682048Y-141000000D01*
X74682048Y-141083322D01*
X74664828Y-141094828D01*
X74394828Y-141364828D01*
X74270617Y-141550722D01*
X74227000Y-141770000D01*
X74227000Y-146023002D01*
X74270617Y-146242280D01*
X74303839Y-146292000D01*
X72484999Y-146292000D01*
X72545886Y-146231114D01*
X72608000Y-146081156D01*
X72608000Y-145656000D01*
X72506000Y-145554000D01*
X70879000Y-145554000D01*
X70879000Y-145574000D01*
X70771000Y-145574000D01*
X70771000Y-145554000D01*
X69144000Y-145554000D01*
X69042000Y-145656000D01*
X69042000Y-146081156D01*
X69104114Y-146231114D01*
X69165001Y-146292000D01*
X67359746Y-146292000D01*
X67271578Y-146078617D01*
X66833688Y-145639962D01*
X66261265Y-145402271D01*
X65641454Y-145401730D01*
X65068617Y-145638422D01*
X64629962Y-146076312D01*
X64540400Y-146292000D01*
X62838000Y-146292000D01*
X62838000Y-145704802D01*
X62884590Y-145658293D01*
X63007860Y-145361426D01*
X63008111Y-145073000D01*
X69042000Y-145073000D01*
X69042000Y-145344000D01*
X69144000Y-145446000D01*
X70771000Y-145446000D01*
X70771000Y-145426000D01*
X70879000Y-145426000D01*
X70879000Y-145446000D01*
X72506000Y-145446000D01*
X72608000Y-145344000D01*
X72608000Y-144993278D01*
X72699864Y-144901574D01*
X72807877Y-144641448D01*
X72808123Y-144359788D01*
X72700564Y-144099474D01*
X72501574Y-143900136D01*
X72241448Y-143792123D01*
X72157920Y-143792050D01*
X72158166Y-143510278D01*
X72012626Y-143158046D01*
X71743372Y-142888321D01*
X71391394Y-142742167D01*
X71010278Y-142741834D01*
X70658046Y-142887374D01*
X70388321Y-143156628D01*
X70242167Y-143508606D01*
X70241834Y-143889722D01*
X70257237Y-143927000D01*
X56813999Y-143927000D01*
X56800564Y-143894484D01*
X56601574Y-143695146D01*
X56341448Y-143587133D01*
X56302433Y-143587099D01*
X55975350Y-143260016D01*
X66491860Y-143260016D01*
X66614611Y-143557097D01*
X66841707Y-143784590D01*
X67138574Y-143907860D01*
X67460016Y-143908140D01*
X67757097Y-143785389D01*
X67984590Y-143558293D01*
X68107860Y-143261426D01*
X68107898Y-143217952D01*
X68400000Y-143217952D01*
X68598212Y-143178525D01*
X68766247Y-143066247D01*
X68878525Y-142898212D01*
X68917952Y-142700000D01*
X68917952Y-142300000D01*
X68892690Y-142173000D01*
X68966460Y-142173000D01*
X68971475Y-142198212D01*
X69083753Y-142366247D01*
X69251788Y-142478525D01*
X69450000Y-142517952D01*
X72200000Y-142517952D01*
X72398212Y-142478525D01*
X72566247Y-142366247D01*
X72678525Y-142198212D01*
X72717952Y-142000000D01*
X72717952Y-141000000D01*
X72678525Y-140801788D01*
X72566247Y-140633753D01*
X72398212Y-140521475D01*
X72200000Y-140482048D01*
X69450000Y-140482048D01*
X69251788Y-140521475D01*
X69083753Y-140633753D01*
X68971475Y-140801788D01*
X68932048Y-141000000D01*
X68932048Y-141027000D01*
X68756140Y-141027000D01*
X68598212Y-140921475D01*
X68400000Y-140882048D01*
X67800000Y-140882048D01*
X67601788Y-140921475D01*
X67433753Y-141033753D01*
X67321475Y-141201788D01*
X67282048Y-141400000D01*
X67282048Y-141800000D01*
X67321475Y-141998212D01*
X67356079Y-142050000D01*
X67321475Y-142101788D01*
X67302984Y-142194748D01*
X67205815Y-142291917D01*
X67139984Y-142291860D01*
X66842903Y-142414611D01*
X66615410Y-142641707D01*
X66492140Y-142938574D01*
X66491860Y-143260016D01*
X55975350Y-143260016D01*
X55581480Y-142866146D01*
X55566068Y-142855848D01*
X55395586Y-142741935D01*
X55176308Y-142698318D01*
X52726033Y-142698318D01*
X52699216Y-142671454D01*
X52439090Y-142563441D01*
X52157430Y-142563195D01*
X51897116Y-142670754D01*
X51697778Y-142869744D01*
X51589765Y-143129870D01*
X51589519Y-143411530D01*
X51697078Y-143671844D01*
X51896068Y-143871182D01*
X52156194Y-143979195D01*
X52437854Y-143979441D01*
X52698168Y-143871882D01*
X52725780Y-143844318D01*
X54938964Y-143844318D01*
X55491910Y-144397264D01*
X55491877Y-144435222D01*
X55591921Y-144677349D01*
X54442270Y-145827000D01*
X54228391Y-145827000D01*
X54201574Y-145800136D01*
X53941448Y-145692123D01*
X53659788Y-145691877D01*
X53399474Y-145799436D01*
X53200136Y-145998426D01*
X53092123Y-146258552D01*
X53092094Y-146292000D01*
X51538001Y-146292000D01*
X51538001Y-141664267D01*
X51594185Y-141608083D01*
X51660016Y-141608140D01*
X51957097Y-141485389D01*
X52184590Y-141258293D01*
X52307860Y-140961426D01*
X52307932Y-140878545D01*
X52410527Y-140725000D01*
X59807048Y-140725000D01*
X59807048Y-142075000D01*
X59846475Y-142273212D01*
X59958753Y-142441247D01*
X60126788Y-142553525D01*
X60325000Y-142592952D01*
X61675000Y-142592952D01*
X61873212Y-142553525D01*
X62041247Y-142441247D01*
X62153525Y-142273212D01*
X62161269Y-142234280D01*
X62329010Y-142402314D01*
X62763654Y-142582794D01*
X63234281Y-142583205D01*
X63669240Y-142403483D01*
X63927344Y-142145829D01*
X64330539Y-142145829D01*
X64395421Y-142324002D01*
X64795042Y-142485028D01*
X65225866Y-142480870D01*
X65604579Y-142324002D01*
X65669461Y-142145829D01*
X65000000Y-141476368D01*
X64330539Y-142145829D01*
X63927344Y-142145829D01*
X64002314Y-142070990D01*
X64052973Y-141948991D01*
X64075998Y-142004579D01*
X64254171Y-142069461D01*
X64923632Y-141400000D01*
X65076368Y-141400000D01*
X65745829Y-142069461D01*
X65924002Y-142004579D01*
X66085028Y-141604958D01*
X66080870Y-141174134D01*
X65924002Y-140795421D01*
X65745829Y-140730539D01*
X65076368Y-141400000D01*
X64923632Y-141400000D01*
X64254171Y-140730539D01*
X64075998Y-140795421D01*
X64053387Y-140851536D01*
X64003483Y-140730760D01*
X63927028Y-140654171D01*
X64330539Y-140654171D01*
X65000000Y-141323632D01*
X65669461Y-140654171D01*
X65604579Y-140475998D01*
X65204958Y-140314972D01*
X64774134Y-140319130D01*
X64395421Y-140475998D01*
X64330539Y-140654171D01*
X63927028Y-140654171D01*
X63670990Y-140397686D01*
X63236346Y-140217206D01*
X62765719Y-140216795D01*
X62330760Y-140396517D01*
X62161268Y-140565714D01*
X62153525Y-140526788D01*
X62041247Y-140358753D01*
X61873212Y-140246475D01*
X61675000Y-140207048D01*
X60325000Y-140207048D01*
X60126788Y-140246475D01*
X59958753Y-140358753D01*
X59846475Y-140526788D01*
X59807048Y-140725000D01*
X52410527Y-140725000D01*
X52414435Y-140719152D01*
X52463000Y-140475000D01*
X52463000Y-139954802D01*
X52509590Y-139908293D01*
X52632860Y-139611426D01*
X52633140Y-139289984D01*
X52557946Y-139108000D01*
X90713117Y-139108000D01*
X90692123Y-139158560D01*
X90692123Y-139158560D01*
G37*
X90692123Y-139158560D02*
X90691877Y-139440220D01*
X90718455Y-139504545D01*
X90604114Y-139618887D01*
X90600000Y-139628819D01*
X90595886Y-139618887D01*
X90481114Y-139504114D01*
X90331156Y-139442000D01*
X90156000Y-139442000D01*
X90054000Y-139544000D01*
X90054000Y-140096000D01*
X90556000Y-140096000D01*
X90600000Y-140052000D01*
X90644000Y-140096000D01*
X91146000Y-140096000D01*
X91146000Y-140076000D01*
X91254000Y-140076000D01*
X91254000Y-140096000D01*
X91274000Y-140096000D01*
X91274000Y-140204000D01*
X91254000Y-140204000D01*
X91254000Y-140224000D01*
X91146000Y-140224000D01*
X91146000Y-140204000D01*
X90644000Y-140204000D01*
X90600000Y-140248000D01*
X90556000Y-140204000D01*
X90054000Y-140204000D01*
X90054000Y-140224000D01*
X89946000Y-140224000D01*
X89946000Y-140204000D01*
X89444000Y-140204000D01*
X89345278Y-140302722D01*
X89158293Y-140115410D01*
X88861426Y-139992140D01*
X88539984Y-139991860D01*
X88242903Y-140114611D01*
X88015410Y-140341707D01*
X87892140Y-140638574D01*
X87892053Y-140738836D01*
X87879989Y-140726751D01*
X87641284Y-140627632D01*
X87617038Y-140505737D01*
X87504760Y-140337702D01*
X86935902Y-139768844D01*
X89342000Y-139768844D01*
X89342000Y-139994000D01*
X89444000Y-140096000D01*
X89946000Y-140096000D01*
X89946000Y-139544000D01*
X89844000Y-139442000D01*
X89668844Y-139442000D01*
X89518886Y-139504114D01*
X89404114Y-139618887D01*
X89342000Y-139768844D01*
X86935902Y-139768844D01*
X86762298Y-139595240D01*
X86594263Y-139482962D01*
X86396051Y-139443535D01*
X86197839Y-139482962D01*
X86029804Y-139595240D01*
X85287342Y-140337702D01*
X85175064Y-140505737D01*
X85135637Y-140703949D01*
X85142633Y-140739120D01*
X84955742Y-140820399D01*
X84697925Y-141087416D01*
X84568420Y-141400067D01*
X84650464Y-141547975D01*
X85444025Y-141547975D01*
X85444025Y-141226879D01*
X85552025Y-141334879D01*
X85552025Y-141471605D01*
X85512166Y-141511464D01*
X85588536Y-141587834D01*
X85628395Y-141547975D01*
X85765121Y-141547975D01*
X85832353Y-141615207D01*
X85811668Y-141623754D01*
X85779391Y-141655975D01*
X85628395Y-141655975D01*
X85588536Y-141616116D01*
X85512166Y-141692486D01*
X85552025Y-141732345D01*
X85552025Y-141882944D01*
X85520827Y-141914088D01*
X85444025Y-142099047D01*
X85444025Y-141732345D01*
X85483884Y-141692486D01*
X85407514Y-141616116D01*
X85367655Y-141655975D01*
X85008515Y-141655975D01*
X84801908Y-141570395D01*
X84654000Y-141652439D01*
X84654000Y-141655975D01*
X84650464Y-141655975D01*
X84568420Y-141803883D01*
X84654000Y-142000664D01*
X84654000Y-142369630D01*
X84614141Y-142409489D01*
X84690511Y-142485859D01*
X84730370Y-142446000D01*
X85089510Y-142446000D01*
X85093272Y-142447559D01*
X84913642Y-142521780D01*
X84881366Y-142554000D01*
X84730370Y-142554000D01*
X84690511Y-142514141D01*
X84614141Y-142590511D01*
X84654000Y-142630370D01*
X84654000Y-142780969D01*
X84622801Y-142812114D01*
X84600139Y-142866691D01*
X84578220Y-142813643D01*
X84546000Y-142781367D01*
X84546000Y-142630370D01*
X84585859Y-142590511D01*
X84509489Y-142514141D01*
X84469630Y-142554000D01*
X84319030Y-142554000D01*
X84287886Y-142522802D01*
X84102927Y-142446000D01*
X84546000Y-142446000D01*
X84546000Y-141652439D01*
X84398092Y-141570395D01*
X84057717Y-141718424D01*
X83799900Y-141985441D01*
X83670395Y-142298092D01*
X83707525Y-142365030D01*
X83497399Y-142364847D01*
X83117591Y-142521780D01*
X82826750Y-142812114D01*
X82669153Y-143191648D01*
X82668968Y-143403570D01*
X82602041Y-143366446D01*
X82261666Y-143514475D01*
X82003849Y-143781492D01*
X81874344Y-144094143D01*
X81956388Y-144242051D01*
X82749949Y-144242051D01*
X82749949Y-143799009D01*
X82825728Y-143982409D01*
X82857949Y-144014686D01*
X82857949Y-144165681D01*
X82818090Y-144205540D01*
X82894460Y-144281910D01*
X82934319Y-144242051D01*
X83084917Y-144242051D01*
X83116062Y-144273250D01*
X83170639Y-144295912D01*
X83117591Y-144317831D01*
X83085315Y-144350051D01*
X82934319Y-144350051D01*
X82894460Y-144310192D01*
X82818090Y-144386562D01*
X82857949Y-144426421D01*
X82857949Y-144577020D01*
X82826750Y-144608165D01*
X82749949Y-144793122D01*
X82749949Y-144350051D01*
X81956388Y-144350051D01*
X81874344Y-144497959D01*
X82022373Y-144838334D01*
X82289390Y-145096151D01*
X82602041Y-145225656D01*
X82668978Y-145188526D01*
X82668795Y-145398652D01*
X82825728Y-145778460D01*
X83116062Y-146069301D01*
X83495596Y-146226898D01*
X83906549Y-146227256D01*
X84286357Y-146070323D01*
X84577198Y-145779989D01*
X84734795Y-145400455D01*
X84734857Y-145329169D01*
X84804575Y-145329230D01*
X85184383Y-145172297D01*
X85475224Y-144881963D01*
X85632821Y-144502429D01*
X85632883Y-144431144D01*
X85702600Y-144431205D01*
X85914030Y-144343844D01*
X91392000Y-144343844D01*
X91392000Y-145069000D01*
X91494000Y-145171000D01*
X92746000Y-145171000D01*
X92746000Y-144119000D01*
X92644000Y-144017000D01*
X91718844Y-144017000D01*
X91568886Y-144079114D01*
X91454114Y-144193887D01*
X91392000Y-144343844D01*
X85914030Y-144343844D01*
X86082408Y-144274272D01*
X86373249Y-143983938D01*
X86530846Y-143604404D01*
X86530908Y-143533118D01*
X86600626Y-143533179D01*
X86980434Y-143376246D01*
X87271275Y-143085912D01*
X87428872Y-142706378D01*
X87428934Y-142635093D01*
X87498652Y-142635154D01*
X87878460Y-142478221D01*
X88169301Y-142187887D01*
X88326898Y-141808353D01*
X88327149Y-141520069D01*
X88538574Y-141607860D01*
X88605650Y-141607918D01*
X88665683Y-141667951D01*
X88872665Y-141806252D01*
X89116817Y-141854817D01*
X89342707Y-141854817D01*
X89383753Y-141916247D01*
X89551788Y-142028525D01*
X89750000Y-142067952D01*
X89926455Y-142067952D01*
X89860469Y-142226865D01*
X89860189Y-142548307D01*
X89982940Y-142845388D01*
X90210036Y-143072881D01*
X90506903Y-143196151D01*
X90828345Y-143196431D01*
X91125426Y-143073680D01*
X91352919Y-142846584D01*
X91476189Y-142549717D01*
X91476469Y-142228275D01*
X91410225Y-142067952D01*
X91450000Y-142067952D01*
X91648212Y-142028525D01*
X91816247Y-141916247D01*
X91857293Y-141854817D01*
X92468799Y-141854817D01*
X92515308Y-141901407D01*
X92812175Y-142024677D01*
X92941989Y-142024790D01*
X92941989Y-144031011D01*
X92854000Y-144119000D01*
X92854000Y-145171000D01*
X92874000Y-145171000D01*
X92874000Y-145279000D01*
X92854000Y-145279000D01*
X92854000Y-145299000D01*
X92746000Y-145299000D01*
X92746000Y-145279000D01*
X91494000Y-145279000D01*
X91392000Y-145381000D01*
X91392000Y-146106156D01*
X91454114Y-146256113D01*
X91490001Y-146292000D01*
X89461191Y-146292000D01*
X89461191Y-145786249D01*
X89507781Y-145739740D01*
X89631051Y-145442873D01*
X89631331Y-145121431D01*
X89508580Y-144824350D01*
X89281484Y-144596857D01*
X88984617Y-144473587D01*
X88663175Y-144473307D01*
X88366094Y-144596058D01*
X88138601Y-144823154D01*
X88076150Y-144973552D01*
X87998212Y-144921475D01*
X87800000Y-144882048D01*
X85800000Y-144882048D01*
X85601788Y-144921475D01*
X85433753Y-145033753D01*
X85321475Y-145201788D01*
X85282048Y-145400000D01*
X85282048Y-146292000D01*
X80572999Y-146292000D01*
X80572999Y-142599999D01*
X80529382Y-142380721D01*
X80405171Y-142194827D01*
X79908090Y-141697746D01*
X79908123Y-141659788D01*
X79800564Y-141399474D01*
X79601574Y-141200136D01*
X79341448Y-141092123D01*
X79059788Y-141091877D01*
X78799474Y-141199436D01*
X78600136Y-141398426D01*
X78492123Y-141658552D01*
X78491877Y-141940212D01*
X78599436Y-142200526D01*
X78798426Y-142399864D01*
X79058552Y-142507877D01*
X79097567Y-142507911D01*
X79331771Y-142742115D01*
X79010278Y-142741834D01*
X78658046Y-142887374D01*
X78388321Y-143156628D01*
X78242167Y-143508606D01*
X78241834Y-143889722D01*
X78387374Y-144241954D01*
X78656628Y-144511679D01*
X79008606Y-144657833D01*
X79389722Y-144658166D01*
X79426999Y-144642763D01*
X79426999Y-146163063D01*
X79399474Y-146174436D01*
X79387104Y-146186784D01*
X79224421Y-146119233D01*
X78942761Y-146118987D01*
X78774037Y-146188702D01*
X78541448Y-146092123D01*
X78353525Y-146091959D01*
X78358000Y-146081156D01*
X78358000Y-145656000D01*
X78256000Y-145554000D01*
X76629000Y-145554000D01*
X76629000Y-145574000D01*
X76521000Y-145574000D01*
X76521000Y-145554000D01*
X76501000Y-145554000D01*
X76501000Y-145446000D01*
X76521000Y-145446000D01*
X76521000Y-144694000D01*
X76629000Y-144694000D01*
X76629000Y-145446000D01*
X78256000Y-145446000D01*
X78358000Y-145344000D01*
X78358000Y-144918844D01*
X78295886Y-144768886D01*
X78181113Y-144654114D01*
X78031156Y-144592000D01*
X76731000Y-144592000D01*
X76629000Y-144694000D01*
X76521000Y-144694000D01*
X76419000Y-144592000D01*
X75373000Y-144592000D01*
X75373000Y-142517952D01*
X77950000Y-142517952D01*
X78148212Y-142478525D01*
X78316247Y-142366247D01*
X78428525Y-142198212D01*
X78467952Y-142000000D01*
X78467952Y-141000000D01*
X78428525Y-140801788D01*
X78316247Y-140633753D01*
X78148212Y-140521475D01*
X77950000Y-140482048D01*
X75200000Y-140482048D01*
X75001788Y-140521475D01*
X74833753Y-140633753D01*
X74721475Y-140801788D01*
X74682048Y-141000000D01*
X74682048Y-141083322D01*
X74664828Y-141094828D01*
X74394828Y-141364828D01*
X74270617Y-141550722D01*
X74227000Y-141770000D01*
X74227000Y-146023002D01*
X74270617Y-146242280D01*
X74303839Y-146292000D01*
X72484999Y-146292000D01*
X72545886Y-146231114D01*
X72608000Y-146081156D01*
X72608000Y-145656000D01*
X72506000Y-145554000D01*
X70879000Y-145554000D01*
X70879000Y-145574000D01*
X70771000Y-145574000D01*
X70771000Y-145554000D01*
X69144000Y-145554000D01*
X69042000Y-145656000D01*
X69042000Y-146081156D01*
X69104114Y-146231114D01*
X69165001Y-146292000D01*
X67359746Y-146292000D01*
X67271578Y-146078617D01*
X66833688Y-145639962D01*
X66261265Y-145402271D01*
X65641454Y-145401730D01*
X65068617Y-145638422D01*
X64629962Y-146076312D01*
X64540400Y-146292000D01*
X62838000Y-146292000D01*
X62838000Y-145704802D01*
X62884590Y-145658293D01*
X63007860Y-145361426D01*
X63008111Y-145073000D01*
X69042000Y-145073000D01*
X69042000Y-145344000D01*
X69144000Y-145446000D01*
X70771000Y-145446000D01*
X70771000Y-145426000D01*
X70879000Y-145426000D01*
X70879000Y-145446000D01*
X72506000Y-145446000D01*
X72608000Y-145344000D01*
X72608000Y-144993278D01*
X72699864Y-144901574D01*
X72807877Y-144641448D01*
X72808123Y-144359788D01*
X72700564Y-144099474D01*
X72501574Y-143900136D01*
X72241448Y-143792123D01*
X72157920Y-143792050D01*
X72158166Y-143510278D01*
X72012626Y-143158046D01*
X71743372Y-142888321D01*
X71391394Y-142742167D01*
X71010278Y-142741834D01*
X70658046Y-142887374D01*
X70388321Y-143156628D01*
X70242167Y-143508606D01*
X70241834Y-143889722D01*
X70257237Y-143927000D01*
X56813999Y-143927000D01*
X56800564Y-143894484D01*
X56601574Y-143695146D01*
X56341448Y-143587133D01*
X56302433Y-143587099D01*
X55975350Y-143260016D01*
X66491860Y-143260016D01*
X66614611Y-143557097D01*
X66841707Y-143784590D01*
X67138574Y-143907860D01*
X67460016Y-143908140D01*
X67757097Y-143785389D01*
X67984590Y-143558293D01*
X68107860Y-143261426D01*
X68107898Y-143217952D01*
X68400000Y-143217952D01*
X68598212Y-143178525D01*
X68766247Y-143066247D01*
X68878525Y-142898212D01*
X68917952Y-142700000D01*
X68917952Y-142300000D01*
X68892690Y-142173000D01*
X68966460Y-142173000D01*
X68971475Y-142198212D01*
X69083753Y-142366247D01*
X69251788Y-142478525D01*
X69450000Y-142517952D01*
X72200000Y-142517952D01*
X72398212Y-142478525D01*
X72566247Y-142366247D01*
X72678525Y-142198212D01*
X72717952Y-142000000D01*
X72717952Y-141000000D01*
X72678525Y-140801788D01*
X72566247Y-140633753D01*
X72398212Y-140521475D01*
X72200000Y-140482048D01*
X69450000Y-140482048D01*
X69251788Y-140521475D01*
X69083753Y-140633753D01*
X68971475Y-140801788D01*
X68932048Y-141000000D01*
X68932048Y-141027000D01*
X68756140Y-141027000D01*
X68598212Y-140921475D01*
X68400000Y-140882048D01*
X67800000Y-140882048D01*
X67601788Y-140921475D01*
X67433753Y-141033753D01*
X67321475Y-141201788D01*
X67282048Y-141400000D01*
X67282048Y-141800000D01*
X67321475Y-141998212D01*
X67356079Y-142050000D01*
X67321475Y-142101788D01*
X67302984Y-142194748D01*
X67205815Y-142291917D01*
X67139984Y-142291860D01*
X66842903Y-142414611D01*
X66615410Y-142641707D01*
X66492140Y-142938574D01*
X66491860Y-143260016D01*
X55975350Y-143260016D01*
X55581480Y-142866146D01*
X55566068Y-142855848D01*
X55395586Y-142741935D01*
X55176308Y-142698318D01*
X52726033Y-142698318D01*
X52699216Y-142671454D01*
X52439090Y-142563441D01*
X52157430Y-142563195D01*
X51897116Y-142670754D01*
X51697778Y-142869744D01*
X51589765Y-143129870D01*
X51589519Y-143411530D01*
X51697078Y-143671844D01*
X51896068Y-143871182D01*
X52156194Y-143979195D01*
X52437854Y-143979441D01*
X52698168Y-143871882D01*
X52725780Y-143844318D01*
X54938964Y-143844318D01*
X55491910Y-144397264D01*
X55491877Y-144435222D01*
X55591921Y-144677349D01*
X54442270Y-145827000D01*
X54228391Y-145827000D01*
X54201574Y-145800136D01*
X53941448Y-145692123D01*
X53659788Y-145691877D01*
X53399474Y-145799436D01*
X53200136Y-145998426D01*
X53092123Y-146258552D01*
X53092094Y-146292000D01*
X51538001Y-146292000D01*
X51538001Y-141664267D01*
X51594185Y-141608083D01*
X51660016Y-141608140D01*
X51957097Y-141485389D01*
X52184590Y-141258293D01*
X52307860Y-140961426D01*
X52307932Y-140878545D01*
X52410527Y-140725000D01*
X59807048Y-140725000D01*
X59807048Y-142075000D01*
X59846475Y-142273212D01*
X59958753Y-142441247D01*
X60126788Y-142553525D01*
X60325000Y-142592952D01*
X61675000Y-142592952D01*
X61873212Y-142553525D01*
X62041247Y-142441247D01*
X62153525Y-142273212D01*
X62161269Y-142234280D01*
X62329010Y-142402314D01*
X62763654Y-142582794D01*
X63234281Y-142583205D01*
X63669240Y-142403483D01*
X63927344Y-142145829D01*
X64330539Y-142145829D01*
X64395421Y-142324002D01*
X64795042Y-142485028D01*
X65225866Y-142480870D01*
X65604579Y-142324002D01*
X65669461Y-142145829D01*
X65000000Y-141476368D01*
X64330539Y-142145829D01*
X63927344Y-142145829D01*
X64002314Y-142070990D01*
X64052973Y-141948991D01*
X64075998Y-142004579D01*
X64254171Y-142069461D01*
X64923632Y-141400000D01*
X65076368Y-141400000D01*
X65745829Y-142069461D01*
X65924002Y-142004579D01*
X66085028Y-141604958D01*
X66080870Y-141174134D01*
X65924002Y-140795421D01*
X65745829Y-140730539D01*
X65076368Y-141400000D01*
X64923632Y-141400000D01*
X64254171Y-140730539D01*
X64075998Y-140795421D01*
X64053387Y-140851536D01*
X64003483Y-140730760D01*
X63927028Y-140654171D01*
X64330539Y-140654171D01*
X65000000Y-141323632D01*
X65669461Y-140654171D01*
X65604579Y-140475998D01*
X65204958Y-140314972D01*
X64774134Y-140319130D01*
X64395421Y-140475998D01*
X64330539Y-140654171D01*
X63927028Y-140654171D01*
X63670990Y-140397686D01*
X63236346Y-140217206D01*
X62765719Y-140216795D01*
X62330760Y-140396517D01*
X62161268Y-140565714D01*
X62153525Y-140526788D01*
X62041247Y-140358753D01*
X61873212Y-140246475D01*
X61675000Y-140207048D01*
X60325000Y-140207048D01*
X60126788Y-140246475D01*
X59958753Y-140358753D01*
X59846475Y-140526788D01*
X59807048Y-140725000D01*
X52410527Y-140725000D01*
X52414435Y-140719152D01*
X52463000Y-140475000D01*
X52463000Y-139954802D01*
X52509590Y-139908293D01*
X52632860Y-139611426D01*
X52633140Y-139289984D01*
X52557946Y-139108000D01*
X90713117Y-139108000D01*
X90692123Y-139158560D01*
G36*
X109392000Y-140901121D02*
X109178249Y-140758297D01*
X108769543Y-140677000D01*
X107830457Y-140677000D01*
X107421751Y-140758297D01*
X107075267Y-140989810D01*
X106843754Y-141336294D01*
X106802410Y-141544142D01*
X106755134Y-141496866D01*
X106561952Y-141367786D01*
X106561952Y-140932000D01*
X106522525Y-140733788D01*
X106410247Y-140565753D01*
X106242212Y-140453475D01*
X106044000Y-140414048D01*
X105028000Y-140414048D01*
X104829788Y-140453475D01*
X104661753Y-140565753D01*
X104549475Y-140733788D01*
X104510048Y-140932000D01*
X104510048Y-142964000D01*
X104549475Y-143162212D01*
X104661753Y-143330247D01*
X104829788Y-143442525D01*
X105028000Y-143481952D01*
X105737000Y-143481952D01*
X105737000Y-145534634D01*
X105551788Y-145571475D01*
X105383753Y-145683753D01*
X105364879Y-145712000D01*
X105295960Y-145712000D01*
X105144152Y-145610565D01*
X104900000Y-145562000D01*
X104748969Y-145592042D01*
X104539984Y-145591860D01*
X104242903Y-145714611D01*
X104015410Y-145941707D01*
X103892140Y-146238574D01*
X103892093Y-146292000D01*
X101680114Y-146292000D01*
X101600564Y-146099474D01*
X101401574Y-145900136D01*
X101141448Y-145792123D01*
X100908000Y-145791919D01*
X100908000Y-145568844D01*
X100845886Y-145418887D01*
X100731114Y-145304114D01*
X100581156Y-145242000D01*
X100406000Y-145242000D01*
X100304000Y-145344000D01*
X100304000Y-145896000D01*
X100324000Y-145896000D01*
X100324000Y-145927000D01*
X100176000Y-145927000D01*
X100176000Y-145896000D01*
X100196000Y-145896000D01*
X100196000Y-145344000D01*
X100094000Y-145242000D01*
X99918844Y-145242000D01*
X99768886Y-145304114D01*
X99654114Y-145418887D01*
X99592000Y-145568844D01*
X99592000Y-145794000D01*
X99693998Y-145895998D01*
X99592000Y-145895998D01*
X99592000Y-145927000D01*
X99006140Y-145927000D01*
X98848212Y-145821475D01*
X98650000Y-145782048D01*
X98050000Y-145782048D01*
X97851788Y-145821475D01*
X97693860Y-145927000D01*
X95337344Y-145927000D01*
X95273000Y-145862656D01*
X95273000Y-145137344D01*
X96827255Y-143583090D01*
X96865212Y-143583123D01*
X97125526Y-143475564D01*
X97324864Y-143276574D01*
X97432877Y-143016448D01*
X97433123Y-142734788D01*
X97325564Y-142474474D01*
X97126574Y-142275136D01*
X96866448Y-142167123D01*
X96584788Y-142166877D01*
X96324474Y-142274436D01*
X96125136Y-142473426D01*
X96017123Y-142733552D01*
X96017089Y-142772566D01*
X94833560Y-143956096D01*
X94824395Y-143910021D01*
X94700184Y-143724127D01*
X94500873Y-143524816D01*
X94476613Y-143508606D01*
X94348000Y-143422669D01*
X94348000Y-142104000D01*
X100048000Y-142104000D01*
X100048000Y-143045156D01*
X100110114Y-143195114D01*
X100224887Y-143309886D01*
X100374844Y-143372000D01*
X100808000Y-143372000D01*
X100910000Y-143270000D01*
X100910000Y-142002000D01*
X101018000Y-142002000D01*
X101018000Y-143270000D01*
X101120000Y-143372000D01*
X101553156Y-143372000D01*
X101703113Y-143309886D01*
X101817886Y-143195114D01*
X101880000Y-143045156D01*
X101880000Y-142104000D01*
X101778000Y-142002000D01*
X101018000Y-142002000D01*
X100910000Y-142002000D01*
X100150000Y-142002000D01*
X100048000Y-142104000D01*
X94348000Y-142104000D01*
X94348000Y-140850844D01*
X100048000Y-140850844D01*
X100048000Y-141792000D01*
X100150000Y-141894000D01*
X100910000Y-141894000D01*
X100910000Y-140626000D01*
X101018000Y-140626000D01*
X101018000Y-141894000D01*
X101778000Y-141894000D01*
X101880000Y-141792000D01*
X101880000Y-140932000D01*
X102224048Y-140932000D01*
X102224048Y-142964000D01*
X102263475Y-143162212D01*
X102375753Y-143330247D01*
X102543788Y-143442525D01*
X102742000Y-143481952D01*
X103758000Y-143481952D01*
X103956212Y-143442525D01*
X104124247Y-143330247D01*
X104236525Y-143162212D01*
X104275952Y-142964000D01*
X104275952Y-140932000D01*
X104236525Y-140733788D01*
X104124247Y-140565753D01*
X103956212Y-140453475D01*
X103758000Y-140414048D01*
X102742000Y-140414048D01*
X102543788Y-140453475D01*
X102375753Y-140565753D01*
X102263475Y-140733788D01*
X102224048Y-140932000D01*
X101880000Y-140932000D01*
X101880000Y-140850844D01*
X101817886Y-140700886D01*
X101703113Y-140586114D01*
X101553156Y-140524000D01*
X101120000Y-140524000D01*
X101018000Y-140626000D01*
X100910000Y-140626000D01*
X100808000Y-140524000D01*
X100374844Y-140524000D01*
X100224887Y-140586114D01*
X100110114Y-140700886D01*
X100048000Y-140850844D01*
X94348000Y-140850844D01*
X94348000Y-140751610D01*
X94362301Y-140751622D01*
X94622615Y-140644063D01*
X94821953Y-140445073D01*
X94929966Y-140184947D01*
X94930212Y-139903287D01*
X94822653Y-139642973D01*
X94623663Y-139443635D01*
X94363537Y-139335622D01*
X94324522Y-139335588D01*
X94096934Y-139108000D01*
X109392000Y-139108000D01*
X109392000Y-140901121D01*
X109392000Y-140901121D01*
G37*
X109392000Y-140901121D02*
X109178249Y-140758297D01*
X108769543Y-140677000D01*
X107830457Y-140677000D01*
X107421751Y-140758297D01*
X107075267Y-140989810D01*
X106843754Y-141336294D01*
X106802410Y-141544142D01*
X106755134Y-141496866D01*
X106561952Y-141367786D01*
X106561952Y-140932000D01*
X106522525Y-140733788D01*
X106410247Y-140565753D01*
X106242212Y-140453475D01*
X106044000Y-140414048D01*
X105028000Y-140414048D01*
X104829788Y-140453475D01*
X104661753Y-140565753D01*
X104549475Y-140733788D01*
X104510048Y-140932000D01*
X104510048Y-142964000D01*
X104549475Y-143162212D01*
X104661753Y-143330247D01*
X104829788Y-143442525D01*
X105028000Y-143481952D01*
X105737000Y-143481952D01*
X105737000Y-145534634D01*
X105551788Y-145571475D01*
X105383753Y-145683753D01*
X105364879Y-145712000D01*
X105295960Y-145712000D01*
X105144152Y-145610565D01*
X104900000Y-145562000D01*
X104748969Y-145592042D01*
X104539984Y-145591860D01*
X104242903Y-145714611D01*
X104015410Y-145941707D01*
X103892140Y-146238574D01*
X103892093Y-146292000D01*
X101680114Y-146292000D01*
X101600564Y-146099474D01*
X101401574Y-145900136D01*
X101141448Y-145792123D01*
X100908000Y-145791919D01*
X100908000Y-145568844D01*
X100845886Y-145418887D01*
X100731114Y-145304114D01*
X100581156Y-145242000D01*
X100406000Y-145242000D01*
X100304000Y-145344000D01*
X100304000Y-145896000D01*
X100324000Y-145896000D01*
X100324000Y-145927000D01*
X100176000Y-145927000D01*
X100176000Y-145896000D01*
X100196000Y-145896000D01*
X100196000Y-145344000D01*
X100094000Y-145242000D01*
X99918844Y-145242000D01*
X99768886Y-145304114D01*
X99654114Y-145418887D01*
X99592000Y-145568844D01*
X99592000Y-145794000D01*
X99693998Y-145895998D01*
X99592000Y-145895998D01*
X99592000Y-145927000D01*
X99006140Y-145927000D01*
X98848212Y-145821475D01*
X98650000Y-145782048D01*
X98050000Y-145782048D01*
X97851788Y-145821475D01*
X97693860Y-145927000D01*
X95337344Y-145927000D01*
X95273000Y-145862656D01*
X95273000Y-145137344D01*
X96827255Y-143583090D01*
X96865212Y-143583123D01*
X97125526Y-143475564D01*
X97324864Y-143276574D01*
X97432877Y-143016448D01*
X97433123Y-142734788D01*
X97325564Y-142474474D01*
X97126574Y-142275136D01*
X96866448Y-142167123D01*
X96584788Y-142166877D01*
X96324474Y-142274436D01*
X96125136Y-142473426D01*
X96017123Y-142733552D01*
X96017089Y-142772566D01*
X94833560Y-143956096D01*
X94824395Y-143910021D01*
X94700184Y-143724127D01*
X94500873Y-143524816D01*
X94476613Y-143508606D01*
X94348000Y-143422669D01*
X94348000Y-142104000D01*
X100048000Y-142104000D01*
X100048000Y-143045156D01*
X100110114Y-143195114D01*
X100224887Y-143309886D01*
X100374844Y-143372000D01*
X100808000Y-143372000D01*
X100910000Y-143270000D01*
X100910000Y-142002000D01*
X101018000Y-142002000D01*
X101018000Y-143270000D01*
X101120000Y-143372000D01*
X101553156Y-143372000D01*
X101703113Y-143309886D01*
X101817886Y-143195114D01*
X101880000Y-143045156D01*
X101880000Y-142104000D01*
X101778000Y-142002000D01*
X101018000Y-142002000D01*
X100910000Y-142002000D01*
X100150000Y-142002000D01*
X100048000Y-142104000D01*
X94348000Y-142104000D01*
X94348000Y-140850844D01*
X100048000Y-140850844D01*
X100048000Y-141792000D01*
X100150000Y-141894000D01*
X100910000Y-141894000D01*
X100910000Y-140626000D01*
X101018000Y-140626000D01*
X101018000Y-141894000D01*
X101778000Y-141894000D01*
X101880000Y-141792000D01*
X101880000Y-140932000D01*
X102224048Y-140932000D01*
X102224048Y-142964000D01*
X102263475Y-143162212D01*
X102375753Y-143330247D01*
X102543788Y-143442525D01*
X102742000Y-143481952D01*
X103758000Y-143481952D01*
X103956212Y-143442525D01*
X104124247Y-143330247D01*
X104236525Y-143162212D01*
X104275952Y-142964000D01*
X104275952Y-140932000D01*
X104236525Y-140733788D01*
X104124247Y-140565753D01*
X103956212Y-140453475D01*
X103758000Y-140414048D01*
X102742000Y-140414048D01*
X102543788Y-140453475D01*
X102375753Y-140565753D01*
X102263475Y-140733788D01*
X102224048Y-140932000D01*
X101880000Y-140932000D01*
X101880000Y-140850844D01*
X101817886Y-140700886D01*
X101703113Y-140586114D01*
X101553156Y-140524000D01*
X101120000Y-140524000D01*
X101018000Y-140626000D01*
X100910000Y-140626000D01*
X100808000Y-140524000D01*
X100374844Y-140524000D01*
X100224887Y-140586114D01*
X100110114Y-140700886D01*
X100048000Y-140850844D01*
X94348000Y-140850844D01*
X94348000Y-140751610D01*
X94362301Y-140751622D01*
X94622615Y-140644063D01*
X94821953Y-140445073D01*
X94929966Y-140184947D01*
X94930212Y-139903287D01*
X94822653Y-139642973D01*
X94623663Y-139443635D01*
X94363537Y-139335622D01*
X94324522Y-139335588D01*
X94096934Y-139108000D01*
X109392000Y-139108000D01*
X109392000Y-140901121D01*
D30*
G36*
X85254519Y-147400000D02*
X85296041Y-147608747D01*
X85414287Y-147785713D01*
X85591253Y-147903959D01*
X85800000Y-147945481D01*
X87800000Y-147945481D01*
X88008747Y-147903959D01*
X88073413Y-147860750D01*
X91165000Y-147860750D01*
X91165000Y-148501309D01*
X91261673Y-148734698D01*
X91440301Y-148913327D01*
X91673690Y-149010000D01*
X92514250Y-149010000D01*
X92673000Y-148851250D01*
X92673000Y-147702000D01*
X92927000Y-147702000D01*
X92927000Y-148851250D01*
X93085750Y-149010000D01*
X93926310Y-149010000D01*
X94159699Y-148913327D01*
X94338327Y-148734698D01*
X94435000Y-148501309D01*
X94435000Y-147860750D01*
X94276250Y-147702000D01*
X92927000Y-147702000D01*
X92673000Y-147702000D01*
X91323750Y-147702000D01*
X91165000Y-147860750D01*
X88073413Y-147860750D01*
X88185713Y-147785713D01*
X88303959Y-147608747D01*
X88345481Y-147400000D01*
X88345481Y-146927000D01*
X91165000Y-146927000D01*
X91165000Y-147289250D01*
X91323750Y-147448000D01*
X92673000Y-147448000D01*
X92673000Y-147428000D01*
X92927000Y-147428000D01*
X92927000Y-147448000D01*
X94276250Y-147448000D01*
X94348861Y-147375389D01*
X94697736Y-147724264D01*
X94892390Y-147854328D01*
X95122000Y-147900000D01*
X96360412Y-147900000D01*
X96383112Y-147922740D01*
X96653158Y-148034873D01*
X96945559Y-148035128D01*
X97215800Y-147923466D01*
X97415000Y-147724614D01*
X97415000Y-147726309D01*
X97511673Y-147959698D01*
X97690301Y-148138327D01*
X97923690Y-148235000D01*
X98064250Y-148235000D01*
X98223000Y-148076250D01*
X98223000Y-147500000D01*
X98477000Y-147500000D01*
X98477000Y-148076250D01*
X98635750Y-148235000D01*
X98776310Y-148235000D01*
X99009699Y-148138327D01*
X99188327Y-147959698D01*
X99285000Y-147726309D01*
X99285000Y-147658750D01*
X99126250Y-147500000D01*
X98477000Y-147500000D01*
X98223000Y-147500000D01*
X98203000Y-147500000D01*
X98203000Y-147300000D01*
X98223000Y-147300000D01*
X98223000Y-147253000D01*
X98477000Y-147253000D01*
X98477000Y-147300000D01*
X99126250Y-147300000D01*
X99285000Y-147141250D01*
X99285000Y-147100000D01*
X99365000Y-147100000D01*
X99365000Y-147177002D01*
X99523748Y-147177002D01*
X99365000Y-147335750D01*
X99365000Y-147476309D01*
X99461673Y-147709698D01*
X99640301Y-147888327D01*
X99873690Y-147985000D01*
X99966250Y-147985000D01*
X100125000Y-147826250D01*
X100125000Y-147177000D01*
X100103000Y-147177000D01*
X100103000Y-147100000D01*
X100397000Y-147100000D01*
X100397000Y-147177000D01*
X100375000Y-147177000D01*
X100375000Y-147826250D01*
X100533750Y-147985000D01*
X100626310Y-147985000D01*
X100859699Y-147888327D01*
X101038327Y-147709698D01*
X101135000Y-147476309D01*
X101135000Y-147335750D01*
X101034281Y-147235031D01*
X101145559Y-147235128D01*
X101415800Y-147123466D01*
X101612610Y-146927000D01*
X103482539Y-146927000D01*
X103485619Y-146942486D01*
X103629773Y-147158227D01*
X103941773Y-147470227D01*
X104157514Y-147614381D01*
X104411999Y-147665001D01*
X105163791Y-147665001D01*
X105146420Y-149297836D01*
X105115000Y-149373691D01*
X105115000Y-149514250D01*
X105143811Y-149543061D01*
X105138286Y-150062464D01*
X105115000Y-150085750D01*
X105115000Y-150226309D01*
X105136003Y-150277016D01*
X105134347Y-150432706D01*
X105008292Y-150127628D01*
X104773607Y-149892534D01*
X104466821Y-149765145D01*
X104134637Y-149764855D01*
X103827628Y-149891708D01*
X103784261Y-149935000D01*
X101435058Y-149935000D01*
X101435128Y-149854441D01*
X101323466Y-149584200D01*
X101116888Y-149377260D01*
X100846842Y-149265127D01*
X100554441Y-149264872D01*
X100284200Y-149376534D01*
X100260693Y-149400000D01*
X97400001Y-149400001D01*
X97170390Y-149445673D01*
X97141543Y-149464948D01*
X97054443Y-149464872D01*
X96784202Y-149576534D01*
X96577262Y-149783112D01*
X96465129Y-150053158D01*
X96464874Y-150345559D01*
X96576536Y-150615800D01*
X96783114Y-150822740D01*
X96884887Y-150865000D01*
X93934940Y-150865000D01*
X93935128Y-150649451D01*
X93823466Y-150379210D01*
X93616888Y-150172270D01*
X93346842Y-150060137D01*
X93054441Y-150059882D01*
X92784200Y-150171544D01*
X92585001Y-150370394D01*
X92585124Y-150229441D01*
X92473462Y-149959200D01*
X92266884Y-149752260D01*
X91996838Y-149640127D01*
X91704437Y-149639872D01*
X91434196Y-149751534D01*
X91410689Y-149775000D01*
X86354455Y-149775000D01*
X86409789Y-149641740D01*
X86410209Y-149160372D01*
X86226386Y-148715486D01*
X85886305Y-148374810D01*
X85441740Y-148190211D01*
X84960372Y-148189791D01*
X84515486Y-148373614D01*
X84412525Y-148476395D01*
X84041865Y-148105735D01*
X83847211Y-147975671D01*
X83617601Y-147929999D01*
X80368999Y-147929999D01*
X80139389Y-147975671D01*
X79944735Y-148105735D01*
X77850470Y-150200000D01*
X65915299Y-150200000D01*
X66109755Y-149731697D01*
X66110245Y-149170764D01*
X66014895Y-148939999D01*
X66412603Y-148939999D01*
X66642213Y-148894327D01*
X66836867Y-148764263D01*
X68101130Y-147500000D01*
X74551472Y-147500000D01*
X74670737Y-147619265D01*
X74865390Y-147749329D01*
X75095001Y-147795001D01*
X78715082Y-147795001D01*
X78944692Y-147749329D01*
X79139346Y-147619265D01*
X79196401Y-147562210D01*
X79228532Y-147562238D01*
X79498773Y-147450576D01*
X79502175Y-147447180D01*
X79653158Y-147509873D01*
X79945559Y-147510128D01*
X80215800Y-147398466D01*
X80422740Y-147191888D01*
X80517673Y-146963263D01*
X80737053Y-146963455D01*
X80825281Y-146927000D01*
X85254519Y-146927000D01*
X85254519Y-147400000D01*
X85254519Y-147400000D01*
G37*
X85254519Y-147400000D02*
X85296041Y-147608747D01*
X85414287Y-147785713D01*
X85591253Y-147903959D01*
X85800000Y-147945481D01*
X87800000Y-147945481D01*
X88008747Y-147903959D01*
X88073413Y-147860750D01*
X91165000Y-147860750D01*
X91165000Y-148501309D01*
X91261673Y-148734698D01*
X91440301Y-148913327D01*
X91673690Y-149010000D01*
X92514250Y-149010000D01*
X92673000Y-148851250D01*
X92673000Y-147702000D01*
X92927000Y-147702000D01*
X92927000Y-148851250D01*
X93085750Y-149010000D01*
X93926310Y-149010000D01*
X94159699Y-148913327D01*
X94338327Y-148734698D01*
X94435000Y-148501309D01*
X94435000Y-147860750D01*
X94276250Y-147702000D01*
X92927000Y-147702000D01*
X92673000Y-147702000D01*
X91323750Y-147702000D01*
X91165000Y-147860750D01*
X88073413Y-147860750D01*
X88185713Y-147785713D01*
X88303959Y-147608747D01*
X88345481Y-147400000D01*
X88345481Y-146927000D01*
X91165000Y-146927000D01*
X91165000Y-147289250D01*
X91323750Y-147448000D01*
X92673000Y-147448000D01*
X92673000Y-147428000D01*
X92927000Y-147428000D01*
X92927000Y-147448000D01*
X94276250Y-147448000D01*
X94348861Y-147375389D01*
X94697736Y-147724264D01*
X94892390Y-147854328D01*
X95122000Y-147900000D01*
X96360412Y-147900000D01*
X96383112Y-147922740D01*
X96653158Y-148034873D01*
X96945559Y-148035128D01*
X97215800Y-147923466D01*
X97415000Y-147724614D01*
X97415000Y-147726309D01*
X97511673Y-147959698D01*
X97690301Y-148138327D01*
X97923690Y-148235000D01*
X98064250Y-148235000D01*
X98223000Y-148076250D01*
X98223000Y-147500000D01*
X98477000Y-147500000D01*
X98477000Y-148076250D01*
X98635750Y-148235000D01*
X98776310Y-148235000D01*
X99009699Y-148138327D01*
X99188327Y-147959698D01*
X99285000Y-147726309D01*
X99285000Y-147658750D01*
X99126250Y-147500000D01*
X98477000Y-147500000D01*
X98223000Y-147500000D01*
X98203000Y-147500000D01*
X98203000Y-147300000D01*
X98223000Y-147300000D01*
X98223000Y-147253000D01*
X98477000Y-147253000D01*
X98477000Y-147300000D01*
X99126250Y-147300000D01*
X99285000Y-147141250D01*
X99285000Y-147100000D01*
X99365000Y-147100000D01*
X99365000Y-147177002D01*
X99523748Y-147177002D01*
X99365000Y-147335750D01*
X99365000Y-147476309D01*
X99461673Y-147709698D01*
X99640301Y-147888327D01*
X99873690Y-147985000D01*
X99966250Y-147985000D01*
X100125000Y-147826250D01*
X100125000Y-147177000D01*
X100103000Y-147177000D01*
X100103000Y-147100000D01*
X100397000Y-147100000D01*
X100397000Y-147177000D01*
X100375000Y-147177000D01*
X100375000Y-147826250D01*
X100533750Y-147985000D01*
X100626310Y-147985000D01*
X100859699Y-147888327D01*
X101038327Y-147709698D01*
X101135000Y-147476309D01*
X101135000Y-147335750D01*
X101034281Y-147235031D01*
X101145559Y-147235128D01*
X101415800Y-147123466D01*
X101612610Y-146927000D01*
X103482539Y-146927000D01*
X103485619Y-146942486D01*
X103629773Y-147158227D01*
X103941773Y-147470227D01*
X104157514Y-147614381D01*
X104411999Y-147665001D01*
X105163791Y-147665001D01*
X105146420Y-149297836D01*
X105115000Y-149373691D01*
X105115000Y-149514250D01*
X105143811Y-149543061D01*
X105138286Y-150062464D01*
X105115000Y-150085750D01*
X105115000Y-150226309D01*
X105136003Y-150277016D01*
X105134347Y-150432706D01*
X105008292Y-150127628D01*
X104773607Y-149892534D01*
X104466821Y-149765145D01*
X104134637Y-149764855D01*
X103827628Y-149891708D01*
X103784261Y-149935000D01*
X101435058Y-149935000D01*
X101435128Y-149854441D01*
X101323466Y-149584200D01*
X101116888Y-149377260D01*
X100846842Y-149265127D01*
X100554441Y-149264872D01*
X100284200Y-149376534D01*
X100260693Y-149400000D01*
X97400001Y-149400001D01*
X97170390Y-149445673D01*
X97141543Y-149464948D01*
X97054443Y-149464872D01*
X96784202Y-149576534D01*
X96577262Y-149783112D01*
X96465129Y-150053158D01*
X96464874Y-150345559D01*
X96576536Y-150615800D01*
X96783114Y-150822740D01*
X96884887Y-150865000D01*
X93934940Y-150865000D01*
X93935128Y-150649451D01*
X93823466Y-150379210D01*
X93616888Y-150172270D01*
X93346842Y-150060137D01*
X93054441Y-150059882D01*
X92784200Y-150171544D01*
X92585001Y-150370394D01*
X92585124Y-150229441D01*
X92473462Y-149959200D01*
X92266884Y-149752260D01*
X91996838Y-149640127D01*
X91704437Y-149639872D01*
X91434196Y-149751534D01*
X91410689Y-149775000D01*
X86354455Y-149775000D01*
X86409789Y-149641740D01*
X86410209Y-149160372D01*
X86226386Y-148715486D01*
X85886305Y-148374810D01*
X85441740Y-148190211D01*
X84960372Y-148189791D01*
X84515486Y-148373614D01*
X84412525Y-148476395D01*
X84041865Y-148105735D01*
X83847211Y-147975671D01*
X83617601Y-147929999D01*
X80368999Y-147929999D01*
X80139389Y-147975671D01*
X79944735Y-148105735D01*
X77850470Y-150200000D01*
X65915299Y-150200000D01*
X66109755Y-149731697D01*
X66110245Y-149170764D01*
X66014895Y-148939999D01*
X66412603Y-148939999D01*
X66642213Y-148894327D01*
X66836867Y-148764263D01*
X68101130Y-147500000D01*
X74551472Y-147500000D01*
X74670737Y-147619265D01*
X74865390Y-147749329D01*
X75095001Y-147795001D01*
X78715082Y-147795001D01*
X78944692Y-147749329D01*
X79139346Y-147619265D01*
X79196401Y-147562210D01*
X79228532Y-147562238D01*
X79498773Y-147450576D01*
X79502175Y-147447180D01*
X79653158Y-147509873D01*
X79945559Y-147510128D01*
X80215800Y-147398466D01*
X80422740Y-147191888D01*
X80517673Y-146963263D01*
X80737053Y-146963455D01*
X80825281Y-146927000D01*
X85254519Y-146927000D01*
X85254519Y-147400000D01*
G36*
X63290245Y-149168303D02*
X63289755Y-149729236D01*
X63484271Y-150200000D01*
X61415299Y-150200000D01*
X61609755Y-149731697D01*
X61610245Y-149170764D01*
X61527653Y-148970875D01*
X61558529Y-148939999D01*
X63385045Y-148939999D01*
X63290245Y-149168303D01*
X63290245Y-149168303D01*
G37*
X63290245Y-149168303D02*
X63289755Y-149729236D01*
X63484271Y-150200000D01*
X61415299Y-150200000D01*
X61609755Y-149731697D01*
X61610245Y-149170764D01*
X61527653Y-148970875D01*
X61558529Y-148939999D01*
X63385045Y-148939999D01*
X63290245Y-149168303D01*
G36*
X53383112Y-147022740D02*
X53653158Y-147134873D01*
X53945559Y-147135128D01*
X54215800Y-147023466D01*
X54239307Y-147000000D01*
X54679614Y-147000000D01*
X54909224Y-146954328D01*
X54950123Y-146927000D01*
X57355028Y-146927000D01*
X57354725Y-147273893D01*
X57595519Y-147856657D01*
X58040997Y-148302914D01*
X58623341Y-148544724D01*
X59110647Y-148545150D01*
X59005357Y-148650256D01*
X58790245Y-149168303D01*
X58789912Y-149550000D01*
X57685000Y-149550000D01*
X57685000Y-149508750D01*
X57526250Y-149350000D01*
X56877000Y-149350000D01*
X56877000Y-149397000D01*
X56623000Y-149397000D01*
X56623000Y-149350000D01*
X55973750Y-149350000D01*
X55815000Y-149508750D01*
X55815000Y-149576309D01*
X55911673Y-149809698D01*
X55928983Y-149827008D01*
X55904519Y-149950000D01*
X55904519Y-150200000D01*
X51548528Y-150200000D01*
X51064999Y-149716471D01*
X51064999Y-148923691D01*
X55815000Y-148923691D01*
X55815000Y-148991250D01*
X55973750Y-149150000D01*
X56623000Y-149150000D01*
X56623000Y-148573750D01*
X56877000Y-148573750D01*
X56877000Y-149150000D01*
X57526250Y-149150000D01*
X57685000Y-148991250D01*
X57685000Y-148923691D01*
X57588327Y-148690302D01*
X57409699Y-148511673D01*
X57176310Y-148415000D01*
X57035750Y-148415000D01*
X56877000Y-148573750D01*
X56623000Y-148573750D01*
X56464250Y-148415000D01*
X56323690Y-148415000D01*
X56090301Y-148511673D01*
X55911673Y-148690302D01*
X55815000Y-148923691D01*
X51064999Y-148923691D01*
X51064999Y-146927000D01*
X53287539Y-146927000D01*
X53383112Y-147022740D01*
X53383112Y-147022740D01*
G37*
X53383112Y-147022740D02*
X53653158Y-147134873D01*
X53945559Y-147135128D01*
X54215800Y-147023466D01*
X54239307Y-147000000D01*
X54679614Y-147000000D01*
X54909224Y-146954328D01*
X54950123Y-146927000D01*
X57355028Y-146927000D01*
X57354725Y-147273893D01*
X57595519Y-147856657D01*
X58040997Y-148302914D01*
X58623341Y-148544724D01*
X59110647Y-148545150D01*
X59005357Y-148650256D01*
X58790245Y-149168303D01*
X58789912Y-149550000D01*
X57685000Y-149550000D01*
X57685000Y-149508750D01*
X57526250Y-149350000D01*
X56877000Y-149350000D01*
X56877000Y-149397000D01*
X56623000Y-149397000D01*
X56623000Y-149350000D01*
X55973750Y-149350000D01*
X55815000Y-149508750D01*
X55815000Y-149576309D01*
X55911673Y-149809698D01*
X55928983Y-149827008D01*
X55904519Y-149950000D01*
X55904519Y-150200000D01*
X51548528Y-150200000D01*
X51064999Y-149716471D01*
X51064999Y-148923691D01*
X55815000Y-148923691D01*
X55815000Y-148991250D01*
X55973750Y-149150000D01*
X56623000Y-149150000D01*
X56623000Y-148573750D01*
X56877000Y-148573750D01*
X56877000Y-149150000D01*
X57526250Y-149150000D01*
X57685000Y-148991250D01*
X57685000Y-148923691D01*
X57588327Y-148690302D01*
X57409699Y-148511673D01*
X57176310Y-148415000D01*
X57035750Y-148415000D01*
X56877000Y-148573750D01*
X56623000Y-148573750D01*
X56464250Y-148415000D01*
X56323690Y-148415000D01*
X56090301Y-148511673D01*
X55911673Y-148690302D01*
X55815000Y-148923691D01*
X51064999Y-148923691D01*
X51064999Y-146927000D01*
X53287539Y-146927000D01*
X53383112Y-147022740D01*
G36*
X64364725Y-147273893D02*
X64557317Y-147739999D01*
X61310001Y-147739999D01*
X61080390Y-147785671D01*
X60885737Y-147915735D01*
X60679212Y-148122260D01*
X60481697Y-148040245D01*
X60101688Y-148039913D01*
X60282914Y-147859003D01*
X60524724Y-147276659D01*
X60525030Y-146927000D01*
X64365028Y-146927000D01*
X64364725Y-147273893D01*
X64364725Y-147273893D01*
G37*
X64364725Y-147273893D02*
X64557317Y-147739999D01*
X61310001Y-147739999D01*
X61080390Y-147785671D01*
X60885737Y-147915735D01*
X60679212Y-148122260D01*
X60481697Y-148040245D01*
X60101688Y-148039913D01*
X60282914Y-147859003D01*
X60524724Y-147276659D01*
X60525030Y-146927000D01*
X64365028Y-146927000D01*
X64364725Y-147273893D01*
M02*
