G04 #@! TF.GenerationSoftware,KiCad,Pcbnew,(2016-12-18 revision 3ffa37c)-master*
G04 #@! TF.CreationDate,2017-03-25T21:08:44-07:00*
G04 #@! TF.ProjectId,Pensel,50656E73656C2E6B696361645F706362,rev?*
G04 #@! TF.FileFunction,Legend,Top*
G04 #@! TF.FilePolarity,Positive*
%FSLAX46Y46*%
G04 Gerber Fmt 4.6, Leading zero omitted, Abs format (unit mm)*
G04 Created by KiCad (PCBNEW (2016-12-18 revision 3ffa37c)-master) date Saturday, March 25, 2017 'PMt' 09:08:44 PM*
%MOMM*%
%LPD*%
G01*
G04 APERTURE LIST*
%ADD10C,0.100000*%
%ADD11C,0.200000*%
%ADD12C,0.150000*%
%ADD13C,0.075000*%
G04 APERTURE END LIST*
D10*
D11*
X85582843Y-139400000D02*
G75*
G03X85582843Y-139400000I-282843J0D01*
G01*
D12*
X105500000Y-148800000D02*
X110200000Y-148800000D01*
X110200000Y-141200000D02*
X105500000Y-141200000D01*
X105500000Y-141200000D02*
X105500000Y-148800000D01*
X90100000Y-150825000D02*
X90600000Y-150825000D01*
X90600000Y-149775000D02*
X90100000Y-149775000D01*
X97112311Y-144300000D02*
X96741080Y-144671231D01*
X89687689Y-144300000D02*
X90058920Y-143928769D01*
X93400000Y-148012311D02*
X93771231Y-147641080D01*
X93400000Y-140587689D02*
X93771231Y-140958920D01*
X89687689Y-144300000D02*
X90058920Y-144671231D01*
X93400000Y-148012311D02*
X93028769Y-147641080D01*
X97112311Y-144300000D02*
X96741080Y-143928769D01*
X50975000Y-140800000D02*
G75*
G03X50975000Y-140800000I-250000J0D01*
G01*
X54350000Y-141175000D02*
X53850000Y-141175000D01*
X54350000Y-144425000D02*
X53850000Y-144425000D01*
X51100000Y-144425000D02*
X51600000Y-144425000D01*
X51100000Y-141175000D02*
X51600000Y-141175000D01*
X54350000Y-144425000D02*
X54350000Y-143925000D01*
X51100000Y-144425000D02*
X51100000Y-143925000D01*
X54350000Y-141175000D02*
X54350000Y-141675000D01*
X88150000Y-150825000D02*
X88650000Y-150825000D01*
X88650000Y-149775000D02*
X88150000Y-149775000D01*
X79700000Y-150900000D02*
X79700000Y-149400000D01*
X81200000Y-150900000D02*
X79700000Y-150900000D01*
X86200000Y-150400000D02*
X82200000Y-150400000D01*
X86200000Y-148400000D02*
X86200000Y-150400000D01*
X82200000Y-148400000D02*
X86200000Y-148400000D01*
X82200000Y-150400000D02*
X82200000Y-148400000D01*
X95548008Y-140555546D02*
X95194454Y-140201992D01*
X94451992Y-140944454D02*
X94805546Y-141298008D01*
X103675000Y-146775000D02*
X103675000Y-147275000D01*
X100425000Y-150025000D02*
X100425000Y-149525000D01*
X103675000Y-150025000D02*
X103675000Y-149525000D01*
X100425000Y-146775000D02*
X100925000Y-146775000D01*
X100425000Y-150025000D02*
X100925000Y-150025000D01*
X103675000Y-150025000D02*
X103175000Y-150025000D01*
X103675000Y-146775000D02*
X103175000Y-146775000D01*
X100300000Y-146400000D02*
G75*
G03X100300000Y-146400000I-250000J0D01*
G01*
X102295000Y-143860000D02*
X102295000Y-143360000D01*
X101345000Y-143360000D02*
X101345000Y-143860000D01*
X66097000Y-150720000D02*
X58800000Y-150720000D01*
X58800000Y-150720000D02*
X58800000Y-148150000D01*
X64700000Y-146420000D02*
X60200000Y-146420000D01*
X66097000Y-150720000D02*
X66097000Y-148150000D01*
X68200000Y-146200000D02*
X80200000Y-146200000D01*
X80200000Y-146200000D02*
X80200000Y-141200000D01*
X80200000Y-141200000D02*
X68200000Y-141200000D01*
X68200000Y-141200000D02*
X68200000Y-146200000D01*
X71500000Y-145200000D02*
X77000000Y-145200000D01*
X77000000Y-145200000D02*
X77000000Y-142200000D01*
X77000000Y-142200000D02*
X71500000Y-142200000D01*
X71500000Y-142200000D02*
X71500000Y-145200000D01*
X98825000Y-149050000D02*
X98825000Y-149550000D01*
X99775000Y-149550000D02*
X99775000Y-149050000D01*
X55950000Y-141675000D02*
X56450000Y-141675000D01*
X56450000Y-140725000D02*
X55950000Y-140725000D01*
X99775000Y-147250000D02*
X99775000Y-146750000D01*
X98825000Y-146750000D02*
X98825000Y-147250000D01*
X52050000Y-145425000D02*
X51550000Y-145425000D01*
X51550000Y-146375000D02*
X52050000Y-146375000D01*
X92950000Y-149475000D02*
X93450000Y-149475000D01*
X93450000Y-148525000D02*
X92950000Y-148525000D01*
X101025000Y-146075000D02*
X101525000Y-146075000D01*
X101525000Y-145125000D02*
X101025000Y-145125000D01*
X54450000Y-146925000D02*
X53950000Y-146925000D01*
X53950000Y-147875000D02*
X54450000Y-147875000D01*
X88700000Y-148600000D02*
X88450000Y-148800000D01*
X88950000Y-148800000D02*
X88700000Y-148600000D01*
X89225000Y-148950000D02*
X89225000Y-147900000D01*
X88175000Y-148950000D02*
X88175000Y-147900000D01*
X89475000Y-148950000D02*
X89475000Y-147900000D01*
X90525000Y-148950000D02*
X90525000Y-147900000D01*
X90250000Y-148800000D02*
X90000000Y-148600000D01*
X90000000Y-148600000D02*
X89750000Y-148800000D01*
X88446661Y-141623188D02*
X87880975Y-141057502D01*
X83744401Y-146325448D02*
X88446661Y-141623188D01*
X83744401Y-146325448D02*
X81658436Y-144239483D01*
X81658436Y-144239483D02*
X84875771Y-141022147D01*
X87315290Y-140491817D02*
X86360696Y-139537223D01*
X86360696Y-139537223D02*
X85441457Y-140456462D01*
X62000000Y-142400000D02*
X62000000Y-140400000D01*
X62000000Y-140400000D02*
X66000000Y-140400000D01*
X66000000Y-140400000D02*
X66000000Y-142400000D01*
X66000000Y-142400000D02*
X62000000Y-142400000D01*
X61000000Y-142900000D02*
X59500000Y-142900000D01*
X59500000Y-142900000D02*
X59500000Y-141400000D01*
X62025000Y-144250000D02*
X62025000Y-143750000D01*
X60975000Y-143750000D02*
X60975000Y-144250000D01*
X62475000Y-143750000D02*
X62475000Y-144250000D01*
X63525000Y-144250000D02*
X63525000Y-143750000D01*
X103940000Y-143745000D02*
X103440000Y-143745000D01*
X103440000Y-144795000D02*
X103940000Y-144795000D01*
X103440000Y-146115000D02*
X103940000Y-146115000D01*
X103940000Y-145065000D02*
X103440000Y-145065000D01*
X51850000Y-147925000D02*
X52350000Y-147925000D01*
X52350000Y-146875000D02*
X51850000Y-146875000D01*
X66875000Y-141600000D02*
X66875000Y-142100000D01*
X67925000Y-142100000D02*
X67925000Y-141600000D01*
X68050000Y-147525000D02*
X68550000Y-147525000D01*
X68550000Y-146475000D02*
X68050000Y-146475000D01*
X79550000Y-139375000D02*
X79050000Y-139375000D01*
X79050000Y-140425000D02*
X79550000Y-140425000D01*
X51800000Y-149225000D02*
X52300000Y-149225000D01*
X52300000Y-148175000D02*
X51800000Y-148175000D01*
X56175000Y-143000000D02*
X56175000Y-142500000D01*
X55125000Y-142500000D02*
X55125000Y-143000000D01*
X105416666Y-141852380D02*
X105083333Y-141376190D01*
X104845238Y-141852380D02*
X104845238Y-140852380D01*
X105226190Y-140852380D01*
X105321428Y-140900000D01*
X105369047Y-140947619D01*
X105416666Y-141042857D01*
X105416666Y-141185714D01*
X105369047Y-141280952D01*
X105321428Y-141328571D01*
X105226190Y-141376190D01*
X104845238Y-141376190D01*
X105845238Y-141328571D02*
X106178571Y-141328571D01*
X106321428Y-141852380D02*
X105845238Y-141852380D01*
X105845238Y-140852380D01*
X106321428Y-140852380D01*
X107083333Y-141328571D02*
X106750000Y-141328571D01*
X106750000Y-141852380D02*
X106750000Y-140852380D01*
X107226190Y-140852380D01*
X107750000Y-140852380D02*
X107750000Y-141090476D01*
X107511904Y-140995238D02*
X107750000Y-141090476D01*
X107988095Y-140995238D01*
X107607142Y-141280952D02*
X107750000Y-141090476D01*
X107892857Y-141280952D01*
X108511904Y-140852380D02*
X108511904Y-141090476D01*
X108273809Y-140995238D02*
X108511904Y-141090476D01*
X108750000Y-140995238D01*
X108369047Y-141280952D02*
X108511904Y-141090476D01*
X108654761Y-141280952D01*
D13*
X108130952Y-140726190D02*
X108130952Y-140226190D01*
X108321428Y-140226190D01*
X108369047Y-140250000D01*
X108392857Y-140273809D01*
X108416666Y-140321428D01*
X108416666Y-140392857D01*
X108392857Y-140440476D01*
X108369047Y-140464285D01*
X108321428Y-140488095D01*
X108130952Y-140488095D01*
X108892857Y-140726190D02*
X108607142Y-140726190D01*
X108750000Y-140726190D02*
X108750000Y-140226190D01*
X108702380Y-140297619D01*
X108654761Y-140345238D01*
X108607142Y-140369047D01*
X91716666Y-150526190D02*
X91550000Y-150288095D01*
X91430952Y-150526190D02*
X91430952Y-150026190D01*
X91621428Y-150026190D01*
X91669047Y-150050000D01*
X91692857Y-150073809D01*
X91716666Y-150121428D01*
X91716666Y-150192857D01*
X91692857Y-150240476D01*
X91669047Y-150264285D01*
X91621428Y-150288095D01*
X91430952Y-150288095D01*
X92145238Y-150026190D02*
X92050000Y-150026190D01*
X92002380Y-150050000D01*
X91978571Y-150073809D01*
X91930952Y-150145238D01*
X91907142Y-150240476D01*
X91907142Y-150430952D01*
X91930952Y-150478571D01*
X91954761Y-150502380D01*
X92002380Y-150526190D01*
X92097619Y-150526190D01*
X92145238Y-150502380D01*
X92169047Y-150478571D01*
X92192857Y-150430952D01*
X92192857Y-150311904D01*
X92169047Y-150264285D01*
X92145238Y-150240476D01*
X92097619Y-150216666D01*
X92002380Y-150216666D01*
X91954761Y-150240476D01*
X91930952Y-150264285D01*
X91907142Y-150311904D01*
X91124238Y-141137013D02*
X90838028Y-141423223D01*
X90821192Y-141473730D01*
X90821192Y-141507402D01*
X90838028Y-141557910D01*
X90905372Y-141625253D01*
X90955879Y-141642089D01*
X90989551Y-141642089D01*
X91040059Y-141625253D01*
X91326269Y-141339043D01*
X91326269Y-142046150D02*
X91124238Y-141844120D01*
X91225253Y-141945135D02*
X91578807Y-141591582D01*
X91494627Y-141608417D01*
X91427284Y-141608417D01*
X91376776Y-141591582D01*
X53619047Y-139976190D02*
X53619047Y-140380952D01*
X53642857Y-140428571D01*
X53666666Y-140452380D01*
X53714285Y-140476190D01*
X53809523Y-140476190D01*
X53857142Y-140452380D01*
X53880952Y-140428571D01*
X53904761Y-140380952D01*
X53904761Y-139976190D01*
X54095238Y-139976190D02*
X54404761Y-139976190D01*
X54238095Y-140166666D01*
X54309523Y-140166666D01*
X54357142Y-140190476D01*
X54380952Y-140214285D01*
X54404761Y-140261904D01*
X54404761Y-140380952D01*
X54380952Y-140428571D01*
X54357142Y-140452380D01*
X54309523Y-140476190D01*
X54166666Y-140476190D01*
X54119047Y-140452380D01*
X54095238Y-140428571D01*
X86816666Y-150526190D02*
X86650000Y-150288095D01*
X86530952Y-150526190D02*
X86530952Y-150026190D01*
X86721428Y-150026190D01*
X86769047Y-150050000D01*
X86792857Y-150073809D01*
X86816666Y-150121428D01*
X86816666Y-150192857D01*
X86792857Y-150240476D01*
X86769047Y-150264285D01*
X86721428Y-150288095D01*
X86530952Y-150288095D01*
X87269047Y-150026190D02*
X87030952Y-150026190D01*
X87007142Y-150264285D01*
X87030952Y-150240476D01*
X87078571Y-150216666D01*
X87197619Y-150216666D01*
X87245238Y-150240476D01*
X87269047Y-150264285D01*
X87292857Y-150311904D01*
X87292857Y-150430952D01*
X87269047Y-150478571D01*
X87245238Y-150502380D01*
X87197619Y-150526190D01*
X87078571Y-150526190D01*
X87030952Y-150502380D01*
X87007142Y-150478571D01*
X78626190Y-150266666D02*
X78983333Y-150266666D01*
X79054761Y-150290476D01*
X79102380Y-150338095D01*
X79126190Y-150409523D01*
X79126190Y-150457142D01*
X78626190Y-149790476D02*
X78626190Y-150028571D01*
X78864285Y-150052380D01*
X78840476Y-150028571D01*
X78816666Y-149980952D01*
X78816666Y-149861904D01*
X78840476Y-149814285D01*
X78864285Y-149790476D01*
X78911904Y-149766666D01*
X79030952Y-149766666D01*
X79078571Y-149790476D01*
X79102380Y-149814285D01*
X79126190Y-149861904D01*
X79126190Y-149980952D01*
X79102380Y-150028571D01*
X79078571Y-150052380D01*
X95901015Y-142068866D02*
X95614805Y-142018358D01*
X95698984Y-142270896D02*
X95345431Y-141917343D01*
X95480118Y-141782656D01*
X95530625Y-141765820D01*
X95564297Y-141765820D01*
X95614805Y-141782656D01*
X95665312Y-141833164D01*
X95682148Y-141883671D01*
X95682148Y-141917343D01*
X95665312Y-141967851D01*
X95530625Y-142102538D01*
X95665312Y-141597461D02*
X95884179Y-141378595D01*
X95901015Y-141631133D01*
X95951522Y-141580625D01*
X96002030Y-141563790D01*
X96035702Y-141563790D01*
X96086209Y-141580625D01*
X96170389Y-141664805D01*
X96187225Y-141715312D01*
X96187225Y-141748984D01*
X96170389Y-141799492D01*
X96069374Y-141900507D01*
X96018866Y-141917343D01*
X95985194Y-141917343D01*
X104569047Y-150126190D02*
X104569047Y-150530952D01*
X104592857Y-150578571D01*
X104616666Y-150602380D01*
X104664285Y-150626190D01*
X104759523Y-150626190D01*
X104807142Y-150602380D01*
X104830952Y-150578571D01*
X104854761Y-150530952D01*
X104854761Y-150126190D01*
X105069047Y-150173809D02*
X105092857Y-150150000D01*
X105140476Y-150126190D01*
X105259523Y-150126190D01*
X105307142Y-150150000D01*
X105330952Y-150173809D01*
X105354761Y-150221428D01*
X105354761Y-150269047D01*
X105330952Y-150340476D01*
X105045238Y-150626190D01*
X105354761Y-150626190D01*
X101998571Y-141893333D02*
X102022380Y-141917142D01*
X102046190Y-141988571D01*
X102046190Y-142036190D01*
X102022380Y-142107619D01*
X101974761Y-142155238D01*
X101927142Y-142179047D01*
X101831904Y-142202857D01*
X101760476Y-142202857D01*
X101665238Y-142179047D01*
X101617619Y-142155238D01*
X101570000Y-142107619D01*
X101546190Y-142036190D01*
X101546190Y-141988571D01*
X101570000Y-141917142D01*
X101593809Y-141893333D01*
X101760476Y-141607619D02*
X101736666Y-141655238D01*
X101712857Y-141679047D01*
X101665238Y-141702857D01*
X101641428Y-141702857D01*
X101593809Y-141679047D01*
X101570000Y-141655238D01*
X101546190Y-141607619D01*
X101546190Y-141512380D01*
X101570000Y-141464761D01*
X101593809Y-141440952D01*
X101641428Y-141417142D01*
X101665238Y-141417142D01*
X101712857Y-141440952D01*
X101736666Y-141464761D01*
X101760476Y-141512380D01*
X101760476Y-141607619D01*
X101784285Y-141655238D01*
X101808095Y-141679047D01*
X101855714Y-141702857D01*
X101950952Y-141702857D01*
X101998571Y-141679047D01*
X102022380Y-141655238D01*
X102046190Y-141607619D01*
X102046190Y-141512380D01*
X102022380Y-141464761D01*
X101998571Y-141440952D01*
X101950952Y-141417142D01*
X101855714Y-141417142D01*
X101808095Y-141440952D01*
X101784285Y-141464761D01*
X101760476Y-141512380D01*
X57302380Y-147916666D02*
X57326190Y-147845238D01*
X57326190Y-147726190D01*
X57302380Y-147678571D01*
X57278571Y-147654761D01*
X57230952Y-147630952D01*
X57183333Y-147630952D01*
X57135714Y-147654761D01*
X57111904Y-147678571D01*
X57088095Y-147726190D01*
X57064285Y-147821428D01*
X57040476Y-147869047D01*
X57016666Y-147892857D01*
X56969047Y-147916666D01*
X56921428Y-147916666D01*
X56873809Y-147892857D01*
X56850000Y-147869047D01*
X56826190Y-147821428D01*
X56826190Y-147702380D01*
X56850000Y-147630952D01*
X56826190Y-147464285D02*
X57326190Y-147345238D01*
X56969047Y-147250000D01*
X57326190Y-147154761D01*
X56826190Y-147035714D01*
X56826190Y-146892857D02*
X56826190Y-146583333D01*
X57016666Y-146750000D01*
X57016666Y-146678571D01*
X57040476Y-146630952D01*
X57064285Y-146607142D01*
X57111904Y-146583333D01*
X57230952Y-146583333D01*
X57278571Y-146607142D01*
X57302380Y-146630952D01*
X57326190Y-146678571D01*
X57326190Y-146821428D01*
X57302380Y-146869047D01*
X57278571Y-146892857D01*
X73533333Y-146902380D02*
X73604761Y-146926190D01*
X73723809Y-146926190D01*
X73771428Y-146902380D01*
X73795238Y-146878571D01*
X73819047Y-146830952D01*
X73819047Y-146783333D01*
X73795238Y-146735714D01*
X73771428Y-146711904D01*
X73723809Y-146688095D01*
X73628571Y-146664285D01*
X73580952Y-146640476D01*
X73557142Y-146616666D01*
X73533333Y-146569047D01*
X73533333Y-146521428D01*
X73557142Y-146473809D01*
X73580952Y-146450000D01*
X73628571Y-146426190D01*
X73747619Y-146426190D01*
X73819047Y-146450000D01*
X73985714Y-146426190D02*
X74104761Y-146926190D01*
X74200000Y-146569047D01*
X74295238Y-146926190D01*
X74414285Y-146426190D01*
X74819047Y-146592857D02*
X74819047Y-146926190D01*
X74700000Y-146402380D02*
X74580952Y-146759523D01*
X74890476Y-146759523D01*
X98578571Y-150183333D02*
X98602380Y-150207142D01*
X98626190Y-150278571D01*
X98626190Y-150326190D01*
X98602380Y-150397619D01*
X98554761Y-150445238D01*
X98507142Y-150469047D01*
X98411904Y-150492857D01*
X98340476Y-150492857D01*
X98245238Y-150469047D01*
X98197619Y-150445238D01*
X98150000Y-150397619D01*
X98126190Y-150326190D01*
X98126190Y-150278571D01*
X98150000Y-150207142D01*
X98173809Y-150183333D01*
X98626190Y-149707142D02*
X98626190Y-149992857D01*
X98626190Y-149850000D02*
X98126190Y-149850000D01*
X98197619Y-149897619D01*
X98245238Y-149945238D01*
X98269047Y-149992857D01*
X56666666Y-140428571D02*
X56642857Y-140452380D01*
X56571428Y-140476190D01*
X56523809Y-140476190D01*
X56452380Y-140452380D01*
X56404761Y-140404761D01*
X56380952Y-140357142D01*
X56357142Y-140261904D01*
X56357142Y-140190476D01*
X56380952Y-140095238D01*
X56404761Y-140047619D01*
X56452380Y-140000000D01*
X56523809Y-139976190D01*
X56571428Y-139976190D01*
X56642857Y-140000000D01*
X56666666Y-140023809D01*
X56857142Y-140023809D02*
X56880952Y-140000000D01*
X56928571Y-139976190D01*
X57047619Y-139976190D01*
X57095238Y-140000000D01*
X57119047Y-140023809D01*
X57142857Y-140071428D01*
X57142857Y-140119047D01*
X57119047Y-140190476D01*
X56833333Y-140476190D01*
X57142857Y-140476190D01*
X98578571Y-147483333D02*
X98602380Y-147507142D01*
X98626190Y-147578571D01*
X98626190Y-147626190D01*
X98602380Y-147697619D01*
X98554761Y-147745238D01*
X98507142Y-147769047D01*
X98411904Y-147792857D01*
X98340476Y-147792857D01*
X98245238Y-147769047D01*
X98197619Y-147745238D01*
X98150000Y-147697619D01*
X98126190Y-147626190D01*
X98126190Y-147578571D01*
X98150000Y-147507142D01*
X98173809Y-147483333D01*
X98126190Y-147316666D02*
X98126190Y-147007142D01*
X98316666Y-147173809D01*
X98316666Y-147102380D01*
X98340476Y-147054761D01*
X98364285Y-147030952D01*
X98411904Y-147007142D01*
X98530952Y-147007142D01*
X98578571Y-147030952D01*
X98602380Y-147054761D01*
X98626190Y-147102380D01*
X98626190Y-147245238D01*
X98602380Y-147292857D01*
X98578571Y-147316666D01*
D12*
X51633333Y-144557142D02*
X51585714Y-144604761D01*
X51442857Y-144652380D01*
X51347619Y-144652380D01*
X51204761Y-144604761D01*
X51109523Y-144509523D01*
X51061904Y-144414285D01*
X51014285Y-144223809D01*
X51014285Y-144080952D01*
X51061904Y-143890476D01*
X51109523Y-143795238D01*
X51204761Y-143700000D01*
X51347619Y-143652380D01*
X51442857Y-143652380D01*
X51585714Y-143700000D01*
X51633333Y-143747619D01*
X52490476Y-143985714D02*
X52490476Y-144652380D01*
X52252380Y-143604761D02*
X52014285Y-144319047D01*
X52633333Y-144319047D01*
D13*
X91416666Y-149228571D02*
X91392857Y-149252380D01*
X91321428Y-149276190D01*
X91273809Y-149276190D01*
X91202380Y-149252380D01*
X91154761Y-149204761D01*
X91130952Y-149157142D01*
X91107142Y-149061904D01*
X91107142Y-148990476D01*
X91130952Y-148895238D01*
X91154761Y-148847619D01*
X91202380Y-148800000D01*
X91273809Y-148776190D01*
X91321428Y-148776190D01*
X91392857Y-148800000D01*
X91416666Y-148823809D01*
X91845238Y-148776190D02*
X91750000Y-148776190D01*
X91702380Y-148800000D01*
X91678571Y-148823809D01*
X91630952Y-148895238D01*
X91607142Y-148990476D01*
X91607142Y-149180952D01*
X91630952Y-149228571D01*
X91654761Y-149252380D01*
X91702380Y-149276190D01*
X91797619Y-149276190D01*
X91845238Y-149252380D01*
X91869047Y-149228571D01*
X91892857Y-149180952D01*
X91892857Y-149061904D01*
X91869047Y-149014285D01*
X91845238Y-148990476D01*
X91797619Y-148966666D01*
X91702380Y-148966666D01*
X91654761Y-148990476D01*
X91630952Y-149014285D01*
X91607142Y-149061904D01*
X101241666Y-144778571D02*
X101217857Y-144802380D01*
X101146428Y-144826190D01*
X101098809Y-144826190D01*
X101027380Y-144802380D01*
X100979761Y-144754761D01*
X100955952Y-144707142D01*
X100932142Y-144611904D01*
X100932142Y-144540476D01*
X100955952Y-144445238D01*
X100979761Y-144397619D01*
X101027380Y-144350000D01*
X101098809Y-144326190D01*
X101146428Y-144326190D01*
X101217857Y-144350000D01*
X101241666Y-144373809D01*
X101479761Y-144826190D02*
X101575000Y-144826190D01*
X101622619Y-144802380D01*
X101646428Y-144778571D01*
X101694047Y-144707142D01*
X101717857Y-144611904D01*
X101717857Y-144421428D01*
X101694047Y-144373809D01*
X101670238Y-144350000D01*
X101622619Y-144326190D01*
X101527380Y-144326190D01*
X101479761Y-144350000D01*
X101455952Y-144373809D01*
X101432142Y-144421428D01*
X101432142Y-144540476D01*
X101455952Y-144588095D01*
X101479761Y-144611904D01*
X101527380Y-144635714D01*
X101622619Y-144635714D01*
X101670238Y-144611904D01*
X101694047Y-144588095D01*
X101717857Y-144540476D01*
X54128571Y-146378571D02*
X54104761Y-146402380D01*
X54033333Y-146426190D01*
X53985714Y-146426190D01*
X53914285Y-146402380D01*
X53866666Y-146354761D01*
X53842857Y-146307142D01*
X53819047Y-146211904D01*
X53819047Y-146140476D01*
X53842857Y-146045238D01*
X53866666Y-145997619D01*
X53914285Y-145950000D01*
X53985714Y-145926190D01*
X54033333Y-145926190D01*
X54104761Y-145950000D01*
X54128571Y-145973809D01*
X54604761Y-146426190D02*
X54319047Y-146426190D01*
X54461904Y-146426190D02*
X54461904Y-145926190D01*
X54414285Y-145997619D01*
X54366666Y-146045238D01*
X54319047Y-146069047D01*
X54842857Y-146426190D02*
X54938095Y-146426190D01*
X54985714Y-146402380D01*
X55009523Y-146378571D01*
X55057142Y-146307142D01*
X55080952Y-146211904D01*
X55080952Y-146021428D01*
X55057142Y-145973809D01*
X55033333Y-145950000D01*
X54985714Y-145926190D01*
X54890476Y-145926190D01*
X54842857Y-145950000D01*
X54819047Y-145973809D01*
X54795238Y-146021428D01*
X54795238Y-146140476D01*
X54819047Y-146188095D01*
X54842857Y-146211904D01*
X54890476Y-146235714D01*
X54985714Y-146235714D01*
X55033333Y-146211904D01*
X55057142Y-146188095D01*
X55080952Y-146140476D01*
X88916190Y-150419047D02*
X88416190Y-150419047D01*
X88416190Y-150300000D01*
X88440000Y-150228571D01*
X88487619Y-150180952D01*
X88535238Y-150157142D01*
X88630476Y-150133333D01*
X88701904Y-150133333D01*
X88797142Y-150157142D01*
X88844761Y-150180952D01*
X88892380Y-150228571D01*
X88916190Y-150300000D01*
X88916190Y-150419047D01*
X88463809Y-149942857D02*
X88440000Y-149919047D01*
X88416190Y-149871428D01*
X88416190Y-149752380D01*
X88440000Y-149704761D01*
X88463809Y-149680952D01*
X88511428Y-149657142D01*
X88559047Y-149657142D01*
X88630476Y-149680952D01*
X88916190Y-149966666D01*
X88916190Y-149657142D01*
X90156190Y-147709047D02*
X89656190Y-147709047D01*
X89656190Y-147590000D01*
X89680000Y-147518571D01*
X89727619Y-147470952D01*
X89775238Y-147447142D01*
X89870476Y-147423333D01*
X89941904Y-147423333D01*
X90037142Y-147447142D01*
X90084761Y-147470952D01*
X90132380Y-147518571D01*
X90156190Y-147590000D01*
X90156190Y-147709047D01*
X89656190Y-147256666D02*
X89656190Y-146947142D01*
X89846666Y-147113809D01*
X89846666Y-147042380D01*
X89870476Y-146994761D01*
X89894285Y-146970952D01*
X89941904Y-146947142D01*
X90060952Y-146947142D01*
X90108571Y-146970952D01*
X90132380Y-146994761D01*
X90156190Y-147042380D01*
X90156190Y-147185238D01*
X90132380Y-147232857D01*
X90108571Y-147256666D01*
X87475761Y-139288536D02*
X87223223Y-139541074D01*
X87155879Y-139574746D01*
X87088536Y-139574746D01*
X87021192Y-139541074D01*
X86987521Y-139507402D01*
X87610448Y-139423223D02*
X87829314Y-139642089D01*
X87576776Y-139658925D01*
X87627284Y-139709433D01*
X87644120Y-139759940D01*
X87644120Y-139793612D01*
X87627284Y-139844120D01*
X87543104Y-139928299D01*
X87492597Y-139945135D01*
X87458925Y-139945135D01*
X87408417Y-139928299D01*
X87307402Y-139827284D01*
X87290566Y-139776776D01*
X87290566Y-139743104D01*
X58426190Y-141566666D02*
X58783333Y-141566666D01*
X58854761Y-141590476D01*
X58902380Y-141638095D01*
X58926190Y-141709523D01*
X58926190Y-141757142D01*
X58592857Y-141114285D02*
X58926190Y-141114285D01*
X58402380Y-141233333D02*
X58759523Y-141352380D01*
X58759523Y-141042857D01*
X61416666Y-145476190D02*
X61250000Y-145238095D01*
X61130952Y-145476190D02*
X61130952Y-144976190D01*
X61321428Y-144976190D01*
X61369047Y-145000000D01*
X61392857Y-145023809D01*
X61416666Y-145071428D01*
X61416666Y-145142857D01*
X61392857Y-145190476D01*
X61369047Y-145214285D01*
X61321428Y-145238095D01*
X61130952Y-145238095D01*
X61892857Y-145476190D02*
X61607142Y-145476190D01*
X61750000Y-145476190D02*
X61750000Y-144976190D01*
X61702380Y-145047619D01*
X61654761Y-145095238D01*
X61607142Y-145119047D01*
X62916666Y-145476190D02*
X62750000Y-145238095D01*
X62630952Y-145476190D02*
X62630952Y-144976190D01*
X62821428Y-144976190D01*
X62869047Y-145000000D01*
X62892857Y-145023809D01*
X62916666Y-145071428D01*
X62916666Y-145142857D01*
X62892857Y-145190476D01*
X62869047Y-145214285D01*
X62821428Y-145238095D01*
X62630952Y-145238095D01*
X63107142Y-145023809D02*
X63130952Y-145000000D01*
X63178571Y-144976190D01*
X63297619Y-144976190D01*
X63345238Y-145000000D01*
X63369047Y-145023809D01*
X63392857Y-145071428D01*
X63392857Y-145119047D01*
X63369047Y-145190476D01*
X63083333Y-145476190D01*
X63392857Y-145476190D01*
X102096666Y-144156190D02*
X101930000Y-143918095D01*
X101810952Y-144156190D02*
X101810952Y-143656190D01*
X102001428Y-143656190D01*
X102049047Y-143680000D01*
X102072857Y-143703809D01*
X102096666Y-143751428D01*
X102096666Y-143822857D01*
X102072857Y-143870476D01*
X102049047Y-143894285D01*
X102001428Y-143918095D01*
X101810952Y-143918095D01*
X102382380Y-143870476D02*
X102334761Y-143846666D01*
X102310952Y-143822857D01*
X102287142Y-143775238D01*
X102287142Y-143751428D01*
X102310952Y-143703809D01*
X102334761Y-143680000D01*
X102382380Y-143656190D01*
X102477619Y-143656190D01*
X102525238Y-143680000D01*
X102549047Y-143703809D01*
X102572857Y-143751428D01*
X102572857Y-143775238D01*
X102549047Y-143822857D01*
X102525238Y-143846666D01*
X102477619Y-143870476D01*
X102382380Y-143870476D01*
X102334761Y-143894285D01*
X102310952Y-143918095D01*
X102287142Y-143965714D01*
X102287142Y-144060952D01*
X102310952Y-144108571D01*
X102334761Y-144132380D01*
X102382380Y-144156190D01*
X102477619Y-144156190D01*
X102525238Y-144132380D01*
X102549047Y-144108571D01*
X102572857Y-144060952D01*
X102572857Y-143965714D01*
X102549047Y-143918095D01*
X102525238Y-143894285D01*
X102477619Y-143870476D01*
X102146666Y-145596190D02*
X101980000Y-145358095D01*
X101860952Y-145596190D02*
X101860952Y-145096190D01*
X102051428Y-145096190D01*
X102099047Y-145120000D01*
X102122857Y-145143809D01*
X102146666Y-145191428D01*
X102146666Y-145262857D01*
X102122857Y-145310476D01*
X102099047Y-145334285D01*
X102051428Y-145358095D01*
X101860952Y-145358095D01*
X102384761Y-145596190D02*
X102480000Y-145596190D01*
X102527619Y-145572380D01*
X102551428Y-145548571D01*
X102599047Y-145477142D01*
X102622857Y-145381904D01*
X102622857Y-145191428D01*
X102599047Y-145143809D01*
X102575238Y-145120000D01*
X102527619Y-145096190D01*
X102432380Y-145096190D01*
X102384761Y-145120000D01*
X102360952Y-145143809D01*
X102337142Y-145191428D01*
X102337142Y-145310476D01*
X102360952Y-145358095D01*
X102384761Y-145381904D01*
X102432380Y-145405714D01*
X102527619Y-145405714D01*
X102575238Y-145381904D01*
X102599047Y-145358095D01*
X102622857Y-145310476D01*
X53478571Y-147626190D02*
X53311904Y-147388095D01*
X53192857Y-147626190D02*
X53192857Y-147126190D01*
X53383333Y-147126190D01*
X53430952Y-147150000D01*
X53454761Y-147173809D01*
X53478571Y-147221428D01*
X53478571Y-147292857D01*
X53454761Y-147340476D01*
X53430952Y-147364285D01*
X53383333Y-147388095D01*
X53192857Y-147388095D01*
X53954761Y-147626190D02*
X53669047Y-147626190D01*
X53811904Y-147626190D02*
X53811904Y-147126190D01*
X53764285Y-147197619D01*
X53716666Y-147245238D01*
X53669047Y-147269047D01*
X54264285Y-147126190D02*
X54311904Y-147126190D01*
X54359523Y-147150000D01*
X54383333Y-147173809D01*
X54407142Y-147221428D01*
X54430952Y-147316666D01*
X54430952Y-147435714D01*
X54407142Y-147530952D01*
X54383333Y-147578571D01*
X54359523Y-147602380D01*
X54311904Y-147626190D01*
X54264285Y-147626190D01*
X54216666Y-147602380D01*
X54192857Y-147578571D01*
X54169047Y-147530952D01*
X54145238Y-147435714D01*
X54145238Y-147316666D01*
X54169047Y-147221428D01*
X54192857Y-147173809D01*
X54216666Y-147150000D01*
X54264285Y-147126190D01*
X67926190Y-144221428D02*
X67688095Y-144388095D01*
X67926190Y-144507142D02*
X67426190Y-144507142D01*
X67426190Y-144316666D01*
X67450000Y-144269047D01*
X67473809Y-144245238D01*
X67521428Y-144221428D01*
X67592857Y-144221428D01*
X67640476Y-144245238D01*
X67664285Y-144269047D01*
X67688095Y-144316666D01*
X67688095Y-144507142D01*
X67926190Y-143745238D02*
X67926190Y-144030952D01*
X67926190Y-143888095D02*
X67426190Y-143888095D01*
X67497619Y-143935714D01*
X67545238Y-143983333D01*
X67569047Y-144030952D01*
X67426190Y-143578571D02*
X67426190Y-143269047D01*
X67616666Y-143435714D01*
X67616666Y-143364285D01*
X67640476Y-143316666D01*
X67664285Y-143292857D01*
X67711904Y-143269047D01*
X67830952Y-143269047D01*
X67878571Y-143292857D01*
X67902380Y-143316666D01*
X67926190Y-143364285D01*
X67926190Y-143507142D01*
X67902380Y-143554761D01*
X67878571Y-143578571D01*
X67878571Y-148326190D02*
X67711904Y-148088095D01*
X67592857Y-148326190D02*
X67592857Y-147826190D01*
X67783333Y-147826190D01*
X67830952Y-147850000D01*
X67854761Y-147873809D01*
X67878571Y-147921428D01*
X67878571Y-147992857D01*
X67854761Y-148040476D01*
X67830952Y-148064285D01*
X67783333Y-148088095D01*
X67592857Y-148088095D01*
X68354761Y-148326190D02*
X68069047Y-148326190D01*
X68211904Y-148326190D02*
X68211904Y-147826190D01*
X68164285Y-147897619D01*
X68116666Y-147945238D01*
X68069047Y-147969047D01*
X68783333Y-147992857D02*
X68783333Y-148326190D01*
X68664285Y-147802380D02*
X68545238Y-148159523D01*
X68854761Y-148159523D01*
X80678571Y-140126190D02*
X80511904Y-139888095D01*
X80392857Y-140126190D02*
X80392857Y-139626190D01*
X80583333Y-139626190D01*
X80630952Y-139650000D01*
X80654761Y-139673809D01*
X80678571Y-139721428D01*
X80678571Y-139792857D01*
X80654761Y-139840476D01*
X80630952Y-139864285D01*
X80583333Y-139888095D01*
X80392857Y-139888095D01*
X81154761Y-140126190D02*
X80869047Y-140126190D01*
X81011904Y-140126190D02*
X81011904Y-139626190D01*
X80964285Y-139697619D01*
X80916666Y-139745238D01*
X80869047Y-139769047D01*
X81607142Y-139626190D02*
X81369047Y-139626190D01*
X81345238Y-139864285D01*
X81369047Y-139840476D01*
X81416666Y-139816666D01*
X81535714Y-139816666D01*
X81583333Y-139840476D01*
X81607142Y-139864285D01*
X81630952Y-139911904D01*
X81630952Y-140030952D01*
X81607142Y-140078571D01*
X81583333Y-140102380D01*
X81535714Y-140126190D01*
X81416666Y-140126190D01*
X81369047Y-140102380D01*
X81345238Y-140078571D01*
X51583333Y-149476190D02*
X51583333Y-149833333D01*
X51559523Y-149904761D01*
X51511904Y-149952380D01*
X51440476Y-149976190D01*
X51392857Y-149976190D01*
X51821428Y-149976190D02*
X51821428Y-149476190D01*
X52011904Y-149476190D01*
X52059523Y-149500000D01*
X52083333Y-149523809D01*
X52107142Y-149571428D01*
X52107142Y-149642857D01*
X52083333Y-149690476D01*
X52059523Y-149714285D01*
X52011904Y-149738095D01*
X51821428Y-149738095D01*
X52297619Y-149523809D02*
X52321428Y-149500000D01*
X52369047Y-149476190D01*
X52488095Y-149476190D01*
X52535714Y-149500000D01*
X52559523Y-149523809D01*
X52583333Y-149571428D01*
X52583333Y-149619047D01*
X52559523Y-149690476D01*
X52273809Y-149976190D01*
X52583333Y-149976190D01*
D12*
X57902380Y-143392857D02*
X57426190Y-143726190D01*
X57902380Y-143964285D02*
X56902380Y-143964285D01*
X56902380Y-143583333D01*
X56950000Y-143488095D01*
X56997619Y-143440476D01*
X57092857Y-143392857D01*
X57235714Y-143392857D01*
X57330952Y-143440476D01*
X57378571Y-143488095D01*
X57426190Y-143583333D01*
X57426190Y-143964285D01*
X57902380Y-142440476D02*
X57902380Y-143011904D01*
X57902380Y-142726190D02*
X56902380Y-142726190D01*
X57045238Y-142821428D01*
X57140476Y-142916666D01*
X57188095Y-143011904D01*
X56902380Y-141583333D02*
X56902380Y-141773809D01*
X56950000Y-141869047D01*
X56997619Y-141916666D01*
X57140476Y-142011904D01*
X57330952Y-142059523D01*
X57711904Y-142059523D01*
X57807142Y-142011904D01*
X57854761Y-141964285D01*
X57902380Y-141869047D01*
X57902380Y-141678571D01*
X57854761Y-141583333D01*
X57807142Y-141535714D01*
X57711904Y-141488095D01*
X57473809Y-141488095D01*
X57378571Y-141535714D01*
X57330952Y-141583333D01*
X57283333Y-141678571D01*
X57283333Y-141869047D01*
X57330952Y-141964285D01*
X57378571Y-142011904D01*
X57473809Y-142059523D01*
M02*
