G04 #@! TF.GenerationSoftware,KiCad,Pcbnew,(2016-12-18 revision 3ffa37c)-master*
G04 #@! TF.CreationDate,2017-04-07T22:16:59-07:00*
G04 #@! TF.ProjectId,Pensel,50656E73656C2E6B696361645F706362,rev?*
G04 #@! TF.FileFunction,Legend,Top*
G04 #@! TF.FilePolarity,Positive*
%FSLAX46Y46*%
G04 Gerber Fmt 4.6, Leading zero omitted, Abs format (unit mm)*
G04 Created by KiCad (PCBNEW (2016-12-18 revision 3ffa37c)-master) date Friday, April 07, 2017 'PMt' 10:16:59 PM*
%MOMM*%
%LPD*%
G01*
G04 APERTURE LIST*
%ADD10C,0.100000*%
%ADD11C,0.150000*%
%ADD12C,0.187500*%
%ADD13C,0.200000*%
%ADD14C,0.075000*%
G04 APERTURE END LIST*
D10*
D11*
X77739285Y-150946428D02*
X78346428Y-150946428D01*
X78417857Y-150910714D01*
X78453571Y-150875000D01*
X78489285Y-150803571D01*
X78489285Y-150660714D01*
X78453571Y-150589285D01*
X78417857Y-150553571D01*
X78346428Y-150517857D01*
X77739285Y-150517857D01*
X78275000Y-150196428D02*
X78275000Y-149839285D01*
X78489285Y-150267857D02*
X77739285Y-150017857D01*
X78489285Y-149767857D01*
X78489285Y-149089285D02*
X78132142Y-149339285D01*
X78489285Y-149517857D02*
X77739285Y-149517857D01*
X77739285Y-149232142D01*
X77775000Y-149160714D01*
X77810714Y-149125000D01*
X77882142Y-149089285D01*
X77989285Y-149089285D01*
X78060714Y-149125000D01*
X78096428Y-149160714D01*
X78132142Y-149232142D01*
X78132142Y-149517857D01*
X77739285Y-148875000D02*
X77739285Y-148446428D01*
X78489285Y-148660714D02*
X77739285Y-148660714D01*
X76789285Y-148225000D02*
X76432142Y-148475000D01*
X76789285Y-148653571D02*
X76039285Y-148653571D01*
X76039285Y-148367857D01*
X76075000Y-148296428D01*
X76110714Y-148260714D01*
X76182142Y-148225000D01*
X76289285Y-148225000D01*
X76360714Y-148260714D01*
X76396428Y-148296428D01*
X76432142Y-148367857D01*
X76432142Y-148653571D01*
X76039285Y-147975000D02*
X76789285Y-147475000D01*
X76039285Y-147475000D02*
X76789285Y-147975000D01*
X74089285Y-148671428D02*
X74089285Y-148242857D01*
X74839285Y-148457142D02*
X74089285Y-148457142D01*
X74089285Y-148064285D02*
X74839285Y-147564285D01*
X74089285Y-147564285D02*
X74839285Y-148064285D01*
D12*
X52150000Y-149889285D02*
X52650000Y-149889285D01*
X52150000Y-150639285D01*
X52650000Y-150639285D01*
D13*
X53400000Y-149600000D02*
G75*
G03X53400000Y-149600000I-100000J0D01*
G01*
X53712311Y-149600000D02*
G75*
G03X53712311Y-149600000I-412311J0D01*
G01*
X52500000Y-147480952D02*
X52500000Y-147861904D01*
X52233333Y-147061904D02*
X52500000Y-147480952D01*
X52766666Y-147061904D01*
X53300000Y-147300000D02*
X53100000Y-147600000D01*
X53300000Y-148800000D02*
X53300000Y-147300000D01*
X53600000Y-147700000D02*
X53300000Y-147300000D01*
X53000000Y-147700000D02*
X53600000Y-147700000D01*
X53300000Y-147300000D02*
X53000000Y-147700000D01*
X55038095Y-148952380D02*
X55561904Y-148285714D01*
X55038095Y-148285714D02*
X55561904Y-148952380D01*
X55600000Y-149600000D02*
X55300000Y-149400000D01*
X55200000Y-149900000D02*
X55600000Y-149600000D01*
X55200000Y-149300000D02*
X55200000Y-149900000D01*
X55600000Y-149600000D02*
X55200000Y-149300000D01*
X54100000Y-149600000D02*
X55600000Y-149600000D01*
X67066666Y-150738095D02*
X67066666Y-150261904D01*
X67352380Y-150833333D02*
X66352380Y-150500000D01*
X67352380Y-150166666D01*
X66352380Y-149833333D02*
X67161904Y-149833333D01*
X67257142Y-149785714D01*
X67304761Y-149738095D01*
X67352380Y-149642857D01*
X67352380Y-149452380D01*
X67304761Y-149357142D01*
X67257142Y-149309523D01*
X67161904Y-149261904D01*
X66352380Y-149261904D01*
X66352380Y-148880952D02*
X67352380Y-148214285D01*
X66352380Y-148214285D02*
X67352380Y-148880952D01*
X72190476Y-140852380D02*
X72190476Y-139852380D01*
X72523809Y-140566666D01*
X72857142Y-139852380D01*
X72857142Y-140852380D01*
X73523809Y-139852380D02*
X73714285Y-139852380D01*
X73809523Y-139900000D01*
X73904761Y-139995238D01*
X73952380Y-140185714D01*
X73952380Y-140519047D01*
X73904761Y-140709523D01*
X73809523Y-140804761D01*
X73714285Y-140852380D01*
X73523809Y-140852380D01*
X73428571Y-140804761D01*
X73333333Y-140709523D01*
X73285714Y-140519047D01*
X73285714Y-140185714D01*
X73333333Y-139995238D01*
X73428571Y-139900000D01*
X73523809Y-139852380D01*
X74380952Y-140852380D02*
X74380952Y-139852380D01*
X74619047Y-139852380D01*
X74761904Y-139900000D01*
X74857142Y-139995238D01*
X74904761Y-140090476D01*
X74952380Y-140280952D01*
X74952380Y-140423809D01*
X74904761Y-140614285D01*
X74857142Y-140709523D01*
X74761904Y-140804761D01*
X74619047Y-140852380D01*
X74380952Y-140852380D01*
X75380952Y-140328571D02*
X75714285Y-140328571D01*
X75857142Y-140852380D02*
X75380952Y-140852380D01*
X75380952Y-139852380D01*
X75857142Y-139852380D01*
D11*
X64928571Y-139225000D02*
X64857142Y-139189285D01*
X64750000Y-139189285D01*
X64642857Y-139225000D01*
X64571428Y-139296428D01*
X64535714Y-139367857D01*
X64500000Y-139510714D01*
X64500000Y-139617857D01*
X64535714Y-139760714D01*
X64571428Y-139832142D01*
X64642857Y-139903571D01*
X64750000Y-139939285D01*
X64821428Y-139939285D01*
X64928571Y-139903571D01*
X64964285Y-139867857D01*
X64964285Y-139617857D01*
X64821428Y-139617857D01*
X65285714Y-139939285D02*
X65285714Y-139189285D01*
X65714285Y-139939285D01*
X65714285Y-139189285D01*
X66071428Y-139939285D02*
X66071428Y-139189285D01*
X66250000Y-139189285D01*
X66357142Y-139225000D01*
X66428571Y-139296428D01*
X66464285Y-139367857D01*
X66500000Y-139510714D01*
X66500000Y-139617857D01*
X66464285Y-139760714D01*
X66428571Y-139832142D01*
X66357142Y-139903571D01*
X66250000Y-139939285D01*
X66071428Y-139939285D01*
X62057142Y-139928571D02*
X62164285Y-139964285D01*
X62342857Y-139964285D01*
X62414285Y-139928571D01*
X62450000Y-139892857D01*
X62485714Y-139821428D01*
X62485714Y-139750000D01*
X62450000Y-139678571D01*
X62414285Y-139642857D01*
X62342857Y-139607142D01*
X62200000Y-139571428D01*
X62128571Y-139535714D01*
X62092857Y-139500000D01*
X62057142Y-139428571D01*
X62057142Y-139357142D01*
X62092857Y-139285714D01*
X62128571Y-139250000D01*
X62200000Y-139214285D01*
X62378571Y-139214285D01*
X62485714Y-139250000D01*
X63235714Y-139892857D02*
X63200000Y-139928571D01*
X63092857Y-139964285D01*
X63021428Y-139964285D01*
X62914285Y-139928571D01*
X62842857Y-139857142D01*
X62807142Y-139785714D01*
X62771428Y-139642857D01*
X62771428Y-139535714D01*
X62807142Y-139392857D01*
X62842857Y-139321428D01*
X62914285Y-139250000D01*
X63021428Y-139214285D01*
X63092857Y-139214285D01*
X63200000Y-139250000D01*
X63235714Y-139285714D01*
X63914285Y-139964285D02*
X63557142Y-139964285D01*
X63557142Y-139214285D01*
X59739285Y-139903571D02*
X59846428Y-139939285D01*
X60025000Y-139939285D01*
X60096428Y-139903571D01*
X60132142Y-139867857D01*
X60167857Y-139796428D01*
X60167857Y-139725000D01*
X60132142Y-139653571D01*
X60096428Y-139617857D01*
X60025000Y-139582142D01*
X59882142Y-139546428D01*
X59810714Y-139510714D01*
X59775000Y-139475000D01*
X59739285Y-139403571D01*
X59739285Y-139332142D01*
X59775000Y-139260714D01*
X59810714Y-139225000D01*
X59882142Y-139189285D01*
X60060714Y-139189285D01*
X60167857Y-139225000D01*
X60489285Y-139939285D02*
X60489285Y-139189285D01*
X60667857Y-139189285D01*
X60775000Y-139225000D01*
X60846428Y-139296428D01*
X60882142Y-139367857D01*
X60917857Y-139510714D01*
X60917857Y-139617857D01*
X60882142Y-139760714D01*
X60846428Y-139832142D01*
X60775000Y-139903571D01*
X60667857Y-139939285D01*
X60489285Y-139939285D01*
X61203571Y-139725000D02*
X61560714Y-139725000D01*
X61132142Y-139939285D02*
X61382142Y-139189285D01*
X61632142Y-139939285D01*
X64492857Y-144064285D02*
X64492857Y-143314285D01*
X64814285Y-143385714D02*
X64850000Y-143350000D01*
X64921428Y-143314285D01*
X65100000Y-143314285D01*
X65171428Y-143350000D01*
X65207142Y-143385714D01*
X65242857Y-143457142D01*
X65242857Y-143528571D01*
X65207142Y-143635714D01*
X64778571Y-144064285D01*
X65242857Y-144064285D01*
X65992857Y-143992857D02*
X65957142Y-144028571D01*
X65850000Y-144064285D01*
X65778571Y-144064285D01*
X65671428Y-144028571D01*
X65600000Y-143957142D01*
X65564285Y-143885714D01*
X65528571Y-143742857D01*
X65528571Y-143635714D01*
X65564285Y-143492857D01*
X65600000Y-143421428D01*
X65671428Y-143350000D01*
X65778571Y-143314285D01*
X65850000Y-143314285D01*
X65957142Y-143350000D01*
X65992857Y-143385714D01*
D13*
X92607843Y-140550000D02*
G75*
G03X92607843Y-140550000I-282843J0D01*
G01*
X85582843Y-139400000D02*
G75*
G03X85582843Y-139400000I-282843J0D01*
G01*
D11*
X95666206Y-140823744D02*
X95312652Y-140470190D01*
X94570190Y-141212652D02*
X94923744Y-141566206D01*
X88446661Y-141623188D02*
X87880975Y-141057502D01*
X83744401Y-146325448D02*
X88446661Y-141623188D01*
X83744401Y-146325448D02*
X81658436Y-144239483D01*
X81658436Y-144239483D02*
X84875771Y-141022147D01*
X87315290Y-140491817D02*
X86360696Y-139537223D01*
X86360696Y-139537223D02*
X85441457Y-140456462D01*
X105500000Y-148800000D02*
X110200000Y-148800000D01*
X110200000Y-141200000D02*
X105500000Y-141200000D01*
X105500000Y-141200000D02*
X105500000Y-148800000D01*
X90775000Y-148450000D02*
X90775000Y-148950000D01*
X91825000Y-148950000D02*
X91825000Y-148450000D01*
X97112311Y-144300000D02*
X96741080Y-144671231D01*
X89687689Y-144300000D02*
X90058920Y-143928769D01*
X93400000Y-148012311D02*
X93771231Y-147641080D01*
X93400000Y-140587689D02*
X93771231Y-140958920D01*
X89687689Y-144300000D02*
X90058920Y-144671231D01*
X93400000Y-148012311D02*
X93028769Y-147641080D01*
X97112311Y-144300000D02*
X96741080Y-143928769D01*
X87925000Y-148950000D02*
X87925000Y-148450000D01*
X86875000Y-148450000D02*
X86875000Y-148950000D01*
X104361000Y-142236000D02*
X104361000Y-141736000D01*
X103411000Y-141736000D02*
X103411000Y-142236000D01*
X66097000Y-150720000D02*
X58800000Y-150720000D01*
X58800000Y-150720000D02*
X58800000Y-148150000D01*
X64700000Y-146420000D02*
X60200000Y-146420000D01*
X66097000Y-150720000D02*
X66097000Y-148150000D01*
X68200000Y-146200000D02*
X80200000Y-146200000D01*
X80200000Y-146200000D02*
X80200000Y-141200000D01*
X80200000Y-141200000D02*
X68200000Y-141200000D01*
X68200000Y-141200000D02*
X68200000Y-146200000D01*
X71500000Y-145200000D02*
X77000000Y-145200000D01*
X77000000Y-145200000D02*
X77000000Y-142200000D01*
X77000000Y-142200000D02*
X71500000Y-142200000D01*
X71500000Y-142200000D02*
X71500000Y-145200000D01*
X57650000Y-142700000D02*
X57650000Y-143200000D01*
X58600000Y-143200000D02*
X58600000Y-142700000D01*
X52250000Y-140525000D02*
X51750000Y-140525000D01*
X51750000Y-141475000D02*
X52250000Y-141475000D01*
X57325000Y-141325000D02*
X57825000Y-141325000D01*
X57825000Y-140375000D02*
X57325000Y-140375000D01*
X56100000Y-146100000D02*
X56600000Y-146100000D01*
X56600000Y-145150000D02*
X56100000Y-145150000D01*
X92950000Y-149475000D02*
X93450000Y-149475000D01*
X93450000Y-148525000D02*
X92950000Y-148525000D01*
X101858000Y-140683000D02*
X102358000Y-140683000D01*
X102358000Y-139733000D02*
X101858000Y-139733000D01*
X88700000Y-148600000D02*
X88450000Y-148800000D01*
X88950000Y-148800000D02*
X88700000Y-148600000D01*
X89225000Y-148950000D02*
X89225000Y-147900000D01*
X88175000Y-148950000D02*
X88175000Y-147900000D01*
X89475000Y-148950000D02*
X89475000Y-147900000D01*
X90525000Y-148950000D02*
X90525000Y-147900000D01*
X90250000Y-148800000D02*
X90000000Y-148600000D01*
X90000000Y-148600000D02*
X89750000Y-148800000D01*
X62000000Y-142400000D02*
X62000000Y-140400000D01*
X62000000Y-140400000D02*
X66000000Y-140400000D01*
X66000000Y-140400000D02*
X66000000Y-142400000D01*
X66000000Y-142400000D02*
X62000000Y-142400000D01*
X61000000Y-142900000D02*
X59500000Y-142900000D01*
X59500000Y-142900000D02*
X59500000Y-141400000D01*
X62025000Y-144250000D02*
X62025000Y-143750000D01*
X60975000Y-143750000D02*
X60975000Y-144250000D01*
X62475000Y-143750000D02*
X62475000Y-144250000D01*
X63525000Y-144250000D02*
X63525000Y-143750000D01*
X66875000Y-141600000D02*
X66875000Y-142100000D01*
X67925000Y-142100000D02*
X67925000Y-141600000D01*
X68050000Y-147525000D02*
X68550000Y-147525000D01*
X68550000Y-146475000D02*
X68050000Y-146475000D01*
X79550000Y-139375000D02*
X79050000Y-139375000D01*
X79050000Y-140425000D02*
X79550000Y-140425000D01*
X57857843Y-141450000D02*
G75*
G03X57857843Y-141450000I-282843J0D01*
G01*
X57375000Y-141650000D02*
X52175000Y-141650000D01*
X57375000Y-144850000D02*
X57375000Y-141650000D01*
X52175000Y-144850000D02*
X57375000Y-144850000D01*
X52175000Y-141650000D02*
X52175000Y-144850000D01*
X98290000Y-145650000D02*
X98290000Y-145125000D01*
X102590000Y-141350000D02*
X102590000Y-141875000D01*
X98290000Y-141350000D02*
X98290000Y-141875000D01*
X102590000Y-145650000D02*
X102065000Y-145650000D01*
X102590000Y-141350000D02*
X102065000Y-141350000D01*
X98290000Y-141350000D02*
X98815000Y-141350000D01*
X98290000Y-145650000D02*
X98815000Y-145650000D01*
X95700000Y-148525000D02*
X95200000Y-148525000D01*
X95200000Y-149475000D02*
X95700000Y-149475000D01*
X75400000Y-151000000D02*
X75400000Y-149000000D01*
X75400000Y-149000000D02*
X77400000Y-149000000D01*
X77400000Y-149000000D02*
X77400000Y-151000000D01*
X77400000Y-151000000D02*
X75400000Y-151000000D01*
X74400000Y-151500000D02*
X72900000Y-151500000D01*
X72900000Y-151500000D02*
X72900000Y-150000000D01*
D14*
X96201015Y-142118866D02*
X95914805Y-142068358D01*
X95998984Y-142320896D02*
X95645431Y-141967343D01*
X95780118Y-141832656D01*
X95830625Y-141815820D01*
X95864297Y-141815820D01*
X95914805Y-141832656D01*
X95965312Y-141883164D01*
X95982148Y-141933671D01*
X95982148Y-141967343D01*
X95965312Y-142017851D01*
X95830625Y-142152538D01*
X95965312Y-141647461D02*
X96184179Y-141428595D01*
X96201015Y-141681133D01*
X96251522Y-141630625D01*
X96302030Y-141613790D01*
X96335702Y-141613790D01*
X96386209Y-141630625D01*
X96470389Y-141714805D01*
X96487225Y-141765312D01*
X96487225Y-141798984D01*
X96470389Y-141849492D01*
X96369374Y-141950507D01*
X96318866Y-141967343D01*
X96285194Y-141967343D01*
X87475761Y-139288536D02*
X87223223Y-139541074D01*
X87155879Y-139574746D01*
X87088536Y-139574746D01*
X87021192Y-139541074D01*
X86987521Y-139507402D01*
X87610448Y-139423223D02*
X87829314Y-139642089D01*
X87576776Y-139658925D01*
X87627284Y-139709433D01*
X87644120Y-139759940D01*
X87644120Y-139793612D01*
X87627284Y-139844120D01*
X87543104Y-139928299D01*
X87492597Y-139945135D01*
X87458925Y-139945135D01*
X87408417Y-139928299D01*
X87307402Y-139827284D01*
X87290566Y-139776776D01*
X87290566Y-139743104D01*
X108130952Y-140551190D02*
X108130952Y-140051190D01*
X108321428Y-140051190D01*
X108369047Y-140075000D01*
X108392857Y-140098809D01*
X108416666Y-140146428D01*
X108416666Y-140217857D01*
X108392857Y-140265476D01*
X108369047Y-140289285D01*
X108321428Y-140313095D01*
X108130952Y-140313095D01*
X108892857Y-140551190D02*
X108607142Y-140551190D01*
X108750000Y-140551190D02*
X108750000Y-140051190D01*
X108702380Y-140122619D01*
X108654761Y-140170238D01*
X108607142Y-140194047D01*
X91526190Y-150233333D02*
X91288095Y-150400000D01*
X91526190Y-150519047D02*
X91026190Y-150519047D01*
X91026190Y-150328571D01*
X91050000Y-150280952D01*
X91073809Y-150257142D01*
X91121428Y-150233333D01*
X91192857Y-150233333D01*
X91240476Y-150257142D01*
X91264285Y-150280952D01*
X91288095Y-150328571D01*
X91288095Y-150519047D01*
X91026190Y-149804761D02*
X91026190Y-149900000D01*
X91050000Y-149947619D01*
X91073809Y-149971428D01*
X91145238Y-150019047D01*
X91240476Y-150042857D01*
X91430952Y-150042857D01*
X91478571Y-150019047D01*
X91502380Y-149995238D01*
X91526190Y-149947619D01*
X91526190Y-149852380D01*
X91502380Y-149804761D01*
X91478571Y-149780952D01*
X91430952Y-149757142D01*
X91311904Y-149757142D01*
X91264285Y-149780952D01*
X91240476Y-149804761D01*
X91216666Y-149852380D01*
X91216666Y-149947619D01*
X91240476Y-149995238D01*
X91264285Y-150019047D01*
X91311904Y-150042857D01*
X90837013Y-141675761D02*
X91123223Y-141961971D01*
X91173730Y-141978807D01*
X91207402Y-141978807D01*
X91257910Y-141961971D01*
X91325253Y-141894627D01*
X91342089Y-141844120D01*
X91342089Y-141810448D01*
X91325253Y-141759940D01*
X91039043Y-141473730D01*
X91746150Y-141473730D02*
X91544120Y-141675761D01*
X91645135Y-141574746D02*
X91291582Y-141221192D01*
X91308417Y-141305372D01*
X91308417Y-141372715D01*
X91291582Y-141423223D01*
X87626190Y-150383333D02*
X87388095Y-150550000D01*
X87626190Y-150669047D02*
X87126190Y-150669047D01*
X87126190Y-150478571D01*
X87150000Y-150430952D01*
X87173809Y-150407142D01*
X87221428Y-150383333D01*
X87292857Y-150383333D01*
X87340476Y-150407142D01*
X87364285Y-150430952D01*
X87388095Y-150478571D01*
X87388095Y-150669047D01*
X87126190Y-149930952D02*
X87126190Y-150169047D01*
X87364285Y-150192857D01*
X87340476Y-150169047D01*
X87316666Y-150121428D01*
X87316666Y-150002380D01*
X87340476Y-149954761D01*
X87364285Y-149930952D01*
X87411904Y-149907142D01*
X87530952Y-149907142D01*
X87578571Y-149930952D01*
X87602380Y-149954761D01*
X87626190Y-150002380D01*
X87626190Y-150121428D01*
X87602380Y-150169047D01*
X87578571Y-150192857D01*
X104318571Y-140545333D02*
X104342380Y-140569142D01*
X104366190Y-140640571D01*
X104366190Y-140688190D01*
X104342380Y-140759619D01*
X104294761Y-140807238D01*
X104247142Y-140831047D01*
X104151904Y-140854857D01*
X104080476Y-140854857D01*
X103985238Y-140831047D01*
X103937619Y-140807238D01*
X103890000Y-140759619D01*
X103866190Y-140688190D01*
X103866190Y-140640571D01*
X103890000Y-140569142D01*
X103913809Y-140545333D01*
X104080476Y-140259619D02*
X104056666Y-140307238D01*
X104032857Y-140331047D01*
X103985238Y-140354857D01*
X103961428Y-140354857D01*
X103913809Y-140331047D01*
X103890000Y-140307238D01*
X103866190Y-140259619D01*
X103866190Y-140164380D01*
X103890000Y-140116761D01*
X103913809Y-140092952D01*
X103961428Y-140069142D01*
X103985238Y-140069142D01*
X104032857Y-140092952D01*
X104056666Y-140116761D01*
X104080476Y-140164380D01*
X104080476Y-140259619D01*
X104104285Y-140307238D01*
X104128095Y-140331047D01*
X104175714Y-140354857D01*
X104270952Y-140354857D01*
X104318571Y-140331047D01*
X104342380Y-140307238D01*
X104366190Y-140259619D01*
X104366190Y-140164380D01*
X104342380Y-140116761D01*
X104318571Y-140092952D01*
X104270952Y-140069142D01*
X104175714Y-140069142D01*
X104128095Y-140092952D01*
X104104285Y-140116761D01*
X104080476Y-140164380D01*
X65733333Y-145502380D02*
X65804761Y-145526190D01*
X65923809Y-145526190D01*
X65971428Y-145502380D01*
X65995238Y-145478571D01*
X66019047Y-145430952D01*
X66019047Y-145383333D01*
X65995238Y-145335714D01*
X65971428Y-145311904D01*
X65923809Y-145288095D01*
X65828571Y-145264285D01*
X65780952Y-145240476D01*
X65757142Y-145216666D01*
X65733333Y-145169047D01*
X65733333Y-145121428D01*
X65757142Y-145073809D01*
X65780952Y-145050000D01*
X65828571Y-145026190D01*
X65947619Y-145026190D01*
X66019047Y-145050000D01*
X66185714Y-145026190D02*
X66304761Y-145526190D01*
X66400000Y-145169047D01*
X66495238Y-145526190D01*
X66614285Y-145026190D01*
X66757142Y-145026190D02*
X67066666Y-145026190D01*
X66900000Y-145216666D01*
X66971428Y-145216666D01*
X67019047Y-145240476D01*
X67042857Y-145264285D01*
X67066666Y-145311904D01*
X67066666Y-145430952D01*
X67042857Y-145478571D01*
X67019047Y-145502380D01*
X66971428Y-145526190D01*
X66828571Y-145526190D01*
X66780952Y-145502380D01*
X66757142Y-145478571D01*
X80902380Y-142666666D02*
X80926190Y-142595238D01*
X80926190Y-142476190D01*
X80902380Y-142428571D01*
X80878571Y-142404761D01*
X80830952Y-142380952D01*
X80783333Y-142380952D01*
X80735714Y-142404761D01*
X80711904Y-142428571D01*
X80688095Y-142476190D01*
X80664285Y-142571428D01*
X80640476Y-142619047D01*
X80616666Y-142642857D01*
X80569047Y-142666666D01*
X80521428Y-142666666D01*
X80473809Y-142642857D01*
X80450000Y-142619047D01*
X80426190Y-142571428D01*
X80426190Y-142452380D01*
X80450000Y-142380952D01*
X80426190Y-142214285D02*
X80926190Y-142095238D01*
X80569047Y-142000000D01*
X80926190Y-141904761D01*
X80426190Y-141785714D01*
X80592857Y-141380952D02*
X80926190Y-141380952D01*
X80402380Y-141500000D02*
X80759523Y-141619047D01*
X80759523Y-141309523D01*
X58278571Y-144653333D02*
X58302380Y-144677142D01*
X58326190Y-144748571D01*
X58326190Y-144796190D01*
X58302380Y-144867619D01*
X58254761Y-144915238D01*
X58207142Y-144939047D01*
X58111904Y-144962857D01*
X58040476Y-144962857D01*
X57945238Y-144939047D01*
X57897619Y-144915238D01*
X57850000Y-144867619D01*
X57826190Y-144796190D01*
X57826190Y-144748571D01*
X57850000Y-144677142D01*
X57873809Y-144653333D01*
X58326190Y-144177142D02*
X58326190Y-144462857D01*
X58326190Y-144320000D02*
X57826190Y-144320000D01*
X57897619Y-144367619D01*
X57945238Y-144415238D01*
X57969047Y-144462857D01*
X51846666Y-140348571D02*
X51822857Y-140372380D01*
X51751428Y-140396190D01*
X51703809Y-140396190D01*
X51632380Y-140372380D01*
X51584761Y-140324761D01*
X51560952Y-140277142D01*
X51537142Y-140181904D01*
X51537142Y-140110476D01*
X51560952Y-140015238D01*
X51584761Y-139967619D01*
X51632380Y-139920000D01*
X51703809Y-139896190D01*
X51751428Y-139896190D01*
X51822857Y-139920000D01*
X51846666Y-139943809D01*
X52037142Y-139943809D02*
X52060952Y-139920000D01*
X52108571Y-139896190D01*
X52227619Y-139896190D01*
X52275238Y-139920000D01*
X52299047Y-139943809D01*
X52322857Y-139991428D01*
X52322857Y-140039047D01*
X52299047Y-140110476D01*
X52013333Y-140396190D01*
X52322857Y-140396190D01*
X56916666Y-140128571D02*
X56892857Y-140152380D01*
X56821428Y-140176190D01*
X56773809Y-140176190D01*
X56702380Y-140152380D01*
X56654761Y-140104761D01*
X56630952Y-140057142D01*
X56607142Y-139961904D01*
X56607142Y-139890476D01*
X56630952Y-139795238D01*
X56654761Y-139747619D01*
X56702380Y-139700000D01*
X56773809Y-139676190D01*
X56821428Y-139676190D01*
X56892857Y-139700000D01*
X56916666Y-139723809D01*
X57083333Y-139676190D02*
X57392857Y-139676190D01*
X57226190Y-139866666D01*
X57297619Y-139866666D01*
X57345238Y-139890476D01*
X57369047Y-139914285D01*
X57392857Y-139961904D01*
X57392857Y-140080952D01*
X57369047Y-140128571D01*
X57345238Y-140152380D01*
X57297619Y-140176190D01*
X57154761Y-140176190D01*
X57107142Y-140152380D01*
X57083333Y-140128571D01*
X56316666Y-146778571D02*
X56292857Y-146802380D01*
X56221428Y-146826190D01*
X56173809Y-146826190D01*
X56102380Y-146802380D01*
X56054761Y-146754761D01*
X56030952Y-146707142D01*
X56007142Y-146611904D01*
X56007142Y-146540476D01*
X56030952Y-146445238D01*
X56054761Y-146397619D01*
X56102380Y-146350000D01*
X56173809Y-146326190D01*
X56221428Y-146326190D01*
X56292857Y-146350000D01*
X56316666Y-146373809D01*
X56745238Y-146492857D02*
X56745238Y-146826190D01*
X56626190Y-146302380D02*
X56507142Y-146659523D01*
X56816666Y-146659523D01*
X93116666Y-150178571D02*
X93092857Y-150202380D01*
X93021428Y-150226190D01*
X92973809Y-150226190D01*
X92902380Y-150202380D01*
X92854761Y-150154761D01*
X92830952Y-150107142D01*
X92807142Y-150011904D01*
X92807142Y-149940476D01*
X92830952Y-149845238D01*
X92854761Y-149797619D01*
X92902380Y-149750000D01*
X92973809Y-149726190D01*
X93021428Y-149726190D01*
X93092857Y-149750000D01*
X93116666Y-149773809D01*
X93545238Y-149726190D02*
X93450000Y-149726190D01*
X93402380Y-149750000D01*
X93378571Y-149773809D01*
X93330952Y-149845238D01*
X93307142Y-149940476D01*
X93307142Y-150130952D01*
X93330952Y-150178571D01*
X93354761Y-150202380D01*
X93402380Y-150226190D01*
X93497619Y-150226190D01*
X93545238Y-150202380D01*
X93569047Y-150178571D01*
X93592857Y-150130952D01*
X93592857Y-150011904D01*
X93569047Y-149964285D01*
X93545238Y-149940476D01*
X93497619Y-149916666D01*
X93402380Y-149916666D01*
X93354761Y-149940476D01*
X93330952Y-149964285D01*
X93307142Y-150011904D01*
X101024666Y-139486571D02*
X101000857Y-139510380D01*
X100929428Y-139534190D01*
X100881809Y-139534190D01*
X100810380Y-139510380D01*
X100762761Y-139462761D01*
X100738952Y-139415142D01*
X100715142Y-139319904D01*
X100715142Y-139248476D01*
X100738952Y-139153238D01*
X100762761Y-139105619D01*
X100810380Y-139058000D01*
X100881809Y-139034190D01*
X100929428Y-139034190D01*
X101000857Y-139058000D01*
X101024666Y-139081809D01*
X101262761Y-139534190D02*
X101358000Y-139534190D01*
X101405619Y-139510380D01*
X101429428Y-139486571D01*
X101477047Y-139415142D01*
X101500857Y-139319904D01*
X101500857Y-139129428D01*
X101477047Y-139081809D01*
X101453238Y-139058000D01*
X101405619Y-139034190D01*
X101310380Y-139034190D01*
X101262761Y-139058000D01*
X101238952Y-139081809D01*
X101215142Y-139129428D01*
X101215142Y-139248476D01*
X101238952Y-139296095D01*
X101262761Y-139319904D01*
X101310380Y-139343714D01*
X101405619Y-139343714D01*
X101453238Y-139319904D01*
X101477047Y-139296095D01*
X101500857Y-139248476D01*
X88926190Y-150669047D02*
X88426190Y-150669047D01*
X88426190Y-150550000D01*
X88450000Y-150478571D01*
X88497619Y-150430952D01*
X88545238Y-150407142D01*
X88640476Y-150383333D01*
X88711904Y-150383333D01*
X88807142Y-150407142D01*
X88854761Y-150430952D01*
X88902380Y-150478571D01*
X88926190Y-150550000D01*
X88926190Y-150669047D01*
X88473809Y-150192857D02*
X88450000Y-150169047D01*
X88426190Y-150121428D01*
X88426190Y-150002380D01*
X88450000Y-149954761D01*
X88473809Y-149930952D01*
X88521428Y-149907142D01*
X88569047Y-149907142D01*
X88640476Y-149930952D01*
X88926190Y-150216666D01*
X88926190Y-149907142D01*
X90226190Y-150669047D02*
X89726190Y-150669047D01*
X89726190Y-150550000D01*
X89750000Y-150478571D01*
X89797619Y-150430952D01*
X89845238Y-150407142D01*
X89940476Y-150383333D01*
X90011904Y-150383333D01*
X90107142Y-150407142D01*
X90154761Y-150430952D01*
X90202380Y-150478571D01*
X90226190Y-150550000D01*
X90226190Y-150669047D01*
X89726190Y-150216666D02*
X89726190Y-149907142D01*
X89916666Y-150073809D01*
X89916666Y-150002380D01*
X89940476Y-149954761D01*
X89964285Y-149930952D01*
X90011904Y-149907142D01*
X90130952Y-149907142D01*
X90178571Y-149930952D01*
X90202380Y-149954761D01*
X90226190Y-150002380D01*
X90226190Y-150145238D01*
X90202380Y-150192857D01*
X90178571Y-150216666D01*
X59833333Y-143176190D02*
X59833333Y-143533333D01*
X59809523Y-143604761D01*
X59761904Y-143652380D01*
X59690476Y-143676190D01*
X59642857Y-143676190D01*
X60285714Y-143342857D02*
X60285714Y-143676190D01*
X60166666Y-143152380D02*
X60047619Y-143509523D01*
X60357142Y-143509523D01*
X61416666Y-145526190D02*
X61250000Y-145288095D01*
X61130952Y-145526190D02*
X61130952Y-145026190D01*
X61321428Y-145026190D01*
X61369047Y-145050000D01*
X61392857Y-145073809D01*
X61416666Y-145121428D01*
X61416666Y-145192857D01*
X61392857Y-145240476D01*
X61369047Y-145264285D01*
X61321428Y-145288095D01*
X61130952Y-145288095D01*
X61892857Y-145526190D02*
X61607142Y-145526190D01*
X61750000Y-145526190D02*
X61750000Y-145026190D01*
X61702380Y-145097619D01*
X61654761Y-145145238D01*
X61607142Y-145169047D01*
X62916666Y-145526190D02*
X62750000Y-145288095D01*
X62630952Y-145526190D02*
X62630952Y-145026190D01*
X62821428Y-145026190D01*
X62869047Y-145050000D01*
X62892857Y-145073809D01*
X62916666Y-145121428D01*
X62916666Y-145192857D01*
X62892857Y-145240476D01*
X62869047Y-145264285D01*
X62821428Y-145288095D01*
X62630952Y-145288095D01*
X63107142Y-145073809D02*
X63130952Y-145050000D01*
X63178571Y-145026190D01*
X63297619Y-145026190D01*
X63345238Y-145050000D01*
X63369047Y-145073809D01*
X63392857Y-145121428D01*
X63392857Y-145169047D01*
X63369047Y-145240476D01*
X63083333Y-145526190D01*
X63392857Y-145526190D01*
X67626190Y-140521428D02*
X67388095Y-140688095D01*
X67626190Y-140807142D02*
X67126190Y-140807142D01*
X67126190Y-140616666D01*
X67150000Y-140569047D01*
X67173809Y-140545238D01*
X67221428Y-140521428D01*
X67292857Y-140521428D01*
X67340476Y-140545238D01*
X67364285Y-140569047D01*
X67388095Y-140616666D01*
X67388095Y-140807142D01*
X67626190Y-140045238D02*
X67626190Y-140330952D01*
X67626190Y-140188095D02*
X67126190Y-140188095D01*
X67197619Y-140235714D01*
X67245238Y-140283333D01*
X67269047Y-140330952D01*
X67126190Y-139878571D02*
X67126190Y-139569047D01*
X67316666Y-139735714D01*
X67316666Y-139664285D01*
X67340476Y-139616666D01*
X67364285Y-139592857D01*
X67411904Y-139569047D01*
X67530952Y-139569047D01*
X67578571Y-139592857D01*
X67602380Y-139616666D01*
X67626190Y-139664285D01*
X67626190Y-139807142D01*
X67602380Y-139854761D01*
X67578571Y-139878571D01*
X68078571Y-148326190D02*
X67911904Y-148088095D01*
X67792857Y-148326190D02*
X67792857Y-147826190D01*
X67983333Y-147826190D01*
X68030952Y-147850000D01*
X68054761Y-147873809D01*
X68078571Y-147921428D01*
X68078571Y-147992857D01*
X68054761Y-148040476D01*
X68030952Y-148064285D01*
X67983333Y-148088095D01*
X67792857Y-148088095D01*
X68554761Y-148326190D02*
X68269047Y-148326190D01*
X68411904Y-148326190D02*
X68411904Y-147826190D01*
X68364285Y-147897619D01*
X68316666Y-147945238D01*
X68269047Y-147969047D01*
X68983333Y-147992857D02*
X68983333Y-148326190D01*
X68864285Y-147802380D02*
X68745238Y-148159523D01*
X69054761Y-148159523D01*
X80678571Y-140126190D02*
X80511904Y-139888095D01*
X80392857Y-140126190D02*
X80392857Y-139626190D01*
X80583333Y-139626190D01*
X80630952Y-139650000D01*
X80654761Y-139673809D01*
X80678571Y-139721428D01*
X80678571Y-139792857D01*
X80654761Y-139840476D01*
X80630952Y-139864285D01*
X80583333Y-139888095D01*
X80392857Y-139888095D01*
X81154761Y-140126190D02*
X80869047Y-140126190D01*
X81011904Y-140126190D02*
X81011904Y-139626190D01*
X80964285Y-139697619D01*
X80916666Y-139745238D01*
X80869047Y-139769047D01*
X81607142Y-139626190D02*
X81369047Y-139626190D01*
X81345238Y-139864285D01*
X81369047Y-139840476D01*
X81416666Y-139816666D01*
X81535714Y-139816666D01*
X81583333Y-139840476D01*
X81607142Y-139864285D01*
X81630952Y-139911904D01*
X81630952Y-140030952D01*
X81607142Y-140078571D01*
X81583333Y-140102380D01*
X81535714Y-140126190D01*
X81416666Y-140126190D01*
X81369047Y-140102380D01*
X81345238Y-140078571D01*
X55519047Y-141026190D02*
X55519047Y-141430952D01*
X55542857Y-141478571D01*
X55566666Y-141502380D01*
X55614285Y-141526190D01*
X55709523Y-141526190D01*
X55757142Y-141502380D01*
X55780952Y-141478571D01*
X55804761Y-141430952D01*
X55804761Y-141026190D01*
X56019047Y-141073809D02*
X56042857Y-141050000D01*
X56090476Y-141026190D01*
X56209523Y-141026190D01*
X56257142Y-141050000D01*
X56280952Y-141073809D01*
X56304761Y-141121428D01*
X56304761Y-141169047D01*
X56280952Y-141240476D01*
X55995238Y-141526190D01*
X56304761Y-141526190D01*
X102619047Y-146326190D02*
X102619047Y-146730952D01*
X102642857Y-146778571D01*
X102666666Y-146802380D01*
X102714285Y-146826190D01*
X102809523Y-146826190D01*
X102857142Y-146802380D01*
X102880952Y-146778571D01*
X102904761Y-146730952D01*
X102904761Y-146326190D01*
X103095238Y-146326190D02*
X103404761Y-146326190D01*
X103238095Y-146516666D01*
X103309523Y-146516666D01*
X103357142Y-146540476D01*
X103380952Y-146564285D01*
X103404761Y-146611904D01*
X103404761Y-146730952D01*
X103380952Y-146778571D01*
X103357142Y-146802380D01*
X103309523Y-146826190D01*
X103166666Y-146826190D01*
X103119047Y-146802380D01*
X103095238Y-146778571D01*
X95078571Y-150278571D02*
X95054761Y-150302380D01*
X94983333Y-150326190D01*
X94935714Y-150326190D01*
X94864285Y-150302380D01*
X94816666Y-150254761D01*
X94792857Y-150207142D01*
X94769047Y-150111904D01*
X94769047Y-150040476D01*
X94792857Y-149945238D01*
X94816666Y-149897619D01*
X94864285Y-149850000D01*
X94935714Y-149826190D01*
X94983333Y-149826190D01*
X95054761Y-149850000D01*
X95078571Y-149873809D01*
X95554761Y-150326190D02*
X95269047Y-150326190D01*
X95411904Y-150326190D02*
X95411904Y-149826190D01*
X95364285Y-149897619D01*
X95316666Y-149945238D01*
X95269047Y-149969047D01*
X95745238Y-149873809D02*
X95769047Y-149850000D01*
X95816666Y-149826190D01*
X95935714Y-149826190D01*
X95983333Y-149850000D01*
X96007142Y-149873809D01*
X96030952Y-149921428D01*
X96030952Y-149969047D01*
X96007142Y-150040476D01*
X95721428Y-150326190D01*
X96030952Y-150326190D01*
X72626190Y-149316666D02*
X72983333Y-149316666D01*
X73054761Y-149340476D01*
X73102380Y-149388095D01*
X73126190Y-149459523D01*
X73126190Y-149507142D01*
X72840476Y-149007142D02*
X72816666Y-149054761D01*
X72792857Y-149078571D01*
X72745238Y-149102380D01*
X72721428Y-149102380D01*
X72673809Y-149078571D01*
X72650000Y-149054761D01*
X72626190Y-149007142D01*
X72626190Y-148911904D01*
X72650000Y-148864285D01*
X72673809Y-148840476D01*
X72721428Y-148816666D01*
X72745238Y-148816666D01*
X72792857Y-148840476D01*
X72816666Y-148864285D01*
X72840476Y-148911904D01*
X72840476Y-149007142D01*
X72864285Y-149054761D01*
X72888095Y-149078571D01*
X72935714Y-149102380D01*
X73030952Y-149102380D01*
X73078571Y-149078571D01*
X73102380Y-149054761D01*
X73126190Y-149007142D01*
X73126190Y-148911904D01*
X73102380Y-148864285D01*
X73078571Y-148840476D01*
X73030952Y-148816666D01*
X72935714Y-148816666D01*
X72888095Y-148840476D01*
X72864285Y-148864285D01*
X72840476Y-148911904D01*
M02*
