G04 #@! TF.GenerationSoftware,KiCad,Pcbnew,(2016-12-18 revision 3ffa37c)-master*
G04 #@! TF.CreationDate,2017-04-07T22:16:59-07:00*
G04 #@! TF.ProjectId,Pensel,50656E73656C2E6B696361645F706362,rev?*
G04 #@! TF.FileFunction,Paste,Top*
G04 #@! TF.FilePolarity,Positive*
%FSLAX46Y46*%
G04 Gerber Fmt 4.6, Leading zero omitted, Abs format (unit mm)*
G04 Created by KiCad (PCBNEW (2016-12-18 revision 3ffa37c)-master) date Friday, April 07, 2017 'PMt' 10:16:59 PM*
%MOMM*%
%LPD*%
G01*
G04 APERTURE LIST*
%ADD10C,0.100000*%
%ADD11C,0.400000*%
%ADD12R,1.350000X0.400000*%
%ADD13R,1.400000X1.600000*%
%ADD14R,1.900000X1.900000*%
%ADD15R,0.600000X0.400000*%
%ADD16C,0.250000*%
%ADD17C,1.035000*%
%ADD18R,0.500000X0.600000*%
%ADD19R,0.700000X1.000000*%
%ADD20R,0.600000X0.500000*%
%ADD21R,0.400000X0.600000*%
%ADD22R,0.800000X0.500000*%
%ADD23R,0.500000X0.800000*%
%ADD24R,0.850000X0.300000*%
%ADD25R,0.300000X0.850000*%
%ADD26R,0.780000X0.780000*%
G04 APERTURE END LIST*
D10*
D11*
X94800000Y-140700000D03*
D10*
G36*
X95153553Y-140629289D02*
X94729289Y-141053553D01*
X94446447Y-140770711D01*
X94870711Y-140346447D01*
X95153553Y-140629289D01*
X95153553Y-140629289D01*
G37*
D11*
X95436396Y-141336396D03*
D10*
G36*
X95789949Y-141265685D02*
X95365685Y-141689949D01*
X95082843Y-141407107D01*
X95507107Y-140982843D01*
X95789949Y-141265685D01*
X95789949Y-141265685D01*
G37*
D12*
X105825000Y-143700000D03*
X105825000Y-144350000D03*
X105825000Y-146300000D03*
X105825000Y-145650000D03*
D13*
X106050000Y-148200000D03*
D14*
X108500000Y-146200000D03*
X108500000Y-143800000D03*
D13*
X106050000Y-141800000D03*
D12*
X105825000Y-145000000D03*
D15*
X91300000Y-149150000D03*
X91300000Y-148250000D03*
D16*
X92940381Y-141365507D03*
D10*
G36*
X92604505Y-141206408D02*
X92781282Y-141029631D01*
X93276257Y-141524606D01*
X93099480Y-141701383D01*
X92604505Y-141206408D01*
X92604505Y-141206408D01*
G37*
D16*
X92586827Y-141719060D03*
D10*
G36*
X92250951Y-141559961D02*
X92427728Y-141383184D01*
X92922703Y-141878159D01*
X92745926Y-142054936D01*
X92250951Y-141559961D01*
X92250951Y-141559961D01*
G37*
D16*
X92233274Y-142072614D03*
D10*
G36*
X91897398Y-141913515D02*
X92074175Y-141736738D01*
X92569150Y-142231713D01*
X92392373Y-142408490D01*
X91897398Y-141913515D01*
X91897398Y-141913515D01*
G37*
D16*
X91879720Y-142426167D03*
D10*
G36*
X91543844Y-142267068D02*
X91720621Y-142090291D01*
X92215596Y-142585266D01*
X92038819Y-142762043D01*
X91543844Y-142267068D01*
X91543844Y-142267068D01*
G37*
D16*
X91526167Y-142779720D03*
D10*
G36*
X91190291Y-142620621D02*
X91367068Y-142443844D01*
X91862043Y-142938819D01*
X91685266Y-143115596D01*
X91190291Y-142620621D01*
X91190291Y-142620621D01*
G37*
D16*
X91172614Y-143133274D03*
D10*
G36*
X90836738Y-142974175D02*
X91013515Y-142797398D01*
X91508490Y-143292373D01*
X91331713Y-143469150D01*
X90836738Y-142974175D01*
X90836738Y-142974175D01*
G37*
D16*
X90819060Y-143486827D03*
D10*
G36*
X90483184Y-143327728D02*
X90659961Y-143150951D01*
X91154936Y-143645926D01*
X90978159Y-143822703D01*
X90483184Y-143327728D01*
X90483184Y-143327728D01*
G37*
D16*
X90465507Y-143840381D03*
D10*
G36*
X90129631Y-143681282D02*
X90306408Y-143504505D01*
X90801383Y-143999480D01*
X90624606Y-144176257D01*
X90129631Y-143681282D01*
X90129631Y-143681282D01*
G37*
D16*
X90465507Y-144759619D03*
D10*
G36*
X90306408Y-145095495D02*
X90129631Y-144918718D01*
X90624606Y-144423743D01*
X90801383Y-144600520D01*
X90306408Y-145095495D01*
X90306408Y-145095495D01*
G37*
D16*
X90819060Y-145113173D03*
D10*
G36*
X90659961Y-145449049D02*
X90483184Y-145272272D01*
X90978159Y-144777297D01*
X91154936Y-144954074D01*
X90659961Y-145449049D01*
X90659961Y-145449049D01*
G37*
D16*
X91172614Y-145466726D03*
D10*
G36*
X91013515Y-145802602D02*
X90836738Y-145625825D01*
X91331713Y-145130850D01*
X91508490Y-145307627D01*
X91013515Y-145802602D01*
X91013515Y-145802602D01*
G37*
D16*
X91526167Y-145820280D03*
D10*
G36*
X91367068Y-146156156D02*
X91190291Y-145979379D01*
X91685266Y-145484404D01*
X91862043Y-145661181D01*
X91367068Y-146156156D01*
X91367068Y-146156156D01*
G37*
D16*
X91879720Y-146173833D03*
D10*
G36*
X91720621Y-146509709D02*
X91543844Y-146332932D01*
X92038819Y-145837957D01*
X92215596Y-146014734D01*
X91720621Y-146509709D01*
X91720621Y-146509709D01*
G37*
D16*
X92233274Y-146527386D03*
D10*
G36*
X92074175Y-146863262D02*
X91897398Y-146686485D01*
X92392373Y-146191510D01*
X92569150Y-146368287D01*
X92074175Y-146863262D01*
X92074175Y-146863262D01*
G37*
D16*
X92586827Y-146880940D03*
D10*
G36*
X92427728Y-147216816D02*
X92250951Y-147040039D01*
X92745926Y-146545064D01*
X92922703Y-146721841D01*
X92427728Y-147216816D01*
X92427728Y-147216816D01*
G37*
D16*
X92940381Y-147234493D03*
D10*
G36*
X92781282Y-147570369D02*
X92604505Y-147393592D01*
X93099480Y-146898617D01*
X93276257Y-147075394D01*
X92781282Y-147570369D01*
X92781282Y-147570369D01*
G37*
D16*
X93859619Y-147234493D03*
D10*
G36*
X93523743Y-147075394D02*
X93700520Y-146898617D01*
X94195495Y-147393592D01*
X94018718Y-147570369D01*
X93523743Y-147075394D01*
X93523743Y-147075394D01*
G37*
D16*
X94213173Y-146880940D03*
D10*
G36*
X93877297Y-146721841D02*
X94054074Y-146545064D01*
X94549049Y-147040039D01*
X94372272Y-147216816D01*
X93877297Y-146721841D01*
X93877297Y-146721841D01*
G37*
D16*
X94566726Y-146527386D03*
D10*
G36*
X94230850Y-146368287D02*
X94407627Y-146191510D01*
X94902602Y-146686485D01*
X94725825Y-146863262D01*
X94230850Y-146368287D01*
X94230850Y-146368287D01*
G37*
D16*
X94920280Y-146173833D03*
D10*
G36*
X94584404Y-146014734D02*
X94761181Y-145837957D01*
X95256156Y-146332932D01*
X95079379Y-146509709D01*
X94584404Y-146014734D01*
X94584404Y-146014734D01*
G37*
D16*
X95273833Y-145820280D03*
D10*
G36*
X94937957Y-145661181D02*
X95114734Y-145484404D01*
X95609709Y-145979379D01*
X95432932Y-146156156D01*
X94937957Y-145661181D01*
X94937957Y-145661181D01*
G37*
D16*
X95627386Y-145466726D03*
D10*
G36*
X95291510Y-145307627D02*
X95468287Y-145130850D01*
X95963262Y-145625825D01*
X95786485Y-145802602D01*
X95291510Y-145307627D01*
X95291510Y-145307627D01*
G37*
D16*
X95980940Y-145113173D03*
D10*
G36*
X95645064Y-144954074D02*
X95821841Y-144777297D01*
X96316816Y-145272272D01*
X96140039Y-145449049D01*
X95645064Y-144954074D01*
X95645064Y-144954074D01*
G37*
D16*
X96334493Y-144759619D03*
D10*
G36*
X95998617Y-144600520D02*
X96175394Y-144423743D01*
X96670369Y-144918718D01*
X96493592Y-145095495D01*
X95998617Y-144600520D01*
X95998617Y-144600520D01*
G37*
D16*
X96334493Y-143840381D03*
D10*
G36*
X96175394Y-144176257D02*
X95998617Y-143999480D01*
X96493592Y-143504505D01*
X96670369Y-143681282D01*
X96175394Y-144176257D01*
X96175394Y-144176257D01*
G37*
D16*
X95980940Y-143486827D03*
D10*
G36*
X95821841Y-143822703D02*
X95645064Y-143645926D01*
X96140039Y-143150951D01*
X96316816Y-143327728D01*
X95821841Y-143822703D01*
X95821841Y-143822703D01*
G37*
D16*
X95627386Y-143133274D03*
D10*
G36*
X95468287Y-143469150D02*
X95291510Y-143292373D01*
X95786485Y-142797398D01*
X95963262Y-142974175D01*
X95468287Y-143469150D01*
X95468287Y-143469150D01*
G37*
D16*
X95273833Y-142779720D03*
D10*
G36*
X95114734Y-143115596D02*
X94937957Y-142938819D01*
X95432932Y-142443844D01*
X95609709Y-142620621D01*
X95114734Y-143115596D01*
X95114734Y-143115596D01*
G37*
D16*
X94920280Y-142426167D03*
D10*
G36*
X94761181Y-142762043D02*
X94584404Y-142585266D01*
X95079379Y-142090291D01*
X95256156Y-142267068D01*
X94761181Y-142762043D01*
X94761181Y-142762043D01*
G37*
D16*
X94566726Y-142072614D03*
D10*
G36*
X94407627Y-142408490D02*
X94230850Y-142231713D01*
X94725825Y-141736738D01*
X94902602Y-141913515D01*
X94407627Y-142408490D01*
X94407627Y-142408490D01*
G37*
D16*
X94213173Y-141719060D03*
D10*
G36*
X94054074Y-142054936D02*
X93877297Y-141878159D01*
X94372272Y-141383184D01*
X94549049Y-141559961D01*
X94054074Y-142054936D01*
X94054074Y-142054936D01*
G37*
D16*
X93859619Y-141365507D03*
D10*
G36*
X93700520Y-141701383D02*
X93523743Y-141524606D01*
X94018718Y-141029631D01*
X94195495Y-141206408D01*
X93700520Y-141701383D01*
X93700520Y-141701383D01*
G37*
D17*
X93400000Y-145519759D03*
D10*
G36*
X92668144Y-145519759D02*
X93400000Y-144787903D01*
X94131856Y-145519759D01*
X93400000Y-146251615D01*
X92668144Y-145519759D01*
X92668144Y-145519759D01*
G37*
D17*
X94619759Y-144300000D03*
D10*
G36*
X93887903Y-144300000D02*
X94619759Y-143568144D01*
X95351615Y-144300000D01*
X94619759Y-145031856D01*
X93887903Y-144300000D01*
X93887903Y-144300000D01*
G37*
D17*
X92180241Y-144300000D03*
D10*
G36*
X91448385Y-144300000D02*
X92180241Y-143568144D01*
X92912097Y-144300000D01*
X92180241Y-145031856D01*
X91448385Y-144300000D01*
X91448385Y-144300000D01*
G37*
D17*
X93400000Y-143080241D03*
D10*
G36*
X92668144Y-143080241D02*
X93400000Y-142348385D01*
X94131856Y-143080241D01*
X93400000Y-143812097D01*
X92668144Y-143080241D01*
X92668144Y-143080241D01*
G37*
D15*
X87400000Y-148250000D03*
X87400000Y-149150000D03*
D18*
X103886000Y-141436000D03*
X103886000Y-142536000D03*
D19*
X72200000Y-146200000D03*
X70200000Y-141200000D03*
X76200000Y-146200000D03*
X78200000Y-141200000D03*
D18*
X58125000Y-143500000D03*
X58125000Y-142400000D03*
D20*
X51450000Y-141000000D03*
X52550000Y-141000000D03*
X58125000Y-140850000D03*
X57025000Y-140850000D03*
X56900000Y-145625000D03*
X55800000Y-145625000D03*
X93750000Y-149000000D03*
X92650000Y-149000000D03*
X102658000Y-140208000D03*
X101558000Y-140208000D03*
D15*
X88700000Y-148250000D03*
X88700000Y-149150000D03*
X90000000Y-149150000D03*
X90000000Y-148250000D03*
X61500000Y-143550000D03*
X61500000Y-144450000D03*
X63000000Y-144450000D03*
X63000000Y-143550000D03*
X67400000Y-142300000D03*
X67400000Y-141400000D03*
D21*
X68750000Y-147000000D03*
X67850000Y-147000000D03*
X78850000Y-139900000D03*
X79750000Y-139900000D03*
D22*
X56775000Y-143250000D03*
X52775000Y-143250000D03*
D23*
X56775000Y-144250000D03*
X55975000Y-144250000D03*
X55175000Y-144250000D03*
X54375000Y-144250000D03*
X53575000Y-144250000D03*
X52775000Y-144250000D03*
X52775000Y-142250000D03*
X53575000Y-142250000D03*
X54375000Y-142250000D03*
X55175000Y-142250000D03*
X55975000Y-142250000D03*
X56775000Y-142250000D03*
D24*
X102390000Y-144750000D03*
X102390000Y-144250000D03*
X102390000Y-143750000D03*
X102390000Y-143250000D03*
X102390000Y-142750000D03*
X102390000Y-142250000D03*
D25*
X101690000Y-141550000D03*
X101190000Y-141550000D03*
X100690000Y-141550000D03*
X100190000Y-141550000D03*
X99690000Y-141550000D03*
X99190000Y-141550000D03*
D24*
X98490000Y-142250000D03*
X98490000Y-142750000D03*
X98490000Y-143250000D03*
X98490000Y-143750000D03*
X98490000Y-144250000D03*
X98490000Y-144750000D03*
D25*
X99190000Y-145450000D03*
X99690000Y-145450000D03*
X100190000Y-145450000D03*
X100690000Y-145450000D03*
X101190000Y-145450000D03*
X101690000Y-145450000D03*
D26*
X99790000Y-142850000D03*
X99790000Y-144150000D03*
X101090000Y-142850000D03*
X101090000Y-144150000D03*
D20*
X94900000Y-149000000D03*
X96000000Y-149000000D03*
M02*
