G04 #@! TF.GenerationSoftware,KiCad,Pcbnew,(2016-12-18 revision 3ffa37c)-master*
G04 #@! TF.CreationDate,2017-04-07T22:16:59-07:00*
G04 #@! TF.ProjectId,Pensel,50656E73656C2E6B696361645F706362,rev?*
G04 #@! TF.FileFunction,Copper,L1,Top,Signal*
G04 #@! TF.FilePolarity,Positive*
%FSLAX46Y46*%
G04 Gerber Fmt 4.6, Leading zero omitted, Abs format (unit mm)*
G04 Created by KiCad (PCBNEW (2016-12-18 revision 3ffa37c)-master) date Friday, April 07, 2017 'PMt' 10:16:59 PM*
%MOMM*%
%LPD*%
G01*
G04 APERTURE LIST*
%ADD10C,0.100000*%
%ADD11C,0.150000*%
%ADD12C,0.400000*%
%ADD13C,1.050000*%
%ADD14R,1.350000X0.400000*%
%ADD15R,1.400000X1.600000*%
%ADD16R,1.900000X1.900000*%
%ADD17O,2.000000X1.120000*%
%ADD18R,0.600000X0.400000*%
%ADD19C,0.250000*%
%ADD20C,1.725000*%
%ADD21R,0.500000X0.600000*%
%ADD22C,2.100000*%
%ADD23C,1.750000*%
%ADD24R,0.700000X1.000000*%
%ADD25R,0.600000X0.500000*%
%ADD26R,1.350000X1.350000*%
%ADD27C,1.350000*%
%ADD28R,0.400000X0.600000*%
%ADD29R,0.800000X0.500000*%
%ADD30R,0.500000X0.800000*%
%ADD31R,0.850000X0.300000*%
%ADD32R,0.300000X0.850000*%
%ADD33R,1.300000X1.300000*%
%ADD34C,1.500000*%
%ADD35C,1.000000*%
%ADD36C,0.600000*%
%ADD37C,0.130000*%
%ADD38C,0.260000*%
%ADD39C,0.200000*%
G04 APERTURE END LIST*
D10*
D11*
X107775000Y-139250000D03*
X108475000Y-139250000D03*
X109175000Y-139250000D03*
X109175000Y-139825000D03*
X108475000Y-139825000D03*
X107775000Y-140475000D03*
X107775000Y-139825000D03*
X108475000Y-140475000D03*
X109175000Y-140475000D03*
X66425000Y-141275000D03*
X68800000Y-145200000D03*
X68800000Y-145800000D03*
X60000000Y-144700000D03*
D12*
X94800000Y-140700000D03*
D10*
G36*
X95153553Y-140629289D02*
X94729289Y-141053553D01*
X94446447Y-140770711D01*
X94870711Y-140346447D01*
X95153553Y-140629289D01*
X95153553Y-140629289D01*
G37*
D12*
X95436396Y-141336396D03*
D10*
G36*
X95789949Y-141265685D02*
X95365685Y-141689949D01*
X95082843Y-141407107D01*
X95507107Y-140982843D01*
X95789949Y-141265685D01*
X95789949Y-141265685D01*
G37*
D11*
X83700000Y-140800000D03*
X82700000Y-140800000D03*
X82700000Y-141800000D03*
D13*
X86396051Y-140703949D03*
D10*
G36*
X85653589Y-140703949D02*
X86396051Y-139961487D01*
X87138513Y-140703949D01*
X86396051Y-141446411D01*
X85653589Y-140703949D01*
X85653589Y-140703949D01*
G37*
D13*
X85498025Y-141601975D03*
X84600000Y-142500000D03*
X83701974Y-143398026D03*
X82803949Y-144296051D03*
X86396051Y-142500000D03*
X85498025Y-143398026D03*
X84600000Y-144296051D03*
X83701974Y-145194077D03*
X87294077Y-141601975D03*
D11*
X68900000Y-140600000D03*
X68200000Y-140600000D03*
X67500000Y-140600000D03*
X66800000Y-140600000D03*
X66100000Y-140600000D03*
X66100000Y-140100000D03*
X66800000Y-140100000D03*
X67500000Y-140100000D03*
X68200000Y-140100000D03*
X68900000Y-140100000D03*
X69600000Y-140100000D03*
X70400000Y-140100000D03*
X71200000Y-140100000D03*
X72000000Y-140100000D03*
X70000000Y-143100000D03*
X69300000Y-143100000D03*
X69300000Y-143700000D03*
X70000000Y-143700000D03*
X59000000Y-143600000D03*
X64100000Y-143100000D03*
X64700000Y-143100000D03*
X65300000Y-143100000D03*
X66500000Y-143700000D03*
X65900000Y-143700000D03*
X65300000Y-143700000D03*
X64700000Y-143700000D03*
X64100000Y-143700000D03*
X74600000Y-145900000D03*
X73900000Y-145900000D03*
X73200000Y-145900000D03*
X105100000Y-139300000D03*
X102900000Y-145600000D03*
X102400000Y-145600000D03*
X102400000Y-146100000D03*
X102900000Y-146100000D03*
X103400000Y-146100000D03*
X107200000Y-150500000D03*
X107700000Y-150500000D03*
X108200000Y-150500000D03*
X108700000Y-150500000D03*
X109200000Y-150500000D03*
X109200000Y-150000000D03*
X108700000Y-150000000D03*
X108200000Y-150000000D03*
X107700000Y-150000000D03*
X107200000Y-150000000D03*
X107200000Y-149500000D03*
X107700000Y-149500000D03*
X73900000Y-140100000D03*
X72900000Y-140100000D03*
X73900000Y-140700000D03*
X81700000Y-140800000D03*
X80700000Y-140800000D03*
X81700000Y-141800000D03*
X80700000Y-141800000D03*
X81700000Y-142800000D03*
X80700000Y-142800000D03*
X81700000Y-143800000D03*
X80700000Y-143800000D03*
X72900000Y-143700000D03*
X72900000Y-140700000D03*
X75900000Y-142700000D03*
X74900000Y-142700000D03*
X73900000Y-142700000D03*
X72900000Y-142700000D03*
X76900000Y-143700000D03*
X75900000Y-143700000D03*
X74900000Y-143700000D03*
X73900000Y-143700000D03*
X51900000Y-143300000D03*
X51900000Y-142600000D03*
X51900000Y-142100000D03*
X51400000Y-142100000D03*
X51400000Y-142600000D03*
X51400000Y-143100000D03*
X51400000Y-143600000D03*
X60500000Y-144900000D03*
X97600000Y-139700000D03*
X98100000Y-139700000D03*
X98600000Y-139700000D03*
X99100000Y-139700000D03*
X99100000Y-140200000D03*
X98600000Y-140200000D03*
X98100000Y-140200000D03*
X97600000Y-140200000D03*
X104300000Y-139300000D03*
X103500000Y-139300000D03*
X102700000Y-139300000D03*
X101900000Y-139300000D03*
X94100000Y-143100000D03*
X93700000Y-143100000D03*
X93300000Y-143100000D03*
X92900000Y-143100000D03*
X92100000Y-143500000D03*
X92500000Y-143500000D03*
X92900000Y-143500000D03*
X93300000Y-143500000D03*
X93700000Y-143500000D03*
X94100000Y-143500000D03*
X94500000Y-143500000D03*
X94900000Y-143900000D03*
X94500000Y-143900000D03*
X94100000Y-143900000D03*
X93700000Y-143900000D03*
X93300000Y-143900000D03*
X92900000Y-143900000D03*
X92500000Y-143900000D03*
X92100000Y-143900000D03*
X91700000Y-143900000D03*
X101400000Y-143700000D03*
X101000000Y-143700000D03*
X100600000Y-143700000D03*
X100200000Y-143700000D03*
X99800000Y-143700000D03*
X99400000Y-143700000D03*
X99400000Y-144100000D03*
X99800000Y-144100000D03*
X100200000Y-144100000D03*
X100600000Y-144100000D03*
X101000000Y-144100000D03*
X101400000Y-144100000D03*
X101400000Y-144500000D03*
X101000000Y-144500000D03*
X100600000Y-144500000D03*
X100200000Y-144500000D03*
X99800000Y-144500000D03*
X99400000Y-144500000D03*
X109200000Y-149500000D03*
X108700000Y-149500000D03*
X108200000Y-149500000D03*
D14*
X105825000Y-143700000D03*
X105825000Y-144350000D03*
X105825000Y-146300000D03*
X105825000Y-145650000D03*
D15*
X106050000Y-148200000D03*
D16*
X108500000Y-146200000D03*
D17*
X108300000Y-148255000D03*
X108300000Y-141745000D03*
D16*
X108500000Y-143800000D03*
D15*
X106050000Y-141800000D03*
D14*
X105825000Y-145000000D03*
D18*
X91300000Y-149150000D03*
X91300000Y-148250000D03*
D19*
X92940381Y-141365507D03*
D10*
G36*
X92604505Y-141206408D02*
X92781282Y-141029631D01*
X93276257Y-141524606D01*
X93099480Y-141701383D01*
X92604505Y-141206408D01*
X92604505Y-141206408D01*
G37*
D19*
X92586827Y-141719060D03*
D10*
G36*
X92250951Y-141559961D02*
X92427728Y-141383184D01*
X92922703Y-141878159D01*
X92745926Y-142054936D01*
X92250951Y-141559961D01*
X92250951Y-141559961D01*
G37*
D19*
X92233274Y-142072614D03*
D10*
G36*
X91897398Y-141913515D02*
X92074175Y-141736738D01*
X92569150Y-142231713D01*
X92392373Y-142408490D01*
X91897398Y-141913515D01*
X91897398Y-141913515D01*
G37*
D19*
X91879720Y-142426167D03*
D10*
G36*
X91543844Y-142267068D02*
X91720621Y-142090291D01*
X92215596Y-142585266D01*
X92038819Y-142762043D01*
X91543844Y-142267068D01*
X91543844Y-142267068D01*
G37*
D19*
X91526167Y-142779720D03*
D10*
G36*
X91190291Y-142620621D02*
X91367068Y-142443844D01*
X91862043Y-142938819D01*
X91685266Y-143115596D01*
X91190291Y-142620621D01*
X91190291Y-142620621D01*
G37*
D19*
X91172614Y-143133274D03*
D10*
G36*
X90836738Y-142974175D02*
X91013515Y-142797398D01*
X91508490Y-143292373D01*
X91331713Y-143469150D01*
X90836738Y-142974175D01*
X90836738Y-142974175D01*
G37*
D19*
X90819060Y-143486827D03*
D10*
G36*
X90483184Y-143327728D02*
X90659961Y-143150951D01*
X91154936Y-143645926D01*
X90978159Y-143822703D01*
X90483184Y-143327728D01*
X90483184Y-143327728D01*
G37*
D19*
X90465507Y-143840381D03*
D10*
G36*
X90129631Y-143681282D02*
X90306408Y-143504505D01*
X90801383Y-143999480D01*
X90624606Y-144176257D01*
X90129631Y-143681282D01*
X90129631Y-143681282D01*
G37*
D19*
X90465507Y-144759619D03*
D10*
G36*
X90306408Y-145095495D02*
X90129631Y-144918718D01*
X90624606Y-144423743D01*
X90801383Y-144600520D01*
X90306408Y-145095495D01*
X90306408Y-145095495D01*
G37*
D19*
X90819060Y-145113173D03*
D10*
G36*
X90659961Y-145449049D02*
X90483184Y-145272272D01*
X90978159Y-144777297D01*
X91154936Y-144954074D01*
X90659961Y-145449049D01*
X90659961Y-145449049D01*
G37*
D19*
X91172614Y-145466726D03*
D10*
G36*
X91013515Y-145802602D02*
X90836738Y-145625825D01*
X91331713Y-145130850D01*
X91508490Y-145307627D01*
X91013515Y-145802602D01*
X91013515Y-145802602D01*
G37*
D19*
X91526167Y-145820280D03*
D10*
G36*
X91367068Y-146156156D02*
X91190291Y-145979379D01*
X91685266Y-145484404D01*
X91862043Y-145661181D01*
X91367068Y-146156156D01*
X91367068Y-146156156D01*
G37*
D19*
X91879720Y-146173833D03*
D10*
G36*
X91720621Y-146509709D02*
X91543844Y-146332932D01*
X92038819Y-145837957D01*
X92215596Y-146014734D01*
X91720621Y-146509709D01*
X91720621Y-146509709D01*
G37*
D19*
X92233274Y-146527386D03*
D10*
G36*
X92074175Y-146863262D02*
X91897398Y-146686485D01*
X92392373Y-146191510D01*
X92569150Y-146368287D01*
X92074175Y-146863262D01*
X92074175Y-146863262D01*
G37*
D19*
X92586827Y-146880940D03*
D10*
G36*
X92427728Y-147216816D02*
X92250951Y-147040039D01*
X92745926Y-146545064D01*
X92922703Y-146721841D01*
X92427728Y-147216816D01*
X92427728Y-147216816D01*
G37*
D19*
X92940381Y-147234493D03*
D10*
G36*
X92781282Y-147570369D02*
X92604505Y-147393592D01*
X93099480Y-146898617D01*
X93276257Y-147075394D01*
X92781282Y-147570369D01*
X92781282Y-147570369D01*
G37*
D19*
X93859619Y-147234493D03*
D10*
G36*
X93523743Y-147075394D02*
X93700520Y-146898617D01*
X94195495Y-147393592D01*
X94018718Y-147570369D01*
X93523743Y-147075394D01*
X93523743Y-147075394D01*
G37*
D19*
X94213173Y-146880940D03*
D10*
G36*
X93877297Y-146721841D02*
X94054074Y-146545064D01*
X94549049Y-147040039D01*
X94372272Y-147216816D01*
X93877297Y-146721841D01*
X93877297Y-146721841D01*
G37*
D19*
X94566726Y-146527386D03*
D10*
G36*
X94230850Y-146368287D02*
X94407627Y-146191510D01*
X94902602Y-146686485D01*
X94725825Y-146863262D01*
X94230850Y-146368287D01*
X94230850Y-146368287D01*
G37*
D19*
X94920280Y-146173833D03*
D10*
G36*
X94584404Y-146014734D02*
X94761181Y-145837957D01*
X95256156Y-146332932D01*
X95079379Y-146509709D01*
X94584404Y-146014734D01*
X94584404Y-146014734D01*
G37*
D19*
X95273833Y-145820280D03*
D10*
G36*
X94937957Y-145661181D02*
X95114734Y-145484404D01*
X95609709Y-145979379D01*
X95432932Y-146156156D01*
X94937957Y-145661181D01*
X94937957Y-145661181D01*
G37*
D19*
X95627386Y-145466726D03*
D10*
G36*
X95291510Y-145307627D02*
X95468287Y-145130850D01*
X95963262Y-145625825D01*
X95786485Y-145802602D01*
X95291510Y-145307627D01*
X95291510Y-145307627D01*
G37*
D19*
X95980940Y-145113173D03*
D10*
G36*
X95645064Y-144954074D02*
X95821841Y-144777297D01*
X96316816Y-145272272D01*
X96140039Y-145449049D01*
X95645064Y-144954074D01*
X95645064Y-144954074D01*
G37*
D19*
X96334493Y-144759619D03*
D10*
G36*
X95998617Y-144600520D02*
X96175394Y-144423743D01*
X96670369Y-144918718D01*
X96493592Y-145095495D01*
X95998617Y-144600520D01*
X95998617Y-144600520D01*
G37*
D19*
X96334493Y-143840381D03*
D10*
G36*
X96175394Y-144176257D02*
X95998617Y-143999480D01*
X96493592Y-143504505D01*
X96670369Y-143681282D01*
X96175394Y-144176257D01*
X96175394Y-144176257D01*
G37*
D19*
X95980940Y-143486827D03*
D10*
G36*
X95821841Y-143822703D02*
X95645064Y-143645926D01*
X96140039Y-143150951D01*
X96316816Y-143327728D01*
X95821841Y-143822703D01*
X95821841Y-143822703D01*
G37*
D19*
X95627386Y-143133274D03*
D10*
G36*
X95468287Y-143469150D02*
X95291510Y-143292373D01*
X95786485Y-142797398D01*
X95963262Y-142974175D01*
X95468287Y-143469150D01*
X95468287Y-143469150D01*
G37*
D19*
X95273833Y-142779720D03*
D10*
G36*
X95114734Y-143115596D02*
X94937957Y-142938819D01*
X95432932Y-142443844D01*
X95609709Y-142620621D01*
X95114734Y-143115596D01*
X95114734Y-143115596D01*
G37*
D19*
X94920280Y-142426167D03*
D10*
G36*
X94761181Y-142762043D02*
X94584404Y-142585266D01*
X95079379Y-142090291D01*
X95256156Y-142267068D01*
X94761181Y-142762043D01*
X94761181Y-142762043D01*
G37*
D19*
X94566726Y-142072614D03*
D10*
G36*
X94407627Y-142408490D02*
X94230850Y-142231713D01*
X94725825Y-141736738D01*
X94902602Y-141913515D01*
X94407627Y-142408490D01*
X94407627Y-142408490D01*
G37*
D19*
X94213173Y-141719060D03*
D10*
G36*
X94054074Y-142054936D02*
X93877297Y-141878159D01*
X94372272Y-141383184D01*
X94549049Y-141559961D01*
X94054074Y-142054936D01*
X94054074Y-142054936D01*
G37*
D19*
X93859619Y-141365507D03*
D10*
G36*
X93700520Y-141701383D02*
X93523743Y-141524606D01*
X94018718Y-141029631D01*
X94195495Y-141206408D01*
X93700520Y-141701383D01*
X93700520Y-141701383D01*
G37*
D20*
X93400000Y-145519759D03*
D10*
G36*
X92180241Y-145519759D02*
X93400000Y-144300000D01*
X94619759Y-145519759D01*
X93400000Y-146739518D01*
X92180241Y-145519759D01*
X92180241Y-145519759D01*
G37*
D20*
X94619759Y-144300000D03*
D10*
G36*
X93400000Y-144300000D02*
X94619759Y-143080241D01*
X95839518Y-144300000D01*
X94619759Y-145519759D01*
X93400000Y-144300000D01*
X93400000Y-144300000D01*
G37*
D20*
X92180241Y-144300000D03*
D10*
G36*
X90960482Y-144300000D02*
X92180241Y-143080241D01*
X93400000Y-144300000D01*
X92180241Y-145519759D01*
X90960482Y-144300000D01*
X90960482Y-144300000D01*
G37*
D20*
X93400000Y-143080241D03*
D10*
G36*
X92180241Y-143080241D02*
X93400000Y-141860482D01*
X94619759Y-143080241D01*
X93400000Y-144300000D01*
X92180241Y-143080241D01*
X92180241Y-143080241D01*
G37*
D18*
X87400000Y-148250000D03*
X87400000Y-149150000D03*
D21*
X103886000Y-141436000D03*
X103886000Y-142536000D03*
D22*
X58940000Y-146960000D03*
D23*
X60200000Y-149450000D03*
X64700000Y-149450000D03*
D22*
X65950000Y-146960000D03*
D24*
X72200000Y-146200000D03*
X70200000Y-141200000D03*
X76200000Y-146200000D03*
X78200000Y-141200000D03*
D21*
X58125000Y-143500000D03*
X58125000Y-142400000D03*
D25*
X51450000Y-141000000D03*
X52550000Y-141000000D03*
X58125000Y-140850000D03*
X57025000Y-140850000D03*
X56900000Y-145625000D03*
X55800000Y-145625000D03*
X93750000Y-149000000D03*
X92650000Y-149000000D03*
X102658000Y-140208000D03*
X101558000Y-140208000D03*
D18*
X88700000Y-148250000D03*
X88700000Y-149150000D03*
X90000000Y-149150000D03*
X90000000Y-148250000D03*
D26*
X61000000Y-141400000D03*
D27*
X63000000Y-141400000D03*
X65000000Y-141400000D03*
D18*
X61500000Y-143550000D03*
X61500000Y-144450000D03*
X63000000Y-144450000D03*
X63000000Y-143550000D03*
X67400000Y-142300000D03*
X67400000Y-141400000D03*
D28*
X68750000Y-147000000D03*
X67850000Y-147000000D03*
X78850000Y-139900000D03*
X79750000Y-139900000D03*
D29*
X56775000Y-143250000D03*
X52775000Y-143250000D03*
D30*
X56775000Y-144250000D03*
X55975000Y-144250000D03*
X55175000Y-144250000D03*
X54375000Y-144250000D03*
X53575000Y-144250000D03*
X52775000Y-144250000D03*
X52775000Y-142250000D03*
X53575000Y-142250000D03*
X54375000Y-142250000D03*
X55175000Y-142250000D03*
X55975000Y-142250000D03*
X56775000Y-142250000D03*
D31*
X102390000Y-144750000D03*
X102390000Y-144250000D03*
X102390000Y-143750000D03*
X102390000Y-143250000D03*
X102390000Y-142750000D03*
X102390000Y-142250000D03*
D32*
X101690000Y-141550000D03*
X101190000Y-141550000D03*
X100690000Y-141550000D03*
X100190000Y-141550000D03*
X99690000Y-141550000D03*
X99190000Y-141550000D03*
D31*
X98490000Y-142250000D03*
X98490000Y-142750000D03*
X98490000Y-143250000D03*
X98490000Y-143750000D03*
X98490000Y-144250000D03*
X98490000Y-144750000D03*
D32*
X99190000Y-145450000D03*
X99690000Y-145450000D03*
X100190000Y-145450000D03*
X100690000Y-145450000D03*
X101190000Y-145450000D03*
X101690000Y-145450000D03*
D33*
X99790000Y-142850000D03*
X99790000Y-144150000D03*
X101090000Y-142850000D03*
X101090000Y-144150000D03*
D25*
X94900000Y-149000000D03*
X96000000Y-149000000D03*
D34*
X98100000Y-148000000D03*
D35*
X54500000Y-140200000D03*
X71000000Y-149850000D03*
D26*
X74400000Y-150000000D03*
D27*
X76400000Y-150000000D03*
D12*
X90000000Y-140300000D03*
X72100000Y-144500000D03*
X89154000Y-142748000D03*
D36*
X81100000Y-145900000D03*
X59300000Y-140800000D03*
X104394000Y-143764000D03*
X54650000Y-145275000D03*
X66399998Y-142500000D03*
X91300000Y-147600000D03*
X86500000Y-148600000D03*
X88569998Y-140835010D03*
X89838164Y-142939420D03*
X92517669Y-140803861D03*
X94600000Y-148000000D03*
X106680000Y-140208000D03*
X104394000Y-140808010D03*
X88823191Y-145281447D03*
X58300000Y-149250000D03*
X66800000Y-149000000D03*
X62200000Y-145200000D03*
D12*
X78500000Y-146184968D03*
X79200000Y-147200000D03*
D36*
X104600000Y-146400000D03*
X100330000Y-140208000D03*
D12*
X80000000Y-146200012D03*
X79200000Y-141800000D03*
X89500000Y-140700000D03*
X93400000Y-140800000D03*
X89674025Y-141229375D03*
X91600000Y-140500000D03*
X88200000Y-145700000D03*
X96500000Y-150945010D03*
X99450000Y-149050000D03*
X99082649Y-149502897D03*
X99100000Y-146400000D03*
X100200000Y-146600000D03*
X103600000Y-145000000D03*
X104600000Y-145000000D03*
X64200000Y-146500000D03*
X97536000Y-146050000D03*
X63700000Y-147004990D03*
X97028000Y-145796000D03*
D37*
X83701974Y-145194077D02*
X82444077Y-145194077D01*
X82444077Y-145194077D02*
X81750000Y-144500000D01*
X81750000Y-144500000D02*
X72100000Y-144500000D01*
X88900000Y-142758196D02*
X86464119Y-145194077D01*
X84444436Y-145194077D02*
X83701974Y-145194077D01*
X86464119Y-145194077D02*
X84444436Y-145194077D01*
X90199999Y-140100001D02*
X90000000Y-140300000D01*
X91075046Y-139224954D02*
X90199999Y-140100001D01*
X95517664Y-139224954D02*
X91075046Y-139224954D01*
X100624999Y-140929999D02*
X97222709Y-140929999D01*
X97222709Y-140929999D02*
X95517664Y-139224954D01*
X100690000Y-141550000D02*
X100690000Y-140995000D01*
X100690000Y-140995000D02*
X100624999Y-140929999D01*
X90491101Y-142100035D02*
X90186727Y-142404410D01*
X91879720Y-142426167D02*
X91553588Y-142100035D01*
X90186727Y-142404410D02*
X89253786Y-142404410D01*
X91553588Y-142100035D02*
X90491101Y-142100035D01*
X89253786Y-142404410D02*
X88900000Y-142758196D01*
X89154000Y-142748000D02*
X89143804Y-142758196D01*
X89143804Y-142758196D02*
X88900000Y-142758196D01*
D38*
X73755032Y-146144968D02*
X75775736Y-146144968D01*
X76499999Y-145844969D02*
X76200000Y-146144968D01*
X76744967Y-145600001D02*
X76499999Y-145844969D01*
X80800001Y-145600001D02*
X76744967Y-145600001D01*
X81100000Y-145900000D02*
X80800001Y-145600001D01*
X75775736Y-146144968D02*
X76200000Y-146144968D01*
X94800000Y-140700000D02*
X94525126Y-140700000D01*
X94525126Y-140700000D02*
X93859619Y-141365507D01*
X58125000Y-140850000D02*
X59250000Y-140850000D01*
X59250000Y-140850000D02*
X59300000Y-140800000D01*
X104394000Y-143764000D02*
X105761000Y-143764000D01*
X105761000Y-143764000D02*
X105825000Y-143700000D01*
X103886000Y-142536000D02*
X103886000Y-143256000D01*
X103886000Y-143256000D02*
X104394000Y-143764000D01*
X105825000Y-143700000D02*
X104584000Y-143700000D01*
X102390000Y-144250000D02*
X101190000Y-144250000D01*
X101190000Y-144250000D02*
X101090000Y-144150000D01*
X51650000Y-141000000D02*
X51650000Y-142575000D01*
X54375000Y-143590000D02*
X54375000Y-143225000D01*
X54375000Y-144250000D02*
X54375000Y-143590000D01*
X55200000Y-143565000D02*
X55200000Y-143225000D01*
X55175000Y-144250000D02*
X55175000Y-143590000D01*
X55175000Y-143590000D02*
X55200000Y-143565000D01*
X55175000Y-144250000D02*
X55175000Y-144750000D01*
X55175000Y-144750000D02*
X54650000Y-145275000D01*
X54375000Y-144250000D02*
X54375000Y-145000000D01*
X54375000Y-145000000D02*
X54650000Y-145275000D01*
X92650000Y-149000000D02*
X92650000Y-147524874D01*
X92650000Y-147524874D02*
X92940381Y-147234493D01*
X93859619Y-141365507D02*
X93859619Y-141424426D01*
X93859619Y-141424426D02*
X93400000Y-141884045D01*
X93400000Y-141884045D02*
X93400000Y-143080241D01*
X93859619Y-141365507D02*
X93859619Y-141253985D01*
X91172614Y-143133274D02*
X91800170Y-143760830D01*
X91800170Y-143760830D02*
X92089170Y-143760830D01*
X92089170Y-143760830D02*
X92525001Y-143324999D01*
X92525001Y-143324999D02*
X92600000Y-143250000D01*
X92940381Y-147234493D02*
X93258578Y-146916296D01*
X93258578Y-146916296D02*
X93258578Y-145661181D01*
X93258578Y-145661181D02*
X93400000Y-145519759D01*
X67850000Y-147000000D02*
X67850000Y-146440000D01*
X67850000Y-146440000D02*
X67700000Y-146290000D01*
X67700000Y-146290000D02*
X67700000Y-143800002D01*
X67700000Y-143800002D02*
X66699997Y-142799999D01*
X66699997Y-142799999D02*
X66399998Y-142500000D01*
X66599998Y-142300000D02*
X66399998Y-142500000D01*
X67400000Y-142300000D02*
X66599998Y-142300000D01*
X91300000Y-148250000D02*
X91300000Y-147600000D01*
X86500000Y-148590000D02*
X86500000Y-148600000D01*
X86840000Y-148250000D02*
X86500000Y-148590000D01*
X87400000Y-148250000D02*
X86840000Y-148250000D01*
X88438937Y-140703949D02*
X88569998Y-140835010D01*
X86396051Y-140703949D02*
X88438937Y-140703949D01*
X90736802Y-142465046D02*
X90262428Y-142939420D01*
X90262428Y-142939420D02*
X89838164Y-142939420D01*
X91526167Y-142779720D02*
X91211493Y-142465046D01*
X88823191Y-145281447D02*
X88823191Y-143954393D01*
X91211493Y-142465046D02*
X90736802Y-142465046D01*
X89538165Y-143239419D02*
X89838164Y-142939420D01*
X88823191Y-143954393D02*
X89538165Y-143239419D01*
X92940381Y-141365507D02*
X92517669Y-140942795D01*
X92517669Y-140942795D02*
X92517669Y-140803861D01*
X94900000Y-149000000D02*
X94900000Y-148300000D01*
X94900000Y-148300000D02*
X94600000Y-148000000D01*
X94600000Y-148000000D02*
X94600000Y-147974874D01*
X94600000Y-147974874D02*
X93859619Y-147234493D01*
X93750000Y-149000000D02*
X93750000Y-148850000D01*
X93750000Y-148850000D02*
X94600000Y-148000000D01*
X66800000Y-149000000D02*
X65991998Y-149000000D01*
X65991998Y-149000000D02*
X64591998Y-147600000D01*
X64591998Y-147600000D02*
X60298002Y-147600000D01*
X60298002Y-147600000D02*
X58648002Y-149250000D01*
X58648002Y-149250000D02*
X58300000Y-149250000D01*
X104994010Y-140208000D02*
X106255736Y-140208000D01*
X106255736Y-140208000D02*
X106680000Y-140208000D01*
X104394000Y-140808010D02*
X104994010Y-140208000D01*
X103335999Y-142489001D02*
X103335999Y-142250000D01*
X102390000Y-142250000D02*
X103335999Y-142250000D01*
X103335999Y-142250000D02*
X103335999Y-141995999D01*
X103378000Y-141953998D02*
X103378000Y-141944000D01*
X103378000Y-141944000D02*
X103886000Y-141436000D01*
X103335999Y-141995999D02*
X103378000Y-141953998D01*
X102390000Y-142750000D02*
X103075000Y-142750000D01*
X103075000Y-142750000D02*
X103335999Y-142489001D01*
X103335999Y-142489001D02*
X103335999Y-142451999D01*
X103969736Y-140808010D02*
X104394000Y-140808010D01*
X103166000Y-140716000D02*
X103258010Y-140808010D01*
X103258010Y-140808010D02*
X103969736Y-140808010D01*
X103166000Y-140716000D02*
X102658000Y-140208000D01*
X103886000Y-141436000D02*
X103166000Y-140716000D01*
X101690000Y-141550000D02*
X101690000Y-141176000D01*
X101690000Y-141176000D02*
X102658000Y-140208000D01*
X58125000Y-142400000D02*
X58980000Y-142400000D01*
X58980000Y-142400000D02*
X61030000Y-144450000D01*
X61030000Y-144450000D02*
X61500000Y-144450000D01*
X57625000Y-142400000D02*
X57475000Y-142250000D01*
X57475000Y-142250000D02*
X56775000Y-142250000D01*
X56775000Y-142250000D02*
X56775000Y-141100000D01*
X56775000Y-141100000D02*
X57025000Y-140850000D01*
X58125000Y-142400000D02*
X57625000Y-142400000D01*
X57625000Y-142400000D02*
X56775000Y-143250000D01*
X85592102Y-139900000D02*
X86396051Y-140703949D01*
X79750000Y-139900000D02*
X85592102Y-139900000D01*
X66800000Y-149000000D02*
X67800000Y-148000000D01*
X67800000Y-148000000D02*
X67800000Y-147050000D01*
X67800000Y-147050000D02*
X67850000Y-147000000D01*
X62200000Y-145150000D02*
X62200000Y-145200000D01*
X62900000Y-144450000D02*
X62200000Y-145150000D01*
X62200000Y-145050000D02*
X62200000Y-145200000D01*
X63000000Y-144450000D02*
X62900000Y-144450000D01*
X61600000Y-144450000D02*
X62200000Y-145050000D01*
X61500000Y-144450000D02*
X61600000Y-144450000D01*
D37*
X78500000Y-147084602D02*
X78500000Y-146467810D01*
X89851446Y-147495001D02*
X79489601Y-147495001D01*
X78500000Y-146467810D02*
X78500000Y-146184968D01*
X79389601Y-147595001D02*
X79010399Y-147595001D01*
X79010399Y-147595001D02*
X78500000Y-147084602D01*
X91526167Y-145820280D02*
X89851446Y-147495001D01*
X79489601Y-147495001D02*
X79389601Y-147595001D01*
X89439340Y-147200000D02*
X79482842Y-147200000D01*
X91172614Y-145466726D02*
X89439340Y-147200000D01*
X79482842Y-147200000D02*
X79200000Y-147200000D01*
D38*
X104700000Y-146300000D02*
X104600000Y-146400000D01*
X105825000Y-146300000D02*
X104700000Y-146300000D01*
X100533000Y-140208000D02*
X100330000Y-140208000D01*
X101190000Y-140865000D02*
X100533000Y-140208000D01*
X101190000Y-141550000D02*
X101190000Y-140865000D01*
D37*
X89619989Y-147760011D02*
X89980474Y-147760011D01*
X88700000Y-148250000D02*
X89130000Y-148250000D01*
X89980474Y-147760011D02*
X91248455Y-146492030D01*
X91561523Y-146492030D02*
X91879720Y-146173833D01*
X91248455Y-146492030D02*
X91561523Y-146492030D01*
X89130000Y-148250000D02*
X89619989Y-147760011D01*
X88700000Y-149150000D02*
X87400000Y-149150000D01*
X91300000Y-149150000D02*
X90000000Y-149150000D01*
X90000000Y-148250000D02*
X90100000Y-148250000D01*
X90100000Y-148250000D02*
X90430000Y-147920000D01*
X90430000Y-147678196D02*
X91262613Y-146845583D01*
X90430000Y-147920000D02*
X90430000Y-147678196D01*
X91262613Y-146845583D02*
X91915077Y-146845583D01*
X91915077Y-146845583D02*
X92233274Y-146527386D01*
X80199999Y-146400011D02*
X80000000Y-146200012D01*
X90500863Y-145666848D02*
X89337733Y-146829978D01*
X80629966Y-146829978D02*
X80199999Y-146400011D01*
X89337733Y-146829978D02*
X80629966Y-146829978D01*
X90819060Y-145113173D02*
X90500863Y-145431370D01*
X90500863Y-145431370D02*
X90500863Y-145666848D01*
X79200000Y-141720000D02*
X79200000Y-141800000D01*
X78680000Y-141200000D02*
X79200000Y-141720000D01*
X78200000Y-141200000D02*
X78680000Y-141200000D01*
X78200000Y-141200000D02*
X78200000Y-140220000D01*
X78200000Y-140220000D02*
X78520000Y-139900000D01*
X78520000Y-139900000D02*
X78850000Y-139900000D01*
X72200000Y-145900000D02*
X72200000Y-146200000D01*
X89230033Y-146569967D02*
X83069967Y-146569967D01*
X90465507Y-144759619D02*
X90147310Y-145077816D01*
X90147310Y-145077816D02*
X90147310Y-145652690D01*
X90147310Y-145652690D02*
X89230033Y-146569967D01*
X83069967Y-146569967D02*
X81600000Y-145100000D01*
X81600000Y-145100000D02*
X73000000Y-145100000D01*
X73000000Y-145100000D02*
X72200000Y-145900000D01*
X68750000Y-147000000D02*
X71550000Y-147000000D01*
X72200000Y-146350000D02*
X72200000Y-146200000D01*
X71550000Y-147000000D02*
X72200000Y-146350000D01*
X68200000Y-141300000D02*
X68075000Y-141425000D01*
X81707700Y-144839989D02*
X83047690Y-146179980D01*
X68075000Y-141425000D02*
X68075000Y-146075000D01*
X68075000Y-146075000D02*
X68500000Y-146500000D01*
X89887300Y-144418588D02*
X90465507Y-143840381D01*
X68500000Y-146500000D02*
X71200000Y-146500000D01*
X71200000Y-146500000D02*
X71200000Y-145900000D01*
X71200000Y-145900000D02*
X72160011Y-144939989D01*
X83047690Y-146179980D02*
X89220020Y-146179980D01*
X72160011Y-144939989D02*
X72792300Y-144939989D01*
X72792300Y-144939989D02*
X72892300Y-144839989D01*
X72892300Y-144839989D02*
X81707700Y-144839989D01*
X89220020Y-146179980D02*
X89887299Y-145512701D01*
X89887299Y-145512701D02*
X89887300Y-144418588D01*
X68200000Y-141300000D02*
X69600000Y-141300000D01*
X69600000Y-141300000D02*
X69700000Y-141200000D01*
X69700000Y-141200000D02*
X70200000Y-141200000D01*
X67400000Y-141400000D02*
X67830000Y-141400000D01*
X67830000Y-141400000D02*
X67930000Y-141300000D01*
X67930000Y-141300000D02*
X68200000Y-141300000D01*
X70200000Y-141200000D02*
X70100000Y-141300000D01*
X67500000Y-141300000D02*
X67400000Y-141400000D01*
X61000000Y-140595000D02*
X62545000Y-139050000D01*
X88132842Y-139050000D02*
X89500000Y-140417158D01*
X61000000Y-141400000D02*
X61000000Y-140595000D01*
X89500000Y-140417158D02*
X89500000Y-140700000D01*
X62545000Y-139050000D02*
X88132842Y-139050000D01*
X91964998Y-140719606D02*
X91995002Y-140689602D01*
X91995002Y-140513194D02*
X92243198Y-140264998D01*
X92586827Y-141719060D02*
X91964998Y-141097231D01*
X92243198Y-140264998D02*
X92864998Y-140264998D01*
X91964998Y-141097231D02*
X91964998Y-140719606D01*
X91995002Y-140689602D02*
X91995002Y-140513194D01*
X93200001Y-140600001D02*
X93400000Y-140800000D01*
X92864998Y-140264998D02*
X93200001Y-140600001D01*
X55175000Y-142250000D02*
X55400000Y-142025000D01*
X55400000Y-142025000D02*
X55400000Y-141200000D01*
X61000000Y-140975000D02*
X61000000Y-141400000D01*
X55400000Y-141200000D02*
X56875000Y-139725000D01*
X56875000Y-139725000D02*
X59750000Y-139725000D01*
X59750000Y-139725000D02*
X61000000Y-140975000D01*
X61500000Y-143550000D02*
X61500000Y-141900000D01*
X61500000Y-141900000D02*
X61000000Y-141400000D01*
X55975000Y-142250000D02*
X55975000Y-140992710D01*
X55975000Y-140992710D02*
X56602711Y-140364999D01*
X56602711Y-140364999D02*
X57513001Y-140364999D01*
X57513001Y-140364999D02*
X57589999Y-140441997D01*
X57589999Y-140441997D02*
X57589999Y-141288001D01*
X57589999Y-141288001D02*
X57901998Y-141600000D01*
X57901998Y-141600000D02*
X58698998Y-141600000D01*
X61043999Y-143945001D02*
X62174999Y-143945001D01*
X58698998Y-141600000D02*
X61043999Y-143945001D01*
X62174999Y-143945001D02*
X62570000Y-143550000D01*
X62570000Y-143550000D02*
X63000000Y-143550000D01*
X63000000Y-141400000D02*
X65089989Y-139310011D01*
X89104999Y-140510399D02*
X89104999Y-140943191D01*
X87904611Y-139310011D02*
X89104999Y-140510399D01*
X65089989Y-139310011D02*
X87904611Y-139310011D01*
X89391183Y-141229375D02*
X89674025Y-141229375D01*
X89104999Y-140943191D02*
X89391183Y-141229375D01*
X91600000Y-141439340D02*
X91600000Y-140782842D01*
X91600000Y-140782842D02*
X91600000Y-140500000D01*
X92233274Y-142072614D02*
X91600000Y-141439340D01*
X63000000Y-143550000D02*
X63000000Y-141400000D01*
X88982843Y-145899999D02*
X88399999Y-145899999D01*
X89358192Y-145524650D02*
X88982843Y-145899999D01*
X89358192Y-144176934D02*
X89358192Y-145524650D01*
X88399999Y-145899999D02*
X88200000Y-145700000D01*
X90819060Y-143486827D02*
X90641728Y-143309495D01*
X90641728Y-143309495D02*
X90225631Y-143309495D01*
X90225631Y-143309495D02*
X89358192Y-144176934D01*
X89863627Y-141624377D02*
X88058941Y-141624377D01*
X96568630Y-145431370D02*
X97525023Y-144474977D01*
X90673441Y-140018800D02*
X90673441Y-140814563D01*
X97525023Y-141600023D02*
X95409965Y-139484965D01*
X95409965Y-139484965D02*
X91207276Y-139484965D01*
X88036539Y-141601975D02*
X87294077Y-141601975D01*
X96299137Y-145431370D02*
X96568630Y-145431370D01*
X95980940Y-145113173D02*
X96299137Y-145431370D01*
X91207276Y-139484965D02*
X90673441Y-140018800D01*
X90673441Y-140814563D02*
X89863627Y-141624377D01*
X97525023Y-144474977D02*
X97525023Y-141600023D01*
X88058941Y-141624377D02*
X88036539Y-141601975D01*
X97160011Y-143934101D02*
X96493591Y-144600521D01*
X91314976Y-139744976D02*
X95287686Y-139744976D01*
X88325000Y-142500000D02*
X88940612Y-141884388D01*
X86396051Y-142500000D02*
X88325000Y-142500000D01*
X88940612Y-141884388D02*
X89971327Y-141884388D01*
X90933452Y-140126500D02*
X91314976Y-139744976D01*
X96493591Y-144600521D02*
X96334493Y-144759619D01*
X89971327Y-141884388D02*
X90933452Y-140922263D01*
X90933452Y-140922263D02*
X90933452Y-140126500D01*
X95287686Y-139744976D02*
X97160011Y-141617301D01*
X97160011Y-141617301D02*
X97160011Y-143934101D01*
X86240487Y-143398026D02*
X85498025Y-143398026D01*
X87794684Y-143398026D02*
X86240487Y-143398026D01*
X91193463Y-140234200D02*
X91193463Y-141029963D01*
X96299137Y-141124138D02*
X95179986Y-140004987D01*
X89048311Y-142144399D02*
X87794684Y-143398026D01*
X91422676Y-140004987D02*
X91193463Y-140234200D01*
X95980940Y-143486827D02*
X96299137Y-143168630D01*
X95179986Y-140004987D02*
X91422676Y-140004987D01*
X91193463Y-141029963D02*
X90079027Y-142144399D01*
X96299137Y-143168630D02*
X96299137Y-141124138D01*
X90079027Y-142144399D02*
X89048311Y-142144399D01*
X75550000Y-151100000D02*
X77650000Y-151100000D01*
X77650000Y-151100000D02*
X77750000Y-151000000D01*
X77750000Y-151000000D02*
X96445010Y-151000000D01*
X96445010Y-151000000D02*
X96500000Y-150945010D01*
X75450000Y-151100000D02*
X75550000Y-151100000D01*
X74400000Y-150805000D02*
X74695000Y-151100000D01*
X74400000Y-150000000D02*
X74400000Y-150805000D01*
X74695000Y-151100000D02*
X75550000Y-151100000D01*
X99450000Y-148767158D02*
X99450000Y-149050000D01*
X99450000Y-146946166D02*
X99450000Y-148767158D01*
X99349417Y-146845583D02*
X99450000Y-146946166D01*
X99349417Y-146845583D02*
X99690000Y-146505000D01*
X99690000Y-146505000D02*
X99690000Y-145450000D01*
X99349417Y-146845583D02*
X94884923Y-146845583D01*
X94884923Y-146845583D02*
X94566726Y-146527386D01*
X99581707Y-149502897D02*
X99365491Y-149502897D01*
X100200000Y-148884604D02*
X99581707Y-149502897D01*
X100200000Y-146600000D02*
X100200000Y-148884604D01*
X99365491Y-149502897D02*
X99082649Y-149502897D01*
X99007970Y-146492030D02*
X99100000Y-146400000D01*
X95238477Y-146492030D02*
X99007970Y-146492030D01*
X94920280Y-146173833D02*
X95238477Y-146492030D01*
X100200000Y-146600000D02*
X100200000Y-145460000D01*
X100200000Y-145460000D02*
X100190000Y-145450000D01*
X102390000Y-143250000D02*
X102750000Y-143250000D01*
X102750000Y-143250000D02*
X104000000Y-144500000D01*
X104000000Y-144500000D02*
X104000000Y-144984602D01*
X104000000Y-144984602D02*
X104665398Y-145650000D01*
X104665398Y-145650000D02*
X105020000Y-145650000D01*
X105020000Y-145650000D02*
X105825000Y-145650000D01*
X106050000Y-141800000D02*
X108245000Y-141800000D01*
X108245000Y-141800000D02*
X108300000Y-141745000D01*
X108300000Y-141745000D02*
X108300000Y-143600000D01*
X108300000Y-143600000D02*
X108500000Y-143800000D01*
X108500000Y-146200000D02*
X108500000Y-143800000D01*
X108300000Y-148255000D02*
X108300000Y-146400000D01*
X108300000Y-146400000D02*
X108500000Y-146200000D01*
X106050000Y-148200000D02*
X108245000Y-148200000D01*
X108245000Y-148200000D02*
X108300000Y-148255000D01*
X102390000Y-143750000D02*
X102850000Y-143750000D01*
X102850000Y-143750000D02*
X103400000Y-144300000D01*
X103400000Y-144300000D02*
X103400000Y-144800000D01*
X103400000Y-144800000D02*
X103600000Y-145000000D01*
X104600000Y-145000000D02*
X105825000Y-145000000D01*
X56900000Y-145625000D02*
X56900000Y-144375000D01*
X56900000Y-144375000D02*
X56775000Y-144250000D01*
X94394544Y-141719060D02*
X94777208Y-141336396D01*
X94777208Y-141336396D02*
X95436396Y-141336396D01*
X94394544Y-141719060D02*
X94213173Y-141719060D01*
X94213173Y-141719060D02*
X94213173Y-141673223D01*
X52775000Y-142250000D02*
X52775000Y-141025000D01*
X52775000Y-141025000D02*
X52750000Y-141000000D01*
X55800000Y-145625000D02*
X55800000Y-144425000D01*
X55800000Y-144425000D02*
X55975000Y-144250000D01*
X58275000Y-145425000D02*
X57629999Y-146070001D01*
X63620388Y-146500000D02*
X63420388Y-146700000D01*
X53575000Y-144780000D02*
X53575000Y-144250000D01*
X61057699Y-146700000D02*
X59782699Y-145425000D01*
X64200000Y-146500000D02*
X63620388Y-146500000D01*
X59782699Y-145425000D02*
X58275000Y-145425000D01*
X63420388Y-146700000D02*
X61057699Y-146700000D01*
X57629999Y-146070001D02*
X54653199Y-146070001D01*
X54653199Y-146070001D02*
X53575000Y-144991802D01*
X53575000Y-144991802D02*
X53575000Y-144780000D01*
X95273833Y-145820280D02*
X95644554Y-146191001D01*
X95644554Y-146191001D02*
X97394999Y-146191001D01*
X97394999Y-146191001D02*
X97536000Y-146050000D01*
X95451165Y-145997612D02*
X95273833Y-145820280D01*
X95273833Y-145820280D02*
X95328553Y-145875000D01*
X53195000Y-141678998D02*
X53200000Y-141673998D01*
X53195000Y-141720000D02*
X53195000Y-141678998D01*
X60994980Y-147004990D02*
X63417158Y-147004990D01*
X53575000Y-142250000D02*
X53575000Y-142100000D01*
X53575000Y-142100000D02*
X53195000Y-141720000D01*
X53200000Y-141673998D02*
X53200000Y-140548998D01*
X53200000Y-140548998D02*
X53026002Y-140375000D01*
X53026002Y-140375000D02*
X51025000Y-140375000D01*
X50700000Y-144375000D02*
X51576812Y-145251812D01*
X59675000Y-145685010D02*
X60994980Y-147004990D01*
X51025000Y-140375000D02*
X50700000Y-140700000D01*
X50700000Y-140700000D02*
X50700000Y-144375000D01*
X53467302Y-145251812D02*
X54545500Y-146330011D01*
X54545500Y-146330011D02*
X57737698Y-146330011D01*
X51576812Y-145251812D02*
X53467302Y-145251812D01*
X58382699Y-145685010D02*
X59675000Y-145685010D01*
X63417158Y-147004990D02*
X63700000Y-147004990D01*
X57737698Y-146330011D02*
X58382699Y-145685010D01*
X95627386Y-145466726D02*
X95956660Y-145796000D01*
X95956660Y-145796000D02*
X96211201Y-145796000D01*
X96211201Y-145796000D02*
X97028000Y-145796000D01*
X95627386Y-145466726D02*
X95810660Y-145650000D01*
X94213173Y-146880940D02*
X94531370Y-147199137D01*
X94531370Y-147199137D02*
X96799137Y-147199137D01*
X96799137Y-147199137D02*
X97150001Y-147550001D01*
X97150001Y-147550001D02*
X97900000Y-148300000D01*
D39*
G36*
X51171640Y-145656984D02*
X51357534Y-145781195D01*
X51576812Y-145824812D01*
X53229958Y-145824812D01*
X54140328Y-146735183D01*
X54326222Y-146859394D01*
X54545500Y-146903011D01*
X57382049Y-146903011D01*
X57381730Y-147268546D01*
X57618422Y-147841383D01*
X58056312Y-148280038D01*
X58446666Y-148442127D01*
X58139984Y-148441860D01*
X57842903Y-148564611D01*
X57615410Y-148791707D01*
X57492140Y-149088574D01*
X57491860Y-149410016D01*
X57614611Y-149707097D01*
X57841707Y-149934590D01*
X58138574Y-150057860D01*
X58460016Y-150058140D01*
X58757097Y-149935389D01*
X58843530Y-149849107D01*
X58866603Y-149844517D01*
X59026866Y-150232383D01*
X59415570Y-150621767D01*
X59923697Y-150832760D01*
X60473889Y-150833240D01*
X60982383Y-150623134D01*
X61371767Y-150234430D01*
X61582760Y-149726303D01*
X61583176Y-149248598D01*
X63201419Y-149248598D01*
X63238419Y-149837411D01*
X63392565Y-150209553D01*
X63635587Y-150296624D01*
X64482211Y-149450000D01*
X63635587Y-148603376D01*
X63392565Y-148690447D01*
X63201419Y-149248598D01*
X61583176Y-149248598D01*
X61583240Y-149176111D01*
X61373134Y-148667617D01*
X60984430Y-148278233D01*
X60887538Y-148238000D01*
X63906254Y-148238000D01*
X63853376Y-148385587D01*
X64700000Y-149232211D01*
X64714142Y-149218069D01*
X64931931Y-149435858D01*
X64917789Y-149450000D01*
X65764413Y-150296624D01*
X66007435Y-150209553D01*
X66198581Y-149651402D01*
X66197739Y-149638000D01*
X66295198Y-149638000D01*
X66341707Y-149684590D01*
X66638574Y-149807860D01*
X66960016Y-149808140D01*
X67257097Y-149685389D01*
X67484590Y-149458293D01*
X67607860Y-149161426D01*
X67607918Y-149094350D01*
X68251134Y-148451134D01*
X68389435Y-148244152D01*
X68438000Y-148000000D01*
X68438000Y-147795674D01*
X68550000Y-147817952D01*
X68950000Y-147817952D01*
X69148212Y-147778525D01*
X69316247Y-147666247D01*
X69378553Y-147573000D01*
X71550000Y-147573000D01*
X71769278Y-147529383D01*
X71955172Y-147405172D01*
X72142392Y-147217952D01*
X72550000Y-147217952D01*
X72748212Y-147178525D01*
X72916247Y-147066247D01*
X73028525Y-146898212D01*
X73067952Y-146700000D01*
X73067952Y-146506000D01*
X75242000Y-146506000D01*
X75242000Y-146820938D01*
X75334562Y-147044404D01*
X75505595Y-147215437D01*
X75729061Y-147308000D01*
X75894000Y-147308000D01*
X76046000Y-147156000D01*
X76046000Y-146354000D01*
X76354000Y-146354000D01*
X76354000Y-147156000D01*
X76506000Y-147308000D01*
X76670939Y-147308000D01*
X76894405Y-147215437D01*
X77065438Y-147044404D01*
X77158000Y-146820938D01*
X77158000Y-146506000D01*
X77006000Y-146354000D01*
X76354000Y-146354000D01*
X76046000Y-146354000D01*
X75394000Y-146354000D01*
X75242000Y-146506000D01*
X73067952Y-146506000D01*
X73067952Y-145842392D01*
X73237344Y-145673000D01*
X75242000Y-145673000D01*
X75242000Y-145894000D01*
X75394000Y-146046000D01*
X76046000Y-146046000D01*
X76046000Y-146026000D01*
X76354000Y-146026000D01*
X76354000Y-146046000D01*
X77006000Y-146046000D01*
X77158000Y-145894000D01*
X77158000Y-145673000D01*
X78010723Y-145673000D01*
X77900136Y-145783394D01*
X77792123Y-146043520D01*
X77791877Y-146325180D01*
X77899436Y-146585494D01*
X77927000Y-146613106D01*
X77927000Y-147084602D01*
X77970617Y-147303880D01*
X78074211Y-147458918D01*
X78094828Y-147489774D01*
X78605227Y-148000173D01*
X78791121Y-148124384D01*
X79010399Y-148168001D01*
X79389601Y-148168001D01*
X79608879Y-148124384D01*
X79693262Y-148068001D01*
X85889245Y-148068001D01*
X85815410Y-148141707D01*
X85692140Y-148438574D01*
X85691860Y-148760016D01*
X85814611Y-149057097D01*
X86041707Y-149284590D01*
X86338574Y-149407860D01*
X86593601Y-149408082D01*
X86621475Y-149548212D01*
X86733753Y-149716247D01*
X86901788Y-149828525D01*
X87100000Y-149867952D01*
X87700000Y-149867952D01*
X87898212Y-149828525D01*
X88050000Y-149727103D01*
X88201788Y-149828525D01*
X88400000Y-149867952D01*
X89000000Y-149867952D01*
X89198212Y-149828525D01*
X89350000Y-149727103D01*
X89501788Y-149828525D01*
X89700000Y-149867952D01*
X90300000Y-149867952D01*
X90498212Y-149828525D01*
X90650000Y-149727103D01*
X90801788Y-149828525D01*
X91000000Y-149867952D01*
X91600000Y-149867952D01*
X91798212Y-149828525D01*
X91960347Y-149720189D01*
X92005595Y-149765437D01*
X92229061Y-149858000D01*
X92348000Y-149858000D01*
X92500000Y-149706000D01*
X92500000Y-149125000D01*
X92476000Y-149125000D01*
X92476000Y-148875000D01*
X92500000Y-148875000D01*
X92500000Y-148826000D01*
X92800000Y-148826000D01*
X92800000Y-148875000D01*
X92824000Y-148875000D01*
X92824000Y-149125000D01*
X92800000Y-149125000D01*
X92800000Y-149706000D01*
X92952000Y-149858000D01*
X93070939Y-149858000D01*
X93294405Y-149765437D01*
X93318122Y-149741720D01*
X93450000Y-149767952D01*
X94050000Y-149767952D01*
X94248212Y-149728525D01*
X94325000Y-149677217D01*
X94401788Y-149728525D01*
X94600000Y-149767952D01*
X95200000Y-149767952D01*
X95331878Y-149741720D01*
X95355595Y-149765437D01*
X95579061Y-149858000D01*
X95698000Y-149858000D01*
X95850000Y-149706000D01*
X95850000Y-149125000D01*
X96150000Y-149125000D01*
X96150000Y-149706000D01*
X96302000Y-149858000D01*
X96420939Y-149858000D01*
X96644405Y-149765437D01*
X96815438Y-149594404D01*
X96908000Y-149370938D01*
X96908000Y-149277000D01*
X96756000Y-149125000D01*
X96150000Y-149125000D01*
X95850000Y-149125000D01*
X95826000Y-149125000D01*
X95826000Y-148875000D01*
X95850000Y-148875000D01*
X95850000Y-148294000D01*
X96150000Y-148294000D01*
X96150000Y-148875000D01*
X96756000Y-148875000D01*
X96908000Y-148723000D01*
X96908000Y-148629062D01*
X96815438Y-148405596D01*
X96644405Y-148234563D01*
X96420939Y-148142000D01*
X96302000Y-148142000D01*
X96150000Y-148294000D01*
X95850000Y-148294000D01*
X95698000Y-148142000D01*
X95579061Y-148142000D01*
X95512090Y-148169741D01*
X95489435Y-148055848D01*
X95408058Y-147934059D01*
X95408140Y-147839984D01*
X95380106Y-147772137D01*
X96561793Y-147772137D01*
X96841954Y-148052298D01*
X96841782Y-148249134D01*
X97032897Y-148711669D01*
X97386470Y-149065859D01*
X97848670Y-149257781D01*
X98349134Y-149258218D01*
X98431824Y-149224051D01*
X98374772Y-149361449D01*
X98374526Y-149643109D01*
X98482085Y-149903423D01*
X98681075Y-150102761D01*
X98941201Y-150210774D01*
X99222861Y-150211020D01*
X99483175Y-150103461D01*
X99510787Y-150075897D01*
X99581707Y-150075897D01*
X99800985Y-150032280D01*
X99986879Y-149908069D01*
X100605172Y-149289776D01*
X100729383Y-149103882D01*
X100736946Y-149065859D01*
X100773000Y-148884604D01*
X100773000Y-147028391D01*
X100799864Y-147001574D01*
X100907877Y-146741448D01*
X100908123Y-146459788D01*
X100877431Y-146385507D01*
X100940000Y-146373061D01*
X101040000Y-146392952D01*
X101340000Y-146392952D01*
X101440000Y-146373061D01*
X101540000Y-146392952D01*
X101840000Y-146392952D01*
X102038212Y-146353525D01*
X102206247Y-146241247D01*
X102318525Y-146073212D01*
X102357952Y-145875000D01*
X102357952Y-145417952D01*
X102815000Y-145417952D01*
X102992082Y-145382728D01*
X102999436Y-145400526D01*
X103198426Y-145599864D01*
X103458552Y-145707877D01*
X103740212Y-145708123D01*
X103862605Y-145657551D01*
X104031187Y-145826133D01*
X103915410Y-145941707D01*
X103792140Y-146238574D01*
X103791860Y-146560016D01*
X103914611Y-146857097D01*
X104141707Y-147084590D01*
X104438574Y-147207860D01*
X104760016Y-147208140D01*
X104908120Y-147146945D01*
X104871475Y-147201788D01*
X104832048Y-147400000D01*
X104832048Y-149000000D01*
X104871475Y-149198212D01*
X104983753Y-149366247D01*
X105151788Y-149478525D01*
X105350000Y-149517952D01*
X106750000Y-149517952D01*
X106948212Y-149478525D01*
X107116247Y-149366247D01*
X107228525Y-149198212D01*
X107243558Y-149122638D01*
X107421751Y-149241703D01*
X107830457Y-149323000D01*
X108769543Y-149323000D01*
X109178249Y-149241703D01*
X109392000Y-149098879D01*
X109392000Y-150892000D01*
X97208047Y-150892000D01*
X97208123Y-150804798D01*
X97100564Y-150544484D01*
X96901574Y-150345146D01*
X96641448Y-150237133D01*
X96359788Y-150236887D01*
X96099474Y-150344446D01*
X96016776Y-150427000D01*
X77750000Y-150427000D01*
X77530722Y-150470617D01*
X77468157Y-150512422D01*
X77582794Y-150236346D01*
X77583205Y-149765719D01*
X77403483Y-149330760D01*
X77070990Y-148997686D01*
X76636346Y-148817206D01*
X76165719Y-148816795D01*
X75730760Y-148996517D01*
X75561268Y-149165714D01*
X75553525Y-149126788D01*
X75441247Y-148958753D01*
X75273212Y-148846475D01*
X75075000Y-148807048D01*
X73725000Y-148807048D01*
X73526788Y-148846475D01*
X73358753Y-148958753D01*
X73246475Y-149126788D01*
X73207048Y-149325000D01*
X73207048Y-150675000D01*
X73246475Y-150873212D01*
X73259029Y-150892000D01*
X71895346Y-150892000D01*
X72160752Y-150627056D01*
X72369762Y-150123705D01*
X72370237Y-149578686D01*
X72162107Y-149074971D01*
X71777056Y-148689248D01*
X71273705Y-148480238D01*
X70728686Y-148479763D01*
X70224971Y-148687893D01*
X69839248Y-149072944D01*
X69630238Y-149576295D01*
X69629763Y-150121314D01*
X69837893Y-150625029D01*
X70104399Y-150892000D01*
X65134684Y-150892000D01*
X65459553Y-150757435D01*
X65546624Y-150514413D01*
X64700000Y-149667789D01*
X63853376Y-150514413D01*
X63940447Y-150757435D01*
X64333380Y-150892000D01*
X50608000Y-150892000D01*
X50608000Y-145093344D01*
X51171640Y-145656984D01*
X51171640Y-145656984D01*
G37*
X51171640Y-145656984D02*
X51357534Y-145781195D01*
X51576812Y-145824812D01*
X53229958Y-145824812D01*
X54140328Y-146735183D01*
X54326222Y-146859394D01*
X54545500Y-146903011D01*
X57382049Y-146903011D01*
X57381730Y-147268546D01*
X57618422Y-147841383D01*
X58056312Y-148280038D01*
X58446666Y-148442127D01*
X58139984Y-148441860D01*
X57842903Y-148564611D01*
X57615410Y-148791707D01*
X57492140Y-149088574D01*
X57491860Y-149410016D01*
X57614611Y-149707097D01*
X57841707Y-149934590D01*
X58138574Y-150057860D01*
X58460016Y-150058140D01*
X58757097Y-149935389D01*
X58843530Y-149849107D01*
X58866603Y-149844517D01*
X59026866Y-150232383D01*
X59415570Y-150621767D01*
X59923697Y-150832760D01*
X60473889Y-150833240D01*
X60982383Y-150623134D01*
X61371767Y-150234430D01*
X61582760Y-149726303D01*
X61583176Y-149248598D01*
X63201419Y-149248598D01*
X63238419Y-149837411D01*
X63392565Y-150209553D01*
X63635587Y-150296624D01*
X64482211Y-149450000D01*
X63635587Y-148603376D01*
X63392565Y-148690447D01*
X63201419Y-149248598D01*
X61583176Y-149248598D01*
X61583240Y-149176111D01*
X61373134Y-148667617D01*
X60984430Y-148278233D01*
X60887538Y-148238000D01*
X63906254Y-148238000D01*
X63853376Y-148385587D01*
X64700000Y-149232211D01*
X64714142Y-149218069D01*
X64931931Y-149435858D01*
X64917789Y-149450000D01*
X65764413Y-150296624D01*
X66007435Y-150209553D01*
X66198581Y-149651402D01*
X66197739Y-149638000D01*
X66295198Y-149638000D01*
X66341707Y-149684590D01*
X66638574Y-149807860D01*
X66960016Y-149808140D01*
X67257097Y-149685389D01*
X67484590Y-149458293D01*
X67607860Y-149161426D01*
X67607918Y-149094350D01*
X68251134Y-148451134D01*
X68389435Y-148244152D01*
X68438000Y-148000000D01*
X68438000Y-147795674D01*
X68550000Y-147817952D01*
X68950000Y-147817952D01*
X69148212Y-147778525D01*
X69316247Y-147666247D01*
X69378553Y-147573000D01*
X71550000Y-147573000D01*
X71769278Y-147529383D01*
X71955172Y-147405172D01*
X72142392Y-147217952D01*
X72550000Y-147217952D01*
X72748212Y-147178525D01*
X72916247Y-147066247D01*
X73028525Y-146898212D01*
X73067952Y-146700000D01*
X73067952Y-146506000D01*
X75242000Y-146506000D01*
X75242000Y-146820938D01*
X75334562Y-147044404D01*
X75505595Y-147215437D01*
X75729061Y-147308000D01*
X75894000Y-147308000D01*
X76046000Y-147156000D01*
X76046000Y-146354000D01*
X76354000Y-146354000D01*
X76354000Y-147156000D01*
X76506000Y-147308000D01*
X76670939Y-147308000D01*
X76894405Y-147215437D01*
X77065438Y-147044404D01*
X77158000Y-146820938D01*
X77158000Y-146506000D01*
X77006000Y-146354000D01*
X76354000Y-146354000D01*
X76046000Y-146354000D01*
X75394000Y-146354000D01*
X75242000Y-146506000D01*
X73067952Y-146506000D01*
X73067952Y-145842392D01*
X73237344Y-145673000D01*
X75242000Y-145673000D01*
X75242000Y-145894000D01*
X75394000Y-146046000D01*
X76046000Y-146046000D01*
X76046000Y-146026000D01*
X76354000Y-146026000D01*
X76354000Y-146046000D01*
X77006000Y-146046000D01*
X77158000Y-145894000D01*
X77158000Y-145673000D01*
X78010723Y-145673000D01*
X77900136Y-145783394D01*
X77792123Y-146043520D01*
X77791877Y-146325180D01*
X77899436Y-146585494D01*
X77927000Y-146613106D01*
X77927000Y-147084602D01*
X77970617Y-147303880D01*
X78074211Y-147458918D01*
X78094828Y-147489774D01*
X78605227Y-148000173D01*
X78791121Y-148124384D01*
X79010399Y-148168001D01*
X79389601Y-148168001D01*
X79608879Y-148124384D01*
X79693262Y-148068001D01*
X85889245Y-148068001D01*
X85815410Y-148141707D01*
X85692140Y-148438574D01*
X85691860Y-148760016D01*
X85814611Y-149057097D01*
X86041707Y-149284590D01*
X86338574Y-149407860D01*
X86593601Y-149408082D01*
X86621475Y-149548212D01*
X86733753Y-149716247D01*
X86901788Y-149828525D01*
X87100000Y-149867952D01*
X87700000Y-149867952D01*
X87898212Y-149828525D01*
X88050000Y-149727103D01*
X88201788Y-149828525D01*
X88400000Y-149867952D01*
X89000000Y-149867952D01*
X89198212Y-149828525D01*
X89350000Y-149727103D01*
X89501788Y-149828525D01*
X89700000Y-149867952D01*
X90300000Y-149867952D01*
X90498212Y-149828525D01*
X90650000Y-149727103D01*
X90801788Y-149828525D01*
X91000000Y-149867952D01*
X91600000Y-149867952D01*
X91798212Y-149828525D01*
X91960347Y-149720189D01*
X92005595Y-149765437D01*
X92229061Y-149858000D01*
X92348000Y-149858000D01*
X92500000Y-149706000D01*
X92500000Y-149125000D01*
X92476000Y-149125000D01*
X92476000Y-148875000D01*
X92500000Y-148875000D01*
X92500000Y-148826000D01*
X92800000Y-148826000D01*
X92800000Y-148875000D01*
X92824000Y-148875000D01*
X92824000Y-149125000D01*
X92800000Y-149125000D01*
X92800000Y-149706000D01*
X92952000Y-149858000D01*
X93070939Y-149858000D01*
X93294405Y-149765437D01*
X93318122Y-149741720D01*
X93450000Y-149767952D01*
X94050000Y-149767952D01*
X94248212Y-149728525D01*
X94325000Y-149677217D01*
X94401788Y-149728525D01*
X94600000Y-149767952D01*
X95200000Y-149767952D01*
X95331878Y-149741720D01*
X95355595Y-149765437D01*
X95579061Y-149858000D01*
X95698000Y-149858000D01*
X95850000Y-149706000D01*
X95850000Y-149125000D01*
X96150000Y-149125000D01*
X96150000Y-149706000D01*
X96302000Y-149858000D01*
X96420939Y-149858000D01*
X96644405Y-149765437D01*
X96815438Y-149594404D01*
X96908000Y-149370938D01*
X96908000Y-149277000D01*
X96756000Y-149125000D01*
X96150000Y-149125000D01*
X95850000Y-149125000D01*
X95826000Y-149125000D01*
X95826000Y-148875000D01*
X95850000Y-148875000D01*
X95850000Y-148294000D01*
X96150000Y-148294000D01*
X96150000Y-148875000D01*
X96756000Y-148875000D01*
X96908000Y-148723000D01*
X96908000Y-148629062D01*
X96815438Y-148405596D01*
X96644405Y-148234563D01*
X96420939Y-148142000D01*
X96302000Y-148142000D01*
X96150000Y-148294000D01*
X95850000Y-148294000D01*
X95698000Y-148142000D01*
X95579061Y-148142000D01*
X95512090Y-148169741D01*
X95489435Y-148055848D01*
X95408058Y-147934059D01*
X95408140Y-147839984D01*
X95380106Y-147772137D01*
X96561793Y-147772137D01*
X96841954Y-148052298D01*
X96841782Y-148249134D01*
X97032897Y-148711669D01*
X97386470Y-149065859D01*
X97848670Y-149257781D01*
X98349134Y-149258218D01*
X98431824Y-149224051D01*
X98374772Y-149361449D01*
X98374526Y-149643109D01*
X98482085Y-149903423D01*
X98681075Y-150102761D01*
X98941201Y-150210774D01*
X99222861Y-150211020D01*
X99483175Y-150103461D01*
X99510787Y-150075897D01*
X99581707Y-150075897D01*
X99800985Y-150032280D01*
X99986879Y-149908069D01*
X100605172Y-149289776D01*
X100729383Y-149103882D01*
X100736946Y-149065859D01*
X100773000Y-148884604D01*
X100773000Y-147028391D01*
X100799864Y-147001574D01*
X100907877Y-146741448D01*
X100908123Y-146459788D01*
X100877431Y-146385507D01*
X100940000Y-146373061D01*
X101040000Y-146392952D01*
X101340000Y-146392952D01*
X101440000Y-146373061D01*
X101540000Y-146392952D01*
X101840000Y-146392952D01*
X102038212Y-146353525D01*
X102206247Y-146241247D01*
X102318525Y-146073212D01*
X102357952Y-145875000D01*
X102357952Y-145417952D01*
X102815000Y-145417952D01*
X102992082Y-145382728D01*
X102999436Y-145400526D01*
X103198426Y-145599864D01*
X103458552Y-145707877D01*
X103740212Y-145708123D01*
X103862605Y-145657551D01*
X104031187Y-145826133D01*
X103915410Y-145941707D01*
X103792140Y-146238574D01*
X103791860Y-146560016D01*
X103914611Y-146857097D01*
X104141707Y-147084590D01*
X104438574Y-147207860D01*
X104760016Y-147208140D01*
X104908120Y-147146945D01*
X104871475Y-147201788D01*
X104832048Y-147400000D01*
X104832048Y-149000000D01*
X104871475Y-149198212D01*
X104983753Y-149366247D01*
X105151788Y-149478525D01*
X105350000Y-149517952D01*
X106750000Y-149517952D01*
X106948212Y-149478525D01*
X107116247Y-149366247D01*
X107228525Y-149198212D01*
X107243558Y-149122638D01*
X107421751Y-149241703D01*
X107830457Y-149323000D01*
X108769543Y-149323000D01*
X109178249Y-149241703D01*
X109392000Y-149098879D01*
X109392000Y-150892000D01*
X97208047Y-150892000D01*
X97208123Y-150804798D01*
X97100564Y-150544484D01*
X96901574Y-150345146D01*
X96641448Y-150237133D01*
X96359788Y-150236887D01*
X96099474Y-150344446D01*
X96016776Y-150427000D01*
X77750000Y-150427000D01*
X77530722Y-150470617D01*
X77468157Y-150512422D01*
X77582794Y-150236346D01*
X77583205Y-149765719D01*
X77403483Y-149330760D01*
X77070990Y-148997686D01*
X76636346Y-148817206D01*
X76165719Y-148816795D01*
X75730760Y-148996517D01*
X75561268Y-149165714D01*
X75553525Y-149126788D01*
X75441247Y-148958753D01*
X75273212Y-148846475D01*
X75075000Y-148807048D01*
X73725000Y-148807048D01*
X73526788Y-148846475D01*
X73358753Y-148958753D01*
X73246475Y-149126788D01*
X73207048Y-149325000D01*
X73207048Y-150675000D01*
X73246475Y-150873212D01*
X73259029Y-150892000D01*
X71895346Y-150892000D01*
X72160752Y-150627056D01*
X72369762Y-150123705D01*
X72370237Y-149578686D01*
X72162107Y-149074971D01*
X71777056Y-148689248D01*
X71273705Y-148480238D01*
X70728686Y-148479763D01*
X70224971Y-148687893D01*
X69839248Y-149072944D01*
X69630238Y-149576295D01*
X69629763Y-150121314D01*
X69837893Y-150625029D01*
X70104399Y-150892000D01*
X65134684Y-150892000D01*
X65459553Y-150757435D01*
X65546624Y-150514413D01*
X64700000Y-149667789D01*
X63853376Y-150514413D01*
X63940447Y-150757435D01*
X64333380Y-150892000D01*
X50608000Y-150892000D01*
X50608000Y-145093344D01*
X51171640Y-145656984D01*
G36*
X81946634Y-146256978D02*
X80867310Y-146256978D01*
X80708090Y-146097758D01*
X80708123Y-146059800D01*
X80600564Y-145799486D01*
X80474299Y-145673000D01*
X81362656Y-145673000D01*
X81946634Y-146256978D01*
X81946634Y-146256978D01*
G37*
X81946634Y-146256978D02*
X80867310Y-146256978D01*
X80708090Y-146097758D01*
X80708123Y-146059800D01*
X80600564Y-145799486D01*
X80474299Y-145673000D01*
X81362656Y-145673000D01*
X81946634Y-146256978D01*
G36*
X77670617Y-140000722D02*
X77627000Y-140220000D01*
X77627000Y-140238038D01*
X77483753Y-140333753D01*
X77371475Y-140501788D01*
X77332048Y-140700000D01*
X77332048Y-141700000D01*
X77371475Y-141898212D01*
X77483753Y-142066247D01*
X77651788Y-142178525D01*
X77850000Y-142217952D01*
X78550000Y-142217952D01*
X78605760Y-142206861D01*
X78798426Y-142399864D01*
X79058552Y-142507877D01*
X79340212Y-142508123D01*
X79600526Y-142400564D01*
X79799864Y-142201574D01*
X79907877Y-141941448D01*
X79908123Y-141659788D01*
X79800564Y-141399474D01*
X79601574Y-141200136D01*
X79411594Y-141121250D01*
X79085172Y-140794828D01*
X79067952Y-140783322D01*
X79067952Y-140714381D01*
X79248212Y-140678525D01*
X79300000Y-140643921D01*
X79351788Y-140678525D01*
X79550000Y-140717952D01*
X79950000Y-140717952D01*
X80148212Y-140678525D01*
X80316247Y-140566247D01*
X80335121Y-140538000D01*
X85086165Y-140538000D01*
X84768517Y-140706264D01*
X84481274Y-141053617D01*
X84391325Y-141270771D01*
X84506719Y-141447975D01*
X84847243Y-141447975D01*
X84754000Y-141508694D01*
X84754000Y-141755975D01*
X84506719Y-141755975D01*
X84446000Y-141849218D01*
X84446000Y-141508694D01*
X84268796Y-141393300D01*
X83870492Y-141604289D01*
X83583249Y-141951642D01*
X83493300Y-142168796D01*
X83608694Y-142346000D01*
X84446000Y-142346000D01*
X84446000Y-142036394D01*
X84602314Y-142331483D01*
X84827978Y-142518095D01*
X84614141Y-142731932D01*
X84658593Y-142776384D01*
X84622801Y-142812114D01*
X84600139Y-142866691D01*
X84578220Y-142813643D01*
X84541216Y-142776575D01*
X84585859Y-142731932D01*
X84368068Y-142514141D01*
X84323615Y-142558594D01*
X84287886Y-142522802D01*
X83908352Y-142365205D01*
X83497399Y-142364847D01*
X83117591Y-142521780D01*
X82826750Y-142812114D01*
X82669153Y-143191648D01*
X82668795Y-143602601D01*
X82825728Y-143982409D01*
X82862732Y-144019477D01*
X82818090Y-144064119D01*
X83035881Y-144281910D01*
X83080333Y-144237458D01*
X83116062Y-144273250D01*
X83170639Y-144295912D01*
X83117591Y-144317831D01*
X83080523Y-144354834D01*
X83035881Y-144310192D01*
X82818090Y-144527983D01*
X82862542Y-144572435D01*
X82826750Y-144608165D01*
X82821388Y-144621077D01*
X82696714Y-144621077D01*
X82789808Y-144527983D01*
X82572017Y-144310192D01*
X82471277Y-144410933D01*
X82202395Y-144142051D01*
X82649949Y-144142051D01*
X82649949Y-143304745D01*
X82472745Y-143189351D01*
X82074441Y-143400340D01*
X81787198Y-143747693D01*
X81712926Y-143927000D01*
X80143048Y-143927000D01*
X80157833Y-143891394D01*
X80158166Y-143510278D01*
X80012626Y-143158046D01*
X79743372Y-142888321D01*
X79391394Y-142742167D01*
X79010278Y-142741834D01*
X78658046Y-142887374D01*
X78388321Y-143156628D01*
X78242167Y-143508606D01*
X78241834Y-143889722D01*
X78257237Y-143927000D01*
X72528391Y-143927000D01*
X72501574Y-143900136D01*
X72241448Y-143792123D01*
X72157920Y-143792050D01*
X72158166Y-143510278D01*
X72012626Y-143158046D01*
X71743372Y-142888321D01*
X71391394Y-142742167D01*
X71010278Y-142741834D01*
X70658046Y-142887374D01*
X70388321Y-143156628D01*
X70242167Y-143508606D01*
X70241834Y-143889722D01*
X70387374Y-144241954D01*
X70656628Y-144511679D01*
X71008606Y-144657833D01*
X71389722Y-144658166D01*
X71397899Y-144654787D01*
X71467185Y-144822471D01*
X70794828Y-145494828D01*
X70670617Y-145680722D01*
X70627000Y-145900000D01*
X70627000Y-145927000D01*
X68737344Y-145927000D01*
X68648000Y-145837656D01*
X68648000Y-141873000D01*
X69366460Y-141873000D01*
X69371475Y-141898212D01*
X69483753Y-142066247D01*
X69651788Y-142178525D01*
X69850000Y-142217952D01*
X70550000Y-142217952D01*
X70748212Y-142178525D01*
X70916247Y-142066247D01*
X71028525Y-141898212D01*
X71067952Y-141700000D01*
X71067952Y-140700000D01*
X71028525Y-140501788D01*
X70916247Y-140333753D01*
X70748212Y-140221475D01*
X70550000Y-140182048D01*
X69850000Y-140182048D01*
X69651788Y-140221475D01*
X69483753Y-140333753D01*
X69371475Y-140501788D01*
X69332048Y-140700000D01*
X69332048Y-140727000D01*
X67930000Y-140727000D01*
X67911876Y-140730605D01*
X67898212Y-140721475D01*
X67700000Y-140682048D01*
X67100000Y-140682048D01*
X66901788Y-140721475D01*
X66733753Y-140833753D01*
X66621475Y-141001788D01*
X66582048Y-141200000D01*
X66582048Y-141600000D01*
X66594594Y-141663075D01*
X66448967Y-141692042D01*
X66254169Y-141691872D01*
X66299097Y-141553510D01*
X66258955Y-141044682D01*
X66141463Y-140761032D01*
X65919121Y-140698668D01*
X65217789Y-141400000D01*
X65231931Y-141414142D01*
X65014142Y-141631931D01*
X65000000Y-141617789D01*
X64298668Y-142319121D01*
X64361032Y-142541463D01*
X64846490Y-142699097D01*
X65355318Y-142658955D01*
X65591944Y-142560941D01*
X65591858Y-142660016D01*
X65714609Y-142957097D01*
X65941705Y-143184590D01*
X66238572Y-143307860D01*
X66305648Y-143307918D01*
X67062000Y-144064270D01*
X67062000Y-145868673D01*
X66833688Y-145639962D01*
X66261265Y-145402271D01*
X65641454Y-145401730D01*
X65068617Y-145638422D01*
X64703831Y-146002572D01*
X64601574Y-145900136D01*
X64341448Y-145792123D01*
X64059788Y-145791877D01*
X63799474Y-145899436D01*
X63771862Y-145927000D01*
X63620388Y-145927000D01*
X63401110Y-145970617D01*
X63227144Y-146086858D01*
X63215216Y-146094828D01*
X63183044Y-146127000D01*
X61295043Y-146127000D01*
X60187871Y-145019828D01*
X60166995Y-145005879D01*
X60001977Y-144895617D01*
X59782699Y-144852000D01*
X58275000Y-144852000D01*
X58055722Y-144895617D01*
X57890704Y-145005879D01*
X57869828Y-145019828D01*
X57684223Y-145205433D01*
X57678525Y-145176788D01*
X57566247Y-145008753D01*
X57473000Y-144946447D01*
X57473000Y-144893895D01*
X57503525Y-144848212D01*
X57542952Y-144650000D01*
X57542952Y-144320556D01*
X57754062Y-144408000D01*
X57848000Y-144408000D01*
X58000000Y-144256000D01*
X58000000Y-143650000D01*
X58250000Y-143650000D01*
X58250000Y-144256000D01*
X58402000Y-144408000D01*
X58495938Y-144408000D01*
X58719404Y-144315438D01*
X58890437Y-144144405D01*
X58983000Y-143920939D01*
X58983000Y-143802000D01*
X58831000Y-143650000D01*
X58250000Y-143650000D01*
X58000000Y-143650000D01*
X57951000Y-143650000D01*
X57951000Y-143350000D01*
X58000000Y-143350000D01*
X58000000Y-143326000D01*
X58250000Y-143326000D01*
X58250000Y-143350000D01*
X58831000Y-143350000D01*
X58929366Y-143251634D01*
X60578866Y-144901134D01*
X60785848Y-145039435D01*
X60903472Y-145062832D01*
X61001788Y-145128525D01*
X61200000Y-145167952D01*
X61392027Y-145167952D01*
X61391860Y-145360016D01*
X61514611Y-145657097D01*
X61741707Y-145884590D01*
X62038574Y-146007860D01*
X62360016Y-146008140D01*
X62657097Y-145885389D01*
X62884590Y-145658293D01*
X63007860Y-145361426D01*
X63007962Y-145244306D01*
X63084316Y-145167952D01*
X63300000Y-145167952D01*
X63498212Y-145128525D01*
X63666247Y-145016247D01*
X63778525Y-144848212D01*
X63817952Y-144650000D01*
X63817952Y-144250000D01*
X63778525Y-144051788D01*
X63743921Y-144000000D01*
X63778525Y-143948212D01*
X63817952Y-143750000D01*
X63817952Y-143350000D01*
X63778525Y-143151788D01*
X63666247Y-142983753D01*
X63573000Y-142921447D01*
X63573000Y-142443249D01*
X63669240Y-142403483D01*
X63995819Y-142077474D01*
X64080879Y-142101332D01*
X64782211Y-141400000D01*
X64768069Y-141385858D01*
X64985858Y-141168069D01*
X65000000Y-141182211D01*
X65701332Y-140480879D01*
X65638968Y-140258537D01*
X65153510Y-140100903D01*
X65105667Y-140104677D01*
X65327333Y-139883011D01*
X77749269Y-139883011D01*
X77670617Y-140000722D01*
X77670617Y-140000722D01*
G37*
X77670617Y-140000722D02*
X77627000Y-140220000D01*
X77627000Y-140238038D01*
X77483753Y-140333753D01*
X77371475Y-140501788D01*
X77332048Y-140700000D01*
X77332048Y-141700000D01*
X77371475Y-141898212D01*
X77483753Y-142066247D01*
X77651788Y-142178525D01*
X77850000Y-142217952D01*
X78550000Y-142217952D01*
X78605760Y-142206861D01*
X78798426Y-142399864D01*
X79058552Y-142507877D01*
X79340212Y-142508123D01*
X79600526Y-142400564D01*
X79799864Y-142201574D01*
X79907877Y-141941448D01*
X79908123Y-141659788D01*
X79800564Y-141399474D01*
X79601574Y-141200136D01*
X79411594Y-141121250D01*
X79085172Y-140794828D01*
X79067952Y-140783322D01*
X79067952Y-140714381D01*
X79248212Y-140678525D01*
X79300000Y-140643921D01*
X79351788Y-140678525D01*
X79550000Y-140717952D01*
X79950000Y-140717952D01*
X80148212Y-140678525D01*
X80316247Y-140566247D01*
X80335121Y-140538000D01*
X85086165Y-140538000D01*
X84768517Y-140706264D01*
X84481274Y-141053617D01*
X84391325Y-141270771D01*
X84506719Y-141447975D01*
X84847243Y-141447975D01*
X84754000Y-141508694D01*
X84754000Y-141755975D01*
X84506719Y-141755975D01*
X84446000Y-141849218D01*
X84446000Y-141508694D01*
X84268796Y-141393300D01*
X83870492Y-141604289D01*
X83583249Y-141951642D01*
X83493300Y-142168796D01*
X83608694Y-142346000D01*
X84446000Y-142346000D01*
X84446000Y-142036394D01*
X84602314Y-142331483D01*
X84827978Y-142518095D01*
X84614141Y-142731932D01*
X84658593Y-142776384D01*
X84622801Y-142812114D01*
X84600139Y-142866691D01*
X84578220Y-142813643D01*
X84541216Y-142776575D01*
X84585859Y-142731932D01*
X84368068Y-142514141D01*
X84323615Y-142558594D01*
X84287886Y-142522802D01*
X83908352Y-142365205D01*
X83497399Y-142364847D01*
X83117591Y-142521780D01*
X82826750Y-142812114D01*
X82669153Y-143191648D01*
X82668795Y-143602601D01*
X82825728Y-143982409D01*
X82862732Y-144019477D01*
X82818090Y-144064119D01*
X83035881Y-144281910D01*
X83080333Y-144237458D01*
X83116062Y-144273250D01*
X83170639Y-144295912D01*
X83117591Y-144317831D01*
X83080523Y-144354834D01*
X83035881Y-144310192D01*
X82818090Y-144527983D01*
X82862542Y-144572435D01*
X82826750Y-144608165D01*
X82821388Y-144621077D01*
X82696714Y-144621077D01*
X82789808Y-144527983D01*
X82572017Y-144310192D01*
X82471277Y-144410933D01*
X82202395Y-144142051D01*
X82649949Y-144142051D01*
X82649949Y-143304745D01*
X82472745Y-143189351D01*
X82074441Y-143400340D01*
X81787198Y-143747693D01*
X81712926Y-143927000D01*
X80143048Y-143927000D01*
X80157833Y-143891394D01*
X80158166Y-143510278D01*
X80012626Y-143158046D01*
X79743372Y-142888321D01*
X79391394Y-142742167D01*
X79010278Y-142741834D01*
X78658046Y-142887374D01*
X78388321Y-143156628D01*
X78242167Y-143508606D01*
X78241834Y-143889722D01*
X78257237Y-143927000D01*
X72528391Y-143927000D01*
X72501574Y-143900136D01*
X72241448Y-143792123D01*
X72157920Y-143792050D01*
X72158166Y-143510278D01*
X72012626Y-143158046D01*
X71743372Y-142888321D01*
X71391394Y-142742167D01*
X71010278Y-142741834D01*
X70658046Y-142887374D01*
X70388321Y-143156628D01*
X70242167Y-143508606D01*
X70241834Y-143889722D01*
X70387374Y-144241954D01*
X70656628Y-144511679D01*
X71008606Y-144657833D01*
X71389722Y-144658166D01*
X71397899Y-144654787D01*
X71467185Y-144822471D01*
X70794828Y-145494828D01*
X70670617Y-145680722D01*
X70627000Y-145900000D01*
X70627000Y-145927000D01*
X68737344Y-145927000D01*
X68648000Y-145837656D01*
X68648000Y-141873000D01*
X69366460Y-141873000D01*
X69371475Y-141898212D01*
X69483753Y-142066247D01*
X69651788Y-142178525D01*
X69850000Y-142217952D01*
X70550000Y-142217952D01*
X70748212Y-142178525D01*
X70916247Y-142066247D01*
X71028525Y-141898212D01*
X71067952Y-141700000D01*
X71067952Y-140700000D01*
X71028525Y-140501788D01*
X70916247Y-140333753D01*
X70748212Y-140221475D01*
X70550000Y-140182048D01*
X69850000Y-140182048D01*
X69651788Y-140221475D01*
X69483753Y-140333753D01*
X69371475Y-140501788D01*
X69332048Y-140700000D01*
X69332048Y-140727000D01*
X67930000Y-140727000D01*
X67911876Y-140730605D01*
X67898212Y-140721475D01*
X67700000Y-140682048D01*
X67100000Y-140682048D01*
X66901788Y-140721475D01*
X66733753Y-140833753D01*
X66621475Y-141001788D01*
X66582048Y-141200000D01*
X66582048Y-141600000D01*
X66594594Y-141663075D01*
X66448967Y-141692042D01*
X66254169Y-141691872D01*
X66299097Y-141553510D01*
X66258955Y-141044682D01*
X66141463Y-140761032D01*
X65919121Y-140698668D01*
X65217789Y-141400000D01*
X65231931Y-141414142D01*
X65014142Y-141631931D01*
X65000000Y-141617789D01*
X64298668Y-142319121D01*
X64361032Y-142541463D01*
X64846490Y-142699097D01*
X65355318Y-142658955D01*
X65591944Y-142560941D01*
X65591858Y-142660016D01*
X65714609Y-142957097D01*
X65941705Y-143184590D01*
X66238572Y-143307860D01*
X66305648Y-143307918D01*
X67062000Y-144064270D01*
X67062000Y-145868673D01*
X66833688Y-145639962D01*
X66261265Y-145402271D01*
X65641454Y-145401730D01*
X65068617Y-145638422D01*
X64703831Y-146002572D01*
X64601574Y-145900136D01*
X64341448Y-145792123D01*
X64059788Y-145791877D01*
X63799474Y-145899436D01*
X63771862Y-145927000D01*
X63620388Y-145927000D01*
X63401110Y-145970617D01*
X63227144Y-146086858D01*
X63215216Y-146094828D01*
X63183044Y-146127000D01*
X61295043Y-146127000D01*
X60187871Y-145019828D01*
X60166995Y-145005879D01*
X60001977Y-144895617D01*
X59782699Y-144852000D01*
X58275000Y-144852000D01*
X58055722Y-144895617D01*
X57890704Y-145005879D01*
X57869828Y-145019828D01*
X57684223Y-145205433D01*
X57678525Y-145176788D01*
X57566247Y-145008753D01*
X57473000Y-144946447D01*
X57473000Y-144893895D01*
X57503525Y-144848212D01*
X57542952Y-144650000D01*
X57542952Y-144320556D01*
X57754062Y-144408000D01*
X57848000Y-144408000D01*
X58000000Y-144256000D01*
X58000000Y-143650000D01*
X58250000Y-143650000D01*
X58250000Y-144256000D01*
X58402000Y-144408000D01*
X58495938Y-144408000D01*
X58719404Y-144315438D01*
X58890437Y-144144405D01*
X58983000Y-143920939D01*
X58983000Y-143802000D01*
X58831000Y-143650000D01*
X58250000Y-143650000D01*
X58000000Y-143650000D01*
X57951000Y-143650000D01*
X57951000Y-143350000D01*
X58000000Y-143350000D01*
X58000000Y-143326000D01*
X58250000Y-143326000D01*
X58250000Y-143350000D01*
X58831000Y-143350000D01*
X58929366Y-143251634D01*
X60578866Y-144901134D01*
X60785848Y-145039435D01*
X60903472Y-145062832D01*
X61001788Y-145128525D01*
X61200000Y-145167952D01*
X61392027Y-145167952D01*
X61391860Y-145360016D01*
X61514611Y-145657097D01*
X61741707Y-145884590D01*
X62038574Y-146007860D01*
X62360016Y-146008140D01*
X62657097Y-145885389D01*
X62884590Y-145658293D01*
X63007860Y-145361426D01*
X63007962Y-145244306D01*
X63084316Y-145167952D01*
X63300000Y-145167952D01*
X63498212Y-145128525D01*
X63666247Y-145016247D01*
X63778525Y-144848212D01*
X63817952Y-144650000D01*
X63817952Y-144250000D01*
X63778525Y-144051788D01*
X63743921Y-144000000D01*
X63778525Y-143948212D01*
X63817952Y-143750000D01*
X63817952Y-143350000D01*
X63778525Y-143151788D01*
X63666247Y-142983753D01*
X63573000Y-142921447D01*
X63573000Y-142443249D01*
X63669240Y-142403483D01*
X63995819Y-142077474D01*
X64080879Y-142101332D01*
X64782211Y-141400000D01*
X64768069Y-141385858D01*
X64985858Y-141168069D01*
X65000000Y-141182211D01*
X65701332Y-140480879D01*
X65638968Y-140258537D01*
X65153510Y-140100903D01*
X65105667Y-140104677D01*
X65327333Y-139883011D01*
X77749269Y-139883011D01*
X77670617Y-140000722D01*
G36*
X93631931Y-143066099D02*
X93617789Y-143080241D01*
X94619759Y-144082211D01*
X94633901Y-144068069D01*
X94851690Y-144285858D01*
X94837548Y-144300000D01*
X94851690Y-144314142D01*
X94633901Y-144531931D01*
X94619759Y-144517789D01*
X93617789Y-145519759D01*
X93631931Y-145533901D01*
X93414142Y-145751690D01*
X93400000Y-145737548D01*
X93385858Y-145751690D01*
X93168069Y-145533901D01*
X93182211Y-145519759D01*
X92180241Y-144517789D01*
X92166099Y-144531931D01*
X91948310Y-144314142D01*
X91962452Y-144300000D01*
X92398030Y-144300000D01*
X93400000Y-145301970D01*
X94401970Y-144300000D01*
X93400000Y-143298030D01*
X92398030Y-144300000D01*
X91962452Y-144300000D01*
X91948310Y-144285858D01*
X92166099Y-144068069D01*
X92180241Y-144082211D01*
X93182211Y-143080241D01*
X93168069Y-143066099D01*
X93385858Y-142848310D01*
X93400000Y-142862452D01*
X93414142Y-142848310D01*
X93631931Y-143066099D01*
X93631931Y-143066099D01*
G37*
X93631931Y-143066099D02*
X93617789Y-143080241D01*
X94619759Y-144082211D01*
X94633901Y-144068069D01*
X94851690Y-144285858D01*
X94837548Y-144300000D01*
X94851690Y-144314142D01*
X94633901Y-144531931D01*
X94619759Y-144517789D01*
X93617789Y-145519759D01*
X93631931Y-145533901D01*
X93414142Y-145751690D01*
X93400000Y-145737548D01*
X93385858Y-145751690D01*
X93168069Y-145533901D01*
X93182211Y-145519759D01*
X92180241Y-144517789D01*
X92166099Y-144531931D01*
X91948310Y-144314142D01*
X91962452Y-144300000D01*
X92398030Y-144300000D01*
X93400000Y-145301970D01*
X94401970Y-144300000D01*
X93400000Y-143298030D01*
X92398030Y-144300000D01*
X91962452Y-144300000D01*
X91948310Y-144285858D01*
X92166099Y-144068069D01*
X92180241Y-144082211D01*
X93182211Y-143080241D01*
X93168069Y-143066099D01*
X93385858Y-142848310D01*
X93400000Y-142862452D01*
X93414142Y-142848310D01*
X93631931Y-143066099D01*
G36*
X51624000Y-141125000D02*
X51600000Y-141125000D01*
X51600000Y-141706000D01*
X51752000Y-141858000D01*
X51870939Y-141858000D01*
X52017535Y-141797278D01*
X52007048Y-141850000D01*
X52007048Y-142508110D01*
X51859563Y-142655595D01*
X51767000Y-142879061D01*
X51767000Y-142973000D01*
X51919000Y-143125000D01*
X52321512Y-143125000D01*
X52326788Y-143128525D01*
X52525000Y-143167952D01*
X53025000Y-143167952D01*
X53175000Y-143138115D01*
X53325000Y-143167952D01*
X53825000Y-143167952D01*
X53975000Y-143138115D01*
X54125000Y-143167952D01*
X54625000Y-143167952D01*
X54775000Y-143138115D01*
X54925000Y-143167952D01*
X55425000Y-143167952D01*
X55575000Y-143138115D01*
X55725000Y-143167952D01*
X55857048Y-143167952D01*
X55857048Y-143332048D01*
X55763333Y-143332048D01*
X55545939Y-143242000D01*
X55452000Y-143242000D01*
X55300000Y-143394000D01*
X55300000Y-143571683D01*
X55246475Y-143651788D01*
X55231719Y-143725970D01*
X55140438Y-143505596D01*
X55050000Y-143415158D01*
X55050000Y-143394000D01*
X54898000Y-143242000D01*
X54804061Y-143242000D01*
X54775000Y-143254038D01*
X54745939Y-143242000D01*
X54652000Y-143242000D01*
X54500000Y-143394000D01*
X54500000Y-143415158D01*
X54409562Y-143505596D01*
X54318281Y-143725970D01*
X54303525Y-143651788D01*
X54250000Y-143571683D01*
X54250000Y-143394000D01*
X54098000Y-143242000D01*
X54004061Y-143242000D01*
X53786667Y-143332048D01*
X53325000Y-143332048D01*
X53175000Y-143361885D01*
X53025000Y-143332048D01*
X52525000Y-143332048D01*
X52326788Y-143371475D01*
X52321512Y-143375000D01*
X51919000Y-143375000D01*
X51767000Y-143527000D01*
X51767000Y-143620939D01*
X51859563Y-143844405D01*
X52007048Y-143991890D01*
X52007048Y-144650000D01*
X52012779Y-144678812D01*
X51814156Y-144678812D01*
X51273000Y-144137656D01*
X51273000Y-141733000D01*
X51300000Y-141706000D01*
X51300000Y-141125000D01*
X51276000Y-141125000D01*
X51276000Y-140948000D01*
X51624000Y-140948000D01*
X51624000Y-141125000D01*
X51624000Y-141125000D01*
G37*
X51624000Y-141125000D02*
X51600000Y-141125000D01*
X51600000Y-141706000D01*
X51752000Y-141858000D01*
X51870939Y-141858000D01*
X52017535Y-141797278D01*
X52007048Y-141850000D01*
X52007048Y-142508110D01*
X51859563Y-142655595D01*
X51767000Y-142879061D01*
X51767000Y-142973000D01*
X51919000Y-143125000D01*
X52321512Y-143125000D01*
X52326788Y-143128525D01*
X52525000Y-143167952D01*
X53025000Y-143167952D01*
X53175000Y-143138115D01*
X53325000Y-143167952D01*
X53825000Y-143167952D01*
X53975000Y-143138115D01*
X54125000Y-143167952D01*
X54625000Y-143167952D01*
X54775000Y-143138115D01*
X54925000Y-143167952D01*
X55425000Y-143167952D01*
X55575000Y-143138115D01*
X55725000Y-143167952D01*
X55857048Y-143167952D01*
X55857048Y-143332048D01*
X55763333Y-143332048D01*
X55545939Y-143242000D01*
X55452000Y-143242000D01*
X55300000Y-143394000D01*
X55300000Y-143571683D01*
X55246475Y-143651788D01*
X55231719Y-143725970D01*
X55140438Y-143505596D01*
X55050000Y-143415158D01*
X55050000Y-143394000D01*
X54898000Y-143242000D01*
X54804061Y-143242000D01*
X54775000Y-143254038D01*
X54745939Y-143242000D01*
X54652000Y-143242000D01*
X54500000Y-143394000D01*
X54500000Y-143415158D01*
X54409562Y-143505596D01*
X54318281Y-143725970D01*
X54303525Y-143651788D01*
X54250000Y-143571683D01*
X54250000Y-143394000D01*
X54098000Y-143242000D01*
X54004061Y-143242000D01*
X53786667Y-143332048D01*
X53325000Y-143332048D01*
X53175000Y-143361885D01*
X53025000Y-143332048D01*
X52525000Y-143332048D01*
X52326788Y-143371475D01*
X52321512Y-143375000D01*
X51919000Y-143375000D01*
X51767000Y-143527000D01*
X51767000Y-143620939D01*
X51859563Y-143844405D01*
X52007048Y-143991890D01*
X52007048Y-144650000D01*
X52012779Y-144678812D01*
X51814156Y-144678812D01*
X51273000Y-144137656D01*
X51273000Y-141733000D01*
X51300000Y-141706000D01*
X51300000Y-141125000D01*
X51276000Y-141125000D01*
X51276000Y-140948000D01*
X51624000Y-140948000D01*
X51624000Y-141125000D01*
G36*
X99944000Y-142696000D02*
X100936000Y-142696000D01*
X100936000Y-142676000D01*
X101244000Y-142676000D01*
X101244000Y-142696000D01*
X101264000Y-142696000D01*
X101264000Y-143004000D01*
X101244000Y-143004000D01*
X101244000Y-143996000D01*
X101264000Y-143996000D01*
X101264000Y-144304000D01*
X101244000Y-144304000D01*
X101244000Y-144324000D01*
X100936000Y-144324000D01*
X100936000Y-144304000D01*
X99944000Y-144304000D01*
X99944000Y-144324000D01*
X99636000Y-144324000D01*
X99636000Y-144304000D01*
X99616000Y-144304000D01*
X99616000Y-143996000D01*
X99636000Y-143996000D01*
X99636000Y-143156000D01*
X99832000Y-143156000D01*
X99832000Y-143844000D01*
X99944000Y-143956000D01*
X99944000Y-143996000D01*
X99984000Y-143996000D01*
X100096000Y-144108000D01*
X100784000Y-144108000D01*
X100896000Y-143996000D01*
X100936000Y-143996000D01*
X100936000Y-143956000D01*
X101048000Y-143844000D01*
X101048000Y-143156000D01*
X100936000Y-143044000D01*
X100936000Y-143004000D01*
X100896000Y-143004000D01*
X100784000Y-142892000D01*
X100096000Y-142892000D01*
X99984000Y-143004000D01*
X99944000Y-143004000D01*
X99944000Y-143044000D01*
X99832000Y-143156000D01*
X99636000Y-143156000D01*
X99636000Y-143004000D01*
X99616000Y-143004000D01*
X99616000Y-142696000D01*
X99636000Y-142696000D01*
X99636000Y-142676000D01*
X99944000Y-142676000D01*
X99944000Y-142696000D01*
X99944000Y-142696000D01*
G37*
X99944000Y-142696000D02*
X100936000Y-142696000D01*
X100936000Y-142676000D01*
X101244000Y-142676000D01*
X101244000Y-142696000D01*
X101264000Y-142696000D01*
X101264000Y-143004000D01*
X101244000Y-143004000D01*
X101244000Y-143996000D01*
X101264000Y-143996000D01*
X101264000Y-144304000D01*
X101244000Y-144304000D01*
X101244000Y-144324000D01*
X100936000Y-144324000D01*
X100936000Y-144304000D01*
X99944000Y-144304000D01*
X99944000Y-144324000D01*
X99636000Y-144324000D01*
X99636000Y-144304000D01*
X99616000Y-144304000D01*
X99616000Y-143996000D01*
X99636000Y-143996000D01*
X99636000Y-143156000D01*
X99832000Y-143156000D01*
X99832000Y-143844000D01*
X99944000Y-143956000D01*
X99944000Y-143996000D01*
X99984000Y-143996000D01*
X100096000Y-144108000D01*
X100784000Y-144108000D01*
X100896000Y-143996000D01*
X100936000Y-143996000D01*
X100936000Y-143956000D01*
X101048000Y-143844000D01*
X101048000Y-143156000D01*
X100936000Y-143044000D01*
X100936000Y-143004000D01*
X100896000Y-143004000D01*
X100784000Y-142892000D01*
X100096000Y-142892000D01*
X99984000Y-143004000D01*
X99944000Y-143004000D01*
X99944000Y-143044000D01*
X99832000Y-143156000D01*
X99636000Y-143156000D01*
X99636000Y-143004000D01*
X99616000Y-143004000D01*
X99616000Y-142696000D01*
X99636000Y-142696000D01*
X99636000Y-142676000D01*
X99944000Y-142676000D01*
X99944000Y-142696000D01*
G36*
X104832048Y-142600000D02*
X104871475Y-142798212D01*
X104954718Y-142922794D01*
X104805596Y-142984562D01*
X104680912Y-143109246D01*
X104744000Y-142956939D01*
X104744000Y-142838000D01*
X104592000Y-142686000D01*
X104011000Y-142686000D01*
X104011000Y-143292000D01*
X104163000Y-143444000D01*
X104256938Y-143444000D01*
X104480404Y-143351438D01*
X104605088Y-143226754D01*
X104542000Y-143379061D01*
X104542000Y-143448000D01*
X104694000Y-143600000D01*
X105671000Y-143600000D01*
X105671000Y-143526000D01*
X105979000Y-143526000D01*
X105979000Y-143600000D01*
X105999000Y-143600000D01*
X105999000Y-143632048D01*
X105150000Y-143632048D01*
X104951788Y-143671475D01*
X104783753Y-143783753D01*
X104772897Y-143800000D01*
X104694000Y-143800000D01*
X104542000Y-143952000D01*
X104542000Y-144020939D01*
X104632048Y-144238333D01*
X104632048Y-144292027D01*
X104531614Y-144291940D01*
X104529383Y-144280722D01*
X104405172Y-144094828D01*
X103681672Y-143371328D01*
X103761000Y-143292000D01*
X103761000Y-142966268D01*
X103787133Y-142940135D01*
X103925434Y-142733153D01*
X103973999Y-142489001D01*
X103973999Y-142362000D01*
X104011000Y-142362000D01*
X104011000Y-142386000D01*
X104592000Y-142386000D01*
X104744000Y-142234000D01*
X104744000Y-142115061D01*
X104651437Y-141891595D01*
X104627720Y-141867878D01*
X104653952Y-141736000D01*
X104653952Y-141574857D01*
X104832048Y-141501270D01*
X104832048Y-142600000D01*
X104832048Y-142600000D01*
G37*
X104832048Y-142600000D02*
X104871475Y-142798212D01*
X104954718Y-142922794D01*
X104805596Y-142984562D01*
X104680912Y-143109246D01*
X104744000Y-142956939D01*
X104744000Y-142838000D01*
X104592000Y-142686000D01*
X104011000Y-142686000D01*
X104011000Y-143292000D01*
X104163000Y-143444000D01*
X104256938Y-143444000D01*
X104480404Y-143351438D01*
X104605088Y-143226754D01*
X104542000Y-143379061D01*
X104542000Y-143448000D01*
X104694000Y-143600000D01*
X105671000Y-143600000D01*
X105671000Y-143526000D01*
X105979000Y-143526000D01*
X105979000Y-143600000D01*
X105999000Y-143600000D01*
X105999000Y-143632048D01*
X105150000Y-143632048D01*
X104951788Y-143671475D01*
X104783753Y-143783753D01*
X104772897Y-143800000D01*
X104694000Y-143800000D01*
X104542000Y-143952000D01*
X104542000Y-144020939D01*
X104632048Y-144238333D01*
X104632048Y-144292027D01*
X104531614Y-144291940D01*
X104529383Y-144280722D01*
X104405172Y-144094828D01*
X103681672Y-143371328D01*
X103761000Y-143292000D01*
X103761000Y-142966268D01*
X103787133Y-142940135D01*
X103925434Y-142733153D01*
X103973999Y-142489001D01*
X103973999Y-142362000D01*
X104011000Y-142362000D01*
X104011000Y-142386000D01*
X104592000Y-142386000D01*
X104744000Y-142234000D01*
X104744000Y-142115061D01*
X104651437Y-141891595D01*
X104627720Y-141867878D01*
X104653952Y-141736000D01*
X104653952Y-141574857D01*
X104832048Y-141501270D01*
X104832048Y-142600000D01*
G36*
X59829049Y-140614393D02*
X59807048Y-140725000D01*
X59807048Y-141897706D01*
X59104170Y-141194828D01*
X59071504Y-141173001D01*
X59033000Y-141147273D01*
X59033000Y-141127000D01*
X58881000Y-140975000D01*
X58275000Y-140975000D01*
X58275000Y-141024000D01*
X58162999Y-141024000D01*
X58162999Y-140676000D01*
X58275000Y-140676000D01*
X58275000Y-140725000D01*
X58881000Y-140725000D01*
X59033000Y-140573000D01*
X59033000Y-140479062D01*
X58958002Y-140298000D01*
X59512656Y-140298000D01*
X59829049Y-140614393D01*
X59829049Y-140614393D01*
G37*
X59829049Y-140614393D02*
X59807048Y-140725000D01*
X59807048Y-141897706D01*
X59104170Y-141194828D01*
X59071504Y-141173001D01*
X59033000Y-141147273D01*
X59033000Y-141127000D01*
X58881000Y-140975000D01*
X58275000Y-140975000D01*
X58275000Y-141024000D01*
X58162999Y-141024000D01*
X58162999Y-140676000D01*
X58275000Y-140676000D01*
X58275000Y-140725000D01*
X58881000Y-140725000D01*
X59033000Y-140573000D01*
X59033000Y-140479062D01*
X58958002Y-140298000D01*
X59512656Y-140298000D01*
X59829049Y-140614393D01*
G36*
X85549678Y-141332532D02*
X85512166Y-141370043D01*
X85729957Y-141587834D01*
X85767469Y-141550323D01*
X85832353Y-141615207D01*
X85811668Y-141623754D01*
X85774599Y-141660758D01*
X85729957Y-141616116D01*
X85523369Y-141822704D01*
X85495711Y-141770492D01*
X85148358Y-141483249D01*
X85063200Y-141447975D01*
X85344025Y-141447975D01*
X85344025Y-141126879D01*
X85549678Y-141332532D01*
X85549678Y-141332532D01*
G37*
X85549678Y-141332532D02*
X85512166Y-141370043D01*
X85729957Y-141587834D01*
X85767469Y-141550323D01*
X85832353Y-141615207D01*
X85811668Y-141623754D01*
X85774599Y-141660758D01*
X85729957Y-141616116D01*
X85523369Y-141822704D01*
X85495711Y-141770492D01*
X85148358Y-141483249D01*
X85063200Y-141447975D01*
X85344025Y-141447975D01*
X85344025Y-141126879D01*
X85549678Y-141332532D01*
G36*
X109392000Y-140901121D02*
X109178249Y-140758297D01*
X108769543Y-140677000D01*
X107830457Y-140677000D01*
X107421751Y-140758297D01*
X107243558Y-140877362D01*
X107228580Y-140802065D01*
X107364590Y-140666293D01*
X107487860Y-140369426D01*
X107488140Y-140047984D01*
X107365389Y-139750903D01*
X107138293Y-139523410D01*
X106841426Y-139400140D01*
X106519984Y-139399860D01*
X106222903Y-139522611D01*
X106175431Y-139570000D01*
X104994010Y-139570000D01*
X104749858Y-139618565D01*
X104542876Y-139756866D01*
X104299815Y-139999927D01*
X104233984Y-139999870D01*
X103936903Y-140122621D01*
X103889431Y-140170010D01*
X103522278Y-140170010D01*
X103475952Y-140123684D01*
X103475952Y-139958000D01*
X103436525Y-139759788D01*
X103324247Y-139591753D01*
X103156212Y-139479475D01*
X102958000Y-139440048D01*
X102358000Y-139440048D01*
X102226122Y-139466280D01*
X102202405Y-139442563D01*
X101978939Y-139350000D01*
X101860000Y-139350000D01*
X101708000Y-139502000D01*
X101708000Y-140083000D01*
X101732000Y-140083000D01*
X101732000Y-140231732D01*
X101595500Y-140368232D01*
X101384000Y-140156732D01*
X101384000Y-140083000D01*
X101408000Y-140083000D01*
X101408000Y-139502000D01*
X101256000Y-139350000D01*
X101137061Y-139350000D01*
X100913595Y-139442563D01*
X100810501Y-139545657D01*
X100788293Y-139523410D01*
X100491426Y-139400140D01*
X100169984Y-139399860D01*
X99872903Y-139522611D01*
X99645410Y-139749707D01*
X99522140Y-140046574D01*
X99521870Y-140356999D01*
X97460053Y-140356999D01*
X96211054Y-139108000D01*
X109392000Y-139108000D01*
X109392000Y-140901121D01*
X109392000Y-140901121D01*
G37*
X109392000Y-140901121D02*
X109178249Y-140758297D01*
X108769543Y-140677000D01*
X107830457Y-140677000D01*
X107421751Y-140758297D01*
X107243558Y-140877362D01*
X107228580Y-140802065D01*
X107364590Y-140666293D01*
X107487860Y-140369426D01*
X107488140Y-140047984D01*
X107365389Y-139750903D01*
X107138293Y-139523410D01*
X106841426Y-139400140D01*
X106519984Y-139399860D01*
X106222903Y-139522611D01*
X106175431Y-139570000D01*
X104994010Y-139570000D01*
X104749858Y-139618565D01*
X104542876Y-139756866D01*
X104299815Y-139999927D01*
X104233984Y-139999870D01*
X103936903Y-140122621D01*
X103889431Y-140170010D01*
X103522278Y-140170010D01*
X103475952Y-140123684D01*
X103475952Y-139958000D01*
X103436525Y-139759788D01*
X103324247Y-139591753D01*
X103156212Y-139479475D01*
X102958000Y-139440048D01*
X102358000Y-139440048D01*
X102226122Y-139466280D01*
X102202405Y-139442563D01*
X101978939Y-139350000D01*
X101860000Y-139350000D01*
X101708000Y-139502000D01*
X101708000Y-140083000D01*
X101732000Y-140083000D01*
X101732000Y-140231732D01*
X101595500Y-140368232D01*
X101384000Y-140156732D01*
X101384000Y-140083000D01*
X101408000Y-140083000D01*
X101408000Y-139502000D01*
X101256000Y-139350000D01*
X101137061Y-139350000D01*
X100913595Y-139442563D01*
X100810501Y-139545657D01*
X100788293Y-139523410D01*
X100491426Y-139400140D01*
X100169984Y-139399860D01*
X99872903Y-139522611D01*
X99645410Y-139749707D01*
X99522140Y-140046574D01*
X99521870Y-140356999D01*
X97460053Y-140356999D01*
X96211054Y-139108000D01*
X109392000Y-139108000D01*
X109392000Y-140901121D01*
G36*
X94993748Y-140647675D02*
X94976777Y-140664645D01*
X95029103Y-140716971D01*
X94982677Y-140763396D01*
X94777208Y-140763396D01*
X94643849Y-140789922D01*
X94606253Y-140752326D01*
X94623223Y-140735355D01*
X94570898Y-140683030D01*
X94675940Y-140577987D01*
X94924060Y-140577987D01*
X94993748Y-140647675D01*
X94993748Y-140647675D01*
G37*
X94993748Y-140647675D02*
X94976777Y-140664645D01*
X95029103Y-140716971D01*
X94982677Y-140763396D01*
X94777208Y-140763396D01*
X94643849Y-140789922D01*
X94606253Y-140752326D01*
X94623223Y-140735355D01*
X94570898Y-140683030D01*
X94675940Y-140577987D01*
X94924060Y-140577987D01*
X94993748Y-140647675D01*
M02*
