G04 #@! TF.GenerationSoftware,KiCad,Pcbnew,(2016-12-18 revision 3ffa37c)-master*
G04 #@! TF.CreationDate,2017-04-07T22:16:59-07:00*
G04 #@! TF.ProjectId,Pensel,50656E73656C2E6B696361645F706362,rev?*
G04 #@! TF.FileFunction,Soldermask,Bot*
G04 #@! TF.FilePolarity,Negative*
%FSLAX46Y46*%
G04 Gerber Fmt 4.6, Leading zero omitted, Abs format (unit mm)*
G04 Created by KiCad (PCBNEW (2016-12-18 revision 3ffa37c)-master) date Friday, April 07, 2017 'PMt' 10:16:59 PM*
%MOMM*%
%LPD*%
G01*
G04 APERTURE LIST*
%ADD10C,0.100000*%
%ADD11C,0.350000*%
%ADD12R,4.057600X2.432000*%
%ADD13R,1.416000X2.432000*%
%ADD14C,1.450000*%
%ADD15R,0.900000X1.000000*%
%ADD16O,2.400000X1.520000*%
%ADD17R,2.400000X2.400000*%
%ADD18R,2.400000X2.000000*%
%ADD19R,3.150000X1.400000*%
%ADD20C,2.500000*%
%ADD21C,2.150000*%
%ADD22C,1.300000*%
%ADD23R,1.000000X0.900000*%
%ADD24R,1.750000X1.750000*%
%ADD25C,1.750000*%
%ADD26R,1.000000X0.800000*%
%ADD27C,2.540000*%
G04 APERTURE END LIST*
D10*
D11*
X107775000Y-139250000D03*
X108475000Y-139250000D03*
X109175000Y-139250000D03*
X109175000Y-139825000D03*
X108475000Y-139825000D03*
X107775000Y-140475000D03*
X107775000Y-139825000D03*
X108475000Y-140475000D03*
X109175000Y-140475000D03*
X66425000Y-141275000D03*
X68800000Y-145200000D03*
X68800000Y-145800000D03*
X60000000Y-144700000D03*
D12*
X103250000Y-148552000D03*
D13*
X103250000Y-141948000D03*
X105536000Y-141948000D03*
X100964000Y-141948000D03*
D11*
X83700000Y-140800000D03*
X82700000Y-140800000D03*
X82700000Y-141800000D03*
D14*
X86396051Y-140703949D03*
D10*
G36*
X85370746Y-140703949D02*
X86396051Y-139678644D01*
X87421356Y-140703949D01*
X86396051Y-141729254D01*
X85370746Y-140703949D01*
X85370746Y-140703949D01*
G37*
D14*
X85498025Y-141601975D03*
X84600000Y-142500000D03*
X83701974Y-143398026D03*
X82803949Y-144296051D03*
X86396051Y-142500000D03*
X85498025Y-143398026D03*
X84600000Y-144296051D03*
X83701974Y-145194077D03*
X87294077Y-141601975D03*
D11*
X68900000Y-140600000D03*
X68200000Y-140600000D03*
X67500000Y-140600000D03*
X66800000Y-140600000D03*
X66100000Y-140600000D03*
X66100000Y-140100000D03*
X66800000Y-140100000D03*
X67500000Y-140100000D03*
X68200000Y-140100000D03*
X68900000Y-140100000D03*
X69600000Y-140100000D03*
X70400000Y-140100000D03*
X71200000Y-140100000D03*
X72000000Y-140100000D03*
X70000000Y-143100000D03*
X69300000Y-143100000D03*
X69300000Y-143700000D03*
X70000000Y-143700000D03*
X59000000Y-143600000D03*
X64100000Y-143100000D03*
X64700000Y-143100000D03*
X65300000Y-143100000D03*
X66500000Y-143700000D03*
X65900000Y-143700000D03*
X65300000Y-143700000D03*
X64700000Y-143700000D03*
X64100000Y-143700000D03*
X74600000Y-145900000D03*
X73900000Y-145900000D03*
X73200000Y-145900000D03*
X105100000Y-139300000D03*
X102900000Y-145600000D03*
X102400000Y-145600000D03*
X102400000Y-146100000D03*
X102900000Y-146100000D03*
X103400000Y-146100000D03*
X107200000Y-150500000D03*
X107700000Y-150500000D03*
X108200000Y-150500000D03*
X108700000Y-150500000D03*
X109200000Y-150500000D03*
X109200000Y-150000000D03*
X108700000Y-150000000D03*
X108200000Y-150000000D03*
X107700000Y-150000000D03*
X107200000Y-150000000D03*
X107200000Y-149500000D03*
X107700000Y-149500000D03*
X73900000Y-140100000D03*
X72900000Y-140100000D03*
X73900000Y-140700000D03*
X81700000Y-140800000D03*
X80700000Y-140800000D03*
X81700000Y-141800000D03*
X80700000Y-141800000D03*
X81700000Y-142800000D03*
X80700000Y-142800000D03*
X81700000Y-143800000D03*
X80700000Y-143800000D03*
X72900000Y-143700000D03*
X72900000Y-140700000D03*
X75900000Y-142700000D03*
X74900000Y-142700000D03*
X73900000Y-142700000D03*
X72900000Y-142700000D03*
X76900000Y-143700000D03*
X75900000Y-143700000D03*
X74900000Y-143700000D03*
X73900000Y-143700000D03*
X51900000Y-143300000D03*
X51900000Y-142600000D03*
X51900000Y-142100000D03*
X51400000Y-142100000D03*
X51400000Y-142600000D03*
X51400000Y-143100000D03*
X51400000Y-143600000D03*
X60500000Y-144900000D03*
X97600000Y-139700000D03*
X98100000Y-139700000D03*
X98600000Y-139700000D03*
X99100000Y-139700000D03*
X99100000Y-140200000D03*
X98600000Y-140200000D03*
X98100000Y-140200000D03*
X97600000Y-140200000D03*
X104300000Y-139300000D03*
X103500000Y-139300000D03*
X102700000Y-139300000D03*
X101900000Y-139300000D03*
X94100000Y-143100000D03*
X93700000Y-143100000D03*
X93300000Y-143100000D03*
X92900000Y-143100000D03*
X92100000Y-143500000D03*
X92500000Y-143500000D03*
X92900000Y-143500000D03*
X93300000Y-143500000D03*
X93700000Y-143500000D03*
X94100000Y-143500000D03*
X94500000Y-143500000D03*
X94900000Y-143900000D03*
X94500000Y-143900000D03*
X94100000Y-143900000D03*
X93700000Y-143900000D03*
X93300000Y-143900000D03*
X92900000Y-143900000D03*
X92500000Y-143900000D03*
X92100000Y-143900000D03*
X91700000Y-143900000D03*
X101400000Y-143700000D03*
X101000000Y-143700000D03*
X100600000Y-143700000D03*
X100200000Y-143700000D03*
X99800000Y-143700000D03*
X99400000Y-143700000D03*
X99400000Y-144100000D03*
X99800000Y-144100000D03*
X100200000Y-144100000D03*
X100600000Y-144100000D03*
X101000000Y-144100000D03*
X101400000Y-144100000D03*
X101400000Y-144500000D03*
X101000000Y-144500000D03*
X100600000Y-144500000D03*
X100200000Y-144500000D03*
X99800000Y-144500000D03*
X99400000Y-144500000D03*
X109200000Y-149500000D03*
X108700000Y-149500000D03*
X108200000Y-149500000D03*
D15*
X107525000Y-145450000D03*
X107525000Y-146550000D03*
D16*
X108300000Y-148255000D03*
X108300000Y-141745000D03*
D17*
X87100000Y-146800000D03*
D18*
X93100000Y-145625000D03*
X93100000Y-147975000D03*
D19*
X70825000Y-145500000D03*
X76575000Y-145500000D03*
X76575000Y-141500000D03*
X70825000Y-141500000D03*
D20*
X58940000Y-146960000D03*
D21*
X60200000Y-149450000D03*
X64700000Y-149450000D03*
D20*
X65950000Y-146960000D03*
D22*
X79200000Y-143700000D03*
X71200000Y-143700000D03*
D15*
X92000000Y-142500000D03*
X92000000Y-141400000D03*
X90800000Y-142500000D03*
X90800000Y-141400000D03*
D23*
X106050000Y-150500000D03*
X104950000Y-150500000D03*
D24*
X61000000Y-141400000D03*
D25*
X63000000Y-141400000D03*
X65000000Y-141400000D03*
D26*
X52600000Y-147350000D03*
X52600000Y-146450000D03*
X68100000Y-142500000D03*
X68100000Y-141600000D03*
X56750000Y-149550000D03*
X56750000Y-150450000D03*
D19*
X57900000Y-141000000D03*
X52150000Y-141000000D03*
X52150000Y-145000000D03*
X57900000Y-145000000D03*
D27*
X97200000Y-144200000D03*
X52100000Y-149700000D03*
D24*
X74400000Y-150000000D03*
D25*
X76400000Y-150000000D03*
M02*
