M48
;DRILL file {KiCad (2016-12-18 revision 3ffa37c)-master} date Friday, April 07, 2017 'PMt' 10:17:01 PM
;FORMAT={-:-/ absolute / metric / decimal}
FMAT,2
METRIC,TZ
T1C0.100
T2C0.300
T3C0.450
T4C0.650
T5C0.720
T6C0.800
T7C0.990
T8C1.300
T9C0.900
%
G90
G05
M71
T1
X51.4Y-142.1
X51.4Y-142.6
X51.4Y-143.1
X51.4Y-143.6
X51.9Y-142.1
X51.9Y-142.6
X51.9Y-143.3
X59.Y-143.6
X60.Y-144.7
X60.5Y-144.9
X64.1Y-143.1
X64.1Y-143.7
X64.7Y-143.1
X64.7Y-143.7
X65.3Y-143.1
X65.3Y-143.7
X65.9Y-143.7
X66.1Y-140.1
X66.1Y-140.6
X66.425Y-141.275
X66.5Y-143.7
X66.8Y-140.1
X66.8Y-140.6
X67.5Y-140.1
X67.5Y-140.6
X68.2Y-140.1
X68.2Y-140.6
X68.8Y-145.2
X68.8Y-145.8
X68.9Y-140.1
X68.9Y-140.6
X69.3Y-143.1
X69.3Y-143.7
X69.6Y-140.1
X70.Y-143.1
X70.Y-143.7
X70.4Y-140.1
X71.2Y-140.1
X72.Y-140.1
X72.9Y-140.1
X72.9Y-140.7
X72.9Y-142.7
X72.9Y-143.7
X73.2Y-145.9
X73.9Y-140.1
X73.9Y-140.7
X73.9Y-142.7
X73.9Y-143.7
X73.9Y-145.9
X74.6Y-145.9
X74.9Y-142.7
X74.9Y-143.7
X75.9Y-142.7
X75.9Y-143.7
X76.9Y-143.7
X80.7Y-140.8
X80.7Y-141.8
X80.7Y-142.8
X80.7Y-143.8
X81.7Y-140.8
X81.7Y-141.8
X81.7Y-142.8
X81.7Y-143.8
X82.7Y-140.8
X82.7Y-141.8
X83.7Y-140.8
X91.7Y-143.9
X92.1Y-143.5
X92.1Y-143.9
X92.5Y-143.5
X92.5Y-143.9
X92.9Y-143.1
X92.9Y-143.5
X92.9Y-143.9
X93.3Y-143.1
X93.3Y-143.5
X93.3Y-143.9
X93.7Y-143.1
X93.7Y-143.5
X93.7Y-143.9
X94.1Y-143.1
X94.1Y-143.5
X94.1Y-143.9
X94.5Y-143.5
X94.5Y-143.9
X94.9Y-143.9
X97.6Y-139.7
X97.6Y-140.2
X98.1Y-139.7
X98.1Y-140.2
X98.6Y-139.7
X98.6Y-140.2
X99.1Y-139.7
X99.1Y-140.2
X99.4Y-143.7
X99.4Y-144.1
X99.4Y-144.5
X99.8Y-143.7
X99.8Y-144.1
X99.8Y-144.5
X100.2Y-143.7
X100.2Y-144.1
X100.2Y-144.5
X100.6Y-143.7
X100.6Y-144.1
X100.6Y-144.5
X101.Y-143.7
X101.Y-144.1
X101.Y-144.5
X101.4Y-143.7
X101.4Y-144.1
X101.4Y-144.5
X101.9Y-139.3
X102.4Y-145.6
X102.4Y-146.1
X102.7Y-139.3
X102.9Y-145.6
X102.9Y-146.1
X103.4Y-146.1
X103.5Y-139.3
X104.3Y-139.3
X105.1Y-139.3
X107.2Y-149.5
X107.2Y-150.
X107.2Y-150.5
X107.7Y-149.5
X107.7Y-150.
X107.7Y-150.5
X107.775Y-139.25
X107.775Y-139.825
X107.775Y-140.475
X108.2Y-149.5
X108.2Y-150.
X108.2Y-150.5
X108.475Y-139.25
X108.475Y-139.825
X108.475Y-140.475
X108.7Y-149.5
X108.7Y-150.
X108.7Y-150.5
X109.175Y-139.25
X109.175Y-139.825
X109.175Y-140.475
X109.2Y-149.5
X109.2Y-150.
X109.2Y-150.5
T2
X63.7Y-147.005
X64.2Y-146.5
X72.1Y-144.5
X78.5Y-146.185
X79.2Y-141.8
X79.2Y-147.2
X80.Y-146.2
X88.2Y-145.7
X89.154Y-142.748
X89.5Y-140.7
X89.674Y-141.229
X90.Y-140.3
X91.6Y-140.5
X93.4Y-140.8
X96.5Y-150.945
X97.028Y-145.796
X97.536Y-146.05
X99.083Y-149.503
X99.1Y-146.4
X99.45Y-149.05
X100.2Y-146.6
X103.6Y-145.
X104.6Y-145.
T3
X54.65Y-145.275
X58.3Y-149.25
X59.3Y-140.8
X62.2Y-145.2
X66.4Y-142.5
X66.8Y-149.
X81.1Y-145.9
X86.5Y-148.6
X88.57Y-140.835
X88.823Y-145.281
X89.838Y-142.939
X91.3Y-147.6
X92.518Y-140.804
X94.6Y-148.
X100.33Y-140.208
X104.394Y-140.808
X104.394Y-143.764
X104.6Y-146.4
X106.68Y-140.208
T4
X82.804Y-144.296
X83.702Y-143.398
X83.702Y-145.194
X84.6Y-142.5
X84.6Y-144.296
X85.498Y-141.602
X85.498Y-143.398
X86.396Y-140.704
X86.396Y-142.5
X87.294Y-141.602
T6
X61.Y-141.4
X63.Y-141.4
X65.Y-141.4
X74.4Y-150.
X76.4Y-150.
T7
X60.2Y-149.45
X64.7Y-149.45
T8
X58.94Y-146.96
X65.95Y-146.96
T9
X71.2Y-143.7
X79.2Y-143.7
T5
X107.91Y-141.745G85X108.69Y-141.745
G05
X107.91Y-148.255G85X108.69Y-148.255
G05
T0
M30
