G04 #@! TF.GenerationSoftware,KiCad,Pcbnew,(2016-12-18 revision 3ffa37c)-master*
G04 #@! TF.CreationDate,2017-04-07T22:16:59-07:00*
G04 #@! TF.ProjectId,Pensel,50656E73656C2E6B696361645F706362,rev?*
G04 #@! TF.FileFunction,Copper,L2,Bot,Signal*
G04 #@! TF.FilePolarity,Positive*
%FSLAX46Y46*%
G04 Gerber Fmt 4.6, Leading zero omitted, Abs format (unit mm)*
G04 Created by KiCad (PCBNEW (2016-12-18 revision 3ffa37c)-master) date Friday, April 07, 2017 'PMt' 10:16:59 PM*
%MOMM*%
%LPD*%
G01*
G04 APERTURE LIST*
%ADD10C,0.100000*%
%ADD11C,0.150000*%
%ADD12R,3.657600X2.032000*%
%ADD13R,1.016000X2.032000*%
%ADD14C,1.050000*%
%ADD15R,0.500000X0.600000*%
%ADD16O,2.000000X1.120000*%
%ADD17R,2.000000X2.000000*%
%ADD18R,2.000000X1.600000*%
%ADD19R,2.750000X1.000000*%
%ADD20C,2.100000*%
%ADD21C,1.750000*%
%ADD22R,0.600000X0.500000*%
%ADD23R,1.350000X1.350000*%
%ADD24C,1.350000*%
%ADD25R,0.600000X0.400000*%
%ADD26C,1.000000*%
%ADD27C,0.400000*%
%ADD28C,0.600000*%
%ADD29C,0.130000*%
%ADD30C,0.260000*%
%ADD31C,0.200000*%
%ADD32C,0.254000*%
G04 APERTURE END LIST*
D10*
D11*
X107775000Y-139250000D03*
X108475000Y-139250000D03*
X109175000Y-139250000D03*
X109175000Y-139825000D03*
X108475000Y-139825000D03*
X107775000Y-140475000D03*
X107775000Y-139825000D03*
X108475000Y-140475000D03*
X109175000Y-140475000D03*
X66425000Y-141275000D03*
X68800000Y-145200000D03*
X68800000Y-145800000D03*
X60000000Y-144700000D03*
D12*
X103250000Y-148552000D03*
D13*
X103250000Y-141948000D03*
X105536000Y-141948000D03*
X100964000Y-141948000D03*
D11*
X83700000Y-140800000D03*
X82700000Y-140800000D03*
X82700000Y-141800000D03*
D14*
X86396051Y-140703949D03*
D10*
G36*
X85653589Y-140703949D02*
X86396051Y-139961487D01*
X87138513Y-140703949D01*
X86396051Y-141446411D01*
X85653589Y-140703949D01*
X85653589Y-140703949D01*
G37*
D14*
X85498025Y-141601975D03*
X84600000Y-142500000D03*
X83701974Y-143398026D03*
X82803949Y-144296051D03*
X86396051Y-142500000D03*
X85498025Y-143398026D03*
X84600000Y-144296051D03*
X83701974Y-145194077D03*
X87294077Y-141601975D03*
D11*
X68900000Y-140600000D03*
X68200000Y-140600000D03*
X67500000Y-140600000D03*
X66800000Y-140600000D03*
X66100000Y-140600000D03*
X66100000Y-140100000D03*
X66800000Y-140100000D03*
X67500000Y-140100000D03*
X68200000Y-140100000D03*
X68900000Y-140100000D03*
X69600000Y-140100000D03*
X70400000Y-140100000D03*
X71200000Y-140100000D03*
X72000000Y-140100000D03*
X70000000Y-143100000D03*
X69300000Y-143100000D03*
X69300000Y-143700000D03*
X70000000Y-143700000D03*
X59000000Y-143600000D03*
X64100000Y-143100000D03*
X64700000Y-143100000D03*
X65300000Y-143100000D03*
X66500000Y-143700000D03*
X65900000Y-143700000D03*
X65300000Y-143700000D03*
X64700000Y-143700000D03*
X64100000Y-143700000D03*
X74600000Y-145900000D03*
X73900000Y-145900000D03*
X73200000Y-145900000D03*
X105100000Y-139300000D03*
X102900000Y-145600000D03*
X102400000Y-145600000D03*
X102400000Y-146100000D03*
X102900000Y-146100000D03*
X103400000Y-146100000D03*
X107200000Y-150500000D03*
X107700000Y-150500000D03*
X108200000Y-150500000D03*
X108700000Y-150500000D03*
X109200000Y-150500000D03*
X109200000Y-150000000D03*
X108700000Y-150000000D03*
X108200000Y-150000000D03*
X107700000Y-150000000D03*
X107200000Y-150000000D03*
X107200000Y-149500000D03*
X107700000Y-149500000D03*
X73900000Y-140100000D03*
X72900000Y-140100000D03*
X73900000Y-140700000D03*
X81700000Y-140800000D03*
X80700000Y-140800000D03*
X81700000Y-141800000D03*
X80700000Y-141800000D03*
X81700000Y-142800000D03*
X80700000Y-142800000D03*
X81700000Y-143800000D03*
X80700000Y-143800000D03*
X72900000Y-143700000D03*
X72900000Y-140700000D03*
X75900000Y-142700000D03*
X74900000Y-142700000D03*
X73900000Y-142700000D03*
X72900000Y-142700000D03*
X76900000Y-143700000D03*
X75900000Y-143700000D03*
X74900000Y-143700000D03*
X73900000Y-143700000D03*
X51900000Y-143300000D03*
X51900000Y-142600000D03*
X51900000Y-142100000D03*
X51400000Y-142100000D03*
X51400000Y-142600000D03*
X51400000Y-143100000D03*
X51400000Y-143600000D03*
X60500000Y-144900000D03*
X97600000Y-139700000D03*
X98100000Y-139700000D03*
X98600000Y-139700000D03*
X99100000Y-139700000D03*
X99100000Y-140200000D03*
X98600000Y-140200000D03*
X98100000Y-140200000D03*
X97600000Y-140200000D03*
X104300000Y-139300000D03*
X103500000Y-139300000D03*
X102700000Y-139300000D03*
X101900000Y-139300000D03*
X94100000Y-143100000D03*
X93700000Y-143100000D03*
X93300000Y-143100000D03*
X92900000Y-143100000D03*
X92100000Y-143500000D03*
X92500000Y-143500000D03*
X92900000Y-143500000D03*
X93300000Y-143500000D03*
X93700000Y-143500000D03*
X94100000Y-143500000D03*
X94500000Y-143500000D03*
X94900000Y-143900000D03*
X94500000Y-143900000D03*
X94100000Y-143900000D03*
X93700000Y-143900000D03*
X93300000Y-143900000D03*
X92900000Y-143900000D03*
X92500000Y-143900000D03*
X92100000Y-143900000D03*
X91700000Y-143900000D03*
X101400000Y-143700000D03*
X101000000Y-143700000D03*
X100600000Y-143700000D03*
X100200000Y-143700000D03*
X99800000Y-143700000D03*
X99400000Y-143700000D03*
X99400000Y-144100000D03*
X99800000Y-144100000D03*
X100200000Y-144100000D03*
X100600000Y-144100000D03*
X101000000Y-144100000D03*
X101400000Y-144100000D03*
X101400000Y-144500000D03*
X101000000Y-144500000D03*
X100600000Y-144500000D03*
X100200000Y-144500000D03*
X99800000Y-144500000D03*
X99400000Y-144500000D03*
X109200000Y-149500000D03*
X108700000Y-149500000D03*
X108200000Y-149500000D03*
D15*
X107525000Y-145450000D03*
X107525000Y-146550000D03*
D16*
X108300000Y-148255000D03*
X108300000Y-141745000D03*
D17*
X87100000Y-146800000D03*
D18*
X93100000Y-145625000D03*
X93100000Y-147975000D03*
D19*
X70825000Y-145500000D03*
X76575000Y-145500000D03*
X76575000Y-141500000D03*
X70825000Y-141500000D03*
D20*
X58940000Y-146960000D03*
D21*
X60200000Y-149450000D03*
X64700000Y-149450000D03*
D20*
X65950000Y-146960000D03*
D15*
X92000000Y-142500000D03*
X92000000Y-141400000D03*
X90800000Y-142500000D03*
X90800000Y-141400000D03*
D22*
X106050000Y-150500000D03*
X104950000Y-150500000D03*
D23*
X61000000Y-141400000D03*
D24*
X63000000Y-141400000D03*
X65000000Y-141400000D03*
D25*
X52600000Y-147350000D03*
X52600000Y-146450000D03*
X68100000Y-142500000D03*
X68100000Y-141600000D03*
X56750000Y-149550000D03*
X56750000Y-150450000D03*
D19*
X57900000Y-141000000D03*
X52150000Y-141000000D03*
X52150000Y-145000000D03*
X57900000Y-145000000D03*
D26*
X97200000Y-144200000D03*
X52100000Y-149700000D03*
D23*
X74400000Y-150000000D03*
D24*
X76400000Y-150000000D03*
D27*
X90000000Y-140300000D03*
X72100000Y-144500000D03*
X89154000Y-142748000D03*
D28*
X81100000Y-145900000D03*
X59300000Y-140800000D03*
X104394000Y-143764000D03*
X54650000Y-145275000D03*
X66399998Y-142500000D03*
X91300000Y-147600000D03*
X86500000Y-148600000D03*
X88569998Y-140835010D03*
X89838164Y-142939420D03*
X92517669Y-140803861D03*
X94600000Y-148000000D03*
X106680000Y-140208000D03*
X104394000Y-140808010D03*
X88823191Y-145281447D03*
X58300000Y-149250000D03*
X66800000Y-149000000D03*
X62200000Y-145200000D03*
D27*
X78500000Y-146184968D03*
X79200000Y-147200000D03*
D28*
X104600000Y-146400000D03*
X100330000Y-140208000D03*
D27*
X80000000Y-146200012D03*
X79200000Y-141800000D03*
X89500000Y-140700000D03*
X93400000Y-140800000D03*
X89674025Y-141229375D03*
X91600000Y-140500000D03*
X88200000Y-145700000D03*
X96500000Y-150945010D03*
X99450000Y-149050000D03*
X99082649Y-149502897D03*
X99100000Y-146400000D03*
X100200000Y-146600000D03*
X103600000Y-145000000D03*
X104600000Y-145000000D03*
X64200000Y-146500000D03*
X97536000Y-146050000D03*
X63700000Y-147004990D03*
X97028000Y-145796000D03*
D29*
X89154000Y-142748000D02*
X89154000Y-142179000D01*
X89154000Y-142179000D02*
X88034988Y-141059988D01*
X88034988Y-141059988D02*
X88034988Y-140550081D01*
X88034988Y-140550081D02*
X88285069Y-140300000D01*
X88285069Y-140300000D02*
X90000000Y-140300000D01*
X58457398Y-145600000D02*
X58342399Y-145714999D01*
X61000000Y-145600000D02*
X58457398Y-145600000D01*
X62100000Y-144500000D02*
X61000000Y-145600000D01*
X72100000Y-144500000D02*
X62100000Y-144500000D01*
X58342399Y-145714999D02*
X58285001Y-145714999D01*
X58285001Y-145714999D02*
X57500000Y-146500000D01*
X57500000Y-146500000D02*
X54200000Y-146500000D01*
X54200000Y-146500000D02*
X54150000Y-146450000D01*
X54150000Y-146450000D02*
X52600000Y-146450000D01*
X51400000Y-146100000D02*
X51750000Y-146450000D01*
X51750000Y-146450000D02*
X52600000Y-146450000D01*
X58342399Y-145714999D02*
X57984999Y-145714999D01*
X57984999Y-145714999D02*
X57900000Y-145630000D01*
X57900000Y-145630000D02*
X57900000Y-145000000D01*
X51400000Y-146100000D02*
X51400000Y-145750000D01*
X51400000Y-145750000D02*
X52150000Y-145000000D01*
D30*
X76575000Y-145769968D02*
X76499999Y-145844969D01*
X76575000Y-145500000D02*
X76575000Y-145769968D01*
X107525000Y-146600000D02*
X107015000Y-147110000D01*
X104421998Y-147110000D02*
X103800000Y-146488002D01*
X107525000Y-146550000D02*
X107525000Y-146600000D01*
X107015000Y-147110000D02*
X104421998Y-147110000D01*
X103800000Y-146488002D02*
X103800000Y-146100000D01*
X59300000Y-140800000D02*
X58100000Y-140800000D01*
X58100000Y-140800000D02*
X57900000Y-141000000D01*
X73000000Y-145500000D02*
X70825000Y-145500000D01*
X68100000Y-142500000D02*
X66399998Y-142500000D01*
X108075001Y-143176238D02*
X106999990Y-142101227D01*
X108075001Y-147090001D02*
X108075001Y-143176238D01*
X107770012Y-147394990D02*
X108075001Y-147090001D01*
X106999990Y-142101227D02*
X106999990Y-140527990D01*
X106346763Y-148552000D02*
X107503773Y-147394990D01*
X103250000Y-148552000D02*
X106346763Y-148552000D01*
X106999990Y-140527990D02*
X106979999Y-140507999D01*
X107503773Y-147394990D02*
X107770012Y-147394990D01*
X106979999Y-140507999D02*
X106680000Y-140208000D01*
X88869997Y-141135009D02*
X88569998Y-140835010D01*
X89574986Y-141839998D02*
X88869997Y-141135009D01*
X89850002Y-141839998D02*
X89574986Y-141839998D01*
X89838164Y-142515156D02*
X89838164Y-142939420D01*
X89850002Y-141839998D02*
X89838164Y-141851836D01*
X89838164Y-141851836D02*
X89838164Y-142515156D01*
X92000000Y-141350000D02*
X92517669Y-140832331D01*
X92000000Y-141400000D02*
X92000000Y-141350000D01*
X92517669Y-140832331D02*
X92517669Y-140803861D01*
X62200000Y-145200000D02*
X62200000Y-145624264D01*
X62200000Y-145624264D02*
X58574264Y-149250000D01*
X58574264Y-149250000D02*
X58300000Y-149250000D01*
X104394000Y-141572000D02*
X104394000Y-141232274D01*
X104018000Y-141948000D02*
X104394000Y-141572000D01*
X103250000Y-141948000D02*
X104018000Y-141948000D01*
X104094001Y-141108009D02*
X104394000Y-140808010D01*
X103890010Y-141312000D02*
X104094001Y-141108009D01*
X103886000Y-141312000D02*
X103890010Y-141312000D01*
X104394000Y-141232274D02*
X104394000Y-140808010D01*
X103310000Y-141440000D02*
X103550000Y-141200000D01*
X90800000Y-141400000D02*
X90290000Y-141400000D01*
X90290000Y-141400000D02*
X89850002Y-141839998D01*
X92000000Y-141400000D02*
X90800000Y-141400000D01*
X102700002Y-147050000D02*
X102049999Y-147700003D01*
X102049999Y-147700003D02*
X101750000Y-148000002D01*
X89000000Y-147000000D02*
X89100000Y-147100000D01*
X89000000Y-146900000D02*
X89000000Y-147000000D01*
X88823191Y-146723191D02*
X88823191Y-145281447D01*
X89000000Y-146900000D02*
X88823191Y-146723191D01*
X104498000Y-149800000D02*
X103250000Y-148552000D01*
D29*
X78500000Y-145902126D02*
X78500000Y-146184968D01*
X76575000Y-141500000D02*
X76575000Y-142130000D01*
X78500000Y-144055000D02*
X78500000Y-145902126D01*
X76575000Y-142130000D02*
X78500000Y-144055000D01*
X76575000Y-141500000D02*
X75200000Y-141500000D01*
X75200000Y-141500000D02*
X75100000Y-141400000D01*
X75100000Y-141400000D02*
X72430000Y-141400000D01*
X72430000Y-141400000D02*
X72330000Y-141500000D01*
X72330000Y-141500000D02*
X70825000Y-141500000D01*
X68100000Y-141600000D02*
X70725000Y-141600000D01*
X70725000Y-141600000D02*
X70825000Y-141500000D01*
X60200000Y-149450000D02*
X62250000Y-147400000D01*
X65400000Y-148350000D02*
X66550000Y-148350000D01*
X62250000Y-147400000D02*
X64450000Y-147400000D01*
X66550000Y-148350000D02*
X67800000Y-147100000D01*
X67800000Y-147100000D02*
X79100000Y-147100000D01*
X64450000Y-147400000D02*
X65400000Y-148350000D01*
X79100000Y-147100000D02*
X79200000Y-147200000D01*
X56750000Y-149550000D02*
X57180000Y-149550000D01*
X57180000Y-149550000D02*
X57415001Y-149785001D01*
X57415001Y-149785001D02*
X58627563Y-149785001D01*
X58627563Y-149785001D02*
X58962564Y-149450000D01*
X58962564Y-149450000D02*
X60200000Y-149450000D01*
D30*
X107000000Y-145400000D02*
X107000000Y-142709363D01*
X107000000Y-142709363D02*
X106238637Y-141948000D01*
X106238637Y-141948000D02*
X105536000Y-141948000D01*
X107000000Y-145400000D02*
X107000000Y-145800000D01*
X106400000Y-146400000D02*
X104600000Y-146400000D01*
X107000000Y-145800000D02*
X106400000Y-146400000D01*
X107000000Y-145435000D02*
X107000000Y-145400000D01*
X107525000Y-145450000D02*
X107015000Y-145450000D01*
X107015000Y-145450000D02*
X107000000Y-145435000D01*
X105536000Y-141948000D02*
X105536000Y-140672000D01*
X105536000Y-140672000D02*
X105072000Y-140208000D01*
X105072000Y-140208000D02*
X100330000Y-140208000D01*
D29*
X80000000Y-145917170D02*
X80000000Y-146200012D01*
X80000000Y-142600000D02*
X80000000Y-145917170D01*
X79200000Y-141800000D02*
X80000000Y-142600000D01*
X90784604Y-140100000D02*
X90184604Y-140700000D01*
X90184604Y-140700000D02*
X89782842Y-140700000D01*
X89782842Y-140700000D02*
X89500000Y-140700000D01*
X93400000Y-140800000D02*
X92700000Y-140100000D01*
X92700000Y-140100000D02*
X90784604Y-140100000D01*
X90222939Y-141029376D02*
X89874024Y-141029376D01*
X89874024Y-141029376D02*
X89674025Y-141229375D01*
X90752315Y-140500000D02*
X90222939Y-141029376D01*
X91600000Y-140500000D02*
X90752315Y-140500000D01*
X88200000Y-146130000D02*
X87770000Y-146130000D01*
X87770000Y-146130000D02*
X87100000Y-146800000D01*
X88200000Y-146130000D02*
X88200000Y-145700000D01*
X96782842Y-150945010D02*
X96500000Y-150945010D01*
X99649999Y-149520149D02*
X98225138Y-150945010D01*
X99649999Y-149249999D02*
X99649999Y-149520149D01*
X99450000Y-149050000D02*
X99649999Y-149249999D01*
X98225138Y-150945010D02*
X96782842Y-150945010D01*
X99082649Y-149502897D02*
X98035546Y-150550000D01*
X98035546Y-150550000D02*
X96310408Y-150550000D01*
X96310408Y-150550000D02*
X95860408Y-151000000D01*
X95860408Y-151000000D02*
X77400000Y-151000000D01*
X77400000Y-151000000D02*
X76400000Y-150000000D01*
X76900000Y-150550000D02*
X76400000Y-150050000D01*
X76400000Y-150050000D02*
X76400000Y-150000000D01*
X99382842Y-146400000D02*
X99100000Y-146400000D01*
X100000000Y-146400000D02*
X99382842Y-146400000D01*
X100200000Y-146600000D02*
X100000000Y-146400000D01*
X104600000Y-145000000D02*
X103600000Y-145000000D01*
X66547601Y-145714999D02*
X64985001Y-145714999D01*
X91273545Y-146939999D02*
X89079992Y-144746446D01*
X79110400Y-146705000D02*
X78975409Y-146839989D01*
X79489602Y-146705000D02*
X79110400Y-146705000D01*
X84232700Y-146960011D02*
X79744612Y-146960011D01*
X86446264Y-144746446D02*
X84232700Y-146960011D01*
X89079992Y-144746446D02*
X86446264Y-144746446D01*
X64399999Y-146300001D02*
X64200000Y-146500000D01*
X79744612Y-146960011D02*
X79489602Y-146705000D01*
X64985001Y-145714999D02*
X64399999Y-146300001D01*
X96600000Y-146310010D02*
X95970011Y-146939999D01*
X78975409Y-146839989D02*
X67672591Y-146839989D01*
X67672591Y-146839989D02*
X66547601Y-145714999D01*
X95970011Y-146939999D02*
X91273545Y-146939999D01*
X96600000Y-146310010D02*
X96520000Y-146310010D01*
X96881699Y-146310010D02*
X96600000Y-146310010D01*
X97275990Y-146310010D02*
X96881699Y-146310010D01*
X97536000Y-146050000D02*
X97275990Y-146310010D01*
X91879988Y-146679988D02*
X89686435Y-144486435D01*
X86338565Y-144486435D02*
X84125000Y-146700000D01*
X97028000Y-145796000D02*
X96504000Y-145796000D01*
X79852312Y-146700000D02*
X79597301Y-146444989D01*
X79002699Y-146444991D02*
X78895001Y-146552689D01*
X79597301Y-146444989D02*
X79002701Y-146444989D01*
X96504000Y-145796000D02*
X95620012Y-146679988D01*
X95620012Y-146679988D02*
X91879988Y-146679988D01*
X89686435Y-144486435D02*
X86338565Y-144486435D01*
X84125000Y-146700000D02*
X79852312Y-146700000D01*
X79002701Y-146444989D02*
X79002699Y-146444991D01*
X63700000Y-146722148D02*
X63700000Y-147004990D01*
X66655301Y-145454988D02*
X64662169Y-145454989D01*
X78895001Y-146552689D02*
X78867712Y-146579978D01*
X67780290Y-146579978D02*
X66655301Y-145454988D01*
X64662169Y-145454989D02*
X63700000Y-146417158D01*
X78867712Y-146579978D02*
X67780290Y-146579978D01*
X63700000Y-146417158D02*
X63700000Y-146722148D01*
X78895001Y-146552689D02*
X78873845Y-146573845D01*
D31*
G36*
X107075267Y-149010190D02*
X107421751Y-149241703D01*
X107830457Y-149323000D01*
X108769543Y-149323000D01*
X109178249Y-149241703D01*
X109392000Y-149098879D01*
X109392000Y-150892000D01*
X106732798Y-150892000D01*
X106758000Y-150831156D01*
X106758000Y-150656000D01*
X106656000Y-150554000D01*
X106104000Y-150554000D01*
X106104000Y-150574000D01*
X105996000Y-150574000D01*
X105996000Y-150554000D01*
X105976000Y-150554000D01*
X105976000Y-150446000D01*
X105996000Y-150446000D01*
X105996000Y-149944000D01*
X106104000Y-149944000D01*
X106104000Y-150446000D01*
X106656000Y-150446000D01*
X106758000Y-150344000D01*
X106758000Y-150168844D01*
X106695886Y-150018886D01*
X106581113Y-149904114D01*
X106431156Y-149842000D01*
X106206000Y-149842000D01*
X106104000Y-149944000D01*
X105996000Y-149944000D01*
X105926386Y-149874386D01*
X105933667Y-149190000D01*
X106346763Y-149190000D01*
X106590915Y-149141435D01*
X106797897Y-149003134D01*
X106961342Y-148839689D01*
X107075267Y-149010190D01*
X107075267Y-149010190D01*
G37*
X107075267Y-149010190D02*
X107421751Y-149241703D01*
X107830457Y-149323000D01*
X108769543Y-149323000D01*
X109178249Y-149241703D01*
X109392000Y-149098879D01*
X109392000Y-150892000D01*
X106732798Y-150892000D01*
X106758000Y-150831156D01*
X106758000Y-150656000D01*
X106656000Y-150554000D01*
X106104000Y-150554000D01*
X106104000Y-150574000D01*
X105996000Y-150574000D01*
X105996000Y-150554000D01*
X105976000Y-150554000D01*
X105976000Y-150446000D01*
X105996000Y-150446000D01*
X105996000Y-149944000D01*
X106104000Y-149944000D01*
X106104000Y-150446000D01*
X106656000Y-150446000D01*
X106758000Y-150344000D01*
X106758000Y-150168844D01*
X106695886Y-150018886D01*
X106581113Y-149904114D01*
X106431156Y-149842000D01*
X106206000Y-149842000D01*
X106104000Y-149944000D01*
X105996000Y-149944000D01*
X105926386Y-149874386D01*
X105933667Y-149190000D01*
X106346763Y-149190000D01*
X106590915Y-149141435D01*
X106797897Y-149003134D01*
X106961342Y-148839689D01*
X107075267Y-149010190D01*
G36*
X109392000Y-140901121D02*
X109178249Y-140758297D01*
X108769543Y-140677000D01*
X107830457Y-140677000D01*
X107637990Y-140715284D01*
X107637990Y-140527990D01*
X107589425Y-140283838D01*
X107488067Y-140132145D01*
X107488140Y-140047984D01*
X107365389Y-139750903D01*
X107138293Y-139523410D01*
X106841426Y-139400140D01*
X106519984Y-139399860D01*
X106222903Y-139522611D01*
X105995410Y-139749707D01*
X105872140Y-140046574D01*
X105872088Y-140105820D01*
X105523134Y-139756866D01*
X105316152Y-139618565D01*
X105072000Y-139570000D01*
X100834802Y-139570000D01*
X100788293Y-139523410D01*
X100491426Y-139400140D01*
X100169984Y-139399860D01*
X99872903Y-139522611D01*
X99645410Y-139749707D01*
X99522140Y-140046574D01*
X99521860Y-140368016D01*
X99644611Y-140665097D01*
X99871707Y-140892590D01*
X100048000Y-140965793D01*
X100048000Y-141792000D01*
X100150000Y-141894000D01*
X100910000Y-141894000D01*
X100910000Y-141874000D01*
X101018000Y-141874000D01*
X101018000Y-141894000D01*
X101778000Y-141894000D01*
X101880000Y-141792000D01*
X101880000Y-140850844D01*
X101877994Y-140846000D01*
X102241155Y-140846000D01*
X102224048Y-140932000D01*
X102224048Y-142964000D01*
X102263475Y-143162212D01*
X102375753Y-143330247D01*
X102543788Y-143442525D01*
X102742000Y-143481952D01*
X103758000Y-143481952D01*
X103956212Y-143442525D01*
X104124247Y-143330247D01*
X104236525Y-143162212D01*
X104275952Y-142964000D01*
X104275952Y-142528214D01*
X104469134Y-142399134D01*
X104510048Y-142358220D01*
X104510048Y-142964000D01*
X104549475Y-143162212D01*
X104661753Y-143330247D01*
X104829788Y-143442525D01*
X105028000Y-143481952D01*
X106044000Y-143481952D01*
X106242212Y-143442525D01*
X106362000Y-143362485D01*
X106362000Y-145535732D01*
X106135732Y-145762000D01*
X105104802Y-145762000D01*
X105058293Y-145715410D01*
X104890849Y-145645881D01*
X105000526Y-145600564D01*
X105199864Y-145401574D01*
X105307877Y-145141448D01*
X105308123Y-144859788D01*
X105200564Y-144599474D01*
X105001574Y-144400136D01*
X104741448Y-144292123D01*
X104459788Y-144291877D01*
X104199474Y-144399436D01*
X104171862Y-144427000D01*
X104028391Y-144427000D01*
X104001574Y-144400136D01*
X103741448Y-144292123D01*
X103459788Y-144291877D01*
X103199474Y-144399436D01*
X103000136Y-144598426D01*
X102892123Y-144858552D01*
X102891877Y-145140212D01*
X102999436Y-145400526D01*
X103198426Y-145599864D01*
X103458552Y-145707877D01*
X103740212Y-145708123D01*
X104000526Y-145600564D01*
X104028138Y-145573000D01*
X104171609Y-145573000D01*
X104198426Y-145599864D01*
X104309245Y-145645880D01*
X104142903Y-145714611D01*
X103915410Y-145941707D01*
X103792140Y-146238574D01*
X103792006Y-146392000D01*
X100880114Y-146392000D01*
X100800564Y-146199474D01*
X100601574Y-146000136D01*
X100341448Y-145892123D01*
X100251346Y-145892044D01*
X100219278Y-145870617D01*
X100000000Y-145827000D01*
X99528391Y-145827000D01*
X99501574Y-145800136D01*
X99241448Y-145692123D01*
X98959788Y-145691877D01*
X98699474Y-145799436D01*
X98500136Y-145998426D01*
X98392123Y-146258552D01*
X98392006Y-146392000D01*
X98160601Y-146392000D01*
X98243877Y-146191448D01*
X98244123Y-145909788D01*
X98136564Y-145649474D01*
X97937574Y-145450136D01*
X97849994Y-145413770D01*
X97975029Y-145362107D01*
X98360752Y-144977056D01*
X98569762Y-144473705D01*
X98570237Y-143928686D01*
X98362107Y-143424971D01*
X97977056Y-143039248D01*
X97473705Y-142830238D01*
X96928686Y-142829763D01*
X96424971Y-143037893D01*
X96039248Y-143422944D01*
X95830238Y-143926295D01*
X95829763Y-144471314D01*
X96037893Y-144975029D01*
X96321642Y-145259273D01*
X96284722Y-145266617D01*
X96144941Y-145360016D01*
X96098828Y-145390828D01*
X95382668Y-146106988D01*
X94508000Y-146106988D01*
X94508000Y-145781000D01*
X94406000Y-145679000D01*
X93154000Y-145679000D01*
X93154000Y-145699000D01*
X93046000Y-145699000D01*
X93046000Y-145679000D01*
X91794000Y-145679000D01*
X91741672Y-145731328D01*
X90754188Y-144743844D01*
X91692000Y-144743844D01*
X91692000Y-145469000D01*
X91794000Y-145571000D01*
X93046000Y-145571000D01*
X93046000Y-144519000D01*
X93154000Y-144519000D01*
X93154000Y-145571000D01*
X94406000Y-145571000D01*
X94508000Y-145469000D01*
X94508000Y-144743844D01*
X94445886Y-144593887D01*
X94331114Y-144479114D01*
X94181156Y-144417000D01*
X93256000Y-144417000D01*
X93154000Y-144519000D01*
X93046000Y-144519000D01*
X92944000Y-144417000D01*
X92018844Y-144417000D01*
X91868886Y-144479114D01*
X91754114Y-144593887D01*
X91692000Y-144743844D01*
X90754188Y-144743844D01*
X90091607Y-144081263D01*
X90002128Y-144021475D01*
X89905713Y-143957052D01*
X89686435Y-143913435D01*
X86402525Y-143913435D01*
X86530846Y-143604404D01*
X86530908Y-143533118D01*
X86600626Y-143533179D01*
X86980434Y-143376246D01*
X87271275Y-143085912D01*
X87428872Y-142706378D01*
X87428934Y-142635093D01*
X87498652Y-142635154D01*
X87878460Y-142478221D01*
X88169301Y-142187887D01*
X88223065Y-142058409D01*
X88541504Y-142376848D01*
X88446123Y-142606552D01*
X88445877Y-142888212D01*
X88553436Y-143148526D01*
X88752426Y-143347864D01*
X89012552Y-143455877D01*
X89212205Y-143456051D01*
X89379871Y-143624010D01*
X89676738Y-143747280D01*
X89998180Y-143747560D01*
X90295261Y-143624809D01*
X90522754Y-143397713D01*
X90601530Y-143208000D01*
X90644000Y-143208000D01*
X90746000Y-143106000D01*
X90746000Y-142554000D01*
X90854000Y-142554000D01*
X90854000Y-143106000D01*
X90956000Y-143208000D01*
X91131156Y-143208000D01*
X91281114Y-143145886D01*
X91395886Y-143031113D01*
X91400000Y-143021181D01*
X91404114Y-143031113D01*
X91518886Y-143145886D01*
X91668844Y-143208000D01*
X91844000Y-143208000D01*
X91946000Y-143106000D01*
X91946000Y-142554000D01*
X92054000Y-142554000D01*
X92054000Y-143106000D01*
X92156000Y-143208000D01*
X92331156Y-143208000D01*
X92481114Y-143145886D01*
X92595886Y-143031113D01*
X92658000Y-142881156D01*
X92658000Y-142656000D01*
X92556000Y-142554000D01*
X92054000Y-142554000D01*
X91946000Y-142554000D01*
X91444000Y-142554000D01*
X91400000Y-142598000D01*
X91356000Y-142554000D01*
X90854000Y-142554000D01*
X90746000Y-142554000D01*
X90726000Y-142554000D01*
X90726000Y-142446000D01*
X90746000Y-142446000D01*
X90746000Y-142426000D01*
X90854000Y-142426000D01*
X90854000Y-142446000D01*
X91356000Y-142446000D01*
X91400000Y-142402000D01*
X91444000Y-142446000D01*
X91946000Y-142446000D01*
X91946000Y-142426000D01*
X92054000Y-142426000D01*
X92054000Y-142446000D01*
X92556000Y-142446000D01*
X92658000Y-142344000D01*
X92658000Y-142118844D01*
X92651852Y-142104000D01*
X100048000Y-142104000D01*
X100048000Y-143045156D01*
X100110114Y-143195114D01*
X100224887Y-143309886D01*
X100374844Y-143372000D01*
X100808000Y-143372000D01*
X100910000Y-143270000D01*
X100910000Y-142002000D01*
X101018000Y-142002000D01*
X101018000Y-143270000D01*
X101120000Y-143372000D01*
X101553156Y-143372000D01*
X101703113Y-143309886D01*
X101817886Y-143195114D01*
X101880000Y-143045156D01*
X101880000Y-142104000D01*
X101778000Y-142002000D01*
X101018000Y-142002000D01*
X100910000Y-142002000D01*
X100150000Y-142002000D01*
X100048000Y-142104000D01*
X92651852Y-142104000D01*
X92628573Y-142047800D01*
X92728525Y-141898212D01*
X92767952Y-141700000D01*
X92767952Y-141574704D01*
X92974766Y-141489250D01*
X93044954Y-141419184D01*
X93258552Y-141507877D01*
X93540212Y-141508123D01*
X93800526Y-141400564D01*
X93999864Y-141201574D01*
X94107877Y-140941448D01*
X94108123Y-140659788D01*
X94000564Y-140399474D01*
X93801574Y-140200136D01*
X93541448Y-140092123D01*
X93502433Y-140092089D01*
X93105172Y-139694828D01*
X92919278Y-139570617D01*
X92700000Y-139527000D01*
X90784604Y-139527000D01*
X90565326Y-139570617D01*
X90383019Y-139692431D01*
X90141448Y-139592123D01*
X89859788Y-139591877D01*
X89599474Y-139699436D01*
X89571862Y-139727000D01*
X88285069Y-139727000D01*
X88065791Y-139770617D01*
X87917056Y-139869999D01*
X87879897Y-139894828D01*
X87629816Y-140144909D01*
X87505605Y-140330803D01*
X87504320Y-140337262D01*
X86762298Y-139595240D01*
X86594263Y-139482962D01*
X86396051Y-139443535D01*
X86197839Y-139482962D01*
X86029804Y-139595240D01*
X85287342Y-140337702D01*
X85175064Y-140505737D01*
X85135637Y-140703949D01*
X85142633Y-140739120D01*
X84955742Y-140820399D01*
X84697925Y-141087416D01*
X84568420Y-141400067D01*
X84650464Y-141547975D01*
X85444025Y-141547975D01*
X85444025Y-141226879D01*
X85552025Y-141334879D01*
X85552025Y-141471605D01*
X85512166Y-141511464D01*
X85588536Y-141587834D01*
X85628395Y-141547975D01*
X85765121Y-141547975D01*
X85832353Y-141615207D01*
X85811668Y-141623754D01*
X85779391Y-141655975D01*
X85628395Y-141655975D01*
X85588536Y-141616116D01*
X85512166Y-141692486D01*
X85552025Y-141732345D01*
X85552025Y-141882944D01*
X85520827Y-141914088D01*
X85444025Y-142099047D01*
X85444025Y-141732345D01*
X85483884Y-141692486D01*
X85407514Y-141616116D01*
X85367655Y-141655975D01*
X85008515Y-141655975D01*
X84801908Y-141570395D01*
X84654000Y-141652439D01*
X84654000Y-141655975D01*
X84650464Y-141655975D01*
X84568420Y-141803883D01*
X84654000Y-142000664D01*
X84654000Y-142369630D01*
X84614141Y-142409489D01*
X84690511Y-142485859D01*
X84730370Y-142446000D01*
X85089510Y-142446000D01*
X85093272Y-142447559D01*
X84913642Y-142521780D01*
X84881366Y-142554000D01*
X84730370Y-142554000D01*
X84690511Y-142514141D01*
X84614141Y-142590511D01*
X84654000Y-142630370D01*
X84654000Y-142780969D01*
X84622801Y-142812114D01*
X84600139Y-142866691D01*
X84578220Y-142813643D01*
X84546000Y-142781367D01*
X84546000Y-142630370D01*
X84585859Y-142590511D01*
X84509489Y-142514141D01*
X84469630Y-142554000D01*
X84319030Y-142554000D01*
X84287886Y-142522802D01*
X84102927Y-142446000D01*
X84546000Y-142446000D01*
X84546000Y-141652439D01*
X84398092Y-141570395D01*
X84057717Y-141718424D01*
X83799900Y-141985441D01*
X83670395Y-142298092D01*
X83707525Y-142365030D01*
X83497399Y-142364847D01*
X83117591Y-142521780D01*
X82826750Y-142812114D01*
X82669153Y-143191648D01*
X82668968Y-143403570D01*
X82602041Y-143366446D01*
X82261666Y-143514475D01*
X82003849Y-143781492D01*
X81874344Y-144094143D01*
X81956388Y-144242051D01*
X82749949Y-144242051D01*
X82749949Y-143799009D01*
X82825728Y-143982409D01*
X82857949Y-144014686D01*
X82857949Y-144165681D01*
X82818090Y-144205540D01*
X82894460Y-144281910D01*
X82934319Y-144242051D01*
X83084917Y-144242051D01*
X83116062Y-144273250D01*
X83170639Y-144295912D01*
X83117591Y-144317831D01*
X83085315Y-144350051D01*
X82934319Y-144350051D01*
X82894460Y-144310192D01*
X82818090Y-144386562D01*
X82857949Y-144426421D01*
X82857949Y-144577020D01*
X82826750Y-144608165D01*
X82749949Y-144793122D01*
X82749949Y-144350051D01*
X81956388Y-144350051D01*
X81874344Y-144497959D01*
X82022373Y-144838334D01*
X82289390Y-145096151D01*
X82602041Y-145225656D01*
X82668978Y-145188526D01*
X82668795Y-145398652D01*
X82825728Y-145778460D01*
X83116062Y-146069301D01*
X83255016Y-146127000D01*
X80708064Y-146127000D01*
X80708123Y-146059800D01*
X80600564Y-145799486D01*
X80573000Y-145771874D01*
X80573000Y-142600000D01*
X80529383Y-142380722D01*
X80405172Y-142194828D01*
X79908090Y-141697746D01*
X79908123Y-141659788D01*
X79800564Y-141399474D01*
X79601574Y-141200136D01*
X79341448Y-141092123D01*
X79059788Y-141091877D01*
X78799474Y-141199436D01*
X78600136Y-141398426D01*
X78492123Y-141658552D01*
X78491877Y-141940212D01*
X78599436Y-142200526D01*
X78798426Y-142399864D01*
X79058552Y-142507877D01*
X79097567Y-142507911D01*
X79331771Y-142742115D01*
X79010278Y-142741834D01*
X78658046Y-142887374D01*
X78400157Y-143144813D01*
X77773296Y-142517952D01*
X77950000Y-142517952D01*
X78148212Y-142478525D01*
X78316247Y-142366247D01*
X78428525Y-142198212D01*
X78467952Y-142000000D01*
X78467952Y-141000000D01*
X78428525Y-140801788D01*
X78316247Y-140633753D01*
X78148212Y-140521475D01*
X77950000Y-140482048D01*
X75200000Y-140482048D01*
X75001788Y-140521475D01*
X74833753Y-140633753D01*
X74721475Y-140801788D01*
X74716460Y-140827000D01*
X72683540Y-140827000D01*
X72678525Y-140801788D01*
X72566247Y-140633753D01*
X72398212Y-140521475D01*
X72200000Y-140482048D01*
X69450000Y-140482048D01*
X69251788Y-140521475D01*
X69083753Y-140633753D01*
X68971475Y-140801788D01*
X68932048Y-141000000D01*
X68932048Y-141027000D01*
X68756140Y-141027000D01*
X68598212Y-140921475D01*
X68400000Y-140882048D01*
X67800000Y-140882048D01*
X67601788Y-140921475D01*
X67433753Y-141033753D01*
X67321475Y-141201788D01*
X67282048Y-141400000D01*
X67282048Y-141800000D01*
X67294381Y-141862000D01*
X66904800Y-141862000D01*
X66858291Y-141815410D01*
X66561424Y-141692140D01*
X66239982Y-141691860D01*
X66012064Y-141786033D01*
X66085028Y-141604958D01*
X66080870Y-141174134D01*
X65924002Y-140795421D01*
X65745829Y-140730539D01*
X65076368Y-141400000D01*
X65090510Y-141414142D01*
X65014142Y-141490510D01*
X65000000Y-141476368D01*
X64330539Y-142145829D01*
X64395421Y-142324002D01*
X64795042Y-142485028D01*
X65225866Y-142480870D01*
X65596861Y-142327199D01*
X65592138Y-142338574D01*
X65591858Y-142660016D01*
X65714609Y-142957097D01*
X65941705Y-143184590D01*
X66238572Y-143307860D01*
X66560014Y-143308140D01*
X66857095Y-143185389D01*
X66904567Y-143138000D01*
X67541138Y-143138000D01*
X67601788Y-143178525D01*
X67800000Y-143217952D01*
X68400000Y-143217952D01*
X68598212Y-143178525D01*
X68766247Y-143066247D01*
X68878525Y-142898212D01*
X68917952Y-142700000D01*
X68917952Y-142300000D01*
X68892690Y-142173000D01*
X68966460Y-142173000D01*
X68971475Y-142198212D01*
X69083753Y-142366247D01*
X69251788Y-142478525D01*
X69450000Y-142517952D01*
X72200000Y-142517952D01*
X72398212Y-142478525D01*
X72566247Y-142366247D01*
X72678525Y-142198212D01*
X72717952Y-142000000D01*
X72717952Y-141973000D01*
X74682048Y-141973000D01*
X74682048Y-142000000D01*
X74721475Y-142198212D01*
X74833753Y-142366247D01*
X75001788Y-142478525D01*
X75200000Y-142517952D01*
X76158322Y-142517952D01*
X76169828Y-142535172D01*
X77927000Y-144292344D01*
X77927000Y-144592000D01*
X76731000Y-144592000D01*
X76629000Y-144694000D01*
X76629000Y-145446000D01*
X76649000Y-145446000D01*
X76649000Y-145554000D01*
X76629000Y-145554000D01*
X76629000Y-145574000D01*
X76521000Y-145574000D01*
X76521000Y-145554000D01*
X74894000Y-145554000D01*
X74792000Y-145656000D01*
X74792000Y-146006978D01*
X72608000Y-146006978D01*
X72608000Y-145656000D01*
X72506000Y-145554000D01*
X70879000Y-145554000D01*
X70879000Y-145574000D01*
X70771000Y-145574000D01*
X70771000Y-145554000D01*
X69144000Y-145554000D01*
X69042000Y-145656000D01*
X69042000Y-146006978D01*
X68017634Y-146006978D01*
X67083657Y-145073000D01*
X69042000Y-145073000D01*
X69042000Y-145344000D01*
X69144000Y-145446000D01*
X70771000Y-145446000D01*
X70771000Y-145426000D01*
X70879000Y-145426000D01*
X70879000Y-145446000D01*
X72506000Y-145446000D01*
X72608000Y-145344000D01*
X72608000Y-144993278D01*
X72682563Y-144918844D01*
X74792000Y-144918844D01*
X74792000Y-145344000D01*
X74894000Y-145446000D01*
X76521000Y-145446000D01*
X76521000Y-144694000D01*
X76419000Y-144592000D01*
X75118844Y-144592000D01*
X74968887Y-144654114D01*
X74854114Y-144768886D01*
X74792000Y-144918844D01*
X72682563Y-144918844D01*
X72699864Y-144901574D01*
X72807877Y-144641448D01*
X72808123Y-144359788D01*
X72700564Y-144099474D01*
X72501574Y-143900136D01*
X72241448Y-143792123D01*
X72157920Y-143792050D01*
X72158166Y-143510278D01*
X72012626Y-143158046D01*
X71743372Y-142888321D01*
X71391394Y-142742167D01*
X71010278Y-142741834D01*
X70658046Y-142887374D01*
X70388321Y-143156628D01*
X70242167Y-143508606D01*
X70241834Y-143889722D01*
X70257237Y-143927000D01*
X62100000Y-143927000D01*
X61880722Y-143970617D01*
X61754435Y-144055000D01*
X61694828Y-144094828D01*
X60762656Y-145027000D01*
X59792952Y-145027000D01*
X59792952Y-144500000D01*
X59753525Y-144301788D01*
X59641247Y-144133753D01*
X59473212Y-144021475D01*
X59275000Y-143982048D01*
X56525000Y-143982048D01*
X56326788Y-144021475D01*
X56158753Y-144133753D01*
X56046475Y-144301788D01*
X56007048Y-144500000D01*
X56007048Y-145500000D01*
X56046475Y-145698212D01*
X56158753Y-145866247D01*
X56249676Y-145927000D01*
X54378831Y-145927000D01*
X54369278Y-145920617D01*
X54150000Y-145877000D01*
X53875154Y-145877000D01*
X53891247Y-145866247D01*
X54003525Y-145698212D01*
X54042952Y-145500000D01*
X54042952Y-144500000D01*
X54003525Y-144301788D01*
X53891247Y-144133753D01*
X53723212Y-144021475D01*
X53525000Y-143982048D01*
X50775000Y-143982048D01*
X50608000Y-144015267D01*
X50608000Y-141872442D01*
X50693844Y-141908000D01*
X51994000Y-141908000D01*
X52096000Y-141806000D01*
X52096000Y-141054000D01*
X52204000Y-141054000D01*
X52204000Y-141806000D01*
X52306000Y-141908000D01*
X53606156Y-141908000D01*
X53756113Y-141845886D01*
X53870886Y-141731114D01*
X53933000Y-141581156D01*
X53933000Y-141156000D01*
X56117000Y-141156000D01*
X56117000Y-141581156D01*
X56179114Y-141731114D01*
X56293887Y-141845886D01*
X56443844Y-141908000D01*
X57744000Y-141908000D01*
X57846000Y-141806000D01*
X57846000Y-141054000D01*
X57954000Y-141054000D01*
X57954000Y-141806000D01*
X58056000Y-141908000D01*
X59356156Y-141908000D01*
X59506113Y-141845886D01*
X59620886Y-141731114D01*
X59683000Y-141581156D01*
X59683000Y-141156000D01*
X59581000Y-141054000D01*
X57954000Y-141054000D01*
X57846000Y-141054000D01*
X56219000Y-141054000D01*
X56117000Y-141156000D01*
X53933000Y-141156000D01*
X53831000Y-141054000D01*
X52204000Y-141054000D01*
X52096000Y-141054000D01*
X52076000Y-141054000D01*
X52076000Y-140946000D01*
X52096000Y-140946000D01*
X52096000Y-140194000D01*
X52204000Y-140194000D01*
X52204000Y-140946000D01*
X53831000Y-140946000D01*
X53933000Y-140844000D01*
X53933000Y-140418844D01*
X56117000Y-140418844D01*
X56117000Y-140844000D01*
X56219000Y-140946000D01*
X57846000Y-140946000D01*
X57846000Y-140194000D01*
X57954000Y-140194000D01*
X57954000Y-140946000D01*
X59581000Y-140946000D01*
X59683000Y-140844000D01*
X59683000Y-140725000D01*
X59807048Y-140725000D01*
X59807048Y-142075000D01*
X59846475Y-142273212D01*
X59958753Y-142441247D01*
X60126788Y-142553525D01*
X60325000Y-142592952D01*
X61675000Y-142592952D01*
X61873212Y-142553525D01*
X62041247Y-142441247D01*
X62153525Y-142273212D01*
X62161269Y-142234280D01*
X62329010Y-142402314D01*
X62763654Y-142582794D01*
X63234281Y-142583205D01*
X63669240Y-142403483D01*
X64002314Y-142070990D01*
X64052973Y-141948991D01*
X64075998Y-142004579D01*
X64254171Y-142069461D01*
X64923632Y-141400000D01*
X64254171Y-140730539D01*
X64075998Y-140795421D01*
X64053387Y-140851536D01*
X64003483Y-140730760D01*
X63927028Y-140654171D01*
X64330539Y-140654171D01*
X65000000Y-141323632D01*
X65669461Y-140654171D01*
X65604579Y-140475998D01*
X65204958Y-140314972D01*
X64774134Y-140319130D01*
X64395421Y-140475998D01*
X64330539Y-140654171D01*
X63927028Y-140654171D01*
X63670990Y-140397686D01*
X63236346Y-140217206D01*
X62765719Y-140216795D01*
X62330760Y-140396517D01*
X62161268Y-140565714D01*
X62153525Y-140526788D01*
X62041247Y-140358753D01*
X61873212Y-140246475D01*
X61675000Y-140207048D01*
X60325000Y-140207048D01*
X60126788Y-140246475D01*
X59958753Y-140358753D01*
X59846475Y-140526788D01*
X59807048Y-140725000D01*
X59683000Y-140725000D01*
X59683000Y-140418844D01*
X59620886Y-140268886D01*
X59506113Y-140154114D01*
X59356156Y-140092000D01*
X58056000Y-140092000D01*
X57954000Y-140194000D01*
X57846000Y-140194000D01*
X57744000Y-140092000D01*
X56443844Y-140092000D01*
X56293887Y-140154114D01*
X56179114Y-140268886D01*
X56117000Y-140418844D01*
X53933000Y-140418844D01*
X53870886Y-140268886D01*
X53756113Y-140154114D01*
X53606156Y-140092000D01*
X52306000Y-140092000D01*
X52204000Y-140194000D01*
X52096000Y-140194000D01*
X51994000Y-140092000D01*
X50693844Y-140092000D01*
X50608000Y-140127558D01*
X50608000Y-139108000D01*
X109392000Y-139108000D01*
X109392000Y-140901121D01*
X109392000Y-140901121D01*
G37*
X109392000Y-140901121D02*
X109178249Y-140758297D01*
X108769543Y-140677000D01*
X107830457Y-140677000D01*
X107637990Y-140715284D01*
X107637990Y-140527990D01*
X107589425Y-140283838D01*
X107488067Y-140132145D01*
X107488140Y-140047984D01*
X107365389Y-139750903D01*
X107138293Y-139523410D01*
X106841426Y-139400140D01*
X106519984Y-139399860D01*
X106222903Y-139522611D01*
X105995410Y-139749707D01*
X105872140Y-140046574D01*
X105872088Y-140105820D01*
X105523134Y-139756866D01*
X105316152Y-139618565D01*
X105072000Y-139570000D01*
X100834802Y-139570000D01*
X100788293Y-139523410D01*
X100491426Y-139400140D01*
X100169984Y-139399860D01*
X99872903Y-139522611D01*
X99645410Y-139749707D01*
X99522140Y-140046574D01*
X99521860Y-140368016D01*
X99644611Y-140665097D01*
X99871707Y-140892590D01*
X100048000Y-140965793D01*
X100048000Y-141792000D01*
X100150000Y-141894000D01*
X100910000Y-141894000D01*
X100910000Y-141874000D01*
X101018000Y-141874000D01*
X101018000Y-141894000D01*
X101778000Y-141894000D01*
X101880000Y-141792000D01*
X101880000Y-140850844D01*
X101877994Y-140846000D01*
X102241155Y-140846000D01*
X102224048Y-140932000D01*
X102224048Y-142964000D01*
X102263475Y-143162212D01*
X102375753Y-143330247D01*
X102543788Y-143442525D01*
X102742000Y-143481952D01*
X103758000Y-143481952D01*
X103956212Y-143442525D01*
X104124247Y-143330247D01*
X104236525Y-143162212D01*
X104275952Y-142964000D01*
X104275952Y-142528214D01*
X104469134Y-142399134D01*
X104510048Y-142358220D01*
X104510048Y-142964000D01*
X104549475Y-143162212D01*
X104661753Y-143330247D01*
X104829788Y-143442525D01*
X105028000Y-143481952D01*
X106044000Y-143481952D01*
X106242212Y-143442525D01*
X106362000Y-143362485D01*
X106362000Y-145535732D01*
X106135732Y-145762000D01*
X105104802Y-145762000D01*
X105058293Y-145715410D01*
X104890849Y-145645881D01*
X105000526Y-145600564D01*
X105199864Y-145401574D01*
X105307877Y-145141448D01*
X105308123Y-144859788D01*
X105200564Y-144599474D01*
X105001574Y-144400136D01*
X104741448Y-144292123D01*
X104459788Y-144291877D01*
X104199474Y-144399436D01*
X104171862Y-144427000D01*
X104028391Y-144427000D01*
X104001574Y-144400136D01*
X103741448Y-144292123D01*
X103459788Y-144291877D01*
X103199474Y-144399436D01*
X103000136Y-144598426D01*
X102892123Y-144858552D01*
X102891877Y-145140212D01*
X102999436Y-145400526D01*
X103198426Y-145599864D01*
X103458552Y-145707877D01*
X103740212Y-145708123D01*
X104000526Y-145600564D01*
X104028138Y-145573000D01*
X104171609Y-145573000D01*
X104198426Y-145599864D01*
X104309245Y-145645880D01*
X104142903Y-145714611D01*
X103915410Y-145941707D01*
X103792140Y-146238574D01*
X103792006Y-146392000D01*
X100880114Y-146392000D01*
X100800564Y-146199474D01*
X100601574Y-146000136D01*
X100341448Y-145892123D01*
X100251346Y-145892044D01*
X100219278Y-145870617D01*
X100000000Y-145827000D01*
X99528391Y-145827000D01*
X99501574Y-145800136D01*
X99241448Y-145692123D01*
X98959788Y-145691877D01*
X98699474Y-145799436D01*
X98500136Y-145998426D01*
X98392123Y-146258552D01*
X98392006Y-146392000D01*
X98160601Y-146392000D01*
X98243877Y-146191448D01*
X98244123Y-145909788D01*
X98136564Y-145649474D01*
X97937574Y-145450136D01*
X97849994Y-145413770D01*
X97975029Y-145362107D01*
X98360752Y-144977056D01*
X98569762Y-144473705D01*
X98570237Y-143928686D01*
X98362107Y-143424971D01*
X97977056Y-143039248D01*
X97473705Y-142830238D01*
X96928686Y-142829763D01*
X96424971Y-143037893D01*
X96039248Y-143422944D01*
X95830238Y-143926295D01*
X95829763Y-144471314D01*
X96037893Y-144975029D01*
X96321642Y-145259273D01*
X96284722Y-145266617D01*
X96144941Y-145360016D01*
X96098828Y-145390828D01*
X95382668Y-146106988D01*
X94508000Y-146106988D01*
X94508000Y-145781000D01*
X94406000Y-145679000D01*
X93154000Y-145679000D01*
X93154000Y-145699000D01*
X93046000Y-145699000D01*
X93046000Y-145679000D01*
X91794000Y-145679000D01*
X91741672Y-145731328D01*
X90754188Y-144743844D01*
X91692000Y-144743844D01*
X91692000Y-145469000D01*
X91794000Y-145571000D01*
X93046000Y-145571000D01*
X93046000Y-144519000D01*
X93154000Y-144519000D01*
X93154000Y-145571000D01*
X94406000Y-145571000D01*
X94508000Y-145469000D01*
X94508000Y-144743844D01*
X94445886Y-144593887D01*
X94331114Y-144479114D01*
X94181156Y-144417000D01*
X93256000Y-144417000D01*
X93154000Y-144519000D01*
X93046000Y-144519000D01*
X92944000Y-144417000D01*
X92018844Y-144417000D01*
X91868886Y-144479114D01*
X91754114Y-144593887D01*
X91692000Y-144743844D01*
X90754188Y-144743844D01*
X90091607Y-144081263D01*
X90002128Y-144021475D01*
X89905713Y-143957052D01*
X89686435Y-143913435D01*
X86402525Y-143913435D01*
X86530846Y-143604404D01*
X86530908Y-143533118D01*
X86600626Y-143533179D01*
X86980434Y-143376246D01*
X87271275Y-143085912D01*
X87428872Y-142706378D01*
X87428934Y-142635093D01*
X87498652Y-142635154D01*
X87878460Y-142478221D01*
X88169301Y-142187887D01*
X88223065Y-142058409D01*
X88541504Y-142376848D01*
X88446123Y-142606552D01*
X88445877Y-142888212D01*
X88553436Y-143148526D01*
X88752426Y-143347864D01*
X89012552Y-143455877D01*
X89212205Y-143456051D01*
X89379871Y-143624010D01*
X89676738Y-143747280D01*
X89998180Y-143747560D01*
X90295261Y-143624809D01*
X90522754Y-143397713D01*
X90601530Y-143208000D01*
X90644000Y-143208000D01*
X90746000Y-143106000D01*
X90746000Y-142554000D01*
X90854000Y-142554000D01*
X90854000Y-143106000D01*
X90956000Y-143208000D01*
X91131156Y-143208000D01*
X91281114Y-143145886D01*
X91395886Y-143031113D01*
X91400000Y-143021181D01*
X91404114Y-143031113D01*
X91518886Y-143145886D01*
X91668844Y-143208000D01*
X91844000Y-143208000D01*
X91946000Y-143106000D01*
X91946000Y-142554000D01*
X92054000Y-142554000D01*
X92054000Y-143106000D01*
X92156000Y-143208000D01*
X92331156Y-143208000D01*
X92481114Y-143145886D01*
X92595886Y-143031113D01*
X92658000Y-142881156D01*
X92658000Y-142656000D01*
X92556000Y-142554000D01*
X92054000Y-142554000D01*
X91946000Y-142554000D01*
X91444000Y-142554000D01*
X91400000Y-142598000D01*
X91356000Y-142554000D01*
X90854000Y-142554000D01*
X90746000Y-142554000D01*
X90726000Y-142554000D01*
X90726000Y-142446000D01*
X90746000Y-142446000D01*
X90746000Y-142426000D01*
X90854000Y-142426000D01*
X90854000Y-142446000D01*
X91356000Y-142446000D01*
X91400000Y-142402000D01*
X91444000Y-142446000D01*
X91946000Y-142446000D01*
X91946000Y-142426000D01*
X92054000Y-142426000D01*
X92054000Y-142446000D01*
X92556000Y-142446000D01*
X92658000Y-142344000D01*
X92658000Y-142118844D01*
X92651852Y-142104000D01*
X100048000Y-142104000D01*
X100048000Y-143045156D01*
X100110114Y-143195114D01*
X100224887Y-143309886D01*
X100374844Y-143372000D01*
X100808000Y-143372000D01*
X100910000Y-143270000D01*
X100910000Y-142002000D01*
X101018000Y-142002000D01*
X101018000Y-143270000D01*
X101120000Y-143372000D01*
X101553156Y-143372000D01*
X101703113Y-143309886D01*
X101817886Y-143195114D01*
X101880000Y-143045156D01*
X101880000Y-142104000D01*
X101778000Y-142002000D01*
X101018000Y-142002000D01*
X100910000Y-142002000D01*
X100150000Y-142002000D01*
X100048000Y-142104000D01*
X92651852Y-142104000D01*
X92628573Y-142047800D01*
X92728525Y-141898212D01*
X92767952Y-141700000D01*
X92767952Y-141574704D01*
X92974766Y-141489250D01*
X93044954Y-141419184D01*
X93258552Y-141507877D01*
X93540212Y-141508123D01*
X93800526Y-141400564D01*
X93999864Y-141201574D01*
X94107877Y-140941448D01*
X94108123Y-140659788D01*
X94000564Y-140399474D01*
X93801574Y-140200136D01*
X93541448Y-140092123D01*
X93502433Y-140092089D01*
X93105172Y-139694828D01*
X92919278Y-139570617D01*
X92700000Y-139527000D01*
X90784604Y-139527000D01*
X90565326Y-139570617D01*
X90383019Y-139692431D01*
X90141448Y-139592123D01*
X89859788Y-139591877D01*
X89599474Y-139699436D01*
X89571862Y-139727000D01*
X88285069Y-139727000D01*
X88065791Y-139770617D01*
X87917056Y-139869999D01*
X87879897Y-139894828D01*
X87629816Y-140144909D01*
X87505605Y-140330803D01*
X87504320Y-140337262D01*
X86762298Y-139595240D01*
X86594263Y-139482962D01*
X86396051Y-139443535D01*
X86197839Y-139482962D01*
X86029804Y-139595240D01*
X85287342Y-140337702D01*
X85175064Y-140505737D01*
X85135637Y-140703949D01*
X85142633Y-140739120D01*
X84955742Y-140820399D01*
X84697925Y-141087416D01*
X84568420Y-141400067D01*
X84650464Y-141547975D01*
X85444025Y-141547975D01*
X85444025Y-141226879D01*
X85552025Y-141334879D01*
X85552025Y-141471605D01*
X85512166Y-141511464D01*
X85588536Y-141587834D01*
X85628395Y-141547975D01*
X85765121Y-141547975D01*
X85832353Y-141615207D01*
X85811668Y-141623754D01*
X85779391Y-141655975D01*
X85628395Y-141655975D01*
X85588536Y-141616116D01*
X85512166Y-141692486D01*
X85552025Y-141732345D01*
X85552025Y-141882944D01*
X85520827Y-141914088D01*
X85444025Y-142099047D01*
X85444025Y-141732345D01*
X85483884Y-141692486D01*
X85407514Y-141616116D01*
X85367655Y-141655975D01*
X85008515Y-141655975D01*
X84801908Y-141570395D01*
X84654000Y-141652439D01*
X84654000Y-141655975D01*
X84650464Y-141655975D01*
X84568420Y-141803883D01*
X84654000Y-142000664D01*
X84654000Y-142369630D01*
X84614141Y-142409489D01*
X84690511Y-142485859D01*
X84730370Y-142446000D01*
X85089510Y-142446000D01*
X85093272Y-142447559D01*
X84913642Y-142521780D01*
X84881366Y-142554000D01*
X84730370Y-142554000D01*
X84690511Y-142514141D01*
X84614141Y-142590511D01*
X84654000Y-142630370D01*
X84654000Y-142780969D01*
X84622801Y-142812114D01*
X84600139Y-142866691D01*
X84578220Y-142813643D01*
X84546000Y-142781367D01*
X84546000Y-142630370D01*
X84585859Y-142590511D01*
X84509489Y-142514141D01*
X84469630Y-142554000D01*
X84319030Y-142554000D01*
X84287886Y-142522802D01*
X84102927Y-142446000D01*
X84546000Y-142446000D01*
X84546000Y-141652439D01*
X84398092Y-141570395D01*
X84057717Y-141718424D01*
X83799900Y-141985441D01*
X83670395Y-142298092D01*
X83707525Y-142365030D01*
X83497399Y-142364847D01*
X83117591Y-142521780D01*
X82826750Y-142812114D01*
X82669153Y-143191648D01*
X82668968Y-143403570D01*
X82602041Y-143366446D01*
X82261666Y-143514475D01*
X82003849Y-143781492D01*
X81874344Y-144094143D01*
X81956388Y-144242051D01*
X82749949Y-144242051D01*
X82749949Y-143799009D01*
X82825728Y-143982409D01*
X82857949Y-144014686D01*
X82857949Y-144165681D01*
X82818090Y-144205540D01*
X82894460Y-144281910D01*
X82934319Y-144242051D01*
X83084917Y-144242051D01*
X83116062Y-144273250D01*
X83170639Y-144295912D01*
X83117591Y-144317831D01*
X83085315Y-144350051D01*
X82934319Y-144350051D01*
X82894460Y-144310192D01*
X82818090Y-144386562D01*
X82857949Y-144426421D01*
X82857949Y-144577020D01*
X82826750Y-144608165D01*
X82749949Y-144793122D01*
X82749949Y-144350051D01*
X81956388Y-144350051D01*
X81874344Y-144497959D01*
X82022373Y-144838334D01*
X82289390Y-145096151D01*
X82602041Y-145225656D01*
X82668978Y-145188526D01*
X82668795Y-145398652D01*
X82825728Y-145778460D01*
X83116062Y-146069301D01*
X83255016Y-146127000D01*
X80708064Y-146127000D01*
X80708123Y-146059800D01*
X80600564Y-145799486D01*
X80573000Y-145771874D01*
X80573000Y-142600000D01*
X80529383Y-142380722D01*
X80405172Y-142194828D01*
X79908090Y-141697746D01*
X79908123Y-141659788D01*
X79800564Y-141399474D01*
X79601574Y-141200136D01*
X79341448Y-141092123D01*
X79059788Y-141091877D01*
X78799474Y-141199436D01*
X78600136Y-141398426D01*
X78492123Y-141658552D01*
X78491877Y-141940212D01*
X78599436Y-142200526D01*
X78798426Y-142399864D01*
X79058552Y-142507877D01*
X79097567Y-142507911D01*
X79331771Y-142742115D01*
X79010278Y-142741834D01*
X78658046Y-142887374D01*
X78400157Y-143144813D01*
X77773296Y-142517952D01*
X77950000Y-142517952D01*
X78148212Y-142478525D01*
X78316247Y-142366247D01*
X78428525Y-142198212D01*
X78467952Y-142000000D01*
X78467952Y-141000000D01*
X78428525Y-140801788D01*
X78316247Y-140633753D01*
X78148212Y-140521475D01*
X77950000Y-140482048D01*
X75200000Y-140482048D01*
X75001788Y-140521475D01*
X74833753Y-140633753D01*
X74721475Y-140801788D01*
X74716460Y-140827000D01*
X72683540Y-140827000D01*
X72678525Y-140801788D01*
X72566247Y-140633753D01*
X72398212Y-140521475D01*
X72200000Y-140482048D01*
X69450000Y-140482048D01*
X69251788Y-140521475D01*
X69083753Y-140633753D01*
X68971475Y-140801788D01*
X68932048Y-141000000D01*
X68932048Y-141027000D01*
X68756140Y-141027000D01*
X68598212Y-140921475D01*
X68400000Y-140882048D01*
X67800000Y-140882048D01*
X67601788Y-140921475D01*
X67433753Y-141033753D01*
X67321475Y-141201788D01*
X67282048Y-141400000D01*
X67282048Y-141800000D01*
X67294381Y-141862000D01*
X66904800Y-141862000D01*
X66858291Y-141815410D01*
X66561424Y-141692140D01*
X66239982Y-141691860D01*
X66012064Y-141786033D01*
X66085028Y-141604958D01*
X66080870Y-141174134D01*
X65924002Y-140795421D01*
X65745829Y-140730539D01*
X65076368Y-141400000D01*
X65090510Y-141414142D01*
X65014142Y-141490510D01*
X65000000Y-141476368D01*
X64330539Y-142145829D01*
X64395421Y-142324002D01*
X64795042Y-142485028D01*
X65225866Y-142480870D01*
X65596861Y-142327199D01*
X65592138Y-142338574D01*
X65591858Y-142660016D01*
X65714609Y-142957097D01*
X65941705Y-143184590D01*
X66238572Y-143307860D01*
X66560014Y-143308140D01*
X66857095Y-143185389D01*
X66904567Y-143138000D01*
X67541138Y-143138000D01*
X67601788Y-143178525D01*
X67800000Y-143217952D01*
X68400000Y-143217952D01*
X68598212Y-143178525D01*
X68766247Y-143066247D01*
X68878525Y-142898212D01*
X68917952Y-142700000D01*
X68917952Y-142300000D01*
X68892690Y-142173000D01*
X68966460Y-142173000D01*
X68971475Y-142198212D01*
X69083753Y-142366247D01*
X69251788Y-142478525D01*
X69450000Y-142517952D01*
X72200000Y-142517952D01*
X72398212Y-142478525D01*
X72566247Y-142366247D01*
X72678525Y-142198212D01*
X72717952Y-142000000D01*
X72717952Y-141973000D01*
X74682048Y-141973000D01*
X74682048Y-142000000D01*
X74721475Y-142198212D01*
X74833753Y-142366247D01*
X75001788Y-142478525D01*
X75200000Y-142517952D01*
X76158322Y-142517952D01*
X76169828Y-142535172D01*
X77927000Y-144292344D01*
X77927000Y-144592000D01*
X76731000Y-144592000D01*
X76629000Y-144694000D01*
X76629000Y-145446000D01*
X76649000Y-145446000D01*
X76649000Y-145554000D01*
X76629000Y-145554000D01*
X76629000Y-145574000D01*
X76521000Y-145574000D01*
X76521000Y-145554000D01*
X74894000Y-145554000D01*
X74792000Y-145656000D01*
X74792000Y-146006978D01*
X72608000Y-146006978D01*
X72608000Y-145656000D01*
X72506000Y-145554000D01*
X70879000Y-145554000D01*
X70879000Y-145574000D01*
X70771000Y-145574000D01*
X70771000Y-145554000D01*
X69144000Y-145554000D01*
X69042000Y-145656000D01*
X69042000Y-146006978D01*
X68017634Y-146006978D01*
X67083657Y-145073000D01*
X69042000Y-145073000D01*
X69042000Y-145344000D01*
X69144000Y-145446000D01*
X70771000Y-145446000D01*
X70771000Y-145426000D01*
X70879000Y-145426000D01*
X70879000Y-145446000D01*
X72506000Y-145446000D01*
X72608000Y-145344000D01*
X72608000Y-144993278D01*
X72682563Y-144918844D01*
X74792000Y-144918844D01*
X74792000Y-145344000D01*
X74894000Y-145446000D01*
X76521000Y-145446000D01*
X76521000Y-144694000D01*
X76419000Y-144592000D01*
X75118844Y-144592000D01*
X74968887Y-144654114D01*
X74854114Y-144768886D01*
X74792000Y-144918844D01*
X72682563Y-144918844D01*
X72699864Y-144901574D01*
X72807877Y-144641448D01*
X72808123Y-144359788D01*
X72700564Y-144099474D01*
X72501574Y-143900136D01*
X72241448Y-143792123D01*
X72157920Y-143792050D01*
X72158166Y-143510278D01*
X72012626Y-143158046D01*
X71743372Y-142888321D01*
X71391394Y-142742167D01*
X71010278Y-142741834D01*
X70658046Y-142887374D01*
X70388321Y-143156628D01*
X70242167Y-143508606D01*
X70241834Y-143889722D01*
X70257237Y-143927000D01*
X62100000Y-143927000D01*
X61880722Y-143970617D01*
X61754435Y-144055000D01*
X61694828Y-144094828D01*
X60762656Y-145027000D01*
X59792952Y-145027000D01*
X59792952Y-144500000D01*
X59753525Y-144301788D01*
X59641247Y-144133753D01*
X59473212Y-144021475D01*
X59275000Y-143982048D01*
X56525000Y-143982048D01*
X56326788Y-144021475D01*
X56158753Y-144133753D01*
X56046475Y-144301788D01*
X56007048Y-144500000D01*
X56007048Y-145500000D01*
X56046475Y-145698212D01*
X56158753Y-145866247D01*
X56249676Y-145927000D01*
X54378831Y-145927000D01*
X54369278Y-145920617D01*
X54150000Y-145877000D01*
X53875154Y-145877000D01*
X53891247Y-145866247D01*
X54003525Y-145698212D01*
X54042952Y-145500000D01*
X54042952Y-144500000D01*
X54003525Y-144301788D01*
X53891247Y-144133753D01*
X53723212Y-144021475D01*
X53525000Y-143982048D01*
X50775000Y-143982048D01*
X50608000Y-144015267D01*
X50608000Y-141872442D01*
X50693844Y-141908000D01*
X51994000Y-141908000D01*
X52096000Y-141806000D01*
X52096000Y-141054000D01*
X52204000Y-141054000D01*
X52204000Y-141806000D01*
X52306000Y-141908000D01*
X53606156Y-141908000D01*
X53756113Y-141845886D01*
X53870886Y-141731114D01*
X53933000Y-141581156D01*
X53933000Y-141156000D01*
X56117000Y-141156000D01*
X56117000Y-141581156D01*
X56179114Y-141731114D01*
X56293887Y-141845886D01*
X56443844Y-141908000D01*
X57744000Y-141908000D01*
X57846000Y-141806000D01*
X57846000Y-141054000D01*
X57954000Y-141054000D01*
X57954000Y-141806000D01*
X58056000Y-141908000D01*
X59356156Y-141908000D01*
X59506113Y-141845886D01*
X59620886Y-141731114D01*
X59683000Y-141581156D01*
X59683000Y-141156000D01*
X59581000Y-141054000D01*
X57954000Y-141054000D01*
X57846000Y-141054000D01*
X56219000Y-141054000D01*
X56117000Y-141156000D01*
X53933000Y-141156000D01*
X53831000Y-141054000D01*
X52204000Y-141054000D01*
X52096000Y-141054000D01*
X52076000Y-141054000D01*
X52076000Y-140946000D01*
X52096000Y-140946000D01*
X52096000Y-140194000D01*
X52204000Y-140194000D01*
X52204000Y-140946000D01*
X53831000Y-140946000D01*
X53933000Y-140844000D01*
X53933000Y-140418844D01*
X56117000Y-140418844D01*
X56117000Y-140844000D01*
X56219000Y-140946000D01*
X57846000Y-140946000D01*
X57846000Y-140194000D01*
X57954000Y-140194000D01*
X57954000Y-140946000D01*
X59581000Y-140946000D01*
X59683000Y-140844000D01*
X59683000Y-140725000D01*
X59807048Y-140725000D01*
X59807048Y-142075000D01*
X59846475Y-142273212D01*
X59958753Y-142441247D01*
X60126788Y-142553525D01*
X60325000Y-142592952D01*
X61675000Y-142592952D01*
X61873212Y-142553525D01*
X62041247Y-142441247D01*
X62153525Y-142273212D01*
X62161269Y-142234280D01*
X62329010Y-142402314D01*
X62763654Y-142582794D01*
X63234281Y-142583205D01*
X63669240Y-142403483D01*
X64002314Y-142070990D01*
X64052973Y-141948991D01*
X64075998Y-142004579D01*
X64254171Y-142069461D01*
X64923632Y-141400000D01*
X64254171Y-140730539D01*
X64075998Y-140795421D01*
X64053387Y-140851536D01*
X64003483Y-140730760D01*
X63927028Y-140654171D01*
X64330539Y-140654171D01*
X65000000Y-141323632D01*
X65669461Y-140654171D01*
X65604579Y-140475998D01*
X65204958Y-140314972D01*
X64774134Y-140319130D01*
X64395421Y-140475998D01*
X64330539Y-140654171D01*
X63927028Y-140654171D01*
X63670990Y-140397686D01*
X63236346Y-140217206D01*
X62765719Y-140216795D01*
X62330760Y-140396517D01*
X62161268Y-140565714D01*
X62153525Y-140526788D01*
X62041247Y-140358753D01*
X61873212Y-140246475D01*
X61675000Y-140207048D01*
X60325000Y-140207048D01*
X60126788Y-140246475D01*
X59958753Y-140358753D01*
X59846475Y-140526788D01*
X59807048Y-140725000D01*
X59683000Y-140725000D01*
X59683000Y-140418844D01*
X59620886Y-140268886D01*
X59506113Y-140154114D01*
X59356156Y-140092000D01*
X58056000Y-140092000D01*
X57954000Y-140194000D01*
X57846000Y-140194000D01*
X57744000Y-140092000D01*
X56443844Y-140092000D01*
X56293887Y-140154114D01*
X56179114Y-140268886D01*
X56117000Y-140418844D01*
X53933000Y-140418844D01*
X53870886Y-140268886D01*
X53756113Y-140154114D01*
X53606156Y-140092000D01*
X52306000Y-140092000D01*
X52204000Y-140194000D01*
X52096000Y-140194000D01*
X51994000Y-140092000D01*
X50693844Y-140092000D01*
X50608000Y-140127558D01*
X50608000Y-139108000D01*
X109392000Y-139108000D01*
X109392000Y-140901121D01*
D32*
G36*
X51665000Y-147033093D02*
X51665000Y-147091250D01*
X51823750Y-147250000D01*
X52473000Y-147250000D01*
X52473000Y-147203000D01*
X52727000Y-147203000D01*
X52727000Y-147250000D01*
X53376250Y-147250000D01*
X53535000Y-147091250D01*
X53535000Y-147050000D01*
X53963913Y-147050000D01*
X53970390Y-147054328D01*
X54200000Y-147100000D01*
X57354877Y-147100000D01*
X57354725Y-147273893D01*
X57595519Y-147856657D01*
X58040997Y-148302914D01*
X58623341Y-148544724D01*
X59110647Y-148545150D01*
X59005357Y-148650256D01*
X58918801Y-148858705D01*
X58732954Y-148895672D01*
X58538300Y-149025736D01*
X58379035Y-149185001D01*
X57663529Y-149185001D01*
X57604264Y-149125736D01*
X57494653Y-149052496D01*
X57435713Y-148964287D01*
X57258747Y-148846041D01*
X57050000Y-148804519D01*
X56450000Y-148804519D01*
X56241253Y-148846041D01*
X56064287Y-148964287D01*
X55946041Y-149141253D01*
X55904519Y-149350000D01*
X55904519Y-149750000D01*
X55928983Y-149872992D01*
X55911673Y-149890302D01*
X55815000Y-150123691D01*
X55815000Y-150191250D01*
X55973750Y-150350000D01*
X56623000Y-150350000D01*
X56623000Y-150303000D01*
X56877000Y-150303000D01*
X56877000Y-150350000D01*
X57239038Y-150350000D01*
X57415001Y-150385001D01*
X58627563Y-150385001D01*
X58857173Y-150339329D01*
X59001887Y-150242634D01*
X59003963Y-150247658D01*
X59400256Y-150644643D01*
X59918303Y-150859755D01*
X60479236Y-150860245D01*
X60997658Y-150646037D01*
X61394643Y-150249744D01*
X61609755Y-149731697D01*
X61610245Y-149170764D01*
X61527653Y-148970875D01*
X62498528Y-148000000D01*
X64201472Y-148000000D01*
X64293720Y-148092248D01*
X63902342Y-148253963D01*
X63505357Y-148650256D01*
X63290245Y-149168303D01*
X63289755Y-149729236D01*
X63503963Y-150247658D01*
X63900256Y-150644643D01*
X64418303Y-150859755D01*
X64979236Y-150860245D01*
X65497658Y-150646037D01*
X65894643Y-150249744D01*
X66109755Y-149731697D01*
X66110245Y-149170764D01*
X66019027Y-148950000D01*
X66550000Y-148950000D01*
X66779610Y-148904328D01*
X66974264Y-148774264D01*
X68048528Y-147700000D01*
X78660587Y-147700000D01*
X78783112Y-147822740D01*
X79053158Y-147934873D01*
X79345559Y-147935128D01*
X79615800Y-147823466D01*
X79822740Y-147616888D01*
X79846357Y-147560011D01*
X84232700Y-147560011D01*
X84462310Y-147514339D01*
X84656964Y-147384275D01*
X85014239Y-147027000D01*
X85554519Y-147027000D01*
X85554519Y-147800000D01*
X85596041Y-148008747D01*
X85714287Y-148185713D01*
X85891253Y-148303959D01*
X86100000Y-148345481D01*
X88100000Y-148345481D01*
X88308747Y-148303959D01*
X88373413Y-148260750D01*
X91465000Y-148260750D01*
X91465000Y-148901309D01*
X91561673Y-149134698D01*
X91740301Y-149313327D01*
X91973690Y-149410000D01*
X92814250Y-149410000D01*
X92973000Y-149251250D01*
X92973000Y-148102000D01*
X93227000Y-148102000D01*
X93227000Y-149251250D01*
X93385750Y-149410000D01*
X94226310Y-149410000D01*
X94459699Y-149313327D01*
X94638327Y-149134698D01*
X94735000Y-148901309D01*
X94735000Y-148260750D01*
X94576250Y-148102000D01*
X93227000Y-148102000D01*
X92973000Y-148102000D01*
X91623750Y-148102000D01*
X91465000Y-148260750D01*
X88373413Y-148260750D01*
X88485713Y-148185713D01*
X88603959Y-148008747D01*
X88645481Y-147800000D01*
X88645481Y-147027000D01*
X90512018Y-147027000D01*
X90849281Y-147364263D01*
X91043934Y-147494327D01*
X91273545Y-147539999D01*
X91465000Y-147539999D01*
X91465000Y-147689250D01*
X91623750Y-147848000D01*
X92973000Y-147848000D01*
X92973000Y-147828000D01*
X93227000Y-147828000D01*
X93227000Y-147848000D01*
X94576250Y-147848000D01*
X94735000Y-147689250D01*
X94735000Y-147539999D01*
X95970011Y-147539999D01*
X96199621Y-147494327D01*
X96394275Y-147364263D01*
X96731538Y-147027000D01*
X98693371Y-147027000D01*
X98953158Y-147134873D01*
X99245559Y-147135128D01*
X99507247Y-147027000D01*
X99587714Y-147027000D01*
X99783112Y-147222740D01*
X100053158Y-147334873D01*
X100345559Y-147335128D01*
X100615800Y-147223466D01*
X100812610Y-147027000D01*
X103398546Y-147027000D01*
X103951772Y-147580226D01*
X104167513Y-147724380D01*
X104421998Y-147775000D01*
X105313685Y-147775000D01*
X105294110Y-149615000D01*
X105235750Y-149615000D01*
X105077000Y-149773750D01*
X105077000Y-150375000D01*
X105097000Y-150375000D01*
X105097000Y-150625000D01*
X105077000Y-150625000D01*
X105077000Y-150647000D01*
X104823000Y-150647000D01*
X104823000Y-150625000D01*
X104173750Y-150625000D01*
X104015000Y-150783750D01*
X104015000Y-150865000D01*
X99153676Y-150865000D01*
X99894986Y-150123690D01*
X104015000Y-150123690D01*
X104015000Y-150216250D01*
X104173750Y-150375000D01*
X104823000Y-150375000D01*
X104823000Y-149773750D01*
X104664250Y-149615000D01*
X104523691Y-149615000D01*
X104290302Y-149711673D01*
X104111673Y-149890301D01*
X104015000Y-150123690D01*
X99894986Y-150123690D01*
X100074263Y-149944413D01*
X100204327Y-149749759D01*
X100249999Y-149520149D01*
X100249999Y-149249999D01*
X100244109Y-149220390D01*
X100204327Y-149020388D01*
X100185052Y-148991541D01*
X100185128Y-148904441D01*
X100073466Y-148634200D01*
X99866888Y-148427260D01*
X99596842Y-148315127D01*
X99304441Y-148314872D01*
X99034200Y-148426534D01*
X98827260Y-148633112D01*
X98737019Y-148850437D01*
X98666849Y-148879431D01*
X98459909Y-149086009D01*
X98347776Y-149356055D01*
X98347747Y-149389271D01*
X97787018Y-149950000D01*
X96310408Y-149950000D01*
X96080798Y-149995672D01*
X95886144Y-150125736D01*
X95611880Y-150400000D01*
X77648528Y-150400000D01*
X77574721Y-150326193D01*
X77609789Y-150241740D01*
X77610209Y-149760372D01*
X77426386Y-149315486D01*
X77086305Y-148974810D01*
X76641740Y-148790211D01*
X76160372Y-148789791D01*
X75715486Y-148973614D01*
X75576414Y-149112444D01*
X75460713Y-148939287D01*
X75283747Y-148821041D01*
X75075000Y-148779519D01*
X73725000Y-148779519D01*
X73516253Y-148821041D01*
X73339287Y-148939287D01*
X73221041Y-149116253D01*
X73179519Y-149325000D01*
X73179519Y-150675000D01*
X73217312Y-150865000D01*
X57648263Y-150865000D01*
X57685000Y-150776309D01*
X57685000Y-150708750D01*
X57526250Y-150550000D01*
X56877000Y-150550000D01*
X56877000Y-150597000D01*
X56623000Y-150597000D01*
X56623000Y-150550000D01*
X55973750Y-150550000D01*
X55815000Y-150708750D01*
X55815000Y-150776309D01*
X55851737Y-150865000D01*
X52910348Y-150865000D01*
X53283629Y-150492370D01*
X53496757Y-149979100D01*
X53497242Y-149423339D01*
X53285010Y-148909697D01*
X52892370Y-148516371D01*
X52379100Y-148303243D01*
X51823339Y-148302758D01*
X51309697Y-148514990D01*
X50916371Y-148907630D01*
X50802738Y-149181289D01*
X50819467Y-147608750D01*
X51665000Y-147608750D01*
X51665000Y-147676309D01*
X51761673Y-147909698D01*
X51940301Y-148088327D01*
X52173690Y-148185000D01*
X52314250Y-148185000D01*
X52473000Y-148026250D01*
X52473000Y-147450000D01*
X52727000Y-147450000D01*
X52727000Y-148026250D01*
X52885750Y-148185000D01*
X53026310Y-148185000D01*
X53259699Y-148088327D01*
X53438327Y-147909698D01*
X53535000Y-147676309D01*
X53535000Y-147608750D01*
X53376250Y-147450000D01*
X52727000Y-147450000D01*
X52473000Y-147450000D01*
X51823750Y-147450000D01*
X51665000Y-147608750D01*
X50819467Y-147608750D01*
X50825656Y-147027000D01*
X51634369Y-147027000D01*
X51665000Y-147033093D01*
X51665000Y-147033093D01*
G37*
X51665000Y-147033093D02*
X51665000Y-147091250D01*
X51823750Y-147250000D01*
X52473000Y-147250000D01*
X52473000Y-147203000D01*
X52727000Y-147203000D01*
X52727000Y-147250000D01*
X53376250Y-147250000D01*
X53535000Y-147091250D01*
X53535000Y-147050000D01*
X53963913Y-147050000D01*
X53970390Y-147054328D01*
X54200000Y-147100000D01*
X57354877Y-147100000D01*
X57354725Y-147273893D01*
X57595519Y-147856657D01*
X58040997Y-148302914D01*
X58623341Y-148544724D01*
X59110647Y-148545150D01*
X59005357Y-148650256D01*
X58918801Y-148858705D01*
X58732954Y-148895672D01*
X58538300Y-149025736D01*
X58379035Y-149185001D01*
X57663529Y-149185001D01*
X57604264Y-149125736D01*
X57494653Y-149052496D01*
X57435713Y-148964287D01*
X57258747Y-148846041D01*
X57050000Y-148804519D01*
X56450000Y-148804519D01*
X56241253Y-148846041D01*
X56064287Y-148964287D01*
X55946041Y-149141253D01*
X55904519Y-149350000D01*
X55904519Y-149750000D01*
X55928983Y-149872992D01*
X55911673Y-149890302D01*
X55815000Y-150123691D01*
X55815000Y-150191250D01*
X55973750Y-150350000D01*
X56623000Y-150350000D01*
X56623000Y-150303000D01*
X56877000Y-150303000D01*
X56877000Y-150350000D01*
X57239038Y-150350000D01*
X57415001Y-150385001D01*
X58627563Y-150385001D01*
X58857173Y-150339329D01*
X59001887Y-150242634D01*
X59003963Y-150247658D01*
X59400256Y-150644643D01*
X59918303Y-150859755D01*
X60479236Y-150860245D01*
X60997658Y-150646037D01*
X61394643Y-150249744D01*
X61609755Y-149731697D01*
X61610245Y-149170764D01*
X61527653Y-148970875D01*
X62498528Y-148000000D01*
X64201472Y-148000000D01*
X64293720Y-148092248D01*
X63902342Y-148253963D01*
X63505357Y-148650256D01*
X63290245Y-149168303D01*
X63289755Y-149729236D01*
X63503963Y-150247658D01*
X63900256Y-150644643D01*
X64418303Y-150859755D01*
X64979236Y-150860245D01*
X65497658Y-150646037D01*
X65894643Y-150249744D01*
X66109755Y-149731697D01*
X66110245Y-149170764D01*
X66019027Y-148950000D01*
X66550000Y-148950000D01*
X66779610Y-148904328D01*
X66974264Y-148774264D01*
X68048528Y-147700000D01*
X78660587Y-147700000D01*
X78783112Y-147822740D01*
X79053158Y-147934873D01*
X79345559Y-147935128D01*
X79615800Y-147823466D01*
X79822740Y-147616888D01*
X79846357Y-147560011D01*
X84232700Y-147560011D01*
X84462310Y-147514339D01*
X84656964Y-147384275D01*
X85014239Y-147027000D01*
X85554519Y-147027000D01*
X85554519Y-147800000D01*
X85596041Y-148008747D01*
X85714287Y-148185713D01*
X85891253Y-148303959D01*
X86100000Y-148345481D01*
X88100000Y-148345481D01*
X88308747Y-148303959D01*
X88373413Y-148260750D01*
X91465000Y-148260750D01*
X91465000Y-148901309D01*
X91561673Y-149134698D01*
X91740301Y-149313327D01*
X91973690Y-149410000D01*
X92814250Y-149410000D01*
X92973000Y-149251250D01*
X92973000Y-148102000D01*
X93227000Y-148102000D01*
X93227000Y-149251250D01*
X93385750Y-149410000D01*
X94226310Y-149410000D01*
X94459699Y-149313327D01*
X94638327Y-149134698D01*
X94735000Y-148901309D01*
X94735000Y-148260750D01*
X94576250Y-148102000D01*
X93227000Y-148102000D01*
X92973000Y-148102000D01*
X91623750Y-148102000D01*
X91465000Y-148260750D01*
X88373413Y-148260750D01*
X88485713Y-148185713D01*
X88603959Y-148008747D01*
X88645481Y-147800000D01*
X88645481Y-147027000D01*
X90512018Y-147027000D01*
X90849281Y-147364263D01*
X91043934Y-147494327D01*
X91273545Y-147539999D01*
X91465000Y-147539999D01*
X91465000Y-147689250D01*
X91623750Y-147848000D01*
X92973000Y-147848000D01*
X92973000Y-147828000D01*
X93227000Y-147828000D01*
X93227000Y-147848000D01*
X94576250Y-147848000D01*
X94735000Y-147689250D01*
X94735000Y-147539999D01*
X95970011Y-147539999D01*
X96199621Y-147494327D01*
X96394275Y-147364263D01*
X96731538Y-147027000D01*
X98693371Y-147027000D01*
X98953158Y-147134873D01*
X99245559Y-147135128D01*
X99507247Y-147027000D01*
X99587714Y-147027000D01*
X99783112Y-147222740D01*
X100053158Y-147334873D01*
X100345559Y-147335128D01*
X100615800Y-147223466D01*
X100812610Y-147027000D01*
X103398546Y-147027000D01*
X103951772Y-147580226D01*
X104167513Y-147724380D01*
X104421998Y-147775000D01*
X105313685Y-147775000D01*
X105294110Y-149615000D01*
X105235750Y-149615000D01*
X105077000Y-149773750D01*
X105077000Y-150375000D01*
X105097000Y-150375000D01*
X105097000Y-150625000D01*
X105077000Y-150625000D01*
X105077000Y-150647000D01*
X104823000Y-150647000D01*
X104823000Y-150625000D01*
X104173750Y-150625000D01*
X104015000Y-150783750D01*
X104015000Y-150865000D01*
X99153676Y-150865000D01*
X99894986Y-150123690D01*
X104015000Y-150123690D01*
X104015000Y-150216250D01*
X104173750Y-150375000D01*
X104823000Y-150375000D01*
X104823000Y-149773750D01*
X104664250Y-149615000D01*
X104523691Y-149615000D01*
X104290302Y-149711673D01*
X104111673Y-149890301D01*
X104015000Y-150123690D01*
X99894986Y-150123690D01*
X100074263Y-149944413D01*
X100204327Y-149749759D01*
X100249999Y-149520149D01*
X100249999Y-149249999D01*
X100244109Y-149220390D01*
X100204327Y-149020388D01*
X100185052Y-148991541D01*
X100185128Y-148904441D01*
X100073466Y-148634200D01*
X99866888Y-148427260D01*
X99596842Y-148315127D01*
X99304441Y-148314872D01*
X99034200Y-148426534D01*
X98827260Y-148633112D01*
X98737019Y-148850437D01*
X98666849Y-148879431D01*
X98459909Y-149086009D01*
X98347776Y-149356055D01*
X98347747Y-149389271D01*
X97787018Y-149950000D01*
X96310408Y-149950000D01*
X96080798Y-149995672D01*
X95886144Y-150125736D01*
X95611880Y-150400000D01*
X77648528Y-150400000D01*
X77574721Y-150326193D01*
X77609789Y-150241740D01*
X77610209Y-149760372D01*
X77426386Y-149315486D01*
X77086305Y-148974810D01*
X76641740Y-148790211D01*
X76160372Y-148789791D01*
X75715486Y-148973614D01*
X75576414Y-149112444D01*
X75460713Y-148939287D01*
X75283747Y-148821041D01*
X75075000Y-148779519D01*
X73725000Y-148779519D01*
X73516253Y-148821041D01*
X73339287Y-148939287D01*
X73221041Y-149116253D01*
X73179519Y-149325000D01*
X73179519Y-150675000D01*
X73217312Y-150865000D01*
X57648263Y-150865000D01*
X57685000Y-150776309D01*
X57685000Y-150708750D01*
X57526250Y-150550000D01*
X56877000Y-150550000D01*
X56877000Y-150597000D01*
X56623000Y-150597000D01*
X56623000Y-150550000D01*
X55973750Y-150550000D01*
X55815000Y-150708750D01*
X55815000Y-150776309D01*
X55851737Y-150865000D01*
X52910348Y-150865000D01*
X53283629Y-150492370D01*
X53496757Y-149979100D01*
X53497242Y-149423339D01*
X53285010Y-148909697D01*
X52892370Y-148516371D01*
X52379100Y-148303243D01*
X51823339Y-148302758D01*
X51309697Y-148514990D01*
X50916371Y-148907630D01*
X50802738Y-149181289D01*
X50819467Y-147608750D01*
X51665000Y-147608750D01*
X51665000Y-147676309D01*
X51761673Y-147909698D01*
X51940301Y-148088327D01*
X52173690Y-148185000D01*
X52314250Y-148185000D01*
X52473000Y-148026250D01*
X52473000Y-147450000D01*
X52727000Y-147450000D01*
X52727000Y-148026250D01*
X52885750Y-148185000D01*
X53026310Y-148185000D01*
X53259699Y-148088327D01*
X53438327Y-147909698D01*
X53535000Y-147676309D01*
X53535000Y-147608750D01*
X53376250Y-147450000D01*
X52727000Y-147450000D01*
X52473000Y-147450000D01*
X51823750Y-147450000D01*
X51665000Y-147608750D01*
X50819467Y-147608750D01*
X50825656Y-147027000D01*
X51634369Y-147027000D01*
X51665000Y-147033093D01*
M02*
