M48
;DRILL file {KiCad (2016-12-18 revision 3ffa37c)-master} date Saturday, March 25, 2017 'PMt' 08:52:19 PM
;FORMAT={-:-/ absolute / metric / decimal}
FMAT,2
METRIC,TZ
T1C0.100
T2C0.300
T3C0.450
T4C0.650
T5C0.720
T6C0.800
T7C0.990
T8C1.300
%
G90
G05
M71
T1
X80.5Y-143.
X80.5Y-143.8
X81.3Y-143.8
X82.4Y-140.5
X82.4Y-141.1
X83.Y-140.5
X83.Y-141.1
X92.1Y-143.5
X92.6Y-143.25
X92.9Y-142.8
X94.425Y-143.275
X94.875Y-143.725
X100.75Y-139.75
X101.5Y-139.75
X105.65Y-139.7
X106.35Y-139.7
X107.15Y-139.7
T2
X51.1Y-140.2
X52.298Y-143.271
X53.8Y-146.4
X56.2Y-144.295
X72.1Y-144.5
X78.4Y-146.8
X79.083Y-146.827
X79.2Y-141.8
X79.8Y-146.775
X88.2Y-145.7
X91.4Y-139.3
X91.85Y-150.375
X92.Y-139.2
X92.023Y-140.545
X93.2Y-150.795
X93.38Y-140.6
X94.222Y-140.043
X96.725Y-142.875
X96.8Y-147.3
X97.2Y-150.2
X97.425Y-146.95
X100.7Y-150.
X101.Y-146.5
T3
X51.2Y-147.4
X51.5Y-140.8
X51.6Y-144.5
X51.825Y-139.45
X52.8Y-142.5
X56.7Y-142.1
X58.3Y-149.25
X62.2Y-145.2
X62.2Y-147.4
X62.2Y-149.4
X62.9Y-147.4
X62.9Y-149.4
X66.8Y-149.
X67.3Y-143.1
X73.7Y-146.2
X76.2Y-146.2
X80.572Y-146.128
X88.7Y-140.8
X88.823Y-145.281
X89.394Y-149.707
X90.668Y-142.388
X92.974Y-141.217
X94.6Y-148.1
X98.2Y-148.7
X99.375Y-145.6
X99.4Y-150.7
X101.75Y-148.
X104.3Y-150.6
X104.4Y-143.4
X104.7Y-146.4
X107.5Y-150.5
T4
X82.804Y-144.296
X83.702Y-143.398
X83.702Y-145.194
X84.6Y-142.5
X84.6Y-144.296
X85.498Y-141.602
X85.498Y-143.398
X86.396Y-140.704
X86.396Y-142.5
X87.294Y-141.602
T6
X61.Y-141.4
X63.Y-141.4
X65.Y-141.4
X81.2Y-149.4
X83.2Y-149.4
X85.2Y-149.4
T7
X60.2Y-149.45
X64.7Y-149.45
T8
X58.94Y-146.96
X65.95Y-146.96
T5
X107.91Y-141.745G85X108.69Y-141.745
G05
X107.91Y-148.255G85X108.69Y-148.255
G05
T0
M30
