G04 #@! TF.GenerationSoftware,KiCad,Pcbnew,(2016-12-18 revision 3ffa37c)-master*
G04 #@! TF.CreationDate,2017-03-25T21:08:44-07:00*
G04 #@! TF.ProjectId,Pensel,50656E73656C2E6B696361645F706362,rev?*
G04 #@! TF.FileFunction,Soldermask,Bot*
G04 #@! TF.FilePolarity,Negative*
%FSLAX46Y46*%
G04 Gerber Fmt 4.6, Leading zero omitted, Abs format (unit mm)*
G04 Created by KiCad (PCBNEW (2016-12-18 revision 3ffa37c)-master) date Saturday, March 25, 2017 'PMt' 09:08:44 PM*
%MOMM*%
%LPD*%
G01*
G04 APERTURE LIST*
%ADD10C,0.100000*%
%ADD11R,0.900000X1.000000*%
%ADD12O,2.400000X1.520000*%
%ADD13R,2.400000X2.400000*%
%ADD14R,2.400000X2.000000*%
%ADD15C,0.350000*%
%ADD16R,4.057600X2.432000*%
%ADD17R,1.416000X2.432000*%
%ADD18C,1.750000*%
%ADD19R,1.750000X1.750000*%
%ADD20R,3.150000X1.400000*%
%ADD21C,2.500000*%
%ADD22C,2.150000*%
%ADD23C,1.300000*%
%ADD24C,1.450000*%
%ADD25R,1.000000X0.800000*%
G04 APERTURE END LIST*
D10*
D11*
X106000000Y-146350000D03*
X106000000Y-147450000D03*
D12*
X108300000Y-148255000D03*
X108300000Y-141745000D03*
D13*
X86800000Y-146400000D03*
D14*
X92800000Y-145225000D03*
X92800000Y-147575000D03*
D15*
X94425000Y-143275000D03*
X83000000Y-140500000D03*
X83000000Y-141100000D03*
X94875000Y-143725000D03*
D16*
X103250000Y-148552000D03*
D17*
X103250000Y-141948000D03*
X105536000Y-141948000D03*
X100964000Y-141948000D03*
D15*
X107150000Y-139700000D03*
X101500000Y-139750000D03*
X100750000Y-139750000D03*
X82400000Y-140500000D03*
X82400000Y-141100000D03*
D18*
X85200000Y-149400000D03*
X83200000Y-149400000D03*
D19*
X81200000Y-149400000D03*
D15*
X81300000Y-143800000D03*
X80500000Y-143000000D03*
X80500000Y-143800000D03*
X92900000Y-142800000D03*
X92600000Y-143250000D03*
X92100000Y-143500000D03*
X106350000Y-139700000D03*
X105650000Y-139700000D03*
D20*
X70825000Y-145500000D03*
X76575000Y-145500000D03*
X76575000Y-141500000D03*
X70825000Y-141500000D03*
D21*
X58940000Y-146960000D03*
D22*
X60200000Y-149450000D03*
X64700000Y-149450000D03*
D21*
X65950000Y-146960000D03*
D23*
X79200000Y-143700000D03*
X71200000Y-143700000D03*
D11*
X91200000Y-140150000D03*
X91200000Y-141250000D03*
X90000000Y-140150000D03*
X90000000Y-141250000D03*
X100250000Y-145950000D03*
X100250000Y-147050000D03*
X106000000Y-148700000D03*
X106000000Y-149800000D03*
D24*
X86396051Y-140703949D03*
D10*
G36*
X85370746Y-140703949D02*
X86396051Y-139678644D01*
X87421356Y-140703949D01*
X86396051Y-141729254D01*
X85370746Y-140703949D01*
X85370746Y-140703949D01*
G37*
D24*
X85498025Y-141601975D03*
X84600000Y-142500000D03*
X83701974Y-143398026D03*
X82803949Y-144296051D03*
X86396051Y-142500000D03*
X85498025Y-143398026D03*
X84600000Y-144296051D03*
X83701974Y-145194077D03*
X87294077Y-141601975D03*
D19*
X61000000Y-141400000D03*
D18*
X63000000Y-141400000D03*
X65000000Y-141400000D03*
D25*
X68100000Y-142500000D03*
X68100000Y-141600000D03*
X56750000Y-150150000D03*
X56750000Y-149250000D03*
X98350000Y-147400000D03*
X98350000Y-146500000D03*
M02*
