G04 #@! TF.GenerationSoftware,KiCad,Pcbnew,(2016-12-18 revision 3ffa37c)-master*
G04 #@! TF.CreationDate,2017-03-25T20:52:01-07:00*
G04 #@! TF.ProjectId,Pensel,50656E73656C2E6B696361645F706362,rev?*
G04 #@! TF.FileFunction,Copper,L1,Top,Signal*
G04 #@! TF.FilePolarity,Positive*
%FSLAX46Y46*%
G04 Gerber Fmt 4.6, Leading zero omitted, Abs format (unit mm)*
G04 Created by KiCad (PCBNEW (2016-12-18 revision 3ffa37c)-master) date Saturday, March 25, 2017 'PMt' 08:52:01 PM*
%MOMM*%
%LPD*%
G01*
G04 APERTURE LIST*
%ADD10C,0.100000*%
%ADD11C,1.000000*%
%ADD12R,1.350000X0.400000*%
%ADD13R,1.400000X1.600000*%
%ADD14R,1.900000X1.900000*%
%ADD15O,2.000000X1.120000*%
%ADD16C,0.150000*%
%ADD17R,0.400000X0.600000*%
%ADD18C,0.250000*%
%ADD19C,1.725000*%
%ADD20O,0.300000X0.750000*%
%ADD21O,0.750000X0.300000*%
%ADD22C,1.350000*%
%ADD23R,1.350000X1.350000*%
%ADD24C,0.400000*%
%ADD25R,0.500000X0.600000*%
%ADD26C,2.100000*%
%ADD27C,1.750000*%
%ADD28R,0.700000X1.000000*%
%ADD29R,0.600000X0.500000*%
%ADD30R,0.600000X0.400000*%
%ADD31C,1.050000*%
%ADD32C,0.600000*%
%ADD33C,0.130000*%
%ADD34C,0.260000*%
%ADD35C,0.254000*%
G04 APERTURE END LIST*
D10*
D11*
X103350000Y-140700000D03*
D12*
X105825000Y-143700000D03*
X105825000Y-144350000D03*
X105825000Y-146300000D03*
X105825000Y-145650000D03*
D13*
X106050000Y-148200000D03*
D14*
X108500000Y-146200000D03*
D15*
X108300000Y-148255000D03*
X108300000Y-141745000D03*
D14*
X108500000Y-143800000D03*
D13*
X106050000Y-141800000D03*
D12*
X105825000Y-145000000D03*
D16*
X94425000Y-143275000D03*
X83000000Y-140500000D03*
X83000000Y-141100000D03*
X94875000Y-143725000D03*
D17*
X90800000Y-150300000D03*
X89900000Y-150300000D03*
D18*
X92940381Y-141365507D03*
D10*
G36*
X92604505Y-141206408D02*
X92781282Y-141029631D01*
X93276257Y-141524606D01*
X93099480Y-141701383D01*
X92604505Y-141206408D01*
X92604505Y-141206408D01*
G37*
D18*
X92586827Y-141719060D03*
D10*
G36*
X92250951Y-141559961D02*
X92427728Y-141383184D01*
X92922703Y-141878159D01*
X92745926Y-142054936D01*
X92250951Y-141559961D01*
X92250951Y-141559961D01*
G37*
D18*
X92233274Y-142072614D03*
D10*
G36*
X91897398Y-141913515D02*
X92074175Y-141736738D01*
X92569150Y-142231713D01*
X92392373Y-142408490D01*
X91897398Y-141913515D01*
X91897398Y-141913515D01*
G37*
D18*
X91879720Y-142426167D03*
D10*
G36*
X91543844Y-142267068D02*
X91720621Y-142090291D01*
X92215596Y-142585266D01*
X92038819Y-142762043D01*
X91543844Y-142267068D01*
X91543844Y-142267068D01*
G37*
D18*
X91526167Y-142779720D03*
D10*
G36*
X91190291Y-142620621D02*
X91367068Y-142443844D01*
X91862043Y-142938819D01*
X91685266Y-143115596D01*
X91190291Y-142620621D01*
X91190291Y-142620621D01*
G37*
D18*
X91172614Y-143133274D03*
D10*
G36*
X90836738Y-142974175D02*
X91013515Y-142797398D01*
X91508490Y-143292373D01*
X91331713Y-143469150D01*
X90836738Y-142974175D01*
X90836738Y-142974175D01*
G37*
D18*
X90819060Y-143486827D03*
D10*
G36*
X90483184Y-143327728D02*
X90659961Y-143150951D01*
X91154936Y-143645926D01*
X90978159Y-143822703D01*
X90483184Y-143327728D01*
X90483184Y-143327728D01*
G37*
D18*
X90465507Y-143840381D03*
D10*
G36*
X90129631Y-143681282D02*
X90306408Y-143504505D01*
X90801383Y-143999480D01*
X90624606Y-144176257D01*
X90129631Y-143681282D01*
X90129631Y-143681282D01*
G37*
D18*
X90465507Y-144759619D03*
D10*
G36*
X90306408Y-145095495D02*
X90129631Y-144918718D01*
X90624606Y-144423743D01*
X90801383Y-144600520D01*
X90306408Y-145095495D01*
X90306408Y-145095495D01*
G37*
D18*
X90819060Y-145113173D03*
D10*
G36*
X90659961Y-145449049D02*
X90483184Y-145272272D01*
X90978159Y-144777297D01*
X91154936Y-144954074D01*
X90659961Y-145449049D01*
X90659961Y-145449049D01*
G37*
D18*
X91172614Y-145466726D03*
D10*
G36*
X91013515Y-145802602D02*
X90836738Y-145625825D01*
X91331713Y-145130850D01*
X91508490Y-145307627D01*
X91013515Y-145802602D01*
X91013515Y-145802602D01*
G37*
D18*
X91526167Y-145820280D03*
D10*
G36*
X91367068Y-146156156D02*
X91190291Y-145979379D01*
X91685266Y-145484404D01*
X91862043Y-145661181D01*
X91367068Y-146156156D01*
X91367068Y-146156156D01*
G37*
D18*
X91879720Y-146173833D03*
D10*
G36*
X91720621Y-146509709D02*
X91543844Y-146332932D01*
X92038819Y-145837957D01*
X92215596Y-146014734D01*
X91720621Y-146509709D01*
X91720621Y-146509709D01*
G37*
D18*
X92233274Y-146527386D03*
D10*
G36*
X92074175Y-146863262D02*
X91897398Y-146686485D01*
X92392373Y-146191510D01*
X92569150Y-146368287D01*
X92074175Y-146863262D01*
X92074175Y-146863262D01*
G37*
D18*
X92586827Y-146880940D03*
D10*
G36*
X92427728Y-147216816D02*
X92250951Y-147040039D01*
X92745926Y-146545064D01*
X92922703Y-146721841D01*
X92427728Y-147216816D01*
X92427728Y-147216816D01*
G37*
D18*
X92940381Y-147234493D03*
D10*
G36*
X92781282Y-147570369D02*
X92604505Y-147393592D01*
X93099480Y-146898617D01*
X93276257Y-147075394D01*
X92781282Y-147570369D01*
X92781282Y-147570369D01*
G37*
D18*
X93859619Y-147234493D03*
D10*
G36*
X93523743Y-147075394D02*
X93700520Y-146898617D01*
X94195495Y-147393592D01*
X94018718Y-147570369D01*
X93523743Y-147075394D01*
X93523743Y-147075394D01*
G37*
D18*
X94213173Y-146880940D03*
D10*
G36*
X93877297Y-146721841D02*
X94054074Y-146545064D01*
X94549049Y-147040039D01*
X94372272Y-147216816D01*
X93877297Y-146721841D01*
X93877297Y-146721841D01*
G37*
D18*
X94566726Y-146527386D03*
D10*
G36*
X94230850Y-146368287D02*
X94407627Y-146191510D01*
X94902602Y-146686485D01*
X94725825Y-146863262D01*
X94230850Y-146368287D01*
X94230850Y-146368287D01*
G37*
D18*
X94920280Y-146173833D03*
D10*
G36*
X94584404Y-146014734D02*
X94761181Y-145837957D01*
X95256156Y-146332932D01*
X95079379Y-146509709D01*
X94584404Y-146014734D01*
X94584404Y-146014734D01*
G37*
D18*
X95273833Y-145820280D03*
D10*
G36*
X94937957Y-145661181D02*
X95114734Y-145484404D01*
X95609709Y-145979379D01*
X95432932Y-146156156D01*
X94937957Y-145661181D01*
X94937957Y-145661181D01*
G37*
D18*
X95627386Y-145466726D03*
D10*
G36*
X95291510Y-145307627D02*
X95468287Y-145130850D01*
X95963262Y-145625825D01*
X95786485Y-145802602D01*
X95291510Y-145307627D01*
X95291510Y-145307627D01*
G37*
D18*
X95980940Y-145113173D03*
D10*
G36*
X95645064Y-144954074D02*
X95821841Y-144777297D01*
X96316816Y-145272272D01*
X96140039Y-145449049D01*
X95645064Y-144954074D01*
X95645064Y-144954074D01*
G37*
D18*
X96334493Y-144759619D03*
D10*
G36*
X95998617Y-144600520D02*
X96175394Y-144423743D01*
X96670369Y-144918718D01*
X96493592Y-145095495D01*
X95998617Y-144600520D01*
X95998617Y-144600520D01*
G37*
D18*
X96334493Y-143840381D03*
D10*
G36*
X96175394Y-144176257D02*
X95998617Y-143999480D01*
X96493592Y-143504505D01*
X96670369Y-143681282D01*
X96175394Y-144176257D01*
X96175394Y-144176257D01*
G37*
D18*
X95980940Y-143486827D03*
D10*
G36*
X95821841Y-143822703D02*
X95645064Y-143645926D01*
X96140039Y-143150951D01*
X96316816Y-143327728D01*
X95821841Y-143822703D01*
X95821841Y-143822703D01*
G37*
D18*
X95627386Y-143133274D03*
D10*
G36*
X95468287Y-143469150D02*
X95291510Y-143292373D01*
X95786485Y-142797398D01*
X95963262Y-142974175D01*
X95468287Y-143469150D01*
X95468287Y-143469150D01*
G37*
D18*
X95273833Y-142779720D03*
D10*
G36*
X95114734Y-143115596D02*
X94937957Y-142938819D01*
X95432932Y-142443844D01*
X95609709Y-142620621D01*
X95114734Y-143115596D01*
X95114734Y-143115596D01*
G37*
D18*
X94920280Y-142426167D03*
D10*
G36*
X94761181Y-142762043D02*
X94584404Y-142585266D01*
X95079379Y-142090291D01*
X95256156Y-142267068D01*
X94761181Y-142762043D01*
X94761181Y-142762043D01*
G37*
D18*
X94566726Y-142072614D03*
D10*
G36*
X94407627Y-142408490D02*
X94230850Y-142231713D01*
X94725825Y-141736738D01*
X94902602Y-141913515D01*
X94407627Y-142408490D01*
X94407627Y-142408490D01*
G37*
D18*
X94213173Y-141719060D03*
D10*
G36*
X94054074Y-142054936D02*
X93877297Y-141878159D01*
X94372272Y-141383184D01*
X94549049Y-141559961D01*
X94054074Y-142054936D01*
X94054074Y-142054936D01*
G37*
D18*
X93859619Y-141365507D03*
D10*
G36*
X93700520Y-141701383D02*
X93523743Y-141524606D01*
X94018718Y-141029631D01*
X94195495Y-141206408D01*
X93700520Y-141701383D01*
X93700520Y-141701383D01*
G37*
D19*
X93400000Y-145519759D03*
D10*
G36*
X92180241Y-145519759D02*
X93400000Y-144300000D01*
X94619759Y-145519759D01*
X93400000Y-146739518D01*
X92180241Y-145519759D01*
X92180241Y-145519759D01*
G37*
D19*
X94619759Y-144300000D03*
D10*
G36*
X93400000Y-144300000D02*
X94619759Y-143080241D01*
X95839518Y-144300000D01*
X94619759Y-145519759D01*
X93400000Y-144300000D01*
X93400000Y-144300000D01*
G37*
D19*
X92180241Y-144300000D03*
D10*
G36*
X90960482Y-144300000D02*
X92180241Y-143080241D01*
X93400000Y-144300000D01*
X92180241Y-145519759D01*
X90960482Y-144300000D01*
X90960482Y-144300000D01*
G37*
D19*
X93400000Y-143080241D03*
D10*
G36*
X92180241Y-143080241D02*
X93400000Y-141860482D01*
X94619759Y-143080241D01*
X93400000Y-144300000D01*
X92180241Y-143080241D01*
X92180241Y-143080241D01*
G37*
D11*
X54500000Y-149500000D03*
D16*
X107150000Y-139700000D03*
D20*
X52225000Y-141325000D03*
X52725000Y-141325000D03*
X53225000Y-141325000D03*
D21*
X54225000Y-141800000D03*
X54200000Y-142300000D03*
X54200000Y-142800000D03*
X54200000Y-143300000D03*
X54200000Y-143800000D03*
D20*
X53225000Y-144275000D03*
X52725000Y-144275000D03*
X52225000Y-144275000D03*
D21*
X51225000Y-143800000D03*
X51250000Y-143300000D03*
X51250000Y-142800000D03*
X51250000Y-142300000D03*
X51250000Y-141800000D03*
D17*
X88850000Y-150300000D03*
X87950000Y-150300000D03*
D16*
X101500000Y-139750000D03*
X100750000Y-139750000D03*
X82400000Y-140500000D03*
X82400000Y-141100000D03*
D22*
X85200000Y-149400000D03*
X83200000Y-149400000D03*
D23*
X81200000Y-149400000D03*
D16*
X81300000Y-143800000D03*
X80500000Y-143000000D03*
X80500000Y-143800000D03*
X92900000Y-142800000D03*
X92600000Y-143250000D03*
X92100000Y-143500000D03*
D24*
X94681802Y-140431802D03*
D10*
G36*
X95035355Y-140361091D02*
X94611091Y-140785355D01*
X94328249Y-140502513D01*
X94752513Y-140078249D01*
X95035355Y-140361091D01*
X95035355Y-140361091D01*
G37*
D24*
X95318198Y-141068198D03*
D10*
G36*
X95671751Y-140997487D02*
X95247487Y-141421751D01*
X94964645Y-141138909D01*
X95388909Y-140714645D01*
X95671751Y-140997487D01*
X95671751Y-140997487D01*
G37*
D21*
X100575000Y-147400000D03*
X100575000Y-147900000D03*
X100575000Y-148400000D03*
X100575000Y-148900000D03*
X100550000Y-149400000D03*
D20*
X101550000Y-149875000D03*
X102050000Y-149875000D03*
X102550000Y-149875000D03*
D21*
X103525000Y-149400000D03*
X103525000Y-148900000D03*
X103525000Y-148400000D03*
X103525000Y-147900000D03*
X103550000Y-147400000D03*
D20*
X102550000Y-146925000D03*
X102050000Y-146925000D03*
X101550000Y-146925000D03*
D25*
X101820000Y-143060000D03*
X101820000Y-144160000D03*
D16*
X106350000Y-139700000D03*
X105650000Y-139700000D03*
D26*
X58940000Y-146960000D03*
D27*
X60200000Y-149450000D03*
X64700000Y-149450000D03*
D26*
X65950000Y-146960000D03*
D28*
X72200000Y-146200000D03*
X70200000Y-141200000D03*
X76200000Y-146200000D03*
X78200000Y-141200000D03*
D25*
X99300000Y-149850000D03*
X99300000Y-148750000D03*
D29*
X56750000Y-141200000D03*
X55650000Y-141200000D03*
D25*
X99300000Y-146450000D03*
X99300000Y-147550000D03*
D29*
X51250000Y-145900000D03*
X52350000Y-145900000D03*
X93750000Y-149000000D03*
X92650000Y-149000000D03*
X101825000Y-145600000D03*
X100725000Y-145600000D03*
X53650000Y-147400000D03*
X54750000Y-147400000D03*
D30*
X88700000Y-148250000D03*
X88700000Y-149150000D03*
X90000000Y-149150000D03*
X90000000Y-148250000D03*
D31*
X86396051Y-140703949D03*
D10*
G36*
X85653589Y-140703949D02*
X86396051Y-139961487D01*
X87138513Y-140703949D01*
X86396051Y-141446411D01*
X85653589Y-140703949D01*
X85653589Y-140703949D01*
G37*
D31*
X85498025Y-141601975D03*
X84600000Y-142500000D03*
X83701974Y-143398026D03*
X82803949Y-144296051D03*
X86396051Y-142500000D03*
X85498025Y-143398026D03*
X84600000Y-144296051D03*
X83701974Y-145194077D03*
X87294077Y-141601975D03*
D23*
X61000000Y-141400000D03*
D22*
X63000000Y-141400000D03*
X65000000Y-141400000D03*
D30*
X61500000Y-143550000D03*
X61500000Y-144450000D03*
X63000000Y-144450000D03*
X63000000Y-143550000D03*
D17*
X103240000Y-144270000D03*
X104140000Y-144270000D03*
X104140000Y-145590000D03*
X103240000Y-145590000D03*
X52550000Y-147400000D03*
X51650000Y-147400000D03*
D30*
X67400000Y-142300000D03*
X67400000Y-141400000D03*
D17*
X68750000Y-147000000D03*
X67850000Y-147000000D03*
X78850000Y-139900000D03*
X79750000Y-139900000D03*
X52500000Y-148700000D03*
X51600000Y-148700000D03*
D30*
X55650000Y-142300000D03*
X55650000Y-143200000D03*
D24*
X72100000Y-144500000D03*
X53800000Y-146400000D03*
D32*
X99375000Y-145600000D03*
X80571690Y-146128310D03*
X99400000Y-150700000D03*
X104300000Y-150600000D03*
X56700000Y-142100000D03*
X73700000Y-146200000D03*
X76200000Y-146200000D03*
X51600000Y-144499998D03*
X52800000Y-142500000D03*
X104400000Y-143400000D03*
X107500000Y-150500000D03*
X51825000Y-139450000D03*
X98200000Y-148700000D03*
X94600000Y-148100000D03*
X88700000Y-140800000D03*
X51200000Y-147400000D03*
X51500000Y-140800000D03*
X88823191Y-145281447D03*
X67300000Y-143100000D03*
X90668329Y-142388291D03*
X92973601Y-141216817D03*
X58300000Y-149250000D03*
X66800000Y-149000000D03*
X62900000Y-147400000D03*
X62900000Y-149400000D03*
X62200000Y-149400000D03*
X62200000Y-147400000D03*
X62200000Y-145200000D03*
X89394127Y-149706852D03*
X101750000Y-148000002D03*
D24*
X78400000Y-146800000D03*
X79082973Y-146827110D03*
D32*
X104700000Y-146400000D03*
D24*
X79800000Y-146775000D03*
X79200000Y-141800000D03*
X93379990Y-140600000D03*
X97200002Y-150200000D03*
X92000000Y-139200000D03*
X94222089Y-140043499D03*
X96800000Y-147300000D03*
X100700000Y-150000000D03*
X97425002Y-146950000D03*
X91400000Y-139300008D03*
X92022818Y-140544554D03*
X56200000Y-144295010D03*
X52297642Y-143271318D03*
X88200000Y-145700000D03*
X93200000Y-150795010D03*
X91849996Y-150375000D03*
X51100000Y-140200000D03*
X96725000Y-142875000D03*
X101000000Y-146500000D03*
D33*
X91879720Y-142426167D02*
X91085229Y-141631676D01*
X91085229Y-141631676D02*
X90463258Y-141631676D01*
X90463258Y-141631676D02*
X89979901Y-142115034D01*
X89784966Y-142115034D02*
X86705923Y-145194077D01*
X89979901Y-142115034D02*
X89784966Y-142115034D01*
X86705923Y-145194077D02*
X83701974Y-145194077D01*
X83701974Y-145194077D02*
X82577173Y-145194077D01*
X82577173Y-145194077D02*
X81883096Y-144500000D01*
X81883096Y-144500000D02*
X72100000Y-144500000D01*
X53650000Y-147400000D02*
X53650000Y-146550000D01*
X53650000Y-146550000D02*
X53800000Y-146400000D01*
X52550000Y-147400000D02*
X53650000Y-147400000D01*
X51600000Y-148700000D02*
X51600000Y-148450000D01*
X51600000Y-148450000D02*
X52550000Y-147500000D01*
X52550000Y-147500000D02*
X52550000Y-147400000D01*
D34*
X99799264Y-145600000D02*
X99375000Y-145600000D01*
X99300000Y-145675000D02*
X99375000Y-145600000D01*
X99300000Y-146450000D02*
X99300000Y-145675000D01*
X100760000Y-145570000D02*
X100730000Y-145600000D01*
X100730000Y-145600000D02*
X99799264Y-145600000D01*
X92650000Y-149000000D02*
X92650000Y-147524874D01*
X92650000Y-147524874D02*
X92940381Y-147234493D01*
X99400000Y-150700000D02*
X98300000Y-150700000D01*
X98300000Y-150700000D02*
X97900000Y-150300000D01*
X80294945Y-148005055D02*
X79500000Y-148800000D01*
X83805055Y-148005055D02*
X80294945Y-148005055D01*
X85200000Y-149400000D02*
X83805055Y-148005055D01*
X76200000Y-146200000D02*
X80500000Y-146200000D01*
X80500000Y-146200000D02*
X80571690Y-146128310D01*
X99400000Y-150700000D02*
X99400000Y-149950000D01*
X99400000Y-149950000D02*
X99300000Y-149850000D01*
X105386953Y-149500000D02*
X106386953Y-150500000D01*
X105386953Y-149500000D02*
X105386953Y-149513047D01*
X104750000Y-148863047D02*
X105386953Y-149500000D01*
X105386953Y-149513047D02*
X104300000Y-150600000D01*
X56750000Y-141200000D02*
X56750000Y-142050000D01*
X56750000Y-142050000D02*
X56700000Y-142100000D01*
X52500000Y-148700000D02*
X52960000Y-148700000D01*
X52960000Y-148700000D02*
X53709999Y-147950001D01*
X53709999Y-147950001D02*
X54149999Y-147950001D01*
X54149999Y-147950001D02*
X54700000Y-147400000D01*
X54700000Y-147400000D02*
X54750000Y-147400000D01*
X76200000Y-146200000D02*
X73700000Y-146200000D01*
X51599998Y-144500000D02*
X51600000Y-144499998D01*
X51515000Y-144500000D02*
X51599998Y-144500000D01*
X54200000Y-142300000D02*
X53000000Y-142300000D01*
X53000000Y-142300000D02*
X52800000Y-142500000D01*
X54200000Y-143300000D02*
X53600000Y-143300000D01*
X53600000Y-143300000D02*
X52800000Y-142500000D01*
X93859619Y-141365507D02*
X93859619Y-141424426D01*
X93859619Y-141424426D02*
X93400000Y-141884045D01*
X93400000Y-141884045D02*
X93400000Y-143080241D01*
X106386953Y-150500000D02*
X107075736Y-150500000D01*
X51515000Y-144500000D02*
X51225000Y-144210000D01*
X51965010Y-144950010D02*
X51515000Y-144500000D01*
X52725000Y-144275000D02*
X52725000Y-144636410D01*
X52725000Y-144636410D02*
X52411400Y-144950010D01*
X52411400Y-144950010D02*
X51965010Y-144950010D01*
X51225000Y-144210000D02*
X51225000Y-143800000D01*
X52350000Y-145900000D02*
X52725000Y-145525000D01*
X52725000Y-145525000D02*
X52725000Y-144275000D01*
X93859619Y-141365507D02*
X93859619Y-141253985D01*
X93859619Y-141253985D02*
X94681802Y-140431802D01*
X105825000Y-143700000D02*
X104700000Y-143700000D01*
X104700000Y-143700000D02*
X104400000Y-143400000D01*
X91172614Y-143133274D02*
X91800170Y-143760830D01*
X91800170Y-143760830D02*
X92089170Y-143760830D01*
X92089170Y-143760830D02*
X92525001Y-143324999D01*
X92525001Y-143324999D02*
X92600000Y-143250000D01*
X92940381Y-147234493D02*
X93258578Y-146916296D01*
X93258578Y-146916296D02*
X93258578Y-145661181D01*
X93258578Y-145661181D02*
X93400000Y-145519759D01*
X99300000Y-149850000D02*
X100100000Y-149850000D01*
X100100000Y-149850000D02*
X100550000Y-149400000D01*
X106386953Y-150500000D02*
X107500000Y-150500000D01*
X104750000Y-148750000D02*
X104750000Y-148863047D01*
X104750000Y-148000000D02*
X104750000Y-148750000D01*
X104260000Y-148000000D02*
X104750000Y-148000000D01*
X103525000Y-147900000D02*
X104160000Y-147900000D01*
X104160000Y-147900000D02*
X104260000Y-148000000D01*
X104310000Y-148750000D02*
X104750000Y-148750000D01*
X103525000Y-148900000D02*
X104160000Y-148900000D01*
X104160000Y-148900000D02*
X104310000Y-148750000D01*
D33*
X95273833Y-145820280D02*
X95592030Y-146138477D01*
X95592030Y-146138477D02*
X98044719Y-146138477D01*
X98044719Y-146138477D02*
X99268198Y-144914998D01*
X99268198Y-144914998D02*
X101139998Y-144914998D01*
X101139998Y-144914998D02*
X101815000Y-145590000D01*
X101815000Y-145590000D02*
X103240000Y-145590000D01*
X95627386Y-145466726D02*
X95945583Y-145784923D01*
X95945583Y-145784923D02*
X98030562Y-145784923D01*
X101440000Y-144160000D02*
X101820000Y-144160000D01*
X98030562Y-145784923D02*
X99655485Y-144160000D01*
X99655485Y-144160000D02*
X101440000Y-144160000D01*
X101820000Y-144160000D02*
X103130000Y-144160000D01*
X103130000Y-144160000D02*
X103240000Y-144270000D01*
D34*
X101750000Y-148000002D02*
X101149998Y-147400000D01*
X101149998Y-147400000D02*
X100575000Y-147400000D01*
X52249264Y-139450000D02*
X51825000Y-139450000D01*
X53340000Y-139450000D02*
X52249264Y-139450000D01*
X55090000Y-141200000D02*
X53340000Y-139450000D01*
X55650000Y-141200000D02*
X55090000Y-141200000D01*
X55650000Y-142300000D02*
X55650000Y-141200000D01*
X99300000Y-148750000D02*
X98250000Y-148750000D01*
X98250000Y-148750000D02*
X98200000Y-148700000D01*
X94000000Y-148700000D02*
X94600000Y-148100000D01*
X93750000Y-149000000D02*
X93750000Y-148950000D01*
X93750000Y-148950000D02*
X94000000Y-148700000D01*
X94600000Y-147974874D02*
X94600000Y-148100000D01*
X93859619Y-147234493D02*
X94600000Y-147974874D01*
X86396051Y-140703949D02*
X88603949Y-140703949D01*
X88603949Y-140703949D02*
X88700000Y-140800000D01*
X79750000Y-139900000D02*
X80500000Y-139900000D01*
X80500000Y-139900000D02*
X80834990Y-139565010D01*
X80834990Y-139565010D02*
X85800000Y-139565010D01*
X85800000Y-139565010D02*
X85800000Y-140107898D01*
X85800000Y-140107898D02*
X86396051Y-140703949D01*
X51650000Y-147400000D02*
X51200000Y-147400000D01*
X51500000Y-140800000D02*
X51650010Y-140649990D01*
X51250000Y-141050000D02*
X51500000Y-140800000D01*
X51250000Y-141800000D02*
X51250000Y-141050000D01*
X53225000Y-140690000D02*
X53225000Y-141325000D01*
X51650010Y-140649990D02*
X53184990Y-140649990D01*
X53184990Y-140649990D02*
X53225000Y-140690000D01*
X90668329Y-142388291D02*
X90244065Y-142388291D01*
X90244065Y-142388291D02*
X88823191Y-143809165D01*
X88823191Y-143809165D02*
X88823191Y-145281447D01*
X67300000Y-143100000D02*
X67300000Y-146100000D01*
X67300000Y-146100000D02*
X67850000Y-146650000D01*
X67850000Y-146650000D02*
X67850000Y-147000000D01*
X67300000Y-143100000D02*
X67300000Y-142400000D01*
X67300000Y-142400000D02*
X67400000Y-142300000D01*
X91134738Y-142388291D02*
X90668329Y-142388291D01*
X91526167Y-142779720D02*
X91134738Y-142388291D01*
X92973601Y-141332287D02*
X92973601Y-141216817D01*
X92940381Y-141365507D02*
X92973601Y-141332287D01*
X58648002Y-149250000D02*
X58300000Y-149250000D01*
X62200000Y-147400000D02*
X60498002Y-147400000D01*
X60498002Y-147400000D02*
X58648002Y-149250000D01*
X66800000Y-149000000D02*
X67800000Y-148000000D01*
X67800000Y-148000000D02*
X67800000Y-147050000D01*
X67800000Y-147050000D02*
X67850000Y-147000000D01*
X62900000Y-147400000D02*
X64391998Y-147400000D01*
X64391998Y-147400000D02*
X65991998Y-149000000D01*
X65991998Y-149000000D02*
X66800000Y-149000000D01*
X62900000Y-149400000D02*
X62900000Y-147400000D01*
X62200000Y-147400000D02*
X62200000Y-149400000D01*
X62200000Y-145150000D02*
X62200000Y-145200000D01*
X62900000Y-144450000D02*
X62200000Y-145150000D01*
X62200000Y-145050000D02*
X62200000Y-145200000D01*
X63000000Y-144450000D02*
X62900000Y-144450000D01*
X61600000Y-144450000D02*
X62200000Y-145050000D01*
X61500000Y-144450000D02*
X61600000Y-144450000D01*
X89900000Y-150300000D02*
X89900000Y-150212725D01*
X89900000Y-150212725D02*
X89394127Y-149706852D01*
X89900000Y-150300000D02*
X88850000Y-150300000D01*
X101750000Y-148000002D02*
X102049999Y-147700003D01*
X102049999Y-147700003D02*
X102409997Y-147700003D01*
X102409997Y-147700003D02*
X102550000Y-147560000D01*
X102550000Y-147560000D02*
X102550000Y-146925000D01*
X102049999Y-148300001D02*
X101750000Y-148000002D01*
X102050000Y-149875000D02*
X102049999Y-148300001D01*
D33*
X89507051Y-147500000D02*
X89367007Y-147640044D01*
X79240044Y-147640044D02*
X78400000Y-146800000D01*
X89846447Y-147500000D02*
X89507051Y-147500000D01*
X91526167Y-145820280D02*
X89846447Y-147500000D01*
X89367007Y-147640044D02*
X79240044Y-147640044D01*
X79635896Y-147380033D02*
X79082973Y-146827110D01*
X89259307Y-147380033D02*
X79635896Y-147380033D01*
X91172614Y-145466726D02*
X89259307Y-147380033D01*
D34*
X105825000Y-146300000D02*
X104800000Y-146300000D01*
X104800000Y-146300000D02*
X104700000Y-146400000D01*
D33*
X90293542Y-147760011D02*
X91879720Y-146173833D01*
X89619989Y-147760011D02*
X90293542Y-147760011D01*
X89130000Y-148250000D02*
X89619989Y-147760011D01*
X88700000Y-148250000D02*
X89130000Y-148250000D01*
X87950000Y-150300000D02*
X87950000Y-150200000D01*
X87950000Y-150200000D02*
X88700000Y-149450000D01*
X88700000Y-149450000D02*
X88700000Y-149150000D01*
X90800000Y-150300000D02*
X90800000Y-150200000D01*
X90800000Y-150200000D02*
X90000000Y-149400000D01*
X90000000Y-149400000D02*
X90000000Y-149150000D01*
X90000000Y-148250000D02*
X90510660Y-148250000D01*
X90510660Y-148250000D02*
X92233274Y-146527386D01*
X79999999Y-146974999D02*
X79800000Y-146775000D01*
X89047689Y-147120022D02*
X80145022Y-147120022D01*
X90500863Y-145431370D02*
X90500863Y-145666848D01*
X90500863Y-145666848D02*
X89047689Y-147120022D01*
X90819060Y-145113173D02*
X90500863Y-145431370D01*
X80145022Y-147120022D02*
X79999999Y-146974999D01*
X79200000Y-141720000D02*
X79200000Y-141800000D01*
X78680000Y-141200000D02*
X79200000Y-141720000D01*
X78200000Y-141200000D02*
X78680000Y-141200000D01*
X78200000Y-141200000D02*
X78200000Y-140220000D01*
X78200000Y-140220000D02*
X78520000Y-139900000D01*
X78520000Y-139900000D02*
X78850000Y-139900000D01*
X88939989Y-146860011D02*
X82092300Y-146860011D01*
X72680000Y-146200000D02*
X72200000Y-146200000D01*
X82092300Y-146860011D02*
X80592300Y-145360011D01*
X73519989Y-145360011D02*
X72680000Y-146200000D01*
X90465507Y-144759619D02*
X90147310Y-145077816D01*
X80592300Y-145360011D02*
X73519989Y-145360011D01*
X90147310Y-145652690D02*
X88939989Y-146860011D01*
X90147310Y-145077816D02*
X90147310Y-145652690D01*
X68750000Y-147000000D02*
X71550000Y-147000000D01*
X72200000Y-146350000D02*
X72200000Y-146200000D01*
X71550000Y-147000000D02*
X72200000Y-146350000D01*
X68500000Y-146500000D02*
X71200000Y-146500000D01*
X71200000Y-146500000D02*
X71200000Y-145900000D01*
X80700000Y-145100000D02*
X82200000Y-146600000D01*
X68200000Y-143100000D02*
X67800000Y-143500000D01*
X89887300Y-145512700D02*
X89887300Y-144418588D01*
X89220020Y-146179980D02*
X89887300Y-145512700D01*
X71200000Y-145900000D02*
X72000000Y-145100000D01*
X68200000Y-141200000D02*
X68200000Y-143100000D01*
X67800000Y-143500000D02*
X67800000Y-145800000D01*
X67800000Y-145800000D02*
X68500000Y-146500000D01*
X72000000Y-145100000D02*
X80700000Y-145100000D01*
X82200000Y-146600000D02*
X87892252Y-146600000D01*
X87892252Y-146600000D02*
X88312272Y-146179980D01*
X88312272Y-146179980D02*
X89220020Y-146179980D01*
X89887300Y-144418588D02*
X90465507Y-143840381D01*
X68200000Y-141200000D02*
X67600000Y-141200000D01*
X70200000Y-141200000D02*
X68200000Y-141200000D01*
X67600000Y-141200000D02*
X67400000Y-141400000D01*
X92586827Y-141719060D02*
X92268630Y-141400863D01*
X93662832Y-140600000D02*
X93379990Y-140600000D01*
X93665588Y-140600000D02*
X93662832Y-140600000D01*
X94222089Y-140043499D02*
X93665588Y-140600000D01*
X93097148Y-140600000D02*
X93379990Y-140600000D01*
X92268630Y-140883344D02*
X92551974Y-140600000D01*
X92268630Y-141400863D02*
X92268630Y-140883344D01*
X92551974Y-140600000D02*
X93097148Y-140600000D01*
X97000003Y-150000001D02*
X97200002Y-150200000D01*
X96800000Y-149799998D02*
X97000003Y-150000001D01*
X96800000Y-147300000D02*
X96800000Y-149799998D01*
X61000000Y-141400000D02*
X61000000Y-140595000D01*
X61000000Y-140595000D02*
X62695003Y-138899997D01*
X62695003Y-138899997D02*
X91699997Y-138899997D01*
X91699997Y-138899997D02*
X92000000Y-139200000D01*
X52225000Y-144275000D02*
X52225000Y-143770000D01*
X60759287Y-143900000D02*
X60904299Y-143754988D01*
X52225000Y-143770000D02*
X52330010Y-143664990D01*
X52330010Y-143664990D02*
X53352073Y-143664990D01*
X53352073Y-143664990D02*
X53987083Y-144300000D01*
X53987083Y-144300000D02*
X55500000Y-144300000D01*
X55500000Y-144300000D02*
X55900000Y-143900000D01*
X55900000Y-143900000D02*
X60759287Y-143900000D01*
X60904299Y-143754988D02*
X61295012Y-143754988D01*
X61295012Y-143754988D02*
X61500000Y-143550000D01*
X101550000Y-149875000D02*
X100825000Y-149875000D01*
X100825000Y-149875000D02*
X100700000Y-150000000D01*
X61500000Y-143550000D02*
X61500000Y-141900000D01*
X61500000Y-141900000D02*
X61000000Y-141400000D01*
X100350000Y-148900000D02*
X99495001Y-148045001D01*
X100575000Y-148900000D02*
X100350000Y-148900000D01*
X97625001Y-147149999D02*
X97425002Y-146950000D01*
X98520003Y-148045001D02*
X97625001Y-147149999D01*
X99495001Y-148045001D02*
X98520003Y-148045001D01*
X63000000Y-141400000D02*
X65200000Y-139200000D01*
X65200000Y-139200000D02*
X86400002Y-139200000D01*
X86400002Y-139200000D02*
X86500010Y-139300008D01*
X92233274Y-142072614D02*
X91915077Y-141754417D01*
X86500010Y-139300008D02*
X91400000Y-139300008D01*
X91915077Y-140652295D02*
X92022818Y-140544554D01*
X91915077Y-141754417D02*
X91915077Y-140652295D01*
X62570000Y-143550000D02*
X62105001Y-144014999D01*
X62105001Y-144014999D02*
X61011999Y-144014999D01*
X60731988Y-144295010D02*
X56200000Y-144295010D01*
X63000000Y-143550000D02*
X62570000Y-143550000D01*
X61011999Y-144014999D02*
X60731988Y-144295010D01*
X51250000Y-143300000D02*
X52268960Y-143300000D01*
X52268960Y-143300000D02*
X52297642Y-143271318D01*
X63000000Y-143550000D02*
X63000000Y-141400000D01*
X88399999Y-145899999D02*
X88200000Y-145700000D01*
X88982843Y-145899999D02*
X88399999Y-145899999D01*
X89358192Y-143958966D02*
X89358192Y-145524650D01*
X89358192Y-145524650D02*
X88982843Y-145899999D01*
X90819060Y-143486827D02*
X90500863Y-143168630D01*
X90500863Y-143168630D02*
X90148528Y-143168630D01*
X90148528Y-143168630D02*
X89358192Y-143958966D01*
X91296792Y-139695010D02*
X89656801Y-141335001D01*
X91589602Y-139695010D02*
X91296792Y-139695010D01*
X96568630Y-145431370D02*
X97405012Y-144594988D01*
X89656801Y-141335001D02*
X88303513Y-141335001D01*
X92704624Y-139079978D02*
X92189601Y-139595001D01*
X95815400Y-139079978D02*
X92704624Y-139079978D01*
X91689611Y-139595001D02*
X91589602Y-139695010D01*
X97405012Y-144594988D02*
X97405012Y-142627699D01*
X88303513Y-141335001D02*
X88036539Y-141601975D01*
X97405012Y-142627699D02*
X97400000Y-142622687D01*
X92189601Y-139595001D02*
X91689611Y-139595001D01*
X96299137Y-145431370D02*
X96568630Y-145431370D01*
X97400000Y-140664578D02*
X95815400Y-139079978D01*
X97400000Y-142622687D02*
X97400000Y-140664578D01*
X88036539Y-141601975D02*
X87294077Y-141601975D01*
X95980940Y-145113173D02*
X96299137Y-145431370D01*
X97145001Y-143949111D02*
X97145001Y-142735399D01*
X91404492Y-139955021D02*
X89764501Y-141595012D01*
X96334493Y-144759619D02*
X97145001Y-143949111D01*
X97100000Y-142690398D02*
X97100000Y-140732289D01*
X97100000Y-140732289D02*
X95707700Y-139339989D01*
X88664579Y-142500000D02*
X87138513Y-142500000D01*
X89764501Y-141595012D02*
X89569567Y-141595012D01*
X92297301Y-139855012D02*
X91797311Y-139855012D01*
X97145001Y-142735399D02*
X97100000Y-142690398D01*
X92812324Y-139339989D02*
X92297301Y-139855012D01*
X87138513Y-142500000D02*
X86396051Y-142500000D01*
X91697302Y-139955021D02*
X91404492Y-139955021D01*
X91797311Y-139855012D02*
X91697302Y-139955021D01*
X89569567Y-141595012D02*
X88664579Y-142500000D01*
X95707700Y-139339989D02*
X92812324Y-139339989D01*
X89872201Y-141855023D02*
X89677267Y-141855023D01*
X92405001Y-140115023D02*
X91905011Y-140115023D01*
X96299137Y-143168630D02*
X96299137Y-140299137D01*
X91905011Y-140115023D02*
X91805002Y-140215032D01*
X95600000Y-139600000D02*
X92920024Y-139600000D01*
X92920024Y-139600000D02*
X92405001Y-140115023D01*
X88134264Y-143398026D02*
X85498025Y-143398026D01*
X96299137Y-140299137D02*
X95600000Y-139600000D01*
X91512192Y-140215032D02*
X89872201Y-141855023D01*
X95980940Y-143486827D02*
X96299137Y-143168630D01*
X89677267Y-141855023D02*
X88134264Y-143398026D01*
X91805002Y-140215032D02*
X91512192Y-140215032D01*
X94566726Y-146527386D02*
X95400000Y-147360660D01*
X95400000Y-147360660D02*
X95400000Y-149200000D01*
X95400000Y-149200000D02*
X94200000Y-150400000D01*
X92500000Y-150612168D02*
X92500000Y-150895010D01*
X94200000Y-150400000D02*
X92712168Y-150400000D01*
X92712168Y-150400000D02*
X92500000Y-150612168D01*
X92500000Y-150895010D02*
X81890010Y-150895010D01*
X81890010Y-150895010D02*
X81200000Y-150205000D01*
X81200000Y-150205000D02*
X81200000Y-149400000D01*
X95660011Y-149339989D02*
X94204990Y-150795010D01*
X94204990Y-150795010D02*
X93482842Y-150795010D01*
X94920280Y-146173833D02*
X95660011Y-146913564D01*
X93482842Y-150795010D02*
X93200000Y-150795010D01*
X95660011Y-146913564D02*
X95660011Y-149339989D01*
X105825000Y-145650000D02*
X104200000Y-145650000D01*
X104200000Y-145650000D02*
X104140000Y-145590000D01*
X106050000Y-141800000D02*
X108245000Y-141800000D01*
X108245000Y-141800000D02*
X108300000Y-141745000D01*
X108300000Y-141745000D02*
X108300000Y-143600000D01*
X108300000Y-143600000D02*
X108500000Y-143800000D01*
X108500000Y-146200000D02*
X108500000Y-143800000D01*
X108300000Y-148255000D02*
X108300000Y-146400000D01*
X108300000Y-146400000D02*
X108500000Y-146200000D01*
X106050000Y-148200000D02*
X108245000Y-148200000D01*
X108245000Y-148200000D02*
X108300000Y-148255000D01*
X104140000Y-144270000D02*
X104470000Y-144270000D01*
X104470000Y-144270000D02*
X105200000Y-145000000D01*
X105200000Y-145000000D02*
X105825000Y-145000000D01*
X51392843Y-140210001D02*
X51382842Y-140200000D01*
X53347918Y-140210001D02*
X51392843Y-140210001D01*
X54810010Y-142694990D02*
X54810010Y-141672093D01*
X54705000Y-142800000D02*
X54810010Y-142694990D01*
X51382842Y-140200000D02*
X51100000Y-140200000D01*
X54810010Y-141672093D02*
X53347918Y-140210001D01*
X95139990Y-147807757D02*
X95139990Y-149060010D01*
X92049995Y-150175001D02*
X91849996Y-150375000D01*
X95139990Y-149060010D02*
X94249999Y-149950001D01*
X94249999Y-149950001D02*
X92274995Y-149950001D01*
X94213173Y-146880940D02*
X95139990Y-147807757D01*
X92274995Y-149950001D02*
X92049995Y-150175001D01*
X55650000Y-143200000D02*
X55220000Y-143200000D01*
X55220000Y-143200000D02*
X54820000Y-142800000D01*
X54820000Y-142800000D02*
X54705000Y-142800000D01*
X54200000Y-142800000D02*
X54705000Y-142800000D01*
X96725000Y-143449874D02*
X96725000Y-143157842D01*
X96334493Y-143840381D02*
X96725000Y-143449874D01*
X96725000Y-143157842D02*
X96725000Y-142875000D01*
X103525000Y-148400000D02*
X103150000Y-148400000D01*
X103150000Y-148400000D02*
X103000000Y-148250000D01*
X103000000Y-148250000D02*
X103000000Y-148144486D01*
X102914990Y-147740524D02*
X102949666Y-147705848D01*
X103000000Y-148144486D02*
X102914990Y-148059476D01*
X102914990Y-148059476D02*
X102914990Y-147740524D01*
X102949666Y-147705848D02*
X102935010Y-147691192D01*
X102935010Y-147691192D02*
X102935010Y-146540524D01*
X101185010Y-146314990D02*
X101000000Y-146500000D01*
X102935010Y-146540524D02*
X102709476Y-146314990D01*
X102709476Y-146314990D02*
X101185010Y-146314990D01*
X99300000Y-147550000D02*
X99680000Y-147550000D01*
X99680000Y-147550000D02*
X100030000Y-147900000D01*
X100030000Y-147900000D02*
X100575000Y-147900000D01*
X51250000Y-145900000D02*
X51250000Y-145520000D01*
X51250000Y-145520000D02*
X50614990Y-144884990D01*
X50614990Y-142430010D02*
X50745000Y-142300000D01*
X50614990Y-144884990D02*
X50614990Y-142430010D01*
X50745000Y-142300000D02*
X51250000Y-142300000D01*
X94213173Y-141719060D02*
X94864035Y-141068198D01*
X94864035Y-141068198D02*
X95318198Y-141068198D01*
X94213173Y-141719060D02*
X94213173Y-141673223D01*
D35*
G36*
X75373750Y-146073000D02*
X76073000Y-146073000D01*
X76073000Y-146060011D01*
X76327000Y-146060011D01*
X76327000Y-146073000D01*
X77026250Y-146073000D01*
X77039239Y-146060011D01*
X78004341Y-146060011D01*
X77927628Y-146091708D01*
X77692534Y-146326393D01*
X77565145Y-146633179D01*
X77564855Y-146965363D01*
X77691708Y-147272372D01*
X77926393Y-147507466D01*
X78233179Y-147634855D01*
X78244916Y-147634865D01*
X78745067Y-148135016D01*
X78745069Y-148135019D01*
X78852621Y-148206883D01*
X78972165Y-148286760D01*
X79240044Y-148340045D01*
X79240049Y-148340044D01*
X80018512Y-148340044D01*
X79926843Y-148477235D01*
X79877560Y-148725000D01*
X79877560Y-150075000D01*
X79926843Y-150322765D01*
X80067191Y-150532809D01*
X80277235Y-150673157D01*
X80525000Y-150722440D01*
X80727490Y-150722440D01*
X80770050Y-150765000D01*
X65499429Y-150765000D01*
X65582455Y-150512060D01*
X64700000Y-149629605D01*
X63817545Y-150512060D01*
X63900571Y-150765000D01*
X60971609Y-150765000D01*
X61054229Y-150730862D01*
X61479370Y-150306463D01*
X61568785Y-150091128D01*
X61669673Y-150192192D01*
X62013201Y-150334838D01*
X62385167Y-150335162D01*
X62549981Y-150267063D01*
X62713201Y-150334838D01*
X63085167Y-150335162D01*
X63370802Y-150217140D01*
X63384047Y-150249116D01*
X63637940Y-150332455D01*
X64520395Y-149450000D01*
X64506253Y-149435858D01*
X64685858Y-149256253D01*
X64700000Y-149270395D01*
X64714143Y-149256253D01*
X64893748Y-149435858D01*
X64879605Y-149450000D01*
X65762060Y-150332455D01*
X66015953Y-150249116D01*
X66192332Y-149765000D01*
X66242528Y-149765000D01*
X66269673Y-149792192D01*
X66613201Y-149934838D01*
X66985167Y-149935162D01*
X67328943Y-149793117D01*
X67592192Y-149530327D01*
X67734838Y-149186799D01*
X67734873Y-149147001D01*
X68340934Y-148540939D01*
X68340937Y-148540937D01*
X68506768Y-148292753D01*
X68517074Y-148240940D01*
X68565001Y-148000000D01*
X68565000Y-147999995D01*
X68565000Y-147947440D01*
X68950000Y-147947440D01*
X69197765Y-147898157D01*
X69407809Y-147757809D01*
X69446436Y-147700000D01*
X71550000Y-147700000D01*
X71817879Y-147646716D01*
X72044975Y-147494975D01*
X72192510Y-147347440D01*
X72550000Y-147347440D01*
X72797765Y-147298157D01*
X73007809Y-147157809D01*
X73148157Y-146947765D01*
X73197440Y-146700000D01*
X73197440Y-146672510D01*
X73384200Y-146485750D01*
X75215000Y-146485750D01*
X75215000Y-146826310D01*
X75311673Y-147059699D01*
X75490302Y-147238327D01*
X75723691Y-147335000D01*
X75914250Y-147335000D01*
X76073000Y-147176250D01*
X76073000Y-146327000D01*
X76327000Y-146327000D01*
X76327000Y-147176250D01*
X76485750Y-147335000D01*
X76676309Y-147335000D01*
X76909698Y-147238327D01*
X77088327Y-147059699D01*
X77185000Y-146826310D01*
X77185000Y-146485750D01*
X77026250Y-146327000D01*
X76327000Y-146327000D01*
X76073000Y-146327000D01*
X75373750Y-146327000D01*
X75215000Y-146485750D01*
X73384200Y-146485750D01*
X73809939Y-146060011D01*
X75360761Y-146060011D01*
X75373750Y-146073000D01*
X75373750Y-146073000D01*
G37*
X75373750Y-146073000D02*
X76073000Y-146073000D01*
X76073000Y-146060011D01*
X76327000Y-146060011D01*
X76327000Y-146073000D01*
X77026250Y-146073000D01*
X77039239Y-146060011D01*
X78004341Y-146060011D01*
X77927628Y-146091708D01*
X77692534Y-146326393D01*
X77565145Y-146633179D01*
X77564855Y-146965363D01*
X77691708Y-147272372D01*
X77926393Y-147507466D01*
X78233179Y-147634855D01*
X78244916Y-147634865D01*
X78745067Y-148135016D01*
X78745069Y-148135019D01*
X78852621Y-148206883D01*
X78972165Y-148286760D01*
X79240044Y-148340045D01*
X79240049Y-148340044D01*
X80018512Y-148340044D01*
X79926843Y-148477235D01*
X79877560Y-148725000D01*
X79877560Y-150075000D01*
X79926843Y-150322765D01*
X80067191Y-150532809D01*
X80277235Y-150673157D01*
X80525000Y-150722440D01*
X80727490Y-150722440D01*
X80770050Y-150765000D01*
X65499429Y-150765000D01*
X65582455Y-150512060D01*
X64700000Y-149629605D01*
X63817545Y-150512060D01*
X63900571Y-150765000D01*
X60971609Y-150765000D01*
X61054229Y-150730862D01*
X61479370Y-150306463D01*
X61568785Y-150091128D01*
X61669673Y-150192192D01*
X62013201Y-150334838D01*
X62385167Y-150335162D01*
X62549981Y-150267063D01*
X62713201Y-150334838D01*
X63085167Y-150335162D01*
X63370802Y-150217140D01*
X63384047Y-150249116D01*
X63637940Y-150332455D01*
X64520395Y-149450000D01*
X64506253Y-149435858D01*
X64685858Y-149256253D01*
X64700000Y-149270395D01*
X64714143Y-149256253D01*
X64893748Y-149435858D01*
X64879605Y-149450000D01*
X65762060Y-150332455D01*
X66015953Y-150249116D01*
X66192332Y-149765000D01*
X66242528Y-149765000D01*
X66269673Y-149792192D01*
X66613201Y-149934838D01*
X66985167Y-149935162D01*
X67328943Y-149793117D01*
X67592192Y-149530327D01*
X67734838Y-149186799D01*
X67734873Y-149147001D01*
X68340934Y-148540939D01*
X68340937Y-148540937D01*
X68506768Y-148292753D01*
X68517074Y-148240940D01*
X68565001Y-148000000D01*
X68565000Y-147999995D01*
X68565000Y-147947440D01*
X68950000Y-147947440D01*
X69197765Y-147898157D01*
X69407809Y-147757809D01*
X69446436Y-147700000D01*
X71550000Y-147700000D01*
X71817879Y-147646716D01*
X72044975Y-147494975D01*
X72192510Y-147347440D01*
X72550000Y-147347440D01*
X72797765Y-147298157D01*
X73007809Y-147157809D01*
X73148157Y-146947765D01*
X73197440Y-146700000D01*
X73197440Y-146672510D01*
X73384200Y-146485750D01*
X75215000Y-146485750D01*
X75215000Y-146826310D01*
X75311673Y-147059699D01*
X75490302Y-147238327D01*
X75723691Y-147335000D01*
X75914250Y-147335000D01*
X76073000Y-147176250D01*
X76073000Y-146327000D01*
X76327000Y-146327000D01*
X76327000Y-147176250D01*
X76485750Y-147335000D01*
X76676309Y-147335000D01*
X76909698Y-147238327D01*
X77088327Y-147059699D01*
X77185000Y-146826310D01*
X77185000Y-146485750D01*
X77026250Y-146327000D01*
X76327000Y-146327000D01*
X76073000Y-146327000D01*
X75373750Y-146327000D01*
X75215000Y-146485750D01*
X73384200Y-146485750D01*
X73809939Y-146060011D01*
X75360761Y-146060011D01*
X75373750Y-146073000D01*
G36*
X77553284Y-139952121D02*
X77518530Y-140126843D01*
X77511435Y-140162514D01*
X77392191Y-140242191D01*
X77251843Y-140452235D01*
X77202560Y-140700000D01*
X77202560Y-141700000D01*
X77251843Y-141947765D01*
X77392191Y-142157809D01*
X77602235Y-142298157D01*
X77850000Y-142347440D01*
X78550000Y-142347440D01*
X78563888Y-142344678D01*
X78726393Y-142507466D01*
X78985018Y-142614857D01*
X78586200Y-142779646D01*
X78280718Y-143084595D01*
X78115189Y-143483233D01*
X78114912Y-143800000D01*
X72581060Y-143800000D01*
X72573607Y-143792534D01*
X72285024Y-143672704D01*
X72285188Y-143485127D01*
X72120354Y-143086200D01*
X71815405Y-142780718D01*
X71416767Y-142615189D01*
X70985127Y-142614812D01*
X70586200Y-142779646D01*
X70280718Y-143084595D01*
X70115189Y-143483233D01*
X70114812Y-143914873D01*
X70279646Y-144313800D01*
X70584595Y-144619282D01*
X70983233Y-144784811D01*
X71314329Y-144785100D01*
X71317434Y-144792616D01*
X70705025Y-145405025D01*
X70553284Y-145632121D01*
X70521377Y-145792528D01*
X70519891Y-145800000D01*
X68789949Y-145800000D01*
X68500000Y-145510050D01*
X68500000Y-143789949D01*
X68694972Y-143594977D01*
X68694975Y-143594975D01*
X68846716Y-143367878D01*
X68900000Y-143100000D01*
X68900000Y-141900000D01*
X69242342Y-141900000D01*
X69251843Y-141947765D01*
X69392191Y-142157809D01*
X69602235Y-142298157D01*
X69850000Y-142347440D01*
X70550000Y-142347440D01*
X70797765Y-142298157D01*
X71007809Y-142157809D01*
X71148157Y-141947765D01*
X71197440Y-141700000D01*
X71197440Y-140700000D01*
X71148157Y-140452235D01*
X71007809Y-140242191D01*
X70797765Y-140101843D01*
X70550000Y-140052560D01*
X69850000Y-140052560D01*
X69602235Y-140101843D01*
X69392191Y-140242191D01*
X69251843Y-140452235D01*
X69242342Y-140500000D01*
X67600005Y-140500000D01*
X67600000Y-140499999D01*
X67335761Y-140552560D01*
X67100000Y-140552560D01*
X66852235Y-140601843D01*
X66642191Y-140742191D01*
X66501843Y-140952235D01*
X66452560Y-141200000D01*
X66452560Y-141600000D01*
X66501843Y-141847765D01*
X66503336Y-141850000D01*
X66501843Y-141852235D01*
X66452560Y-142100000D01*
X66452560Y-142500000D01*
X66479824Y-142637066D01*
X66365162Y-142913201D01*
X66364838Y-143285167D01*
X66506883Y-143628943D01*
X66535000Y-143657109D01*
X66535000Y-145378422D01*
X66286638Y-145275293D01*
X65616303Y-145274708D01*
X64996771Y-145530694D01*
X64522360Y-146004278D01*
X64265293Y-146623362D01*
X64265283Y-146635000D01*
X63457472Y-146635000D01*
X63430327Y-146607808D01*
X63086799Y-146465162D01*
X62714833Y-146464838D01*
X62550019Y-146532937D01*
X62386799Y-146465162D01*
X62014833Y-146464838D01*
X61671057Y-146606883D01*
X61642891Y-146635000D01*
X60625284Y-146635000D01*
X60625292Y-146626303D01*
X60369306Y-146006771D01*
X59895722Y-145532360D01*
X59276638Y-145275293D01*
X58606303Y-145274708D01*
X57986771Y-145530694D01*
X57512360Y-146004278D01*
X57255293Y-146623362D01*
X57254708Y-147293697D01*
X57510694Y-147913229D01*
X57970950Y-148374289D01*
X57771057Y-148456883D01*
X57507808Y-148719673D01*
X57365162Y-149063201D01*
X57364838Y-149435167D01*
X57506883Y-149778943D01*
X57769673Y-150042192D01*
X58113201Y-150184838D01*
X58485167Y-150185162D01*
X58813829Y-150049362D01*
X58919138Y-150304229D01*
X59343537Y-150729370D01*
X59429344Y-150765000D01*
X55096712Y-150765000D01*
X55290303Y-150685010D01*
X55683629Y-150292370D01*
X55896757Y-149779100D01*
X55897242Y-149223339D01*
X55685010Y-148709697D01*
X55292370Y-148316371D01*
X55196590Y-148276600D01*
X55409698Y-148188327D01*
X55588327Y-148009699D01*
X55685000Y-147776310D01*
X55685000Y-147683750D01*
X55526250Y-147525000D01*
X54877000Y-147525000D01*
X54877000Y-147547000D01*
X54623000Y-147547000D01*
X54623000Y-147525000D01*
X54603000Y-147525000D01*
X54603000Y-147275000D01*
X54623000Y-147275000D01*
X54623000Y-146673750D01*
X54877000Y-146673750D01*
X54877000Y-147275000D01*
X55526250Y-147275000D01*
X55685000Y-147116250D01*
X55685000Y-147023690D01*
X55588327Y-146790301D01*
X55409698Y-146611673D01*
X55176309Y-146515000D01*
X55035750Y-146515000D01*
X54877000Y-146673750D01*
X54623000Y-146673750D01*
X54600003Y-146650753D01*
X54634855Y-146566821D01*
X54635145Y-146234637D01*
X54508292Y-145927628D01*
X54273607Y-145692534D01*
X53966821Y-145565145D01*
X53634637Y-145564855D01*
X53327628Y-145691708D01*
X53246196Y-145772998D01*
X53128252Y-145772998D01*
X53285000Y-145616250D01*
X53285000Y-145523690D01*
X53191573Y-145298138D01*
X53225000Y-145304787D01*
X53525406Y-145245032D01*
X53780079Y-145074866D01*
X53848518Y-144972439D01*
X53987083Y-145000001D01*
X53987088Y-145000000D01*
X55500000Y-145000000D01*
X55686825Y-144962839D01*
X55726393Y-145002476D01*
X56033179Y-145129865D01*
X56365363Y-145130155D01*
X56672372Y-145003302D01*
X56680678Y-144995010D01*
X60666821Y-144995010D01*
X60742191Y-145107809D01*
X60952235Y-145248157D01*
X61200000Y-145297440D01*
X61264914Y-145297440D01*
X61264838Y-145385167D01*
X61406883Y-145728943D01*
X61669673Y-145992192D01*
X62013201Y-146134838D01*
X62385167Y-146135162D01*
X62728943Y-145993117D01*
X62992192Y-145730327D01*
X63134838Y-145386799D01*
X63134916Y-145297440D01*
X63300000Y-145297440D01*
X63547765Y-145248157D01*
X63757809Y-145107809D01*
X63898157Y-144897765D01*
X63947440Y-144650000D01*
X63947440Y-144250000D01*
X63898157Y-144002235D01*
X63896664Y-144000000D01*
X63898157Y-143997765D01*
X63947440Y-143750000D01*
X63947440Y-143350000D01*
X63898157Y-143102235D01*
X63757809Y-142892191D01*
X63700000Y-142853564D01*
X63700000Y-142528187D01*
X63741086Y-142511211D01*
X63935488Y-142317147D01*
X64262458Y-142317147D01*
X64321219Y-142550328D01*
X64813100Y-142722522D01*
X65333434Y-142693375D01*
X65678781Y-142550328D01*
X65737542Y-142317147D01*
X65000000Y-141579605D01*
X64262458Y-142317147D01*
X63935488Y-142317147D01*
X64109916Y-142143024D01*
X64133026Y-142087369D01*
X64820395Y-141400000D01*
X65179605Y-141400000D01*
X65917147Y-142137542D01*
X66150328Y-142078781D01*
X66322522Y-141586900D01*
X66293375Y-141066566D01*
X66150328Y-140721219D01*
X65917147Y-140662458D01*
X65179605Y-141400000D01*
X64820395Y-141400000D01*
X64806253Y-141385858D01*
X64985858Y-141206253D01*
X65000000Y-141220395D01*
X65737542Y-140482853D01*
X65678781Y-140249672D01*
X65279911Y-140110039D01*
X65489950Y-139900000D01*
X77588110Y-139900000D01*
X77553284Y-139952121D01*
X77553284Y-139952121D01*
G37*
X77553284Y-139952121D02*
X77518530Y-140126843D01*
X77511435Y-140162514D01*
X77392191Y-140242191D01*
X77251843Y-140452235D01*
X77202560Y-140700000D01*
X77202560Y-141700000D01*
X77251843Y-141947765D01*
X77392191Y-142157809D01*
X77602235Y-142298157D01*
X77850000Y-142347440D01*
X78550000Y-142347440D01*
X78563888Y-142344678D01*
X78726393Y-142507466D01*
X78985018Y-142614857D01*
X78586200Y-142779646D01*
X78280718Y-143084595D01*
X78115189Y-143483233D01*
X78114912Y-143800000D01*
X72581060Y-143800000D01*
X72573607Y-143792534D01*
X72285024Y-143672704D01*
X72285188Y-143485127D01*
X72120354Y-143086200D01*
X71815405Y-142780718D01*
X71416767Y-142615189D01*
X70985127Y-142614812D01*
X70586200Y-142779646D01*
X70280718Y-143084595D01*
X70115189Y-143483233D01*
X70114812Y-143914873D01*
X70279646Y-144313800D01*
X70584595Y-144619282D01*
X70983233Y-144784811D01*
X71314329Y-144785100D01*
X71317434Y-144792616D01*
X70705025Y-145405025D01*
X70553284Y-145632121D01*
X70521377Y-145792528D01*
X70519891Y-145800000D01*
X68789949Y-145800000D01*
X68500000Y-145510050D01*
X68500000Y-143789949D01*
X68694972Y-143594977D01*
X68694975Y-143594975D01*
X68846716Y-143367878D01*
X68900000Y-143100000D01*
X68900000Y-141900000D01*
X69242342Y-141900000D01*
X69251843Y-141947765D01*
X69392191Y-142157809D01*
X69602235Y-142298157D01*
X69850000Y-142347440D01*
X70550000Y-142347440D01*
X70797765Y-142298157D01*
X71007809Y-142157809D01*
X71148157Y-141947765D01*
X71197440Y-141700000D01*
X71197440Y-140700000D01*
X71148157Y-140452235D01*
X71007809Y-140242191D01*
X70797765Y-140101843D01*
X70550000Y-140052560D01*
X69850000Y-140052560D01*
X69602235Y-140101843D01*
X69392191Y-140242191D01*
X69251843Y-140452235D01*
X69242342Y-140500000D01*
X67600005Y-140500000D01*
X67600000Y-140499999D01*
X67335761Y-140552560D01*
X67100000Y-140552560D01*
X66852235Y-140601843D01*
X66642191Y-140742191D01*
X66501843Y-140952235D01*
X66452560Y-141200000D01*
X66452560Y-141600000D01*
X66501843Y-141847765D01*
X66503336Y-141850000D01*
X66501843Y-141852235D01*
X66452560Y-142100000D01*
X66452560Y-142500000D01*
X66479824Y-142637066D01*
X66365162Y-142913201D01*
X66364838Y-143285167D01*
X66506883Y-143628943D01*
X66535000Y-143657109D01*
X66535000Y-145378422D01*
X66286638Y-145275293D01*
X65616303Y-145274708D01*
X64996771Y-145530694D01*
X64522360Y-146004278D01*
X64265293Y-146623362D01*
X64265283Y-146635000D01*
X63457472Y-146635000D01*
X63430327Y-146607808D01*
X63086799Y-146465162D01*
X62714833Y-146464838D01*
X62550019Y-146532937D01*
X62386799Y-146465162D01*
X62014833Y-146464838D01*
X61671057Y-146606883D01*
X61642891Y-146635000D01*
X60625284Y-146635000D01*
X60625292Y-146626303D01*
X60369306Y-146006771D01*
X59895722Y-145532360D01*
X59276638Y-145275293D01*
X58606303Y-145274708D01*
X57986771Y-145530694D01*
X57512360Y-146004278D01*
X57255293Y-146623362D01*
X57254708Y-147293697D01*
X57510694Y-147913229D01*
X57970950Y-148374289D01*
X57771057Y-148456883D01*
X57507808Y-148719673D01*
X57365162Y-149063201D01*
X57364838Y-149435167D01*
X57506883Y-149778943D01*
X57769673Y-150042192D01*
X58113201Y-150184838D01*
X58485167Y-150185162D01*
X58813829Y-150049362D01*
X58919138Y-150304229D01*
X59343537Y-150729370D01*
X59429344Y-150765000D01*
X55096712Y-150765000D01*
X55290303Y-150685010D01*
X55683629Y-150292370D01*
X55896757Y-149779100D01*
X55897242Y-149223339D01*
X55685010Y-148709697D01*
X55292370Y-148316371D01*
X55196590Y-148276600D01*
X55409698Y-148188327D01*
X55588327Y-148009699D01*
X55685000Y-147776310D01*
X55685000Y-147683750D01*
X55526250Y-147525000D01*
X54877000Y-147525000D01*
X54877000Y-147547000D01*
X54623000Y-147547000D01*
X54623000Y-147525000D01*
X54603000Y-147525000D01*
X54603000Y-147275000D01*
X54623000Y-147275000D01*
X54623000Y-146673750D01*
X54877000Y-146673750D01*
X54877000Y-147275000D01*
X55526250Y-147275000D01*
X55685000Y-147116250D01*
X55685000Y-147023690D01*
X55588327Y-146790301D01*
X55409698Y-146611673D01*
X55176309Y-146515000D01*
X55035750Y-146515000D01*
X54877000Y-146673750D01*
X54623000Y-146673750D01*
X54600003Y-146650753D01*
X54634855Y-146566821D01*
X54635145Y-146234637D01*
X54508292Y-145927628D01*
X54273607Y-145692534D01*
X53966821Y-145565145D01*
X53634637Y-145564855D01*
X53327628Y-145691708D01*
X53246196Y-145772998D01*
X53128252Y-145772998D01*
X53285000Y-145616250D01*
X53285000Y-145523690D01*
X53191573Y-145298138D01*
X53225000Y-145304787D01*
X53525406Y-145245032D01*
X53780079Y-145074866D01*
X53848518Y-144972439D01*
X53987083Y-145000001D01*
X53987088Y-145000000D01*
X55500000Y-145000000D01*
X55686825Y-144962839D01*
X55726393Y-145002476D01*
X56033179Y-145129865D01*
X56365363Y-145130155D01*
X56672372Y-145003302D01*
X56680678Y-144995010D01*
X60666821Y-144995010D01*
X60742191Y-145107809D01*
X60952235Y-145248157D01*
X61200000Y-145297440D01*
X61264914Y-145297440D01*
X61264838Y-145385167D01*
X61406883Y-145728943D01*
X61669673Y-145992192D01*
X62013201Y-146134838D01*
X62385167Y-146135162D01*
X62728943Y-145993117D01*
X62992192Y-145730327D01*
X63134838Y-145386799D01*
X63134916Y-145297440D01*
X63300000Y-145297440D01*
X63547765Y-145248157D01*
X63757809Y-145107809D01*
X63898157Y-144897765D01*
X63947440Y-144650000D01*
X63947440Y-144250000D01*
X63898157Y-144002235D01*
X63896664Y-144000000D01*
X63898157Y-143997765D01*
X63947440Y-143750000D01*
X63947440Y-143350000D01*
X63898157Y-143102235D01*
X63757809Y-142892191D01*
X63700000Y-142853564D01*
X63700000Y-142528187D01*
X63741086Y-142511211D01*
X63935488Y-142317147D01*
X64262458Y-142317147D01*
X64321219Y-142550328D01*
X64813100Y-142722522D01*
X65333434Y-142693375D01*
X65678781Y-142550328D01*
X65737542Y-142317147D01*
X65000000Y-141579605D01*
X64262458Y-142317147D01*
X63935488Y-142317147D01*
X64109916Y-142143024D01*
X64133026Y-142087369D01*
X64820395Y-141400000D01*
X65179605Y-141400000D01*
X65917147Y-142137542D01*
X66150328Y-142078781D01*
X66322522Y-141586900D01*
X66293375Y-141066566D01*
X66150328Y-140721219D01*
X65917147Y-140662458D01*
X65179605Y-141400000D01*
X64820395Y-141400000D01*
X64806253Y-141385858D01*
X64985858Y-141206253D01*
X65000000Y-141220395D01*
X65737542Y-140482853D01*
X65678781Y-140249672D01*
X65279911Y-140110039D01*
X65489950Y-139900000D01*
X77588110Y-139900000D01*
X77553284Y-139952121D01*
G36*
X98013201Y-149634838D02*
X98385167Y-149635162D01*
X98456456Y-149605706D01*
X98573750Y-149723000D01*
X99175000Y-149723000D01*
X99175000Y-149703000D01*
X99425000Y-149703000D01*
X99425000Y-149723000D01*
X99447000Y-149723000D01*
X99447000Y-149977000D01*
X99425000Y-149977000D01*
X99425000Y-149997000D01*
X99175000Y-149997000D01*
X99175000Y-149977000D01*
X98573750Y-149977000D01*
X98415000Y-150135750D01*
X98415000Y-150276309D01*
X98511673Y-150509698D01*
X98690301Y-150688327D01*
X98875406Y-150765000D01*
X97815916Y-150765000D01*
X97907468Y-150673607D01*
X98034857Y-150366821D01*
X98035147Y-150034637D01*
X97908294Y-149727628D01*
X97675813Y-149494741D01*
X98013201Y-149634838D01*
X98013201Y-149634838D01*
G37*
X98013201Y-149634838D02*
X98385167Y-149635162D01*
X98456456Y-149605706D01*
X98573750Y-149723000D01*
X99175000Y-149723000D01*
X99175000Y-149703000D01*
X99425000Y-149703000D01*
X99425000Y-149723000D01*
X99447000Y-149723000D01*
X99447000Y-149977000D01*
X99425000Y-149977000D01*
X99425000Y-149997000D01*
X99175000Y-149997000D01*
X99175000Y-149977000D01*
X98573750Y-149977000D01*
X98415000Y-150135750D01*
X98415000Y-150276309D01*
X98511673Y-150509698D01*
X98690301Y-150688327D01*
X98875406Y-150765000D01*
X97815916Y-150765000D01*
X97907468Y-150673607D01*
X98034857Y-150366821D01*
X98035147Y-150034637D01*
X97908294Y-149727628D01*
X97675813Y-149494741D01*
X98013201Y-149634838D01*
G36*
X104715486Y-147335014D02*
X104702560Y-147400000D01*
X104702560Y-149000000D01*
X104751843Y-149247765D01*
X104892191Y-149457809D01*
X105102235Y-149598157D01*
X105350000Y-149647440D01*
X106750000Y-149647440D01*
X106997765Y-149598157D01*
X107207809Y-149457809D01*
X107303702Y-149314296D01*
X107370661Y-149359036D01*
X107827968Y-149450000D01*
X108772032Y-149450000D01*
X109229339Y-149359036D01*
X109265000Y-149335208D01*
X109265000Y-150765000D01*
X102970183Y-150765000D01*
X103105079Y-150674866D01*
X103275245Y-150420193D01*
X103322028Y-150185000D01*
X103769787Y-150185000D01*
X104070193Y-150125245D01*
X104324866Y-149955079D01*
X104495032Y-149700406D01*
X104554787Y-149400000D01*
X104503517Y-149142252D01*
X104510056Y-149096316D01*
X104468469Y-149059840D01*
X104361668Y-148900000D01*
X104468469Y-148740160D01*
X104510056Y-148703684D01*
X104503517Y-148657748D01*
X104554787Y-148400000D01*
X104503517Y-148142252D01*
X104510056Y-148096316D01*
X104468469Y-148059840D01*
X104374168Y-147918708D01*
X104520032Y-147700406D01*
X104579787Y-147400000D01*
X104566835Y-147334885D01*
X104715486Y-147335014D01*
X104715486Y-147335014D01*
G37*
X104715486Y-147335014D02*
X104702560Y-147400000D01*
X104702560Y-149000000D01*
X104751843Y-149247765D01*
X104892191Y-149457809D01*
X105102235Y-149598157D01*
X105350000Y-149647440D01*
X106750000Y-149647440D01*
X106997765Y-149598157D01*
X107207809Y-149457809D01*
X107303702Y-149314296D01*
X107370661Y-149359036D01*
X107827968Y-149450000D01*
X108772032Y-149450000D01*
X109229339Y-149359036D01*
X109265000Y-149335208D01*
X109265000Y-150765000D01*
X102970183Y-150765000D01*
X103105079Y-150674866D01*
X103275245Y-150420193D01*
X103322028Y-150185000D01*
X103769787Y-150185000D01*
X104070193Y-150125245D01*
X104324866Y-149955079D01*
X104495032Y-149700406D01*
X104554787Y-149400000D01*
X104503517Y-149142252D01*
X104510056Y-149096316D01*
X104468469Y-149059840D01*
X104361668Y-148900000D01*
X104468469Y-148740160D01*
X104510056Y-148703684D01*
X104503517Y-148657748D01*
X104554787Y-148400000D01*
X104503517Y-148142252D01*
X104510056Y-148096316D01*
X104468469Y-148059840D01*
X104374168Y-147918708D01*
X104520032Y-147700406D01*
X104579787Y-147400000D01*
X104566835Y-147334885D01*
X104715486Y-147335014D01*
G36*
X50784418Y-148239838D02*
X50752560Y-148400000D01*
X50752560Y-149000000D01*
X50801843Y-149247765D01*
X50942191Y-149457809D01*
X51152235Y-149598157D01*
X51400000Y-149647440D01*
X51800000Y-149647440D01*
X52047765Y-149598157D01*
X52061916Y-149588701D01*
X52173691Y-149635000D01*
X52241250Y-149635000D01*
X52400000Y-149476250D01*
X52400000Y-149238500D01*
X52447440Y-149000000D01*
X52447440Y-148592510D01*
X52486950Y-148553000D01*
X52600000Y-148553000D01*
X52600000Y-148573000D01*
X52647000Y-148573000D01*
X52647000Y-148827000D01*
X52600000Y-148827000D01*
X52600000Y-149476250D01*
X52758750Y-149635000D01*
X52826309Y-149635000D01*
X53059698Y-149538327D01*
X53103004Y-149495021D01*
X53102758Y-149776661D01*
X53314990Y-150290303D01*
X53707630Y-150683629D01*
X53903593Y-150765000D01*
X50735000Y-150765000D01*
X50735000Y-148219318D01*
X50784418Y-148239838D01*
X50784418Y-148239838D01*
G37*
X50784418Y-148239838D02*
X50752560Y-148400000D01*
X50752560Y-149000000D01*
X50801843Y-149247765D01*
X50942191Y-149457809D01*
X51152235Y-149598157D01*
X51400000Y-149647440D01*
X51800000Y-149647440D01*
X52047765Y-149598157D01*
X52061916Y-149588701D01*
X52173691Y-149635000D01*
X52241250Y-149635000D01*
X52400000Y-149476250D01*
X52400000Y-149238500D01*
X52447440Y-149000000D01*
X52447440Y-148592510D01*
X52486950Y-148553000D01*
X52600000Y-148553000D01*
X52600000Y-148573000D01*
X52647000Y-148573000D01*
X52647000Y-148827000D01*
X52600000Y-148827000D01*
X52600000Y-149476250D01*
X52758750Y-149635000D01*
X52826309Y-149635000D01*
X53059698Y-149538327D01*
X53103004Y-149495021D01*
X53102758Y-149776661D01*
X53314990Y-150290303D01*
X53707630Y-150683629D01*
X53903593Y-150765000D01*
X50735000Y-150765000D01*
X50735000Y-148219318D01*
X50784418Y-148239838D01*
G36*
X84462458Y-148482853D02*
X85200000Y-149220395D01*
X85937542Y-148482853D01*
X85901555Y-148340044D01*
X87752560Y-148340044D01*
X87752560Y-148450000D01*
X87801843Y-148697765D01*
X87803336Y-148700000D01*
X87801843Y-148702235D01*
X87752560Y-148950000D01*
X87752560Y-149350000D01*
X87753069Y-149352560D01*
X87750000Y-149352560D01*
X87502235Y-149401843D01*
X87292191Y-149542191D01*
X87151843Y-149752235D01*
X87102560Y-150000000D01*
X87102560Y-150195010D01*
X86174618Y-150195010D01*
X86117149Y-150137541D01*
X86350328Y-150078781D01*
X86522522Y-149586900D01*
X86493375Y-149066566D01*
X86350328Y-148721219D01*
X86117147Y-148662458D01*
X85379605Y-149400000D01*
X85393748Y-149414143D01*
X85214143Y-149593748D01*
X85200000Y-149579605D01*
X85185858Y-149593748D01*
X85006253Y-149414143D01*
X85020395Y-149400000D01*
X84333674Y-148713279D01*
X84311211Y-148658914D01*
X83992897Y-148340044D01*
X84498445Y-148340044D01*
X84462458Y-148482853D01*
X84462458Y-148482853D01*
G37*
X84462458Y-148482853D02*
X85200000Y-149220395D01*
X85937542Y-148482853D01*
X85901555Y-148340044D01*
X87752560Y-148340044D01*
X87752560Y-148450000D01*
X87801843Y-148697765D01*
X87803336Y-148700000D01*
X87801843Y-148702235D01*
X87752560Y-148950000D01*
X87752560Y-149350000D01*
X87753069Y-149352560D01*
X87750000Y-149352560D01*
X87502235Y-149401843D01*
X87292191Y-149542191D01*
X87151843Y-149752235D01*
X87102560Y-150000000D01*
X87102560Y-150195010D01*
X86174618Y-150195010D01*
X86117149Y-150137541D01*
X86350328Y-150078781D01*
X86522522Y-149586900D01*
X86493375Y-149066566D01*
X86350328Y-148721219D01*
X86117147Y-148662458D01*
X85379605Y-149400000D01*
X85393748Y-149414143D01*
X85214143Y-149593748D01*
X85200000Y-149579605D01*
X85185858Y-149593748D01*
X85006253Y-149414143D01*
X85020395Y-149400000D01*
X84333674Y-148713279D01*
X84311211Y-148658914D01*
X83992897Y-148340044D01*
X84498445Y-148340044D01*
X84462458Y-148482853D01*
G36*
X92057961Y-147733454D02*
X92066178Y-147753290D01*
X92087434Y-147774546D01*
X92119460Y-147774546D01*
X92179963Y-147814973D01*
X92403771Y-147859491D01*
X92400328Y-147862934D01*
X92400328Y-148087440D01*
X92421584Y-148108696D01*
X92522998Y-148150703D01*
X92522998Y-148273748D01*
X92364250Y-148115000D01*
X92223691Y-148115000D01*
X91990302Y-148211673D01*
X91811673Y-148390301D01*
X91715000Y-148623690D01*
X91715000Y-148716250D01*
X91873750Y-148875000D01*
X92523000Y-148875000D01*
X92523000Y-148853000D01*
X92777000Y-148853000D01*
X92777000Y-148875000D01*
X92797000Y-148875000D01*
X92797000Y-149125000D01*
X92777000Y-149125000D01*
X92777000Y-149147000D01*
X92523000Y-149147000D01*
X92523000Y-149125000D01*
X91873750Y-149125000D01*
X91715000Y-149283750D01*
X91715000Y-149376310D01*
X91757099Y-149477947D01*
X91695182Y-149539864D01*
X91684633Y-149539855D01*
X91505660Y-149613805D01*
X91457809Y-149542191D01*
X91247765Y-149401843D01*
X91000000Y-149352560D01*
X90946931Y-149352560D01*
X90947440Y-149350000D01*
X90947440Y-148950000D01*
X90918270Y-148803351D01*
X91005635Y-148744975D01*
X91710801Y-148039809D01*
X92352696Y-148039809D01*
X92400328Y-148087441D01*
X92400328Y-148087440D01*
X92352696Y-148039809D01*
X91710801Y-148039809D01*
X91976064Y-147774546D01*
X92087433Y-147774546D01*
X92172378Y-147859491D01*
X92087434Y-147774546D01*
X92087433Y-147774546D01*
X91976064Y-147774546D01*
X92033501Y-147717109D01*
X92057961Y-147733454D01*
X92057961Y-147733454D01*
G37*
X92057961Y-147733454D02*
X92066178Y-147753290D01*
X92087434Y-147774546D01*
X92119460Y-147774546D01*
X92179963Y-147814973D01*
X92403771Y-147859491D01*
X92400328Y-147862934D01*
X92400328Y-148087440D01*
X92421584Y-148108696D01*
X92522998Y-148150703D01*
X92522998Y-148273748D01*
X92364250Y-148115000D01*
X92223691Y-148115000D01*
X91990302Y-148211673D01*
X91811673Y-148390301D01*
X91715000Y-148623690D01*
X91715000Y-148716250D01*
X91873750Y-148875000D01*
X92523000Y-148875000D01*
X92523000Y-148853000D01*
X92777000Y-148853000D01*
X92777000Y-148875000D01*
X92797000Y-148875000D01*
X92797000Y-149125000D01*
X92777000Y-149125000D01*
X92777000Y-149147000D01*
X92523000Y-149147000D01*
X92523000Y-149125000D01*
X91873750Y-149125000D01*
X91715000Y-149283750D01*
X91715000Y-149376310D01*
X91757099Y-149477947D01*
X91695182Y-149539864D01*
X91684633Y-149539855D01*
X91505660Y-149613805D01*
X91457809Y-149542191D01*
X91247765Y-149401843D01*
X91000000Y-149352560D01*
X90946931Y-149352560D01*
X90947440Y-149350000D01*
X90947440Y-148950000D01*
X90918270Y-148803351D01*
X91005635Y-148744975D01*
X91710801Y-148039809D01*
X92352696Y-148039809D01*
X92400328Y-148087441D01*
X92400328Y-148087440D01*
X92352696Y-148039809D01*
X91710801Y-148039809D01*
X91976064Y-147774546D01*
X92087433Y-147774546D01*
X92172378Y-147859491D01*
X92087434Y-147774546D01*
X92087433Y-147774546D01*
X91976064Y-147774546D01*
X92033501Y-147717109D01*
X92057961Y-147733454D01*
G36*
X99425000Y-146323000D02*
X99447000Y-146323000D01*
X99447000Y-146577000D01*
X99425000Y-146577000D01*
X99425000Y-146597000D01*
X99175000Y-146597000D01*
X99175000Y-146577000D01*
X99153000Y-146577000D01*
X99153000Y-146323000D01*
X99175000Y-146323000D01*
X99175000Y-146303000D01*
X99425000Y-146303000D01*
X99425000Y-146323000D01*
X99425000Y-146323000D01*
G37*
X99425000Y-146323000D02*
X99447000Y-146323000D01*
X99447000Y-146577000D01*
X99425000Y-146577000D01*
X99425000Y-146597000D01*
X99175000Y-146597000D01*
X99175000Y-146577000D01*
X99153000Y-146577000D01*
X99153000Y-146323000D01*
X99175000Y-146323000D01*
X99175000Y-146303000D01*
X99425000Y-146303000D01*
X99425000Y-146323000D01*
G36*
X52477000Y-145775000D02*
X52497000Y-145775000D01*
X52497000Y-146025000D01*
X52477000Y-146025000D01*
X52477000Y-146047000D01*
X52223000Y-146047000D01*
X52223000Y-146025000D01*
X52203000Y-146025000D01*
X52203000Y-145775000D01*
X52223000Y-145775000D01*
X52223000Y-145753000D01*
X52477000Y-145753000D01*
X52477000Y-145775000D01*
X52477000Y-145775000D01*
G37*
X52477000Y-145775000D02*
X52497000Y-145775000D01*
X52497000Y-146025000D01*
X52477000Y-146025000D01*
X52477000Y-146047000D01*
X52223000Y-146047000D01*
X52223000Y-146025000D01*
X52203000Y-146025000D01*
X52203000Y-145775000D01*
X52223000Y-145775000D01*
X52223000Y-145753000D01*
X52477000Y-145753000D01*
X52477000Y-145775000D01*
G36*
X93593748Y-143066099D02*
X93579605Y-143080241D01*
X94619759Y-144120395D01*
X94633902Y-144106253D01*
X94813507Y-144285858D01*
X94799364Y-144300000D01*
X94813507Y-144314143D01*
X94633902Y-144493748D01*
X94619759Y-144479605D01*
X93579605Y-145519759D01*
X93593748Y-145533902D01*
X93414143Y-145713507D01*
X93400000Y-145699364D01*
X93385858Y-145713507D01*
X93206253Y-145533902D01*
X93220395Y-145519759D01*
X92180241Y-144479605D01*
X92166099Y-144493748D01*
X91986494Y-144314143D01*
X92000636Y-144300000D01*
X92359846Y-144300000D01*
X93400000Y-145340154D01*
X94440154Y-144300000D01*
X93400000Y-143259846D01*
X92359846Y-144300000D01*
X92000636Y-144300000D01*
X91986494Y-144285858D01*
X92166099Y-144106253D01*
X92180241Y-144120395D01*
X93220395Y-143080241D01*
X93206253Y-143066099D01*
X93385858Y-142886494D01*
X93400000Y-142900636D01*
X93414143Y-142886494D01*
X93593748Y-143066099D01*
X93593748Y-143066099D01*
G37*
X93593748Y-143066099D02*
X93579605Y-143080241D01*
X94619759Y-144120395D01*
X94633902Y-144106253D01*
X94813507Y-144285858D01*
X94799364Y-144300000D01*
X94813507Y-144314143D01*
X94633902Y-144493748D01*
X94619759Y-144479605D01*
X93579605Y-145519759D01*
X93593748Y-145533902D01*
X93414143Y-145713507D01*
X93400000Y-145699364D01*
X93385858Y-145713507D01*
X93206253Y-145533902D01*
X93220395Y-145519759D01*
X92180241Y-144479605D01*
X92166099Y-144493748D01*
X91986494Y-144314143D01*
X92000636Y-144300000D01*
X92359846Y-144300000D01*
X93400000Y-145340154D01*
X94440154Y-144300000D01*
X93400000Y-143259846D01*
X92359846Y-144300000D01*
X92000636Y-144300000D01*
X91986494Y-144285858D01*
X92166099Y-144106253D01*
X92180241Y-144120395D01*
X93220395Y-143080241D01*
X93206253Y-143066099D01*
X93385858Y-142886494D01*
X93400000Y-142900636D01*
X93414143Y-142886494D01*
X93593748Y-143066099D01*
G36*
X109265000Y-140664792D02*
X109229339Y-140640964D01*
X108772032Y-140550000D01*
X107827968Y-140550000D01*
X107370661Y-140640964D01*
X107303702Y-140685704D01*
X107207809Y-140542191D01*
X106997765Y-140401843D01*
X106750000Y-140352560D01*
X105350000Y-140352560D01*
X105102235Y-140401843D01*
X104892191Y-140542191D01*
X104751843Y-140752235D01*
X104746933Y-140776917D01*
X104747242Y-140423339D01*
X104535010Y-139909697D01*
X104142370Y-139516371D01*
X103629100Y-139303243D01*
X103073339Y-139302758D01*
X102559697Y-139514990D01*
X102166371Y-139907630D01*
X101953243Y-140420900D01*
X101952758Y-140976661D01*
X102164990Y-141490303D01*
X102557630Y-141883629D01*
X103070900Y-142096757D01*
X103626661Y-142097242D01*
X104140303Y-141885010D01*
X104533629Y-141492370D01*
X104702560Y-141085538D01*
X104702560Y-142600000D01*
X104751843Y-142847765D01*
X104819792Y-142949457D01*
X104790301Y-142961673D01*
X104611673Y-143140302D01*
X104521246Y-143358612D01*
X104340000Y-143322560D01*
X103940000Y-143322560D01*
X103692235Y-143371843D01*
X103690000Y-143373336D01*
X103687765Y-143371843D01*
X103440000Y-143322560D01*
X103040000Y-143322560D01*
X102792235Y-143371843D01*
X102705000Y-143430132D01*
X102705000Y-143345750D01*
X102546250Y-143187000D01*
X101945000Y-143187000D01*
X101945000Y-143207000D01*
X101695000Y-143207000D01*
X101695000Y-143187000D01*
X101093750Y-143187000D01*
X100935000Y-143345750D01*
X100935000Y-143460000D01*
X99655485Y-143460000D01*
X99387606Y-143513284D01*
X99160510Y-143665025D01*
X98073842Y-144751693D01*
X98105013Y-144594988D01*
X98105012Y-144594983D01*
X98105012Y-142633691D01*
X100935000Y-142633691D01*
X100935000Y-142774250D01*
X101093750Y-142933000D01*
X101695000Y-142933000D01*
X101695000Y-142283750D01*
X101945000Y-142283750D01*
X101945000Y-142933000D01*
X102546250Y-142933000D01*
X102705000Y-142774250D01*
X102705000Y-142633691D01*
X102608327Y-142400302D01*
X102429699Y-142221673D01*
X102196310Y-142125000D01*
X102103750Y-142125000D01*
X101945000Y-142283750D01*
X101695000Y-142283750D01*
X101536250Y-142125000D01*
X101443690Y-142125000D01*
X101210301Y-142221673D01*
X101031673Y-142400302D01*
X100935000Y-142633691D01*
X98105012Y-142633691D01*
X98105012Y-142627699D01*
X98100000Y-142602502D01*
X98100000Y-140664578D01*
X98085626Y-140592315D01*
X98046716Y-140396699D01*
X97894975Y-140169603D01*
X96960372Y-139235000D01*
X109265000Y-139235000D01*
X109265000Y-140664792D01*
X109265000Y-140664792D01*
G37*
X109265000Y-140664792D02*
X109229339Y-140640964D01*
X108772032Y-140550000D01*
X107827968Y-140550000D01*
X107370661Y-140640964D01*
X107303702Y-140685704D01*
X107207809Y-140542191D01*
X106997765Y-140401843D01*
X106750000Y-140352560D01*
X105350000Y-140352560D01*
X105102235Y-140401843D01*
X104892191Y-140542191D01*
X104751843Y-140752235D01*
X104746933Y-140776917D01*
X104747242Y-140423339D01*
X104535010Y-139909697D01*
X104142370Y-139516371D01*
X103629100Y-139303243D01*
X103073339Y-139302758D01*
X102559697Y-139514990D01*
X102166371Y-139907630D01*
X101953243Y-140420900D01*
X101952758Y-140976661D01*
X102164990Y-141490303D01*
X102557630Y-141883629D01*
X103070900Y-142096757D01*
X103626661Y-142097242D01*
X104140303Y-141885010D01*
X104533629Y-141492370D01*
X104702560Y-141085538D01*
X104702560Y-142600000D01*
X104751843Y-142847765D01*
X104819792Y-142949457D01*
X104790301Y-142961673D01*
X104611673Y-143140302D01*
X104521246Y-143358612D01*
X104340000Y-143322560D01*
X103940000Y-143322560D01*
X103692235Y-143371843D01*
X103690000Y-143373336D01*
X103687765Y-143371843D01*
X103440000Y-143322560D01*
X103040000Y-143322560D01*
X102792235Y-143371843D01*
X102705000Y-143430132D01*
X102705000Y-143345750D01*
X102546250Y-143187000D01*
X101945000Y-143187000D01*
X101945000Y-143207000D01*
X101695000Y-143207000D01*
X101695000Y-143187000D01*
X101093750Y-143187000D01*
X100935000Y-143345750D01*
X100935000Y-143460000D01*
X99655485Y-143460000D01*
X99387606Y-143513284D01*
X99160510Y-143665025D01*
X98073842Y-144751693D01*
X98105013Y-144594988D01*
X98105012Y-144594983D01*
X98105012Y-142633691D01*
X100935000Y-142633691D01*
X100935000Y-142774250D01*
X101093750Y-142933000D01*
X101695000Y-142933000D01*
X101695000Y-142283750D01*
X101945000Y-142283750D01*
X101945000Y-142933000D01*
X102546250Y-142933000D01*
X102705000Y-142774250D01*
X102705000Y-142633691D01*
X102608327Y-142400302D01*
X102429699Y-142221673D01*
X102196310Y-142125000D01*
X102103750Y-142125000D01*
X101945000Y-142283750D01*
X101695000Y-142283750D01*
X101536250Y-142125000D01*
X101443690Y-142125000D01*
X101210301Y-142221673D01*
X101031673Y-142400302D01*
X100935000Y-142633691D01*
X98105012Y-142633691D01*
X98105012Y-142627699D01*
X98100000Y-142602502D01*
X98100000Y-140664578D01*
X98085626Y-140592315D01*
X98046716Y-140396699D01*
X97894975Y-140169603D01*
X96960372Y-139235000D01*
X109265000Y-139235000D01*
X109265000Y-140664792D01*
G36*
X82718000Y-144054255D02*
X82959511Y-144296187D01*
X82814245Y-144441199D01*
X82542097Y-144169051D01*
X82676949Y-144169051D01*
X82676949Y-143954904D01*
X82718000Y-144054255D01*
X82718000Y-144054255D01*
G37*
X82718000Y-144054255D02*
X82959511Y-144296187D01*
X82814245Y-144441199D01*
X82542097Y-144169051D01*
X82676949Y-144169051D01*
X82676949Y-143954904D01*
X82718000Y-144054255D01*
G36*
X85093073Y-140399851D02*
X85055432Y-140456184D01*
X85039891Y-140534317D01*
X84775340Y-140665723D01*
X84472063Y-141013551D01*
X84356481Y-141292589D01*
X84481955Y-141474975D01*
X84740017Y-141474975D01*
X84727000Y-141483930D01*
X84727000Y-141728975D01*
X84481955Y-141728975D01*
X84473000Y-141741992D01*
X84473000Y-141483930D01*
X84290614Y-141358456D01*
X83877315Y-141563748D01*
X83574038Y-141911576D01*
X83458456Y-142190614D01*
X83490946Y-142237841D01*
X83472248Y-142237825D01*
X83045745Y-142414052D01*
X82719147Y-142740081D01*
X82542176Y-143166275D01*
X82542158Y-143187250D01*
X82494563Y-143154507D01*
X82081264Y-143359799D01*
X81777987Y-143707627D01*
X81739725Y-143800000D01*
X80284913Y-143800000D01*
X80285188Y-143485127D01*
X80120354Y-143086200D01*
X79815405Y-142780718D01*
X79416767Y-142615189D01*
X79413667Y-142615186D01*
X79672372Y-142508292D01*
X79907466Y-142273607D01*
X80034855Y-141966821D01*
X80035145Y-141634637D01*
X79908292Y-141327628D01*
X79673607Y-141092534D01*
X79483576Y-141013626D01*
X79273028Y-140803078D01*
X79297765Y-140798157D01*
X79300000Y-140796664D01*
X79302235Y-140798157D01*
X79550000Y-140847440D01*
X79950000Y-140847440D01*
X80197765Y-140798157D01*
X80397047Y-140665000D01*
X80500000Y-140665000D01*
X80792753Y-140606768D01*
X81040937Y-140440937D01*
X81151864Y-140330010D01*
X85079181Y-140330010D01*
X85093073Y-140399851D01*
X85093073Y-140399851D01*
G37*
X85093073Y-140399851D02*
X85055432Y-140456184D01*
X85039891Y-140534317D01*
X84775340Y-140665723D01*
X84472063Y-141013551D01*
X84356481Y-141292589D01*
X84481955Y-141474975D01*
X84740017Y-141474975D01*
X84727000Y-141483930D01*
X84727000Y-141728975D01*
X84481955Y-141728975D01*
X84473000Y-141741992D01*
X84473000Y-141483930D01*
X84290614Y-141358456D01*
X83877315Y-141563748D01*
X83574038Y-141911576D01*
X83458456Y-142190614D01*
X83490946Y-142237841D01*
X83472248Y-142237825D01*
X83045745Y-142414052D01*
X82719147Y-142740081D01*
X82542176Y-143166275D01*
X82542158Y-143187250D01*
X82494563Y-143154507D01*
X82081264Y-143359799D01*
X81777987Y-143707627D01*
X81739725Y-143800000D01*
X80284913Y-143800000D01*
X80285188Y-143485127D01*
X80120354Y-143086200D01*
X79815405Y-142780718D01*
X79416767Y-142615189D01*
X79413667Y-142615186D01*
X79672372Y-142508292D01*
X79907466Y-142273607D01*
X80034855Y-141966821D01*
X80035145Y-141634637D01*
X79908292Y-141327628D01*
X79673607Y-141092534D01*
X79483576Y-141013626D01*
X79273028Y-140803078D01*
X79297765Y-140798157D01*
X79300000Y-140796664D01*
X79302235Y-140798157D01*
X79550000Y-140847440D01*
X79950000Y-140847440D01*
X80197765Y-140798157D01*
X80397047Y-140665000D01*
X80500000Y-140665000D01*
X80792753Y-140606768D01*
X81040937Y-140440937D01*
X81151864Y-140330010D01*
X85079181Y-140330010D01*
X85093073Y-140399851D01*
G36*
X60527490Y-140077560D02*
X60325000Y-140077560D01*
X60077235Y-140126843D01*
X59867191Y-140267191D01*
X59726843Y-140477235D01*
X59677560Y-140725000D01*
X59677560Y-142075000D01*
X59726843Y-142322765D01*
X59867191Y-142532809D01*
X60077235Y-142673157D01*
X60325000Y-142722440D01*
X60800000Y-142722440D01*
X60800000Y-142853564D01*
X60742191Y-142892191D01*
X60601843Y-143102235D01*
X60595158Y-143135842D01*
X60499140Y-143200000D01*
X56597440Y-143200000D01*
X56597440Y-143000000D01*
X56548157Y-142752235D01*
X56546664Y-142750000D01*
X56548157Y-142747765D01*
X56597440Y-142500000D01*
X56597440Y-142100000D01*
X56572854Y-141976396D01*
X56623000Y-141926250D01*
X56623000Y-141325000D01*
X56877000Y-141325000D01*
X56877000Y-141926250D01*
X57035750Y-142085000D01*
X57176309Y-142085000D01*
X57409698Y-141988327D01*
X57588327Y-141809699D01*
X57685000Y-141576310D01*
X57685000Y-141483750D01*
X57526250Y-141325000D01*
X56877000Y-141325000D01*
X56623000Y-141325000D01*
X56603000Y-141325000D01*
X56603000Y-141075000D01*
X56623000Y-141075000D01*
X56623000Y-140473750D01*
X56877000Y-140473750D01*
X56877000Y-141075000D01*
X57526250Y-141075000D01*
X57685000Y-140916250D01*
X57685000Y-140823690D01*
X57588327Y-140590301D01*
X57409698Y-140411673D01*
X57176309Y-140315000D01*
X57035750Y-140315000D01*
X56877000Y-140473750D01*
X56623000Y-140473750D01*
X56464250Y-140315000D01*
X56323691Y-140315000D01*
X56211916Y-140361299D01*
X56197765Y-140351843D01*
X55950000Y-140302560D01*
X55350000Y-140302560D01*
X55286970Y-140315097D01*
X54206874Y-139235000D01*
X61370050Y-139235000D01*
X60527490Y-140077560D01*
X60527490Y-140077560D01*
G37*
X60527490Y-140077560D02*
X60325000Y-140077560D01*
X60077235Y-140126843D01*
X59867191Y-140267191D01*
X59726843Y-140477235D01*
X59677560Y-140725000D01*
X59677560Y-142075000D01*
X59726843Y-142322765D01*
X59867191Y-142532809D01*
X60077235Y-142673157D01*
X60325000Y-142722440D01*
X60800000Y-142722440D01*
X60800000Y-142853564D01*
X60742191Y-142892191D01*
X60601843Y-143102235D01*
X60595158Y-143135842D01*
X60499140Y-143200000D01*
X56597440Y-143200000D01*
X56597440Y-143000000D01*
X56548157Y-142752235D01*
X56546664Y-142750000D01*
X56548157Y-142747765D01*
X56597440Y-142500000D01*
X56597440Y-142100000D01*
X56572854Y-141976396D01*
X56623000Y-141926250D01*
X56623000Y-141325000D01*
X56877000Y-141325000D01*
X56877000Y-141926250D01*
X57035750Y-142085000D01*
X57176309Y-142085000D01*
X57409698Y-141988327D01*
X57588327Y-141809699D01*
X57685000Y-141576310D01*
X57685000Y-141483750D01*
X57526250Y-141325000D01*
X56877000Y-141325000D01*
X56623000Y-141325000D01*
X56603000Y-141325000D01*
X56603000Y-141075000D01*
X56623000Y-141075000D01*
X56623000Y-140473750D01*
X56877000Y-140473750D01*
X56877000Y-141075000D01*
X57526250Y-141075000D01*
X57685000Y-140916250D01*
X57685000Y-140823690D01*
X57588327Y-140590301D01*
X57409698Y-140411673D01*
X57176309Y-140315000D01*
X57035750Y-140315000D01*
X56877000Y-140473750D01*
X56623000Y-140473750D01*
X56464250Y-140315000D01*
X56323691Y-140315000D01*
X56211916Y-140361299D01*
X56197765Y-140351843D01*
X55950000Y-140302560D01*
X55350000Y-140302560D01*
X55286970Y-140315097D01*
X54206874Y-139235000D01*
X61370050Y-139235000D01*
X60527490Y-140077560D01*
G36*
X53190000Y-142347825D02*
X53190000Y-142427002D01*
X53278472Y-142427002D01*
X53256531Y-142459840D01*
X53214944Y-142496316D01*
X53221483Y-142542252D01*
X53170213Y-142800000D01*
X53203032Y-142964990D01*
X53074542Y-142964990D01*
X53005934Y-142798946D01*
X52771249Y-142563852D01*
X52464463Y-142436463D01*
X52252679Y-142436278D01*
X52270697Y-142345697D01*
X52475000Y-142305058D01*
X52725000Y-142354787D01*
X52975000Y-142305058D01*
X53190000Y-142347825D01*
X53190000Y-142347825D01*
G37*
X53190000Y-142347825D02*
X53190000Y-142427002D01*
X53278472Y-142427002D01*
X53256531Y-142459840D01*
X53214944Y-142496316D01*
X53221483Y-142542252D01*
X53170213Y-142800000D01*
X53203032Y-142964990D01*
X53074542Y-142964990D01*
X53005934Y-142798946D01*
X52771249Y-142563852D01*
X52464463Y-142436463D01*
X52252679Y-142436278D01*
X52270697Y-142345697D01*
X52475000Y-142305058D01*
X52725000Y-142354787D01*
X52975000Y-142305058D01*
X53190000Y-142347825D01*
G36*
X84561773Y-142324660D02*
X84759042Y-142496662D01*
X84599864Y-142655563D01*
X84359919Y-142415199D01*
X84258292Y-142373000D01*
X84473000Y-142373000D01*
X84473000Y-142145940D01*
X84561773Y-142324660D01*
X84561773Y-142324660D01*
G37*
X84561773Y-142324660D02*
X84759042Y-142496662D01*
X84599864Y-142655563D01*
X84359919Y-142415199D01*
X84258292Y-142373000D01*
X84473000Y-142373000D01*
X84473000Y-142145940D01*
X84561773Y-142324660D01*
G36*
X85644852Y-141610830D02*
X85505199Y-141750240D01*
X85189499Y-141474975D01*
X85371025Y-141474975D01*
X85371025Y-141337003D01*
X85644852Y-141610830D01*
X85644852Y-141610830D01*
G37*
X85644852Y-141610830D02*
X85505199Y-141750240D01*
X85189499Y-141474975D01*
X85371025Y-141474975D01*
X85371025Y-141337003D01*
X85644852Y-141610830D01*
M02*
