M48
;DRILL file {KiCad (2016-12-18 revision 3ffa37c)-master} date Sunday, March 26, 2017 'PMt' 03:10:47 PM
;FORMAT={-:-/ absolute / metric / decimal}
FMAT,2
METRIC,TZ
T1C0.100
T2C0.300
T3C0.450
T4C0.650
T5C0.720
T6C0.800
T7C0.990
T8C1.300
T9C0.900
%
G90
G05
M71
T1
X53.625Y-145.5
X54.025Y-145.1
X54.025Y-145.5
X54.425Y-145.1
X54.425Y-145.5
X58.475Y-140.45
X58.475Y-140.8
X58.475Y-141.15
X58.475Y-141.575
X58.475Y-141.925
X58.475Y-142.275
X58.825Y-140.45
X58.825Y-140.8
X58.825Y-141.15
X58.825Y-141.575
X58.825Y-141.925
X58.825Y-142.275
X62.975Y-146.175
X63.475Y-145.75
X63.475Y-146.175
X63.975Y-145.75
X63.975Y-146.175
X64.3Y-143.325
X64.3Y-143.675
X64.65Y-143.325
X64.65Y-143.675
X65.Y-143.325
X65.Y-143.675
X65.425Y-143.325
X65.425Y-143.675
X65.775Y-143.325
X65.775Y-143.675
X66.125Y-143.325
X66.125Y-143.675
X66.5Y-140.05
X66.5Y-140.4
X66.85Y-140.05
X66.85Y-140.4
X67.2Y-140.05
X67.2Y-140.4
X67.625Y-140.05
X67.625Y-140.4
X67.975Y-140.05
X67.975Y-140.4
X68.325Y-140.05
X68.325Y-140.4
X73.125Y-142.1
X73.125Y-142.45
X73.125Y-142.8
X73.125Y-143.15
X73.125Y-143.5
X73.475Y-142.1
X73.475Y-142.45
X73.475Y-142.8
X73.475Y-143.15
X73.475Y-143.5
X73.825Y-142.1
X73.825Y-142.45
X73.825Y-142.8
X73.825Y-143.15
X73.825Y-143.5
X80.5Y-143.
X80.5Y-143.8
X81.3Y-143.8
X81.45Y-140.75
X81.45Y-141.1
X81.45Y-141.45
X81.45Y-141.8
X81.45Y-142.15
X81.8Y-140.75
X81.8Y-141.1
X81.8Y-141.45
X81.8Y-141.8
X81.8Y-142.15
X82.15Y-140.75
X82.15Y-141.1
X82.15Y-141.45
X82.15Y-141.8
X82.15Y-142.15
X82.5Y-140.75
X82.5Y-141.1
X82.5Y-141.45
X82.5Y-141.8
X82.5Y-142.15
X82.85Y-140.75
X82.85Y-141.1
X82.85Y-141.45
X82.85Y-141.8
X82.85Y-142.15
X91.8Y-143.85
X92.175Y-143.475
X92.575Y-143.8
X92.6Y-143.25
X94.4Y-143.3
X94.675Y-143.575
X94.975Y-143.875
X98.2Y-140.65
X98.2Y-141.
X98.2Y-141.35
X98.2Y-141.7
X98.2Y-142.05
X98.2Y-142.4
X98.2Y-142.75
X98.2Y-143.1
X98.2Y-143.45
X98.2Y-143.8
X98.9Y-140.65
X98.9Y-141.
X98.9Y-141.35
X98.9Y-141.7
X98.9Y-142.05
X98.9Y-142.4
X98.9Y-142.75
X98.9Y-143.1
X98.9Y-143.45
X98.9Y-143.8
X99.675Y-140.65
X99.675Y-141.
X99.675Y-141.35
X99.675Y-141.7
X99.675Y-142.05
X99.675Y-142.4
X99.675Y-142.75
X99.675Y-143.1
X99.675Y-143.45
X100.75Y-139.75
X100.75Y-140.225
X101.125Y-139.75
X101.125Y-140.225
X101.5Y-139.75
X101.5Y-140.225
X102.025Y-141.
X102.025Y-141.525
X102.025Y-142.025
X104.4Y-141.375
X104.4Y-141.825
X104.4Y-142.275
X104.4Y-142.75
X107.025Y-149.475
X107.575Y-149.475
X108.1Y-149.475
X108.65Y-149.475
X109.225Y-149.475
X109.225Y-149.925
X109.225Y-150.4
T2
X51.1Y-140.2
X52.298Y-143.271
X54.175Y-146.5
X56.2Y-144.295
X72.1Y-144.5
X78.4Y-146.8
X79.083Y-146.827
X79.2Y-141.8
X79.8Y-146.775
X88.2Y-145.7
X89.675Y-141.2
X89.825Y-140.5
X91.791Y-140.604
X91.85Y-150.375
X93.2Y-150.795
X93.368Y-140.78
X94.35Y-140.575
X96.748Y-147.348
X96.87Y-142.873
X97.125Y-146.975
X97.2Y-150.2
X100.7Y-150.
X101.Y-146.5
T3
X51.2Y-147.4
X51.5Y-140.8
X51.6Y-144.5
X51.825Y-139.45
X52.8Y-142.5
X56.7Y-142.1
X58.3Y-149.25
X62.2Y-145.2
X66.8Y-149.
X67.3Y-143.1
X73.7Y-146.2
X76.2Y-146.2
X80.572Y-146.128
X88.7Y-140.8
X88.823Y-145.281
X89.394Y-149.707
X89.838Y-142.91
X92.717Y-140.965
X94.6Y-148.1
X95.95Y-142.15
X98.2Y-148.7
X99.375Y-145.6
X99.4Y-150.7
X101.75Y-148.
X104.3Y-150.6
X104.4Y-143.4
X104.7Y-146.4
T4
X82.804Y-144.296
X83.702Y-143.398
X83.702Y-145.194
X84.6Y-142.5
X84.6Y-144.296
X85.498Y-141.602
X85.498Y-143.398
X86.396Y-140.704
X86.396Y-142.5
X87.294Y-141.602
T6
X61.Y-141.4
X63.Y-141.4
X65.Y-141.4
X81.2Y-149.4
X83.2Y-149.4
X85.2Y-149.4
T7
X60.2Y-149.45
X64.7Y-149.45
T8
X58.94Y-146.96
X65.95Y-146.96
T9
X71.2Y-143.7
X79.2Y-143.7
T5
X107.91Y-141.745G85X108.69Y-141.745
G05
X107.91Y-148.255G85X108.69Y-148.255
G05
T0
M30
