G04 #@! TF.GenerationSoftware,KiCad,Pcbnew,(2016-12-18 revision 3ffa37c)-master*
G04 #@! TF.CreationDate,2017-03-26T15:10:27-07:00*
G04 #@! TF.ProjectId,Pensel,50656E73656C2E6B696361645F706362,rev?*
G04 #@! TF.FileFunction,Legend,Bot*
G04 #@! TF.FilePolarity,Positive*
%FSLAX46Y46*%
G04 Gerber Fmt 4.6, Leading zero omitted, Abs format (unit mm)*
G04 Created by KiCad (PCBNEW (2016-12-18 revision 3ffa37c)-master) date Sunday, March 26, 2017 'PMt' 03:10:27 PM*
%MOMM*%
%LPD*%
G01*
G04 APERTURE LIST*
%ADD10C,0.100000*%
%ADD11C,0.150000*%
%ADD12C,0.075000*%
G04 APERTURE END LIST*
D10*
D11*
X107050000Y-146250000D02*
X107050000Y-145750000D01*
X108000000Y-145750000D02*
X108000000Y-146250000D01*
X93903553Y-149650000D02*
G75*
G03X93903553Y-149650000I-353553J0D01*
G01*
X91050000Y-146400000D02*
G75*
G03X91050000Y-146400000I-1250000J0D01*
G01*
X93300000Y-143400000D02*
X86300000Y-143400000D01*
X86300000Y-143400000D02*
X86300000Y-149400000D01*
X86300000Y-149400000D02*
X93300000Y-149400000D01*
X93300000Y-149400000D02*
X93300000Y-143400000D01*
X99694000Y-143726000D02*
X99694000Y-140678000D01*
X99694000Y-140678000D02*
X106806000Y-140678000D01*
X106806000Y-140678000D02*
X106806000Y-143726000D01*
X99694000Y-146774000D02*
X99694000Y-147536000D01*
X99694000Y-147536000D02*
X101218000Y-149822000D01*
X101218000Y-149822000D02*
X105282000Y-149822000D01*
X105282000Y-149822000D02*
X106806000Y-147536000D01*
X106806000Y-147536000D02*
X106806000Y-146774000D01*
X74950000Y-143500000D02*
G75*
G03X74950000Y-143500000I-1250000J0D01*
G01*
X76950000Y-140750000D02*
X76950000Y-140100000D01*
X76950000Y-140100000D02*
X70450000Y-140100000D01*
X70450000Y-140100000D02*
X70450000Y-140750000D01*
X76950000Y-146250000D02*
X76950000Y-146900000D01*
X76950000Y-146900000D02*
X70450000Y-146900000D01*
X70450000Y-146900000D02*
X70450000Y-146250000D01*
X76950000Y-144750000D02*
X76950000Y-142250000D01*
X70450000Y-144750000D02*
X70450000Y-142250000D01*
X92475000Y-141700000D02*
X92475000Y-142200000D01*
X91525000Y-142200000D02*
X91525000Y-141700000D01*
X91275000Y-141700000D02*
X91275000Y-142200000D01*
X90325000Y-142200000D02*
X90325000Y-141700000D01*
X107500000Y-149875000D02*
X108000000Y-149875000D01*
X108000000Y-150825000D02*
X107500000Y-150825000D01*
X105525000Y-149500000D02*
X105525000Y-149000000D01*
X106475000Y-149000000D02*
X106475000Y-149500000D01*
X68625000Y-141800000D02*
X68625000Y-142300000D01*
X67575000Y-142300000D02*
X67575000Y-141800000D01*
X57275000Y-149450000D02*
X57275000Y-149950000D01*
X56225000Y-149950000D02*
X56225000Y-149450000D01*
X98550000Y-146850000D02*
X98550000Y-147350000D01*
X97500000Y-147350000D02*
X97500000Y-146850000D01*
D12*
X108703571Y-145603571D02*
X108727380Y-145579761D01*
X108751190Y-145508333D01*
X108751190Y-145460714D01*
X108727380Y-145389285D01*
X108679761Y-145341666D01*
X108632142Y-145317857D01*
X108536904Y-145294047D01*
X108465476Y-145294047D01*
X108370238Y-145317857D01*
X108322619Y-145341666D01*
X108275000Y-145389285D01*
X108251190Y-145460714D01*
X108251190Y-145508333D01*
X108275000Y-145579761D01*
X108298809Y-145603571D01*
X108751190Y-146079761D02*
X108751190Y-145794047D01*
X108751190Y-145936904D02*
X108251190Y-145936904D01*
X108322619Y-145889285D01*
X108370238Y-145841666D01*
X108394047Y-145794047D01*
X108751190Y-146555952D02*
X108751190Y-146270238D01*
X108751190Y-146413095D02*
X108251190Y-146413095D01*
X108322619Y-146365476D01*
X108370238Y-146317857D01*
X108394047Y-146270238D01*
X94551190Y-145176190D02*
X94313095Y-145009523D01*
X94551190Y-144890476D02*
X94051190Y-144890476D01*
X94051190Y-145080952D01*
X94075000Y-145128571D01*
X94098809Y-145152380D01*
X94146428Y-145176190D01*
X94217857Y-145176190D01*
X94265476Y-145152380D01*
X94289285Y-145128571D01*
X94313095Y-145080952D01*
X94313095Y-144890476D01*
X94051190Y-145319047D02*
X94551190Y-145485714D01*
X94051190Y-145652380D01*
X94551190Y-146080952D02*
X94551190Y-145795238D01*
X94551190Y-145938095D02*
X94051190Y-145938095D01*
X94122619Y-145890476D01*
X94170238Y-145842857D01*
X94194047Y-145795238D01*
X94051190Y-146390476D02*
X94051190Y-146438095D01*
X94075000Y-146485714D01*
X94098809Y-146509523D01*
X94146428Y-146533333D01*
X94241666Y-146557142D01*
X94360714Y-146557142D01*
X94455952Y-146533333D01*
X94503571Y-146509523D01*
X94527380Y-146485714D01*
X94551190Y-146438095D01*
X94551190Y-146390476D01*
X94527380Y-146342857D01*
X94503571Y-146319047D01*
X94455952Y-146295238D01*
X94360714Y-146271428D01*
X94241666Y-146271428D01*
X94146428Y-146295238D01*
X94098809Y-146319047D01*
X94075000Y-146342857D01*
X94051190Y-146390476D01*
X94551190Y-146771428D02*
X94051190Y-146771428D01*
X94551190Y-147057142D02*
X94265476Y-146842857D01*
X94051190Y-147057142D02*
X94336904Y-146771428D01*
X94551190Y-147533333D02*
X94551190Y-147247619D01*
X94551190Y-147390476D02*
X94051190Y-147390476D01*
X94122619Y-147342857D01*
X94170238Y-147295238D01*
X94194047Y-147247619D01*
X104680952Y-139901190D02*
X104680952Y-140305952D01*
X104657142Y-140353571D01*
X104633333Y-140377380D01*
X104585714Y-140401190D01*
X104490476Y-140401190D01*
X104442857Y-140377380D01*
X104419047Y-140353571D01*
X104395238Y-140305952D01*
X104395238Y-139901190D01*
X103942857Y-140067857D02*
X103942857Y-140401190D01*
X104061904Y-139877380D02*
X104180952Y-140234523D01*
X103871428Y-140234523D01*
X78902380Y-139883333D02*
X78926190Y-139954761D01*
X78926190Y-140073809D01*
X78902380Y-140121428D01*
X78878571Y-140145238D01*
X78830952Y-140169047D01*
X78783333Y-140169047D01*
X78735714Y-140145238D01*
X78711904Y-140121428D01*
X78688095Y-140073809D01*
X78664285Y-139978571D01*
X78640476Y-139930952D01*
X78616666Y-139907142D01*
X78569047Y-139883333D01*
X78521428Y-139883333D01*
X78473809Y-139907142D01*
X78450000Y-139930952D01*
X78426190Y-139978571D01*
X78426190Y-140097619D01*
X78450000Y-140169047D01*
X78426190Y-140335714D02*
X78926190Y-140454761D01*
X78569047Y-140550000D01*
X78926190Y-140645238D01*
X78426190Y-140764285D01*
X78473809Y-140930952D02*
X78450000Y-140954761D01*
X78426190Y-141002380D01*
X78426190Y-141121428D01*
X78450000Y-141169047D01*
X78473809Y-141192857D01*
X78521428Y-141216666D01*
X78569047Y-141216666D01*
X78640476Y-141192857D01*
X78926190Y-140907142D01*
X78926190Y-141216666D01*
X92478571Y-140241666D02*
X92502380Y-140217857D01*
X92526190Y-140146428D01*
X92526190Y-140098809D01*
X92502380Y-140027380D01*
X92454761Y-139979761D01*
X92407142Y-139955952D01*
X92311904Y-139932142D01*
X92240476Y-139932142D01*
X92145238Y-139955952D01*
X92097619Y-139979761D01*
X92050000Y-140027380D01*
X92026190Y-140098809D01*
X92026190Y-140146428D01*
X92050000Y-140217857D01*
X92073809Y-140241666D01*
X92026190Y-140694047D02*
X92026190Y-140455952D01*
X92264285Y-140432142D01*
X92240476Y-140455952D01*
X92216666Y-140503571D01*
X92216666Y-140622619D01*
X92240476Y-140670238D01*
X92264285Y-140694047D01*
X92311904Y-140717857D01*
X92430952Y-140717857D01*
X92478571Y-140694047D01*
X92502380Y-140670238D01*
X92526190Y-140622619D01*
X92526190Y-140503571D01*
X92502380Y-140455952D01*
X92478571Y-140432142D01*
X90978571Y-140266666D02*
X91002380Y-140242857D01*
X91026190Y-140171428D01*
X91026190Y-140123809D01*
X91002380Y-140052380D01*
X90954761Y-140004761D01*
X90907142Y-139980952D01*
X90811904Y-139957142D01*
X90740476Y-139957142D01*
X90645238Y-139980952D01*
X90597619Y-140004761D01*
X90550000Y-140052380D01*
X90526190Y-140123809D01*
X90526190Y-140171428D01*
X90550000Y-140242857D01*
X90573809Y-140266666D01*
X90526190Y-140433333D02*
X90526190Y-140766666D01*
X91026190Y-140552380D01*
X109403571Y-150128571D02*
X109427380Y-150104761D01*
X109451190Y-150033333D01*
X109451190Y-149985714D01*
X109427380Y-149914285D01*
X109379761Y-149866666D01*
X109332142Y-149842857D01*
X109236904Y-149819047D01*
X109165476Y-149819047D01*
X109070238Y-149842857D01*
X109022619Y-149866666D01*
X108975000Y-149914285D01*
X108951190Y-149985714D01*
X108951190Y-150033333D01*
X108975000Y-150104761D01*
X108998809Y-150128571D01*
X109451190Y-150604761D02*
X109451190Y-150319047D01*
X109451190Y-150461904D02*
X108951190Y-150461904D01*
X109022619Y-150414285D01*
X109070238Y-150366666D01*
X109094047Y-150319047D01*
X108951190Y-150914285D02*
X108951190Y-150961904D01*
X108975000Y-151009523D01*
X108998809Y-151033333D01*
X109046428Y-151057142D01*
X109141666Y-151080952D01*
X109260714Y-151080952D01*
X109355952Y-151057142D01*
X109403571Y-151033333D01*
X109427380Y-151009523D01*
X109451190Y-150961904D01*
X109451190Y-150914285D01*
X109427380Y-150866666D01*
X109403571Y-150842857D01*
X109355952Y-150819047D01*
X109260714Y-150795238D01*
X109141666Y-150795238D01*
X109046428Y-150819047D01*
X108998809Y-150842857D01*
X108975000Y-150866666D01*
X108951190Y-150914285D01*
X104921428Y-150353571D02*
X104945238Y-150377380D01*
X105016666Y-150401190D01*
X105064285Y-150401190D01*
X105135714Y-150377380D01*
X105183333Y-150329761D01*
X105207142Y-150282142D01*
X105230952Y-150186904D01*
X105230952Y-150115476D01*
X105207142Y-150020238D01*
X105183333Y-149972619D01*
X105135714Y-149925000D01*
X105064285Y-149901190D01*
X105016666Y-149901190D01*
X104945238Y-149925000D01*
X104921428Y-149948809D01*
X104445238Y-150401190D02*
X104730952Y-150401190D01*
X104588095Y-150401190D02*
X104588095Y-149901190D01*
X104635714Y-149972619D01*
X104683333Y-150020238D01*
X104730952Y-150044047D01*
X103992857Y-149901190D02*
X104230952Y-149901190D01*
X104254761Y-150139285D01*
X104230952Y-150115476D01*
X104183333Y-150091666D01*
X104064285Y-150091666D01*
X104016666Y-150115476D01*
X103992857Y-150139285D01*
X103969047Y-150186904D01*
X103969047Y-150305952D01*
X103992857Y-150353571D01*
X104016666Y-150377380D01*
X104064285Y-150401190D01*
X104183333Y-150401190D01*
X104230952Y-150377380D01*
X104254761Y-150353571D01*
X67151190Y-141403571D02*
X66913095Y-141236904D01*
X67151190Y-141117857D02*
X66651190Y-141117857D01*
X66651190Y-141308333D01*
X66675000Y-141355952D01*
X66698809Y-141379761D01*
X66746428Y-141403571D01*
X66817857Y-141403571D01*
X66865476Y-141379761D01*
X66889285Y-141355952D01*
X66913095Y-141308333D01*
X66913095Y-141117857D01*
X67151190Y-141879761D02*
X67151190Y-141594047D01*
X67151190Y-141736904D02*
X66651190Y-141736904D01*
X66722619Y-141689285D01*
X66770238Y-141641666D01*
X66794047Y-141594047D01*
X67151190Y-142355952D02*
X67151190Y-142070238D01*
X67151190Y-142213095D02*
X66651190Y-142213095D01*
X66722619Y-142165476D01*
X66770238Y-142117857D01*
X66794047Y-142070238D01*
X55976190Y-149078571D02*
X55738095Y-148911904D01*
X55976190Y-148792857D02*
X55476190Y-148792857D01*
X55476190Y-148983333D01*
X55500000Y-149030952D01*
X55523809Y-149054761D01*
X55571428Y-149078571D01*
X55642857Y-149078571D01*
X55690476Y-149054761D01*
X55714285Y-149030952D01*
X55738095Y-148983333D01*
X55738095Y-148792857D01*
X55976190Y-149554761D02*
X55976190Y-149269047D01*
X55976190Y-149411904D02*
X55476190Y-149411904D01*
X55547619Y-149364285D01*
X55595238Y-149316666D01*
X55619047Y-149269047D01*
X55523809Y-149745238D02*
X55500000Y-149769047D01*
X55476190Y-149816666D01*
X55476190Y-149935714D01*
X55500000Y-149983333D01*
X55523809Y-150007142D01*
X55571428Y-150030952D01*
X55619047Y-150030952D01*
X55690476Y-150007142D01*
X55976190Y-149721428D01*
X55976190Y-150030952D01*
X97251190Y-146328571D02*
X97013095Y-146161904D01*
X97251190Y-146042857D02*
X96751190Y-146042857D01*
X96751190Y-146233333D01*
X96775000Y-146280952D01*
X96798809Y-146304761D01*
X96846428Y-146328571D01*
X96917857Y-146328571D01*
X96965476Y-146304761D01*
X96989285Y-146280952D01*
X97013095Y-146233333D01*
X97013095Y-146042857D01*
X97251190Y-146804761D02*
X97251190Y-146519047D01*
X97251190Y-146661904D02*
X96751190Y-146661904D01*
X96822619Y-146614285D01*
X96870238Y-146566666D01*
X96894047Y-146519047D01*
X96751190Y-146971428D02*
X96751190Y-147304761D01*
X97251190Y-147090476D01*
M02*
