G04 #@! TF.GenerationSoftware,KiCad,Pcbnew,(2016-12-18 revision 3ffa37c)-master*
G04 #@! TF.CreationDate,2017-03-26T15:10:27-07:00*
G04 #@! TF.ProjectId,Pensel,50656E73656C2E6B696361645F706362,rev?*
G04 #@! TF.FileFunction,Legend,Top*
G04 #@! TF.FilePolarity,Positive*
%FSLAX46Y46*%
G04 Gerber Fmt 4.6, Leading zero omitted, Abs format (unit mm)*
G04 Created by KiCad (PCBNEW (2016-12-18 revision 3ffa37c)-master) date Sunday, March 26, 2017 'PMt' 03:10:27 PM*
%MOMM*%
%LPD*%
G01*
G04 APERTURE LIST*
%ADD10C,0.100000*%
%ADD11C,0.300000*%
%ADD12C,0.150000*%
%ADD13C,0.200000*%
%ADD14C,0.075000*%
G04 APERTURE END LIST*
D10*
X71532142Y-149951190D02*
X71246428Y-149951190D01*
X71389285Y-149951190D02*
X71389285Y-149451190D01*
X71341666Y-149522619D01*
X71294047Y-149570238D01*
X71246428Y-149594047D01*
X71746428Y-149903571D02*
X71770238Y-149927380D01*
X71746428Y-149951190D01*
X71722619Y-149927380D01*
X71746428Y-149903571D01*
X71746428Y-149951190D01*
X72079761Y-149451190D02*
X72127380Y-149451190D01*
X72175000Y-149475000D01*
X72198809Y-149498809D01*
X72222619Y-149546428D01*
X72246428Y-149641666D01*
X72246428Y-149760714D01*
X72222619Y-149855952D01*
X72198809Y-149903571D01*
X72175000Y-149927380D01*
X72127380Y-149951190D01*
X72079761Y-149951190D01*
X72032142Y-149927380D01*
X72008333Y-149903571D01*
X71984523Y-149855952D01*
X71960714Y-149760714D01*
X71960714Y-149641666D01*
X71984523Y-149546428D01*
X72008333Y-149498809D01*
X72032142Y-149475000D01*
X72079761Y-149451190D01*
X74317857Y-149451190D02*
X74627380Y-149451190D01*
X74460714Y-149641666D01*
X74532142Y-149641666D01*
X74579761Y-149665476D01*
X74603571Y-149689285D01*
X74627380Y-149736904D01*
X74627380Y-149855952D01*
X74603571Y-149903571D01*
X74579761Y-149927380D01*
X74532142Y-149951190D01*
X74389285Y-149951190D01*
X74341666Y-149927380D01*
X74317857Y-149903571D01*
X75198809Y-149427380D02*
X74770238Y-150070238D01*
X75627380Y-149951190D02*
X75341666Y-149951190D01*
X75484523Y-149951190D02*
X75484523Y-149451190D01*
X75436904Y-149522619D01*
X75389285Y-149570238D01*
X75341666Y-149594047D01*
X75794047Y-149451190D02*
X76127380Y-149451190D01*
X75913095Y-149951190D01*
X71282142Y-150301190D02*
X71567857Y-150301190D01*
X71425000Y-150801190D02*
X71425000Y-150301190D01*
X71686904Y-150467857D02*
X71805952Y-150801190D01*
X71925000Y-150467857D02*
X71805952Y-150801190D01*
X71758333Y-150920238D01*
X71734523Y-150944047D01*
X71686904Y-150967857D01*
X72186904Y-150801190D02*
X72139285Y-150777380D01*
X72115476Y-150729761D01*
X72115476Y-150301190D01*
X72567857Y-150777380D02*
X72520238Y-150801190D01*
X72425000Y-150801190D01*
X72377380Y-150777380D01*
X72353571Y-150729761D01*
X72353571Y-150539285D01*
X72377380Y-150491666D01*
X72425000Y-150467857D01*
X72520238Y-150467857D01*
X72567857Y-150491666D01*
X72591666Y-150539285D01*
X72591666Y-150586904D01*
X72353571Y-150634523D01*
X72805952Y-150801190D02*
X72805952Y-150467857D01*
X72805952Y-150563095D02*
X72829761Y-150515476D01*
X72853571Y-150491666D01*
X72901190Y-150467857D01*
X72948809Y-150467857D01*
X73496428Y-150801190D02*
X73496428Y-150301190D01*
X73496428Y-150539285D02*
X73782142Y-150539285D01*
X73782142Y-150801190D02*
X73782142Y-150301190D01*
X74091666Y-150801190D02*
X74044047Y-150777380D01*
X74020238Y-150753571D01*
X73996428Y-150705952D01*
X73996428Y-150563095D01*
X74020238Y-150515476D01*
X74044047Y-150491666D01*
X74091666Y-150467857D01*
X74163095Y-150467857D01*
X74210714Y-150491666D01*
X74234523Y-150515476D01*
X74258333Y-150563095D01*
X74258333Y-150705952D01*
X74234523Y-150753571D01*
X74210714Y-150777380D01*
X74163095Y-150801190D01*
X74091666Y-150801190D01*
X74544047Y-150801190D02*
X74496428Y-150777380D01*
X74472619Y-150729761D01*
X74472619Y-150301190D01*
X74734523Y-150801190D02*
X74734523Y-150467857D01*
X74734523Y-150515476D02*
X74758333Y-150491666D01*
X74805952Y-150467857D01*
X74877380Y-150467857D01*
X74925000Y-150491666D01*
X74948809Y-150539285D01*
X74948809Y-150801190D01*
X74948809Y-150539285D02*
X74972619Y-150491666D01*
X75020238Y-150467857D01*
X75091666Y-150467857D01*
X75139285Y-150491666D01*
X75163095Y-150539285D01*
X75163095Y-150801190D01*
X75591666Y-150777380D02*
X75544047Y-150801190D01*
X75448809Y-150801190D01*
X75401190Y-150777380D01*
X75377380Y-150729761D01*
X75377380Y-150539285D01*
X75401190Y-150491666D01*
X75448809Y-150467857D01*
X75544047Y-150467857D01*
X75591666Y-150491666D01*
X75615476Y-150539285D01*
X75615476Y-150586904D01*
X75377380Y-150634523D01*
X75805952Y-150777380D02*
X75853571Y-150801190D01*
X75948809Y-150801190D01*
X75996428Y-150777380D01*
X76020238Y-150729761D01*
X76020238Y-150705952D01*
X75996428Y-150658333D01*
X75948809Y-150634523D01*
X75877380Y-150634523D01*
X75829761Y-150610714D01*
X75805952Y-150563095D01*
X75805952Y-150539285D01*
X75829761Y-150491666D01*
X75877380Y-150467857D01*
X75948809Y-150467857D01*
X75996428Y-150491666D01*
D11*
X70092857Y-148853571D02*
X70092857Y-147353571D01*
X70664285Y-147353571D01*
X70807142Y-147425000D01*
X70878571Y-147496428D01*
X70950000Y-147639285D01*
X70950000Y-147853571D01*
X70878571Y-147996428D01*
X70807142Y-148067857D01*
X70664285Y-148139285D01*
X70092857Y-148139285D01*
X72164285Y-148782142D02*
X72021428Y-148853571D01*
X71735714Y-148853571D01*
X71592857Y-148782142D01*
X71521428Y-148639285D01*
X71521428Y-148067857D01*
X71592857Y-147925000D01*
X71735714Y-147853571D01*
X72021428Y-147853571D01*
X72164285Y-147925000D01*
X72235714Y-148067857D01*
X72235714Y-148210714D01*
X71521428Y-148353571D01*
X72878571Y-147853571D02*
X72878571Y-148853571D01*
X72878571Y-147996428D02*
X72950000Y-147925000D01*
X73092857Y-147853571D01*
X73307142Y-147853571D01*
X73450000Y-147925000D01*
X73521428Y-148067857D01*
X73521428Y-148853571D01*
X74164285Y-148782142D02*
X74307142Y-148853571D01*
X74592857Y-148853571D01*
X74735714Y-148782142D01*
X74807142Y-148639285D01*
X74807142Y-148567857D01*
X74735714Y-148425000D01*
X74592857Y-148353571D01*
X74378571Y-148353571D01*
X74235714Y-148282142D01*
X74164285Y-148139285D01*
X74164285Y-148067857D01*
X74235714Y-147925000D01*
X74378571Y-147853571D01*
X74592857Y-147853571D01*
X74735714Y-147925000D01*
X76021428Y-148782142D02*
X75878571Y-148853571D01*
X75592857Y-148853571D01*
X75450000Y-148782142D01*
X75378571Y-148639285D01*
X75378571Y-148067857D01*
X75450000Y-147925000D01*
X75592857Y-147853571D01*
X75878571Y-147853571D01*
X76021428Y-147925000D01*
X76092857Y-148067857D01*
X76092857Y-148210714D01*
X75378571Y-148353571D01*
X76950000Y-148853571D02*
X76807142Y-148782142D01*
X76735714Y-148639285D01*
X76735714Y-147353571D01*
D12*
X64928571Y-139225000D02*
X64857142Y-139189285D01*
X64750000Y-139189285D01*
X64642857Y-139225000D01*
X64571428Y-139296428D01*
X64535714Y-139367857D01*
X64500000Y-139510714D01*
X64500000Y-139617857D01*
X64535714Y-139760714D01*
X64571428Y-139832142D01*
X64642857Y-139903571D01*
X64750000Y-139939285D01*
X64821428Y-139939285D01*
X64928571Y-139903571D01*
X64964285Y-139867857D01*
X64964285Y-139617857D01*
X64821428Y-139617857D01*
X65285714Y-139939285D02*
X65285714Y-139189285D01*
X65714285Y-139939285D01*
X65714285Y-139189285D01*
X66071428Y-139939285D02*
X66071428Y-139189285D01*
X66250000Y-139189285D01*
X66357142Y-139225000D01*
X66428571Y-139296428D01*
X66464285Y-139367857D01*
X66500000Y-139510714D01*
X66500000Y-139617857D01*
X66464285Y-139760714D01*
X66428571Y-139832142D01*
X66357142Y-139903571D01*
X66250000Y-139939285D01*
X66071428Y-139939285D01*
X62057142Y-139928571D02*
X62164285Y-139964285D01*
X62342857Y-139964285D01*
X62414285Y-139928571D01*
X62450000Y-139892857D01*
X62485714Y-139821428D01*
X62485714Y-139750000D01*
X62450000Y-139678571D01*
X62414285Y-139642857D01*
X62342857Y-139607142D01*
X62200000Y-139571428D01*
X62128571Y-139535714D01*
X62092857Y-139500000D01*
X62057142Y-139428571D01*
X62057142Y-139357142D01*
X62092857Y-139285714D01*
X62128571Y-139250000D01*
X62200000Y-139214285D01*
X62378571Y-139214285D01*
X62485714Y-139250000D01*
X63235714Y-139892857D02*
X63200000Y-139928571D01*
X63092857Y-139964285D01*
X63021428Y-139964285D01*
X62914285Y-139928571D01*
X62842857Y-139857142D01*
X62807142Y-139785714D01*
X62771428Y-139642857D01*
X62771428Y-139535714D01*
X62807142Y-139392857D01*
X62842857Y-139321428D01*
X62914285Y-139250000D01*
X63021428Y-139214285D01*
X63092857Y-139214285D01*
X63200000Y-139250000D01*
X63235714Y-139285714D01*
X63914285Y-139964285D02*
X63557142Y-139964285D01*
X63557142Y-139214285D01*
X59739285Y-139903571D02*
X59846428Y-139939285D01*
X60025000Y-139939285D01*
X60096428Y-139903571D01*
X60132142Y-139867857D01*
X60167857Y-139796428D01*
X60167857Y-139725000D01*
X60132142Y-139653571D01*
X60096428Y-139617857D01*
X60025000Y-139582142D01*
X59882142Y-139546428D01*
X59810714Y-139510714D01*
X59775000Y-139475000D01*
X59739285Y-139403571D01*
X59739285Y-139332142D01*
X59775000Y-139260714D01*
X59810714Y-139225000D01*
X59882142Y-139189285D01*
X60060714Y-139189285D01*
X60167857Y-139225000D01*
X60489285Y-139939285D02*
X60489285Y-139189285D01*
X60667857Y-139189285D01*
X60775000Y-139225000D01*
X60846428Y-139296428D01*
X60882142Y-139367857D01*
X60917857Y-139510714D01*
X60917857Y-139617857D01*
X60882142Y-139760714D01*
X60846428Y-139832142D01*
X60775000Y-139903571D01*
X60667857Y-139939285D01*
X60489285Y-139939285D01*
X61203571Y-139725000D02*
X61560714Y-139725000D01*
X61132142Y-139939285D02*
X61382142Y-139189285D01*
X61632142Y-139939285D01*
X58592857Y-144114285D02*
X58592857Y-143364285D01*
X58914285Y-143435714D02*
X58950000Y-143400000D01*
X59021428Y-143364285D01*
X59200000Y-143364285D01*
X59271428Y-143400000D01*
X59307142Y-143435714D01*
X59342857Y-143507142D01*
X59342857Y-143578571D01*
X59307142Y-143685714D01*
X58878571Y-144114285D01*
X59342857Y-144114285D01*
X60092857Y-144042857D02*
X60057142Y-144078571D01*
X59950000Y-144114285D01*
X59878571Y-144114285D01*
X59771428Y-144078571D01*
X59700000Y-144007142D01*
X59664285Y-143935714D01*
X59628571Y-143792857D01*
X59628571Y-143685714D01*
X59664285Y-143542857D01*
X59700000Y-143471428D01*
X59771428Y-143400000D01*
X59878571Y-143364285D01*
X59950000Y-143364285D01*
X60057142Y-143400000D01*
X60092857Y-143435714D01*
X84975000Y-147721428D02*
X84939285Y-147792857D01*
X84939285Y-147900000D01*
X84975000Y-148007142D01*
X85046428Y-148078571D01*
X85117857Y-148114285D01*
X85260714Y-148150000D01*
X85367857Y-148150000D01*
X85510714Y-148114285D01*
X85582142Y-148078571D01*
X85653571Y-148007142D01*
X85689285Y-147900000D01*
X85689285Y-147828571D01*
X85653571Y-147721428D01*
X85617857Y-147685714D01*
X85367857Y-147685714D01*
X85367857Y-147828571D01*
X85689285Y-147364285D02*
X84939285Y-147364285D01*
X85689285Y-146935714D01*
X84939285Y-146935714D01*
X85689285Y-146578571D02*
X84939285Y-146578571D01*
X84939285Y-146400000D01*
X84975000Y-146292857D01*
X85046428Y-146221428D01*
X85117857Y-146185714D01*
X85260714Y-146150000D01*
X85367857Y-146150000D01*
X85510714Y-146185714D01*
X85582142Y-146221428D01*
X85653571Y-146292857D01*
X85689285Y-146400000D01*
X85689285Y-146578571D01*
X83589285Y-147625000D02*
X83232142Y-147875000D01*
X83589285Y-148053571D02*
X82839285Y-148053571D01*
X82839285Y-147767857D01*
X82875000Y-147696428D01*
X82910714Y-147660714D01*
X82982142Y-147625000D01*
X83089285Y-147625000D01*
X83160714Y-147660714D01*
X83196428Y-147696428D01*
X83232142Y-147767857D01*
X83232142Y-148053571D01*
X82839285Y-147375000D02*
X83589285Y-146875000D01*
X82839285Y-146875000D02*
X83589285Y-147375000D01*
X80764285Y-148246428D02*
X80764285Y-147817857D01*
X81514285Y-148032142D02*
X80764285Y-148032142D01*
X80764285Y-147639285D02*
X81514285Y-147139285D01*
X80764285Y-147139285D02*
X81514285Y-147639285D01*
X86464285Y-150571428D02*
X87071428Y-150571428D01*
X87142857Y-150535714D01*
X87178571Y-150500000D01*
X87214285Y-150428571D01*
X87214285Y-150285714D01*
X87178571Y-150214285D01*
X87142857Y-150178571D01*
X87071428Y-150142857D01*
X86464285Y-150142857D01*
X87000000Y-149821428D02*
X87000000Y-149464285D01*
X87214285Y-149892857D02*
X86464285Y-149642857D01*
X87214285Y-149392857D01*
X87214285Y-148714285D02*
X86857142Y-148964285D01*
X87214285Y-149142857D02*
X86464285Y-149142857D01*
X86464285Y-148857142D01*
X86500000Y-148785714D01*
X86535714Y-148750000D01*
X86607142Y-148714285D01*
X86714285Y-148714285D01*
X86785714Y-148750000D01*
X86821428Y-148785714D01*
X86857142Y-148857142D01*
X86857142Y-149142857D01*
X86464285Y-148500000D02*
X86464285Y-148071428D01*
X87214285Y-148285714D02*
X86464285Y-148285714D01*
D13*
X92607843Y-140550000D02*
G75*
G03X92607843Y-140550000I-282843J0D01*
G01*
X85582843Y-139400000D02*
G75*
G03X85582843Y-139400000I-282843J0D01*
G01*
D12*
X105500000Y-148800000D02*
X110200000Y-148800000D01*
X110200000Y-141200000D02*
X105500000Y-141200000D01*
X105500000Y-141200000D02*
X105500000Y-148800000D01*
X90100000Y-150825000D02*
X90600000Y-150825000D01*
X90600000Y-149775000D02*
X90100000Y-149775000D01*
X97112311Y-144300000D02*
X96741080Y-144671231D01*
X89687689Y-144300000D02*
X90058920Y-143928769D01*
X93400000Y-148012311D02*
X93771231Y-147641080D01*
X93400000Y-140587689D02*
X93771231Y-140958920D01*
X89687689Y-144300000D02*
X90058920Y-144671231D01*
X93400000Y-148012311D02*
X93028769Y-147641080D01*
X97112311Y-144300000D02*
X96741080Y-143928769D01*
X50975000Y-140800000D02*
G75*
G03X50975000Y-140800000I-250000J0D01*
G01*
X54350000Y-141175000D02*
X53850000Y-141175000D01*
X54350000Y-144425000D02*
X53850000Y-144425000D01*
X51100000Y-144425000D02*
X51600000Y-144425000D01*
X51100000Y-141175000D02*
X51600000Y-141175000D01*
X54350000Y-144425000D02*
X54350000Y-143925000D01*
X51100000Y-144425000D02*
X51100000Y-143925000D01*
X54350000Y-141175000D02*
X54350000Y-141675000D01*
X88150000Y-150825000D02*
X88650000Y-150825000D01*
X88650000Y-149775000D02*
X88150000Y-149775000D01*
X79700000Y-150900000D02*
X79700000Y-149400000D01*
X81200000Y-150900000D02*
X79700000Y-150900000D01*
X86200000Y-150400000D02*
X82200000Y-150400000D01*
X86200000Y-148400000D02*
X86200000Y-150400000D01*
X82200000Y-148400000D02*
X86200000Y-148400000D01*
X82200000Y-150400000D02*
X82200000Y-148400000D01*
X94976992Y-141419454D02*
X95330546Y-141773008D01*
X96073008Y-141030546D02*
X95719454Y-140676992D01*
X103675000Y-146775000D02*
X103675000Y-147275000D01*
X100425000Y-150025000D02*
X100425000Y-149525000D01*
X103675000Y-150025000D02*
X103675000Y-149525000D01*
X100425000Y-146775000D02*
X100925000Y-146775000D01*
X100425000Y-150025000D02*
X100925000Y-150025000D01*
X103675000Y-150025000D02*
X103175000Y-150025000D01*
X103675000Y-146775000D02*
X103175000Y-146775000D01*
X100300000Y-146400000D02*
G75*
G03X100300000Y-146400000I-250000J0D01*
G01*
X102295000Y-143860000D02*
X102295000Y-143360000D01*
X101345000Y-143360000D02*
X101345000Y-143860000D01*
X66097000Y-150720000D02*
X58800000Y-150720000D01*
X58800000Y-150720000D02*
X58800000Y-148150000D01*
X64700000Y-146420000D02*
X60200000Y-146420000D01*
X66097000Y-150720000D02*
X66097000Y-148150000D01*
X68200000Y-146200000D02*
X80200000Y-146200000D01*
X80200000Y-146200000D02*
X80200000Y-141200000D01*
X80200000Y-141200000D02*
X68200000Y-141200000D01*
X68200000Y-141200000D02*
X68200000Y-146200000D01*
X71500000Y-145200000D02*
X77000000Y-145200000D01*
X77000000Y-145200000D02*
X77000000Y-142200000D01*
X77000000Y-142200000D02*
X71500000Y-142200000D01*
X71500000Y-142200000D02*
X71500000Y-145200000D01*
X98825000Y-149050000D02*
X98825000Y-149550000D01*
X99775000Y-149550000D02*
X99775000Y-149050000D01*
X55950000Y-141675000D02*
X56450000Y-141675000D01*
X56450000Y-140725000D02*
X55950000Y-140725000D01*
X99775000Y-147250000D02*
X99775000Y-146750000D01*
X98825000Y-146750000D02*
X98825000Y-147250000D01*
X52050000Y-145425000D02*
X51550000Y-145425000D01*
X51550000Y-146375000D02*
X52050000Y-146375000D01*
X92950000Y-149475000D02*
X93450000Y-149475000D01*
X93450000Y-148525000D02*
X92950000Y-148525000D01*
X101025000Y-146075000D02*
X101525000Y-146075000D01*
X101525000Y-145125000D02*
X101025000Y-145125000D01*
X54450000Y-146925000D02*
X53950000Y-146925000D01*
X53950000Y-147875000D02*
X54450000Y-147875000D01*
X88700000Y-148600000D02*
X88450000Y-148800000D01*
X88950000Y-148800000D02*
X88700000Y-148600000D01*
X89225000Y-148950000D02*
X89225000Y-147900000D01*
X88175000Y-148950000D02*
X88175000Y-147900000D01*
X89475000Y-148950000D02*
X89475000Y-147900000D01*
X90525000Y-148950000D02*
X90525000Y-147900000D01*
X90250000Y-148800000D02*
X90000000Y-148600000D01*
X90000000Y-148600000D02*
X89750000Y-148800000D01*
X88446661Y-141623188D02*
X87880975Y-141057502D01*
X83744401Y-146325448D02*
X88446661Y-141623188D01*
X83744401Y-146325448D02*
X81658436Y-144239483D01*
X81658436Y-144239483D02*
X84875771Y-141022147D01*
X87315290Y-140491817D02*
X86360696Y-139537223D01*
X86360696Y-139537223D02*
X85441457Y-140456462D01*
X62000000Y-142400000D02*
X62000000Y-140400000D01*
X62000000Y-140400000D02*
X66000000Y-140400000D01*
X66000000Y-140400000D02*
X66000000Y-142400000D01*
X66000000Y-142400000D02*
X62000000Y-142400000D01*
X61000000Y-142900000D02*
X59500000Y-142900000D01*
X59500000Y-142900000D02*
X59500000Y-141400000D01*
X62025000Y-144250000D02*
X62025000Y-143750000D01*
X60975000Y-143750000D02*
X60975000Y-144250000D01*
X62475000Y-143750000D02*
X62475000Y-144250000D01*
X63525000Y-144250000D02*
X63525000Y-143750000D01*
X103940000Y-143745000D02*
X103440000Y-143745000D01*
X103440000Y-144795000D02*
X103940000Y-144795000D01*
X103440000Y-146115000D02*
X103940000Y-146115000D01*
X103940000Y-145065000D02*
X103440000Y-145065000D01*
X51850000Y-147925000D02*
X52350000Y-147925000D01*
X52350000Y-146875000D02*
X51850000Y-146875000D01*
X66875000Y-141600000D02*
X66875000Y-142100000D01*
X67925000Y-142100000D02*
X67925000Y-141600000D01*
X68050000Y-147525000D02*
X68550000Y-147525000D01*
X68550000Y-146475000D02*
X68050000Y-146475000D01*
X79550000Y-139375000D02*
X79050000Y-139375000D01*
X79050000Y-140425000D02*
X79550000Y-140425000D01*
X51800000Y-149225000D02*
X52300000Y-149225000D01*
X52300000Y-148175000D02*
X51800000Y-148175000D01*
X56175000Y-143000000D02*
X56175000Y-142500000D01*
X55125000Y-142500000D02*
X55125000Y-143000000D01*
D14*
X108130952Y-140726190D02*
X108130952Y-140226190D01*
X108321428Y-140226190D01*
X108369047Y-140250000D01*
X108392857Y-140273809D01*
X108416666Y-140321428D01*
X108416666Y-140392857D01*
X108392857Y-140440476D01*
X108369047Y-140464285D01*
X108321428Y-140488095D01*
X108130952Y-140488095D01*
X108892857Y-140726190D02*
X108607142Y-140726190D01*
X108750000Y-140726190D02*
X108750000Y-140226190D01*
X108702380Y-140297619D01*
X108654761Y-140345238D01*
X108607142Y-140369047D01*
X91716666Y-150526190D02*
X91550000Y-150288095D01*
X91430952Y-150526190D02*
X91430952Y-150026190D01*
X91621428Y-150026190D01*
X91669047Y-150050000D01*
X91692857Y-150073809D01*
X91716666Y-150121428D01*
X91716666Y-150192857D01*
X91692857Y-150240476D01*
X91669047Y-150264285D01*
X91621428Y-150288095D01*
X91430952Y-150288095D01*
X92145238Y-150026190D02*
X92050000Y-150026190D01*
X92002380Y-150050000D01*
X91978571Y-150073809D01*
X91930952Y-150145238D01*
X91907142Y-150240476D01*
X91907142Y-150430952D01*
X91930952Y-150478571D01*
X91954761Y-150502380D01*
X92002380Y-150526190D01*
X92097619Y-150526190D01*
X92145238Y-150502380D01*
X92169047Y-150478571D01*
X92192857Y-150430952D01*
X92192857Y-150311904D01*
X92169047Y-150264285D01*
X92145238Y-150240476D01*
X92097619Y-150216666D01*
X92002380Y-150216666D01*
X91954761Y-150240476D01*
X91930952Y-150264285D01*
X91907142Y-150311904D01*
X91124238Y-141137013D02*
X90838028Y-141423223D01*
X90821192Y-141473730D01*
X90821192Y-141507402D01*
X90838028Y-141557910D01*
X90905372Y-141625253D01*
X90955879Y-141642089D01*
X90989551Y-141642089D01*
X91040059Y-141625253D01*
X91326269Y-141339043D01*
X91326269Y-142046150D02*
X91124238Y-141844120D01*
X91225253Y-141945135D02*
X91578807Y-141591582D01*
X91494627Y-141608417D01*
X91427284Y-141608417D01*
X91376776Y-141591582D01*
X53619047Y-139976190D02*
X53619047Y-140380952D01*
X53642857Y-140428571D01*
X53666666Y-140452380D01*
X53714285Y-140476190D01*
X53809523Y-140476190D01*
X53857142Y-140452380D01*
X53880952Y-140428571D01*
X53904761Y-140380952D01*
X53904761Y-139976190D01*
X54095238Y-139976190D02*
X54404761Y-139976190D01*
X54238095Y-140166666D01*
X54309523Y-140166666D01*
X54357142Y-140190476D01*
X54380952Y-140214285D01*
X54404761Y-140261904D01*
X54404761Y-140380952D01*
X54380952Y-140428571D01*
X54357142Y-140452380D01*
X54309523Y-140476190D01*
X54166666Y-140476190D01*
X54119047Y-140452380D01*
X54095238Y-140428571D01*
X87976190Y-149233333D02*
X87738095Y-149400000D01*
X87976190Y-149519047D02*
X87476190Y-149519047D01*
X87476190Y-149328571D01*
X87500000Y-149280952D01*
X87523809Y-149257142D01*
X87571428Y-149233333D01*
X87642857Y-149233333D01*
X87690476Y-149257142D01*
X87714285Y-149280952D01*
X87738095Y-149328571D01*
X87738095Y-149519047D01*
X87476190Y-148780952D02*
X87476190Y-149019047D01*
X87714285Y-149042857D01*
X87690476Y-149019047D01*
X87666666Y-148971428D01*
X87666666Y-148852380D01*
X87690476Y-148804761D01*
X87714285Y-148780952D01*
X87761904Y-148757142D01*
X87880952Y-148757142D01*
X87928571Y-148780952D01*
X87952380Y-148804761D01*
X87976190Y-148852380D01*
X87976190Y-148971428D01*
X87952380Y-149019047D01*
X87928571Y-149042857D01*
X79526190Y-148741666D02*
X79883333Y-148741666D01*
X79954761Y-148765476D01*
X80002380Y-148813095D01*
X80026190Y-148884523D01*
X80026190Y-148932142D01*
X79526190Y-148265476D02*
X79526190Y-148503571D01*
X79764285Y-148527380D01*
X79740476Y-148503571D01*
X79716666Y-148455952D01*
X79716666Y-148336904D01*
X79740476Y-148289285D01*
X79764285Y-148265476D01*
X79811904Y-148241666D01*
X79930952Y-148241666D01*
X79978571Y-148265476D01*
X80002380Y-148289285D01*
X80026190Y-148336904D01*
X80026190Y-148455952D01*
X80002380Y-148503571D01*
X79978571Y-148527380D01*
X94826015Y-140343866D02*
X94539805Y-140293358D01*
X94623984Y-140545896D02*
X94270431Y-140192343D01*
X94405118Y-140057656D01*
X94455625Y-140040820D01*
X94489297Y-140040820D01*
X94539805Y-140057656D01*
X94590312Y-140108164D01*
X94607148Y-140158671D01*
X94607148Y-140192343D01*
X94590312Y-140242851D01*
X94455625Y-140377538D01*
X94590312Y-139872461D02*
X94809179Y-139653595D01*
X94826015Y-139906133D01*
X94876522Y-139855625D01*
X94927030Y-139838790D01*
X94960702Y-139838790D01*
X95011209Y-139855625D01*
X95095389Y-139939805D01*
X95112225Y-139990312D01*
X95112225Y-140023984D01*
X95095389Y-140074492D01*
X94994374Y-140175507D01*
X94943866Y-140192343D01*
X94910194Y-140192343D01*
X104251190Y-150380952D02*
X104655952Y-150380952D01*
X104703571Y-150357142D01*
X104727380Y-150333333D01*
X104751190Y-150285714D01*
X104751190Y-150190476D01*
X104727380Y-150142857D01*
X104703571Y-150119047D01*
X104655952Y-150095238D01*
X104251190Y-150095238D01*
X104298809Y-149880952D02*
X104275000Y-149857142D01*
X104251190Y-149809523D01*
X104251190Y-149690476D01*
X104275000Y-149642857D01*
X104298809Y-149619047D01*
X104346428Y-149595238D01*
X104394047Y-149595238D01*
X104465476Y-149619047D01*
X104751190Y-149904761D01*
X104751190Y-149595238D01*
X101103571Y-143133333D02*
X101127380Y-143157142D01*
X101151190Y-143228571D01*
X101151190Y-143276190D01*
X101127380Y-143347619D01*
X101079761Y-143395238D01*
X101032142Y-143419047D01*
X100936904Y-143442857D01*
X100865476Y-143442857D01*
X100770238Y-143419047D01*
X100722619Y-143395238D01*
X100675000Y-143347619D01*
X100651190Y-143276190D01*
X100651190Y-143228571D01*
X100675000Y-143157142D01*
X100698809Y-143133333D01*
X100865476Y-142847619D02*
X100841666Y-142895238D01*
X100817857Y-142919047D01*
X100770238Y-142942857D01*
X100746428Y-142942857D01*
X100698809Y-142919047D01*
X100675000Y-142895238D01*
X100651190Y-142847619D01*
X100651190Y-142752380D01*
X100675000Y-142704761D01*
X100698809Y-142680952D01*
X100746428Y-142657142D01*
X100770238Y-142657142D01*
X100817857Y-142680952D01*
X100841666Y-142704761D01*
X100865476Y-142752380D01*
X100865476Y-142847619D01*
X100889285Y-142895238D01*
X100913095Y-142919047D01*
X100960714Y-142942857D01*
X101055952Y-142942857D01*
X101103571Y-142919047D01*
X101127380Y-142895238D01*
X101151190Y-142847619D01*
X101151190Y-142752380D01*
X101127380Y-142704761D01*
X101103571Y-142680952D01*
X101055952Y-142657142D01*
X100960714Y-142657142D01*
X100913095Y-142680952D01*
X100889285Y-142704761D01*
X100865476Y-142752380D01*
X57302380Y-147916666D02*
X57326190Y-147845238D01*
X57326190Y-147726190D01*
X57302380Y-147678571D01*
X57278571Y-147654761D01*
X57230952Y-147630952D01*
X57183333Y-147630952D01*
X57135714Y-147654761D01*
X57111904Y-147678571D01*
X57088095Y-147726190D01*
X57064285Y-147821428D01*
X57040476Y-147869047D01*
X57016666Y-147892857D01*
X56969047Y-147916666D01*
X56921428Y-147916666D01*
X56873809Y-147892857D01*
X56850000Y-147869047D01*
X56826190Y-147821428D01*
X56826190Y-147702380D01*
X56850000Y-147630952D01*
X56826190Y-147464285D02*
X57326190Y-147345238D01*
X56969047Y-147250000D01*
X57326190Y-147154761D01*
X56826190Y-147035714D01*
X56826190Y-146892857D02*
X56826190Y-146583333D01*
X57016666Y-146750000D01*
X57016666Y-146678571D01*
X57040476Y-146630952D01*
X57064285Y-146607142D01*
X57111904Y-146583333D01*
X57230952Y-146583333D01*
X57278571Y-146607142D01*
X57302380Y-146630952D01*
X57326190Y-146678571D01*
X57326190Y-146821428D01*
X57302380Y-146869047D01*
X57278571Y-146892857D01*
X73608333Y-140752380D02*
X73679761Y-140776190D01*
X73798809Y-140776190D01*
X73846428Y-140752380D01*
X73870238Y-140728571D01*
X73894047Y-140680952D01*
X73894047Y-140633333D01*
X73870238Y-140585714D01*
X73846428Y-140561904D01*
X73798809Y-140538095D01*
X73703571Y-140514285D01*
X73655952Y-140490476D01*
X73632142Y-140466666D01*
X73608333Y-140419047D01*
X73608333Y-140371428D01*
X73632142Y-140323809D01*
X73655952Y-140300000D01*
X73703571Y-140276190D01*
X73822619Y-140276190D01*
X73894047Y-140300000D01*
X74060714Y-140276190D02*
X74179761Y-140776190D01*
X74275000Y-140419047D01*
X74370238Y-140776190D01*
X74489285Y-140276190D01*
X74894047Y-140442857D02*
X74894047Y-140776190D01*
X74775000Y-140252380D02*
X74655952Y-140609523D01*
X74965476Y-140609523D01*
X98528571Y-149683333D02*
X98552380Y-149707142D01*
X98576190Y-149778571D01*
X98576190Y-149826190D01*
X98552380Y-149897619D01*
X98504761Y-149945238D01*
X98457142Y-149969047D01*
X98361904Y-149992857D01*
X98290476Y-149992857D01*
X98195238Y-149969047D01*
X98147619Y-149945238D01*
X98100000Y-149897619D01*
X98076190Y-149826190D01*
X98076190Y-149778571D01*
X98100000Y-149707142D01*
X98123809Y-149683333D01*
X98576190Y-149207142D02*
X98576190Y-149492857D01*
X98576190Y-149350000D02*
X98076190Y-149350000D01*
X98147619Y-149397619D01*
X98195238Y-149445238D01*
X98219047Y-149492857D01*
X55991666Y-140403571D02*
X55967857Y-140427380D01*
X55896428Y-140451190D01*
X55848809Y-140451190D01*
X55777380Y-140427380D01*
X55729761Y-140379761D01*
X55705952Y-140332142D01*
X55682142Y-140236904D01*
X55682142Y-140165476D01*
X55705952Y-140070238D01*
X55729761Y-140022619D01*
X55777380Y-139975000D01*
X55848809Y-139951190D01*
X55896428Y-139951190D01*
X55967857Y-139975000D01*
X55991666Y-139998809D01*
X56182142Y-139998809D02*
X56205952Y-139975000D01*
X56253571Y-139951190D01*
X56372619Y-139951190D01*
X56420238Y-139975000D01*
X56444047Y-139998809D01*
X56467857Y-140046428D01*
X56467857Y-140094047D01*
X56444047Y-140165476D01*
X56158333Y-140451190D01*
X56467857Y-140451190D01*
X98578571Y-147483333D02*
X98602380Y-147507142D01*
X98626190Y-147578571D01*
X98626190Y-147626190D01*
X98602380Y-147697619D01*
X98554761Y-147745238D01*
X98507142Y-147769047D01*
X98411904Y-147792857D01*
X98340476Y-147792857D01*
X98245238Y-147769047D01*
X98197619Y-147745238D01*
X98150000Y-147697619D01*
X98126190Y-147626190D01*
X98126190Y-147578571D01*
X98150000Y-147507142D01*
X98173809Y-147483333D01*
X98126190Y-147316666D02*
X98126190Y-147007142D01*
X98316666Y-147173809D01*
X98316666Y-147102380D01*
X98340476Y-147054761D01*
X98364285Y-147030952D01*
X98411904Y-147007142D01*
X98530952Y-147007142D01*
X98578571Y-147030952D01*
X98602380Y-147054761D01*
X98626190Y-147102380D01*
X98626190Y-147245238D01*
X98602380Y-147292857D01*
X98578571Y-147316666D01*
X53441666Y-145553571D02*
X53417857Y-145577380D01*
X53346428Y-145601190D01*
X53298809Y-145601190D01*
X53227380Y-145577380D01*
X53179761Y-145529761D01*
X53155952Y-145482142D01*
X53132142Y-145386904D01*
X53132142Y-145315476D01*
X53155952Y-145220238D01*
X53179761Y-145172619D01*
X53227380Y-145125000D01*
X53298809Y-145101190D01*
X53346428Y-145101190D01*
X53417857Y-145125000D01*
X53441666Y-145148809D01*
X53870238Y-145267857D02*
X53870238Y-145601190D01*
X53751190Y-145077380D02*
X53632142Y-145434523D01*
X53941666Y-145434523D01*
X94691666Y-149203571D02*
X94667857Y-149227380D01*
X94596428Y-149251190D01*
X94548809Y-149251190D01*
X94477380Y-149227380D01*
X94429761Y-149179761D01*
X94405952Y-149132142D01*
X94382142Y-149036904D01*
X94382142Y-148965476D01*
X94405952Y-148870238D01*
X94429761Y-148822619D01*
X94477380Y-148775000D01*
X94548809Y-148751190D01*
X94596428Y-148751190D01*
X94667857Y-148775000D01*
X94691666Y-148798809D01*
X95120238Y-148751190D02*
X95025000Y-148751190D01*
X94977380Y-148775000D01*
X94953571Y-148798809D01*
X94905952Y-148870238D01*
X94882142Y-148965476D01*
X94882142Y-149155952D01*
X94905952Y-149203571D01*
X94929761Y-149227380D01*
X94977380Y-149251190D01*
X95072619Y-149251190D01*
X95120238Y-149227380D01*
X95144047Y-149203571D01*
X95167857Y-149155952D01*
X95167857Y-149036904D01*
X95144047Y-148989285D01*
X95120238Y-148965476D01*
X95072619Y-148941666D01*
X94977380Y-148941666D01*
X94929761Y-148965476D01*
X94905952Y-148989285D01*
X94882142Y-149036904D01*
X100191666Y-144878571D02*
X100167857Y-144902380D01*
X100096428Y-144926190D01*
X100048809Y-144926190D01*
X99977380Y-144902380D01*
X99929761Y-144854761D01*
X99905952Y-144807142D01*
X99882142Y-144711904D01*
X99882142Y-144640476D01*
X99905952Y-144545238D01*
X99929761Y-144497619D01*
X99977380Y-144450000D01*
X100048809Y-144426190D01*
X100096428Y-144426190D01*
X100167857Y-144450000D01*
X100191666Y-144473809D01*
X100429761Y-144926190D02*
X100525000Y-144926190D01*
X100572619Y-144902380D01*
X100596428Y-144878571D01*
X100644047Y-144807142D01*
X100667857Y-144711904D01*
X100667857Y-144521428D01*
X100644047Y-144473809D01*
X100620238Y-144450000D01*
X100572619Y-144426190D01*
X100477380Y-144426190D01*
X100429761Y-144450000D01*
X100405952Y-144473809D01*
X100382142Y-144521428D01*
X100382142Y-144640476D01*
X100405952Y-144688095D01*
X100429761Y-144711904D01*
X100477380Y-144735714D01*
X100572619Y-144735714D01*
X100620238Y-144711904D01*
X100644047Y-144688095D01*
X100667857Y-144640476D01*
X54478571Y-146603571D02*
X54454761Y-146627380D01*
X54383333Y-146651190D01*
X54335714Y-146651190D01*
X54264285Y-146627380D01*
X54216666Y-146579761D01*
X54192857Y-146532142D01*
X54169047Y-146436904D01*
X54169047Y-146365476D01*
X54192857Y-146270238D01*
X54216666Y-146222619D01*
X54264285Y-146175000D01*
X54335714Y-146151190D01*
X54383333Y-146151190D01*
X54454761Y-146175000D01*
X54478571Y-146198809D01*
X54954761Y-146651190D02*
X54669047Y-146651190D01*
X54811904Y-146651190D02*
X54811904Y-146151190D01*
X54764285Y-146222619D01*
X54716666Y-146270238D01*
X54669047Y-146294047D01*
X55192857Y-146651190D02*
X55288095Y-146651190D01*
X55335714Y-146627380D01*
X55359523Y-146603571D01*
X55407142Y-146532142D01*
X55430952Y-146436904D01*
X55430952Y-146246428D01*
X55407142Y-146198809D01*
X55383333Y-146175000D01*
X55335714Y-146151190D01*
X55240476Y-146151190D01*
X55192857Y-146175000D01*
X55169047Y-146198809D01*
X55145238Y-146246428D01*
X55145238Y-146365476D01*
X55169047Y-146413095D01*
X55192857Y-146436904D01*
X55240476Y-146460714D01*
X55335714Y-146460714D01*
X55383333Y-146436904D01*
X55407142Y-146413095D01*
X55430952Y-146365476D01*
X88951190Y-147719047D02*
X88451190Y-147719047D01*
X88451190Y-147600000D01*
X88475000Y-147528571D01*
X88522619Y-147480952D01*
X88570238Y-147457142D01*
X88665476Y-147433333D01*
X88736904Y-147433333D01*
X88832142Y-147457142D01*
X88879761Y-147480952D01*
X88927380Y-147528571D01*
X88951190Y-147600000D01*
X88951190Y-147719047D01*
X88498809Y-147242857D02*
X88475000Y-147219047D01*
X88451190Y-147171428D01*
X88451190Y-147052380D01*
X88475000Y-147004761D01*
X88498809Y-146980952D01*
X88546428Y-146957142D01*
X88594047Y-146957142D01*
X88665476Y-146980952D01*
X88951190Y-147266666D01*
X88951190Y-146957142D01*
X90156190Y-147709047D02*
X89656190Y-147709047D01*
X89656190Y-147590000D01*
X89680000Y-147518571D01*
X89727619Y-147470952D01*
X89775238Y-147447142D01*
X89870476Y-147423333D01*
X89941904Y-147423333D01*
X90037142Y-147447142D01*
X90084761Y-147470952D01*
X90132380Y-147518571D01*
X90156190Y-147590000D01*
X90156190Y-147709047D01*
X89656190Y-147256666D02*
X89656190Y-146947142D01*
X89846666Y-147113809D01*
X89846666Y-147042380D01*
X89870476Y-146994761D01*
X89894285Y-146970952D01*
X89941904Y-146947142D01*
X90060952Y-146947142D01*
X90108571Y-146970952D01*
X90132380Y-146994761D01*
X90156190Y-147042380D01*
X90156190Y-147185238D01*
X90132380Y-147232857D01*
X90108571Y-147256666D01*
X87475761Y-139288536D02*
X87223223Y-139541074D01*
X87155879Y-139574746D01*
X87088536Y-139574746D01*
X87021192Y-139541074D01*
X86987521Y-139507402D01*
X87610448Y-139423223D02*
X87829314Y-139642089D01*
X87576776Y-139658925D01*
X87627284Y-139709433D01*
X87644120Y-139759940D01*
X87644120Y-139793612D01*
X87627284Y-139844120D01*
X87543104Y-139928299D01*
X87492597Y-139945135D01*
X87458925Y-139945135D01*
X87408417Y-139928299D01*
X87307402Y-139827284D01*
X87290566Y-139776776D01*
X87290566Y-139743104D01*
X58833333Y-142426190D02*
X58833333Y-142783333D01*
X58809523Y-142854761D01*
X58761904Y-142902380D01*
X58690476Y-142926190D01*
X58642857Y-142926190D01*
X59285714Y-142592857D02*
X59285714Y-142926190D01*
X59166666Y-142402380D02*
X59047619Y-142759523D01*
X59357142Y-142759523D01*
X61416666Y-145476190D02*
X61250000Y-145238095D01*
X61130952Y-145476190D02*
X61130952Y-144976190D01*
X61321428Y-144976190D01*
X61369047Y-145000000D01*
X61392857Y-145023809D01*
X61416666Y-145071428D01*
X61416666Y-145142857D01*
X61392857Y-145190476D01*
X61369047Y-145214285D01*
X61321428Y-145238095D01*
X61130952Y-145238095D01*
X61892857Y-145476190D02*
X61607142Y-145476190D01*
X61750000Y-145476190D02*
X61750000Y-144976190D01*
X61702380Y-145047619D01*
X61654761Y-145095238D01*
X61607142Y-145119047D01*
X62916666Y-145476190D02*
X62750000Y-145238095D01*
X62630952Y-145476190D02*
X62630952Y-144976190D01*
X62821428Y-144976190D01*
X62869047Y-145000000D01*
X62892857Y-145023809D01*
X62916666Y-145071428D01*
X62916666Y-145142857D01*
X62892857Y-145190476D01*
X62869047Y-145214285D01*
X62821428Y-145238095D01*
X62630952Y-145238095D01*
X63107142Y-145023809D02*
X63130952Y-145000000D01*
X63178571Y-144976190D01*
X63297619Y-144976190D01*
X63345238Y-145000000D01*
X63369047Y-145023809D01*
X63392857Y-145071428D01*
X63392857Y-145119047D01*
X63369047Y-145190476D01*
X63083333Y-145476190D01*
X63392857Y-145476190D01*
X103491666Y-143501190D02*
X103325000Y-143263095D01*
X103205952Y-143501190D02*
X103205952Y-143001190D01*
X103396428Y-143001190D01*
X103444047Y-143025000D01*
X103467857Y-143048809D01*
X103491666Y-143096428D01*
X103491666Y-143167857D01*
X103467857Y-143215476D01*
X103444047Y-143239285D01*
X103396428Y-143263095D01*
X103205952Y-143263095D01*
X103777380Y-143215476D02*
X103729761Y-143191666D01*
X103705952Y-143167857D01*
X103682142Y-143120238D01*
X103682142Y-143096428D01*
X103705952Y-143048809D01*
X103729761Y-143025000D01*
X103777380Y-143001190D01*
X103872619Y-143001190D01*
X103920238Y-143025000D01*
X103944047Y-143048809D01*
X103967857Y-143096428D01*
X103967857Y-143120238D01*
X103944047Y-143167857D01*
X103920238Y-143191666D01*
X103872619Y-143215476D01*
X103777380Y-143215476D01*
X103729761Y-143239285D01*
X103705952Y-143263095D01*
X103682142Y-143310714D01*
X103682142Y-143405952D01*
X103705952Y-143453571D01*
X103729761Y-143477380D01*
X103777380Y-143501190D01*
X103872619Y-143501190D01*
X103920238Y-143477380D01*
X103944047Y-143453571D01*
X103967857Y-143405952D01*
X103967857Y-143310714D01*
X103944047Y-143263095D01*
X103920238Y-143239285D01*
X103872619Y-143215476D01*
X104726190Y-147258333D02*
X104488095Y-147425000D01*
X104726190Y-147544047D02*
X104226190Y-147544047D01*
X104226190Y-147353571D01*
X104250000Y-147305952D01*
X104273809Y-147282142D01*
X104321428Y-147258333D01*
X104392857Y-147258333D01*
X104440476Y-147282142D01*
X104464285Y-147305952D01*
X104488095Y-147353571D01*
X104488095Y-147544047D01*
X104726190Y-147020238D02*
X104726190Y-146925000D01*
X104702380Y-146877380D01*
X104678571Y-146853571D01*
X104607142Y-146805952D01*
X104511904Y-146782142D01*
X104321428Y-146782142D01*
X104273809Y-146805952D01*
X104250000Y-146829761D01*
X104226190Y-146877380D01*
X104226190Y-146972619D01*
X104250000Y-147020238D01*
X104273809Y-147044047D01*
X104321428Y-147067857D01*
X104440476Y-147067857D01*
X104488095Y-147044047D01*
X104511904Y-147020238D01*
X104535714Y-146972619D01*
X104535714Y-146877380D01*
X104511904Y-146829761D01*
X104488095Y-146805952D01*
X104440476Y-146782142D01*
X50951190Y-147671428D02*
X50713095Y-147838095D01*
X50951190Y-147957142D02*
X50451190Y-147957142D01*
X50451190Y-147766666D01*
X50475000Y-147719047D01*
X50498809Y-147695238D01*
X50546428Y-147671428D01*
X50617857Y-147671428D01*
X50665476Y-147695238D01*
X50689285Y-147719047D01*
X50713095Y-147766666D01*
X50713095Y-147957142D01*
X50951190Y-147195238D02*
X50951190Y-147480952D01*
X50951190Y-147338095D02*
X50451190Y-147338095D01*
X50522619Y-147385714D01*
X50570238Y-147433333D01*
X50594047Y-147480952D01*
X50451190Y-146885714D02*
X50451190Y-146838095D01*
X50475000Y-146790476D01*
X50498809Y-146766666D01*
X50546428Y-146742857D01*
X50641666Y-146719047D01*
X50760714Y-146719047D01*
X50855952Y-146742857D01*
X50903571Y-146766666D01*
X50927380Y-146790476D01*
X50951190Y-146838095D01*
X50951190Y-146885714D01*
X50927380Y-146933333D01*
X50903571Y-146957142D01*
X50855952Y-146980952D01*
X50760714Y-147004761D01*
X50641666Y-147004761D01*
X50546428Y-146980952D01*
X50498809Y-146957142D01*
X50475000Y-146933333D01*
X50451190Y-146885714D01*
X67926190Y-144221428D02*
X67688095Y-144388095D01*
X67926190Y-144507142D02*
X67426190Y-144507142D01*
X67426190Y-144316666D01*
X67450000Y-144269047D01*
X67473809Y-144245238D01*
X67521428Y-144221428D01*
X67592857Y-144221428D01*
X67640476Y-144245238D01*
X67664285Y-144269047D01*
X67688095Y-144316666D01*
X67688095Y-144507142D01*
X67926190Y-143745238D02*
X67926190Y-144030952D01*
X67926190Y-143888095D02*
X67426190Y-143888095D01*
X67497619Y-143935714D01*
X67545238Y-143983333D01*
X67569047Y-144030952D01*
X67426190Y-143578571D02*
X67426190Y-143269047D01*
X67616666Y-143435714D01*
X67616666Y-143364285D01*
X67640476Y-143316666D01*
X67664285Y-143292857D01*
X67711904Y-143269047D01*
X67830952Y-143269047D01*
X67878571Y-143292857D01*
X67902380Y-143316666D01*
X67926190Y-143364285D01*
X67926190Y-143507142D01*
X67902380Y-143554761D01*
X67878571Y-143578571D01*
X67901190Y-146046428D02*
X67663095Y-146213095D01*
X67901190Y-146332142D02*
X67401190Y-146332142D01*
X67401190Y-146141666D01*
X67425000Y-146094047D01*
X67448809Y-146070238D01*
X67496428Y-146046428D01*
X67567857Y-146046428D01*
X67615476Y-146070238D01*
X67639285Y-146094047D01*
X67663095Y-146141666D01*
X67663095Y-146332142D01*
X67901190Y-145570238D02*
X67901190Y-145855952D01*
X67901190Y-145713095D02*
X67401190Y-145713095D01*
X67472619Y-145760714D01*
X67520238Y-145808333D01*
X67544047Y-145855952D01*
X67567857Y-145141666D02*
X67901190Y-145141666D01*
X67377380Y-145260714D02*
X67734523Y-145379761D01*
X67734523Y-145070238D01*
X80678571Y-140126190D02*
X80511904Y-139888095D01*
X80392857Y-140126190D02*
X80392857Y-139626190D01*
X80583333Y-139626190D01*
X80630952Y-139650000D01*
X80654761Y-139673809D01*
X80678571Y-139721428D01*
X80678571Y-139792857D01*
X80654761Y-139840476D01*
X80630952Y-139864285D01*
X80583333Y-139888095D01*
X80392857Y-139888095D01*
X81154761Y-140126190D02*
X80869047Y-140126190D01*
X81011904Y-140126190D02*
X81011904Y-139626190D01*
X80964285Y-139697619D01*
X80916666Y-139745238D01*
X80869047Y-139769047D01*
X81607142Y-139626190D02*
X81369047Y-139626190D01*
X81345238Y-139864285D01*
X81369047Y-139840476D01*
X81416666Y-139816666D01*
X81535714Y-139816666D01*
X81583333Y-139840476D01*
X81607142Y-139864285D01*
X81630952Y-139911904D01*
X81630952Y-140030952D01*
X81607142Y-140078571D01*
X81583333Y-140102380D01*
X81535714Y-140126190D01*
X81416666Y-140126190D01*
X81369047Y-140102380D01*
X81345238Y-140078571D01*
X51333333Y-149451190D02*
X51333333Y-149808333D01*
X51309523Y-149879761D01*
X51261904Y-149927380D01*
X51190476Y-149951190D01*
X51142857Y-149951190D01*
X51571428Y-149951190D02*
X51571428Y-149451190D01*
X51761904Y-149451190D01*
X51809523Y-149475000D01*
X51833333Y-149498809D01*
X51857142Y-149546428D01*
X51857142Y-149617857D01*
X51833333Y-149665476D01*
X51809523Y-149689285D01*
X51761904Y-149713095D01*
X51571428Y-149713095D01*
X52047619Y-149498809D02*
X52071428Y-149475000D01*
X52119047Y-149451190D01*
X52238095Y-149451190D01*
X52285714Y-149475000D01*
X52309523Y-149498809D01*
X52333333Y-149546428D01*
X52333333Y-149594047D01*
X52309523Y-149665476D01*
X52023809Y-149951190D01*
X52333333Y-149951190D01*
X56876190Y-143421428D02*
X56638095Y-143588095D01*
X56876190Y-143707142D02*
X56376190Y-143707142D01*
X56376190Y-143516666D01*
X56400000Y-143469047D01*
X56423809Y-143445238D01*
X56471428Y-143421428D01*
X56542857Y-143421428D01*
X56590476Y-143445238D01*
X56614285Y-143469047D01*
X56638095Y-143516666D01*
X56638095Y-143707142D01*
X56876190Y-142945238D02*
X56876190Y-143230952D01*
X56876190Y-143088095D02*
X56376190Y-143088095D01*
X56447619Y-143135714D01*
X56495238Y-143183333D01*
X56519047Y-143230952D01*
X56376190Y-142516666D02*
X56376190Y-142611904D01*
X56400000Y-142659523D01*
X56423809Y-142683333D01*
X56495238Y-142730952D01*
X56590476Y-142754761D01*
X56780952Y-142754761D01*
X56828571Y-142730952D01*
X56852380Y-142707142D01*
X56876190Y-142659523D01*
X56876190Y-142564285D01*
X56852380Y-142516666D01*
X56828571Y-142492857D01*
X56780952Y-142469047D01*
X56661904Y-142469047D01*
X56614285Y-142492857D01*
X56590476Y-142516666D01*
X56566666Y-142564285D01*
X56566666Y-142659523D01*
X56590476Y-142707142D01*
X56614285Y-142730952D01*
X56661904Y-142754761D01*
M02*
