G04 #@! TF.GenerationSoftware,KiCad,Pcbnew,(2016-12-18 revision 3ffa37c)-master*
G04 #@! TF.CreationDate,2017-03-26T15:10:27-07:00*
G04 #@! TF.ProjectId,Pensel,50656E73656C2E6B696361645F706362,rev?*
G04 #@! TF.FileFunction,Soldermask,Top*
G04 #@! TF.FilePolarity,Negative*
%FSLAX46Y46*%
G04 Gerber Fmt 4.6, Leading zero omitted, Abs format (unit mm)*
G04 Created by KiCad (PCBNEW (2016-12-18 revision 3ffa37c)-master) date Sunday, March 26, 2017 'PMt' 03:10:27 PM*
%MOMM*%
%LPD*%
G01*
G04 APERTURE LIST*
%ADD10C,0.100000*%
%ADD11C,0.350000*%
%ADD12C,2.540000*%
%ADD13R,1.750000X0.800000*%
%ADD14R,1.800000X2.000000*%
%ADD15R,2.300000X2.300000*%
%ADD16O,2.400000X1.520000*%
%ADD17R,0.800000X1.000000*%
%ADD18C,0.650000*%
%ADD19C,2.125000*%
%ADD20O,0.700000X1.150000*%
%ADD21O,1.150000X0.700000*%
%ADD22C,1.750000*%
%ADD23R,1.750000X1.750000*%
%ADD24C,0.800000*%
%ADD25R,0.900000X1.000000*%
%ADD26C,2.500000*%
%ADD27C,2.150000*%
%ADD28R,1.100000X1.400000*%
%ADD29C,1.300000*%
%ADD30R,1.000000X0.900000*%
%ADD31R,1.000000X0.800000*%
%ADD32C,1.450000*%
G04 APERTURE END LIST*
D10*
D11*
X58475000Y-142275000D03*
X58475000Y-141150000D03*
X58475000Y-141925000D03*
X58825000Y-141925000D03*
X58825000Y-140800000D03*
X58825000Y-141575000D03*
X58825000Y-142275000D03*
X58475000Y-141575000D03*
X58825000Y-141150000D03*
X58475000Y-140800000D03*
X58475000Y-140450000D03*
X58825000Y-140450000D03*
X65425000Y-143675000D03*
X65775000Y-143325000D03*
X66125000Y-143325000D03*
X64650000Y-143325000D03*
X64650000Y-143675000D03*
X65775000Y-143675000D03*
X64300000Y-143325000D03*
X64300000Y-143675000D03*
X65000000Y-143675000D03*
X65000000Y-143325000D03*
X65425000Y-143325000D03*
X66125000Y-143675000D03*
X67975000Y-140050000D03*
X67975000Y-140400000D03*
X67625000Y-140050000D03*
X67625000Y-140400000D03*
X68325000Y-140400000D03*
X68325000Y-140050000D03*
X66850000Y-140050000D03*
X66850000Y-140400000D03*
X67200000Y-140400000D03*
X67200000Y-140050000D03*
X66500000Y-140400000D03*
X66500000Y-140050000D03*
X73825000Y-142800000D03*
X73125000Y-142100000D03*
X73475000Y-143150000D03*
X73825000Y-143150000D03*
X73475000Y-142100000D03*
X73825000Y-142100000D03*
X73125000Y-143150000D03*
X73825000Y-143500000D03*
X73125000Y-143500000D03*
X73475000Y-143500000D03*
X73825000Y-142450000D03*
X73125000Y-142800000D03*
X73475000Y-142800000D03*
X73125000Y-142450000D03*
X73475000Y-142450000D03*
X91800000Y-143850000D03*
X98900000Y-143800000D03*
X98200000Y-143800000D03*
X98900000Y-143450000D03*
X99675000Y-143450000D03*
X98200000Y-143450000D03*
X98900000Y-143100000D03*
X99675000Y-143100000D03*
X98200000Y-143100000D03*
X98900000Y-142750000D03*
X99675000Y-142750000D03*
X98200000Y-142750000D03*
X98900000Y-142400000D03*
X99675000Y-142400000D03*
X98200000Y-142400000D03*
X98900000Y-142050000D03*
X99675000Y-142050000D03*
X98200000Y-142050000D03*
X98900000Y-141700000D03*
X99675000Y-141700000D03*
X98200000Y-141700000D03*
X98900000Y-141350000D03*
X99675000Y-141350000D03*
X98200000Y-141350000D03*
X98900000Y-141000000D03*
X99675000Y-141000000D03*
X98200000Y-141000000D03*
X98900000Y-140650000D03*
X99675000Y-140650000D03*
X98200000Y-140650000D03*
X81450000Y-142150000D03*
X81800000Y-142150000D03*
X82150000Y-142150000D03*
X82500000Y-142150000D03*
X82850000Y-142150000D03*
X81450000Y-141800000D03*
X81800000Y-141800000D03*
X82150000Y-141800000D03*
X82500000Y-141800000D03*
X82850000Y-141800000D03*
X81450000Y-141450000D03*
X81800000Y-141450000D03*
X82150000Y-141450000D03*
X82500000Y-141450000D03*
X82850000Y-141450000D03*
X81450000Y-141100000D03*
X81800000Y-141100000D03*
X82150000Y-141100000D03*
X82500000Y-141100000D03*
X82850000Y-141100000D03*
X81450000Y-140750000D03*
X81800000Y-140750000D03*
X82150000Y-140750000D03*
X82500000Y-140750000D03*
X53625000Y-145500000D03*
X54025000Y-145500000D03*
X54025000Y-145100000D03*
X54425000Y-145100000D03*
X54425000Y-145500000D03*
X63475000Y-145750000D03*
X63975000Y-145750000D03*
X63975000Y-146175000D03*
X63475000Y-146175000D03*
X62975000Y-146175000D03*
X101125000Y-139750000D03*
X101125000Y-140225000D03*
X100750000Y-140225000D03*
X101500000Y-140225000D03*
X102025000Y-141525000D03*
X94400000Y-143300000D03*
X104400000Y-141825000D03*
X104400000Y-142275000D03*
X104400000Y-142750000D03*
X107025000Y-149475000D03*
X107575000Y-149475000D03*
X108100000Y-149475000D03*
X108650000Y-149475000D03*
X109225000Y-149475000D03*
X109225000Y-149925000D03*
X109225000Y-150400000D03*
D12*
X103375000Y-139925000D03*
D13*
X105825000Y-143700000D03*
X105825000Y-144350000D03*
X105825000Y-146300000D03*
X105825000Y-145650000D03*
D14*
X106050000Y-148200000D03*
D15*
X108500000Y-146200000D03*
D16*
X108300000Y-148255000D03*
X108300000Y-141745000D03*
D15*
X108500000Y-143800000D03*
D14*
X106050000Y-141800000D03*
D13*
X105825000Y-145000000D03*
D11*
X94675000Y-143575000D03*
X82850000Y-140750000D03*
X94975000Y-143875000D03*
D17*
X90800000Y-150300000D03*
X89900000Y-150300000D03*
D18*
X92940381Y-141365507D03*
D10*
G36*
X92321663Y-141206408D02*
X92781282Y-140746789D01*
X93559099Y-141524606D01*
X93099480Y-141984225D01*
X92321663Y-141206408D01*
X92321663Y-141206408D01*
G37*
D18*
X92586827Y-141719060D03*
D10*
G36*
X91968109Y-141559961D02*
X92427728Y-141100342D01*
X93205545Y-141878159D01*
X92745926Y-142337778D01*
X91968109Y-141559961D01*
X91968109Y-141559961D01*
G37*
D18*
X92233274Y-142072614D03*
D10*
G36*
X91614556Y-141913515D02*
X92074175Y-141453896D01*
X92851992Y-142231713D01*
X92392373Y-142691332D01*
X91614556Y-141913515D01*
X91614556Y-141913515D01*
G37*
D18*
X91879720Y-142426167D03*
D10*
G36*
X91261002Y-142267068D02*
X91720621Y-141807449D01*
X92498438Y-142585266D01*
X92038819Y-143044885D01*
X91261002Y-142267068D01*
X91261002Y-142267068D01*
G37*
D18*
X91526167Y-142779720D03*
D10*
G36*
X90907449Y-142620621D02*
X91367068Y-142161002D01*
X92144885Y-142938819D01*
X91685266Y-143398438D01*
X90907449Y-142620621D01*
X90907449Y-142620621D01*
G37*
D18*
X91172614Y-143133274D03*
D10*
G36*
X90553896Y-142974175D02*
X91013515Y-142514556D01*
X91791332Y-143292373D01*
X91331713Y-143751992D01*
X90553896Y-142974175D01*
X90553896Y-142974175D01*
G37*
D18*
X90819060Y-143486827D03*
D10*
G36*
X90200342Y-143327728D02*
X90659961Y-142868109D01*
X91437778Y-143645926D01*
X90978159Y-144105545D01*
X90200342Y-143327728D01*
X90200342Y-143327728D01*
G37*
D18*
X90465507Y-143840381D03*
D10*
G36*
X89846789Y-143681282D02*
X90306408Y-143221663D01*
X91084225Y-143999480D01*
X90624606Y-144459099D01*
X89846789Y-143681282D01*
X89846789Y-143681282D01*
G37*
D18*
X90465507Y-144759619D03*
D10*
G36*
X90306408Y-145378337D02*
X89846789Y-144918718D01*
X90624606Y-144140901D01*
X91084225Y-144600520D01*
X90306408Y-145378337D01*
X90306408Y-145378337D01*
G37*
D18*
X90819060Y-145113173D03*
D10*
G36*
X90659961Y-145731891D02*
X90200342Y-145272272D01*
X90978159Y-144494455D01*
X91437778Y-144954074D01*
X90659961Y-145731891D01*
X90659961Y-145731891D01*
G37*
D18*
X91172614Y-145466726D03*
D10*
G36*
X91013515Y-146085444D02*
X90553896Y-145625825D01*
X91331713Y-144848008D01*
X91791332Y-145307627D01*
X91013515Y-146085444D01*
X91013515Y-146085444D01*
G37*
D18*
X91526167Y-145820280D03*
D10*
G36*
X91367068Y-146438998D02*
X90907449Y-145979379D01*
X91685266Y-145201562D01*
X92144885Y-145661181D01*
X91367068Y-146438998D01*
X91367068Y-146438998D01*
G37*
D18*
X91879720Y-146173833D03*
D10*
G36*
X91720621Y-146792551D02*
X91261002Y-146332932D01*
X92038819Y-145555115D01*
X92498438Y-146014734D01*
X91720621Y-146792551D01*
X91720621Y-146792551D01*
G37*
D18*
X92233274Y-146527386D03*
D10*
G36*
X92074175Y-147146104D02*
X91614556Y-146686485D01*
X92392373Y-145908668D01*
X92851992Y-146368287D01*
X92074175Y-147146104D01*
X92074175Y-147146104D01*
G37*
D18*
X92586827Y-146880940D03*
D10*
G36*
X92427728Y-147499658D02*
X91968109Y-147040039D01*
X92745926Y-146262222D01*
X93205545Y-146721841D01*
X92427728Y-147499658D01*
X92427728Y-147499658D01*
G37*
D18*
X92940381Y-147234493D03*
D10*
G36*
X92781282Y-147853211D02*
X92321663Y-147393592D01*
X93099480Y-146615775D01*
X93559099Y-147075394D01*
X92781282Y-147853211D01*
X92781282Y-147853211D01*
G37*
D18*
X93859619Y-147234493D03*
D10*
G36*
X93240901Y-147075394D02*
X93700520Y-146615775D01*
X94478337Y-147393592D01*
X94018718Y-147853211D01*
X93240901Y-147075394D01*
X93240901Y-147075394D01*
G37*
D18*
X94213173Y-146880940D03*
D10*
G36*
X93594455Y-146721841D02*
X94054074Y-146262222D01*
X94831891Y-147040039D01*
X94372272Y-147499658D01*
X93594455Y-146721841D01*
X93594455Y-146721841D01*
G37*
D18*
X94566726Y-146527386D03*
D10*
G36*
X93948008Y-146368287D02*
X94407627Y-145908668D01*
X95185444Y-146686485D01*
X94725825Y-147146104D01*
X93948008Y-146368287D01*
X93948008Y-146368287D01*
G37*
D18*
X94920280Y-146173833D03*
D10*
G36*
X94301562Y-146014734D02*
X94761181Y-145555115D01*
X95538998Y-146332932D01*
X95079379Y-146792551D01*
X94301562Y-146014734D01*
X94301562Y-146014734D01*
G37*
D18*
X95273833Y-145820280D03*
D10*
G36*
X94655115Y-145661181D02*
X95114734Y-145201562D01*
X95892551Y-145979379D01*
X95432932Y-146438998D01*
X94655115Y-145661181D01*
X94655115Y-145661181D01*
G37*
D18*
X95627386Y-145466726D03*
D10*
G36*
X95008668Y-145307627D02*
X95468287Y-144848008D01*
X96246104Y-145625825D01*
X95786485Y-146085444D01*
X95008668Y-145307627D01*
X95008668Y-145307627D01*
G37*
D18*
X95980940Y-145113173D03*
D10*
G36*
X95362222Y-144954074D02*
X95821841Y-144494455D01*
X96599658Y-145272272D01*
X96140039Y-145731891D01*
X95362222Y-144954074D01*
X95362222Y-144954074D01*
G37*
D18*
X96334493Y-144759619D03*
D10*
G36*
X95715775Y-144600520D02*
X96175394Y-144140901D01*
X96953211Y-144918718D01*
X96493592Y-145378337D01*
X95715775Y-144600520D01*
X95715775Y-144600520D01*
G37*
D18*
X96334493Y-143840381D03*
D10*
G36*
X96175394Y-144459099D02*
X95715775Y-143999480D01*
X96493592Y-143221663D01*
X96953211Y-143681282D01*
X96175394Y-144459099D01*
X96175394Y-144459099D01*
G37*
D18*
X95980940Y-143486827D03*
D10*
G36*
X95821841Y-144105545D02*
X95362222Y-143645926D01*
X96140039Y-142868109D01*
X96599658Y-143327728D01*
X95821841Y-144105545D01*
X95821841Y-144105545D01*
G37*
D18*
X95627386Y-143133274D03*
D10*
G36*
X95468287Y-143751992D02*
X95008668Y-143292373D01*
X95786485Y-142514556D01*
X96246104Y-142974175D01*
X95468287Y-143751992D01*
X95468287Y-143751992D01*
G37*
D18*
X95273833Y-142779720D03*
D10*
G36*
X95114734Y-143398438D02*
X94655115Y-142938819D01*
X95432932Y-142161002D01*
X95892551Y-142620621D01*
X95114734Y-143398438D01*
X95114734Y-143398438D01*
G37*
D18*
X94920280Y-142426167D03*
D10*
G36*
X94761181Y-143044885D02*
X94301562Y-142585266D01*
X95079379Y-141807449D01*
X95538998Y-142267068D01*
X94761181Y-143044885D01*
X94761181Y-143044885D01*
G37*
D18*
X94566726Y-142072614D03*
D10*
G36*
X94407627Y-142691332D02*
X93948008Y-142231713D01*
X94725825Y-141453896D01*
X95185444Y-141913515D01*
X94407627Y-142691332D01*
X94407627Y-142691332D01*
G37*
D18*
X94213173Y-141719060D03*
D10*
G36*
X94054074Y-142337778D02*
X93594455Y-141878159D01*
X94372272Y-141100342D01*
X94831891Y-141559961D01*
X94054074Y-142337778D01*
X94054074Y-142337778D01*
G37*
D18*
X93859619Y-141365507D03*
D10*
G36*
X93700520Y-141984225D02*
X93240901Y-141524606D01*
X94018718Y-140746789D01*
X94478337Y-141206408D01*
X93700520Y-141984225D01*
X93700520Y-141984225D01*
G37*
D19*
X93400000Y-145519759D03*
D10*
G36*
X91897398Y-145519759D02*
X93400000Y-144017157D01*
X94902602Y-145519759D01*
X93400000Y-147022361D01*
X91897398Y-145519759D01*
X91897398Y-145519759D01*
G37*
D19*
X94619759Y-144300000D03*
D10*
G36*
X93117157Y-144300000D02*
X94619759Y-142797398D01*
X96122361Y-144300000D01*
X94619759Y-145802602D01*
X93117157Y-144300000D01*
X93117157Y-144300000D01*
G37*
D19*
X92180241Y-144300000D03*
D10*
G36*
X90677639Y-144300000D02*
X92180241Y-142797398D01*
X93682843Y-144300000D01*
X92180241Y-145802602D01*
X90677639Y-144300000D01*
X90677639Y-144300000D01*
G37*
D19*
X93400000Y-143080241D03*
D10*
G36*
X91897398Y-143080241D02*
X93400000Y-141577639D01*
X94902602Y-143080241D01*
X93400000Y-144582843D01*
X91897398Y-143080241D01*
X91897398Y-143080241D01*
G37*
D12*
X54500000Y-149500000D03*
D11*
X104400000Y-141375000D03*
D20*
X52225000Y-141325000D03*
X52725000Y-141325000D03*
X53225000Y-141325000D03*
D21*
X54225000Y-141800000D03*
X54200000Y-142300000D03*
X54200000Y-142800000D03*
X54200000Y-143300000D03*
X54200000Y-143800000D03*
D20*
X53225000Y-144275000D03*
X52725000Y-144275000D03*
X52225000Y-144275000D03*
D21*
X51225000Y-143800000D03*
X51250000Y-143300000D03*
X51250000Y-142800000D03*
X51250000Y-142300000D03*
X51250000Y-141800000D03*
D17*
X88850000Y-150300000D03*
X87950000Y-150300000D03*
D11*
X101500000Y-139750000D03*
X100750000Y-139750000D03*
D22*
X85200000Y-149400000D03*
X83200000Y-149400000D03*
D23*
X81200000Y-149400000D03*
D11*
X81300000Y-143800000D03*
X80500000Y-143000000D03*
X80500000Y-143800000D03*
X92575000Y-143800000D03*
X92600000Y-143250000D03*
X92175000Y-143475000D03*
D24*
X95843198Y-141543198D03*
D10*
G36*
X95206802Y-141613909D02*
X95913909Y-140906802D01*
X96479594Y-141472487D01*
X95772487Y-142179594D01*
X95206802Y-141613909D01*
X95206802Y-141613909D01*
G37*
D24*
X95206802Y-140906802D03*
D10*
G36*
X94570406Y-140977513D02*
X95277513Y-140270406D01*
X95843198Y-140836091D01*
X95136091Y-141543198D01*
X94570406Y-140977513D01*
X94570406Y-140977513D01*
G37*
D21*
X100575000Y-147400000D03*
X100575000Y-147900000D03*
X100575000Y-148400000D03*
X100575000Y-148900000D03*
X100550000Y-149400000D03*
D20*
X101550000Y-149875000D03*
X102050000Y-149875000D03*
X102550000Y-149875000D03*
D21*
X103525000Y-149400000D03*
X103525000Y-148900000D03*
X103525000Y-148400000D03*
X103525000Y-147900000D03*
X103550000Y-147400000D03*
D20*
X102550000Y-146925000D03*
X102050000Y-146925000D03*
X101550000Y-146925000D03*
D25*
X101820000Y-143060000D03*
X101820000Y-144160000D03*
D11*
X102025000Y-141000000D03*
X102025000Y-142025000D03*
D26*
X58940000Y-146960000D03*
D27*
X60200000Y-149450000D03*
X64700000Y-149450000D03*
D26*
X65950000Y-146960000D03*
D28*
X72200000Y-146200000D03*
X70200000Y-141200000D03*
X76200000Y-146200000D03*
X78200000Y-141200000D03*
D29*
X79200000Y-143700000D03*
X71200000Y-143700000D03*
D25*
X99300000Y-149850000D03*
X99300000Y-148750000D03*
D30*
X56750000Y-141200000D03*
X55650000Y-141200000D03*
D25*
X99300000Y-146450000D03*
X99300000Y-147550000D03*
D30*
X51250000Y-145900000D03*
X52350000Y-145900000D03*
X93750000Y-149000000D03*
X92650000Y-149000000D03*
X101825000Y-145600000D03*
X100725000Y-145600000D03*
X53650000Y-147400000D03*
X54750000Y-147400000D03*
D31*
X88700000Y-148250000D03*
X88700000Y-149150000D03*
X90000000Y-149150000D03*
X90000000Y-148250000D03*
D32*
X86396051Y-140703949D03*
D10*
G36*
X85370746Y-140703949D02*
X86396051Y-139678644D01*
X87421356Y-140703949D01*
X86396051Y-141729254D01*
X85370746Y-140703949D01*
X85370746Y-140703949D01*
G37*
D32*
X85498025Y-141601975D03*
X84600000Y-142500000D03*
X83701974Y-143398026D03*
X82803949Y-144296051D03*
X86396051Y-142500000D03*
X85498025Y-143398026D03*
X84600000Y-144296051D03*
X83701974Y-145194077D03*
X87294077Y-141601975D03*
D23*
X61000000Y-141400000D03*
D22*
X63000000Y-141400000D03*
X65000000Y-141400000D03*
D31*
X61500000Y-143550000D03*
X61500000Y-144450000D03*
X63000000Y-144450000D03*
X63000000Y-143550000D03*
D17*
X103240000Y-144270000D03*
X104140000Y-144270000D03*
X104140000Y-145590000D03*
X103240000Y-145590000D03*
X52550000Y-147400000D03*
X51650000Y-147400000D03*
D31*
X67400000Y-142300000D03*
X67400000Y-141400000D03*
D17*
X68750000Y-147000000D03*
X67850000Y-147000000D03*
X78850000Y-139900000D03*
X79750000Y-139900000D03*
X52500000Y-148700000D03*
X51600000Y-148700000D03*
D31*
X55650000Y-142300000D03*
X55650000Y-143200000D03*
M02*
